<?xml version="1.0" standalone="no"?>
<!DOCTYPE svg PUBLIC "-//W3C//DTD SVG 1.1//EN" "http://www.w3.org/Graphics/SVG/1.1/DTD/svg11.dtd" >
<svg xmlns="http://www.w3.org/2000/svg">
<metadata></metadata>
<defs>
<font id="sinkin_sans700_bold_italic" horiz-adv-x="762" >
<font-face units-per-em="1000" ascent="810" descent="-190" />
<missing-glyph horiz-adv-x="307" />
<glyph unicode="&#x9;" horiz-adv-x="990" />
<glyph unicode="&#xa;" horiz-adv-x="990" />
<glyph unicode="&#xd;" horiz-adv-x="990" />
<glyph horiz-adv-x="990" />
<glyph horiz-adv-x="990" />
<glyph horiz-adv-x="990" />
<glyph horiz-adv-x="990" />
<glyph horiz-adv-x="990" />
<glyph horiz-adv-x="990" />
<glyph horiz-adv-x="990" />
<glyph unicode=" "  horiz-adv-x="307" />
<glyph unicode="&#x09;" horiz-adv-x="307" />
<glyph unicode="&#xa0;" horiz-adv-x="307" />
<glyph unicode="!" horiz-adv-x="334" d="M28 89q11 45 42 72t74 27q44 0 61.5 -27t6.5 -72t-42.5 -72t-74.5 -27q-44 0 -61.5 27t-5.5 72zM90 231l111 579h193l-175 -579h-129z" />
<glyph unicode="&#x22;" horiz-adv-x="482" d="M137 516l55 324h154l-105 -324h-104zM357 516l55 324h154l-105 -324h-104z" />
<glyph unicode="#" horiz-adv-x="791" d="M2 0l91 179l17 16l-102 -1l33 131h135l-1 15l67 130l16 16l-102 -1l33 131h135l-1 15l92 179h138l-92 -180l-15 -14h175v16l91 178h138l-91 -179l-16 -15h101l-32 -131l-136 1l1 -16l-66 -129l-16 -16h101l-32 -131l-136 1v-16l-90 -179h-139l91 180l17 15h-176v-16 l-90 -179h-139zM297 325h176v15l65 130l17 16h-177l1 -16l-66 -130z" />
<glyph unicode="$" horiz-adv-x="793" d="M15 123l143 110q66 -78 142 -93l-3 18l35 140l13 15q-2 1 -11 3t-12 3q-32 9 -56.5 18t-50 22t-40.5 28.5t-28 36t-12.5 45t5.5 56.5q20 83 103 144t207 74l-5 15l21 81h149l-20 -82l-13 -17q69 -11 118.5 -41.5t93.5 -91.5l-144 -113q-46 70 -107 91l4 -20l-28 -117 l-13 -13q6 -2 30 -8q105 -27 147.5 -83.5t23.5 -133.5q-22 -86 -103.5 -149.5t-207.5 -74.5l5 -15l-20 -81h-150l20 82l13 15q-158 21 -249 136zM311 531q-4 -18 13 -34t59 -27l-4 17l21 88l14 18q-43 -4 -70.5 -24t-32.5 -38zM434 136q48 8 73.5 26.5t29.5 38.5 q13 50 -69 77l4 -19l-26 -106z" />
<glyph unicode="%" horiz-adv-x="991" d="M106 589q24 98 92 165t163 67q96 0 130.5 -67t10.5 -165q-24 -99 -90.5 -163.5t-164.5 -64.5q-96 0 -131 65t-10 163zM214 -10l497 830h128l-497 -830h-128zM237 589q-26 -107 40 -107q67 0 93 107q14 61 4.5 86t-43.5 25q-66 0 -94 -111zM550 217q24 99 91.5 165.5 t163.5 66.5q97 0 131 -66.5t10 -165.5q-24 -98 -90.5 -162.5t-163.5 -64.5t-132 64.5t-10 162.5zM682 217q-27 -106 39 -106q67 0 93 106q28 112 -39 112q-66 0 -93 -112z" />
<glyph unicode="&#x26;" horiz-adv-x="849" d="M41 225q33 134 239 231q-8 3 -9 4q-16 19 -30 55q-14 47 -3 92q22 88 104 149.5t176 61.5q95 0 148 -61t31 -149q-18 -70 -67.5 -117t-131.5 -86l15 -7l76 -113l4 -23q8 8 15 54h167l-10 -41q-20 -78 -86 -141l14 -4l87 -131h-206l-20 31l3 17q0 -1 -2 -1 q-102 -58 -240 -58q-92 0 -159.5 25.5t-100.5 80t-14 131.5zM212 225q-10 -39 24 -62.5t116 -24.5q81 0 128 25l-19 7l-108 160l1 17l-36 -20q-43 -23 -70.5 -46.5t-35.5 -55.5zM398 605q-5 -27 27 -75l-2 -17q54 22 79.5 43t32.5 50q6 25 -9 43t-44 18t-53 -18t-31 -44z " />
<glyph unicode="'" horiz-adv-x="262" d="M137 516l55 324h154l-105 -324h-104z" />
<glyph unicode="(" horiz-adv-x="350" d="M59 358q67 277 287 549h148q-199 -268 -266 -536q-74 -301 -4 -562h-149q-45 145 -48.5 277.5t32.5 271.5z" />
<glyph unicode=")" horiz-adv-x="350" d="M-107 -191q199 261 273 562q66 268 -1 536h148q85 -271 17 -549q-35 -141 -103.5 -272.5t-184.5 -276.5h-149z" />
<glyph unicode="*" horiz-adv-x="577" d="M135 513l2 101l141 24l-92 80l84 81l80 -92l26 138h103l-42 -139l125 93l44 -81l-132 -81l131 -24l-48 -100l-123 38l36 -122l-104 -45l-21 128l-84 -128l-82 45l97 121z" />
<glyph unicode="+" horiz-adv-x="703" d="M102 333l35 144h201l-5 16l49 197h141l-49 -197l-13 -16h201l-35 -144h-201l5 -16l-49 -197h-141l49 197l13 16h-201z" />
<glyph unicode="," horiz-adv-x="313" d="M-48 -156l85 128l29 20q-36 3 -49.5 30t-3.5 68q11 46 41.5 73.5t74.5 27.5q45 0 62 -27.5t5 -73.5q-6 -27 -30 -63l-144 -217z" />
<glyph unicode="-" horiz-adv-x="421" d="M25 264l36 143h361l-35 -143h-362z" />
<glyph unicode="." horiz-adv-x="312" d="M13 91q11 46 41.5 73.5t74.5 27.5q45 0 62 -27.5t5 -73.5q-11 -45 -42 -73t-75 -28t-61 27.5t-5 73.5z" />
<glyph unicode="/" horiz-adv-x="305" d="M-151 -50l520 910h148l-519 -910h-149z" />
<glyph unicode="0" horiz-adv-x="822" d="M84 400q45 184 168 302t292 118q86 0 147 -32.5t89.5 -89t34.5 -133.5t-18 -165q-45 -184 -165 -297t-293 -113q-87 0 -148.5 31t-90 86t-34.5 130t18 163zM254 400q-64 -258 122 -258q187 0 251 258q67 268 -120 268q-94 0 -158 -70.5t-95 -197.5z" />
<glyph unicode="1" horiz-adv-x="475" d="M97 594l270 216h139l-200 -810h-168l126 512l29 82h-2l-62 -65l-54 -44z" />
<glyph unicode="2" horiz-adv-x="748" d="M-13 0l38 163q23 96 97 169t198 110l117 35q82 24 117.5 49t43.5 57q9 36 -18 61t-97 25q-119 0 -240 -110l-89 116q172 145 361 145q151 0 214 -69t39 -169q-22 -87 -93 -147.5t-198 -99.5l-138 -41q-117 -35 -144 -127l-20 -16h485l-37 -151h-636z" />
<glyph unicode="3" horiz-adv-x="780" d="M18 132l143 114q73 -105 195 -105q77 0 128 31t62 72q10 44 -20.5 71.5t-107.5 31.5l-144 4l35 143q115 2 141 4q143 11 165 91q8 35 -22 57.5t-107 22.5q-125 0 -238 -97l-88 115q167 133 363 133q156 0 222 -64t42 -161q-13 -53 -58.5 -99.5t-103.5 -69.5l-1 -2 q54 -15 81 -66.5t11 -117.5q-26 -103 -129.5 -176.5t-267.5 -73.5q-103 0 -174 33.5t-127 108.5z" />
<glyph unicode="4" horiz-adv-x="787" d="M13 174l28 113l602 523h131l-115 -468l-13 -17h112l-37 -151h-112l4 -17l-39 -157h-168l39 158l12 16h-444zM279 325h216l-5 17l37 150l21 70h-2l-60 -63l-133 -118l-74 -54v-2z" />
<glyph unicode="5" horiz-adv-x="784" d="M20 142l144 114q37 -64 79 -90t105 -26q91 0 143 40t66 95t-17.5 96t-114.5 41q-66 0 -121.5 -22.5t-116.5 -74.5l-78 102l147 393h547l-38 -151h-416l10 -16l-28 -71l-26 -44l2 -1q66 36 156 36q160 0 227.5 -83.5t37.5 -204.5q-29 -120 -138 -203t-278 -83 q-108 0 -175.5 35t-116.5 118z" />
<glyph unicode="6" horiz-adv-x="814" d="M84 401q51 192 183 305.5t294 113.5q184 0 267 -115l-144 -117q-54 81 -160 81q-76 0 -138 -44t-100 -125h2q94 63 203 63q160 0 229.5 -83.5t37.5 -204.5q-32 -118 -142.5 -202t-275.5 -84q-118 0 -188 54t-83.5 145.5t15.5 212.5zM242 274q-14 -50 20 -92t117 -42 q80 0 138.5 42.5t71.5 93.5t-20 93.5t-117 42.5q-81 0 -139 -43.5t-71 -94.5z" />
<glyph unicode="7" horiz-adv-x="728" d="M123 658l37 152h669l-30 -119l-293 -273q-104 -96 -143 -255l-40 -163h-169l42 168q26 106 72 184.5t124 153.5l95 90l78 60v2h-442z" />
<glyph unicode="8" horiz-adv-x="819" d="M45 244q15 61 68 112t119 76v2q-41 19 -63.5 60t-9.5 95q24 99 123.5 165t257.5 66q159 0 228 -66t44 -165q-13 -51 -56.5 -92.5t-96.5 -62.5l-1 -2q53 -19 83 -71t14 -117q-25 -102 -138.5 -178t-278.5 -76q-68 0 -123 14t-89.5 38.5t-57.5 57t-26.5 69t3.5 75.5z M217 246q-3 -15 2.5 -31.5t21 -34t50.5 -28.5t84 -11q92 0 146.5 35.5t62.5 69.5q10 41 -29.5 75t-127.5 34t-144 -34t-66 -75zM329 583q-3 -12 1.5 -25.5t17 -28.5t42.5 -24.5t72 -9.5q79 0 125 30t52 58q6 11 1 26t-15.5 28t-41.5 22t-77 9q-87 0 -128.5 -27t-48.5 -58z " />
<glyph unicode="9" horiz-adv-x="814" d="M44 105l145 117q53 -82 163 -82q76 0 137.5 43.5t100.5 125.5h-2q-98 -62 -204 -62q-160 0 -229.5 83t-37.5 204q31 118 141.5 202t275.5 84q177 0 241 -113.5t16 -298.5q-51 -191 -182 -305t-293 -114q-188 0 -272 116zM286 533q-13 -51 20 -93t117 -42q81 0 138.5 43 t71.5 94q14 50 -20 92t-117 42q-81 0 -139 -42.5t-71 -93.5z" />
<glyph unicode=":" horiz-adv-x="322" d="M22 91q12 46 42.5 73.5t74.5 27.5q45 0 62 -27.5t5 -73.5q-11 -45 -42 -73t-75 -28t-61 27.5t-6 73.5zM127 516q12 46 42.5 73.5t74.5 27.5q45 0 62 -27.5t5 -73.5q-11 -45 -42 -73t-75 -28t-61 27.5t-6 73.5z" />
<glyph unicode=";" horiz-adv-x="323" d="M-38 -156l85 128l29 20q-36 3 -49.5 30t-3.5 68q11 46 41.5 73.5t74.5 27.5q45 0 62 -27.5t5 -73.5q-6 -27 -30 -63l-144 -217zM128 516q11 46 41.5 73.5t74.5 27.5q45 0 62 -27.5t5 -73.5q-11 -45 -42 -73t-75 -28t-61 27.5t-5 73.5z" />
<glyph unicode="&#x3c;" horiz-adv-x="555" d="M84 402l389 323l77 -104l-202 -168l-70 -48l25 -26q23 -26 46.5 -57t51 -69.5t43.5 -59.5l-128 -104z" />
<glyph unicode="=" horiz-adv-x="698" d="M72 213l35 142h520l-35 -142h-520zM132 455l35 143h520l-35 -143h-520z" />
<glyph unicode="&#x3e;" horiz-adv-x="555" d="M67 193l201 164l71 47q-20 21 -60 68l-106 149l129 104l229 -323l-387 -313z" />
<glyph unicode="?" horiz-adv-x="712" d="M154 683q164 137 347 137q120 0 189.5 -61t45.5 -159q-19 -75 -77 -122.5t-146 -80.5q-2 -2 -17 -6.5t-17 -6.5q-44 -16 -62.5 -38.5t-31.5 -73.5l-10 -41h-163l13 52q24 99 78 152.5t149 87.5q2 2 12.5 4.5t11.5 3.5q41 14 62 29.5t27 39.5q7 30 -24.5 51.5t-76.5 21.5 q-114 0 -216 -101zM167 89q11 45 42 72t74 27q44 0 61.5 -27t6.5 -72q-12 -45 -42.5 -72t-74.5 -27q-43 0 -60.5 27t-6.5 72z" />
<glyph unicode="@" horiz-adv-x="980" d="M103 418q44 176 204 301.5t334 125.5q109 0 190 -52.5t114 -145.5t6 -204q-27 -107 -114 -197.5t-195 -90.5q-69 0 -95 58h-2q-77 -59 -165 -59t-119.5 61t-10.5 145q26 107 120.5 193.5t206.5 86.5q28 0 53.5 -11t34.5 -28h1l15 29h121l-133 -261q-17 -34 -27 -69 q-4 -18 5.5 -29.5t28.5 -11.5q60 0 105 55.5t62 126.5q31 125 -35 216.5t-189 91.5q-135 0 -256 -98.5t-154 -235.5q-36 -145 34 -244.5t211 -99.5q92 0 201 64l55 -70q-145 -91 -275 -91q-189 0 -284 125.5t-48 318.5zM377 373q-26 -110 48 -110q55 0 101.5 54t63.5 123 q24 96 -46 96q-53 0 -102.5 -52.5t-64.5 -110.5z" />
<glyph unicode="A" horiz-adv-x="950" d="M-54 0l586 810h148l185 -810h-183l-41 178l13 15h-402l6 -15l-128 -178h-184zM363 335h251l-13 16l-39 176l-7 74l-2 -1l-43 -73l-126 -176z" />
<glyph unicode="B" horiz-adv-x="853" d="M20 0l200 810h404q133 0 190.5 -67.5t32.5 -166.5q-26 -104 -114 -154l1 -1q46 -18 64 -64.5t2 -111.5q-28 -115 -126 -180t-241 -65h-413zM209 152h262q76 0 111 24.5t47 70.5q12 45 -13 71.5t-99 26.5h-260l12 -16l-40 -161zM292 487h242q118 0 141 87 q10 41 -11.5 62.5t-86.5 21.5h-242l12 -16l-35 -140z" />
<glyph unicode="C" horiz-adv-x="851" d="M84 400q46 187 188.5 303t345.5 116q211 0 300 -142l-144 -117q-52 108 -193 108q-131 0 -213.5 -73t-112.5 -195q-30 -119 15.5 -189t179.5 -70q142 0 249 107l86 -114q-167 -145 -373 -145t-290 112.5t-38 298.5z" />
<glyph unicode="D" horiz-adv-x="889" d="M20 0l200 810h340q406 0 305 -405q-99 -405 -500 -405h-345zM210 152h182q75 0 128.5 18t87 54.5t52.5 78t34 102.5q15 60 16 101.5t-14.5 78t-61.5 55t-122 18.5h-177l12 -16l-118 -474z" />
<glyph unicode="E" horiz-adv-x="822" d="M20 0l200 810h663l-37 -152h-511l12 -16l-36 -145l-20 -16h463l-37 -152h-464l12 -16l-36 -145l-19 -16h511l-38 -152h-663z" />
<glyph unicode="F" d="M20 0l200 810h643l-37 -152h-491l12 -15l-41 -164l-20 -16l442 -1l-37 -151h-442l12 -16l-73 -295h-168z" />
<glyph unicode="G" horiz-adv-x="950" d="M83 398q48 192 192 307t346 115q214 0 301 -125l-145 -118q-56 92 -193 92q-132 0 -214.5 -70t-114.5 -201q-64 -257 193 -257q91 0 163.5 48.5t99.5 124.5l20 16h-277l37 151h420l-119 -482h-146l19 77q-45 -38 -115.5 -62t-139.5 -24q-201 0 -287 110t-40 298z" />
<glyph unicode="H" horiz-adv-x="911" d="M20 0l200 810h168l-77 -313l-20 -16h428l-12 16l77 313h168l-200 -810h-168l77 313l20 16h-427l11 -16l-77 -313h-168z" />
<glyph unicode="I" horiz-adv-x="356" d="M25 0l200 810h168l-200 -810h-168z" />
<glyph unicode="J" horiz-adv-x="681" d="M-39 124l143 115q20 -45 57 -71t79 -26t78 13t68.5 50t47.5 96l125 509h168l-124 -504q-17 -68 -48 -122.5t-70 -90t-86.5 -59.5t-96 -34t-100.5 -10q-165 0 -241 134z" />
<glyph unicode="K" horiz-adv-x="885" d="M20 0l200 810h168l-200 -810h-168zM298 409l470 400h235l-488 -401q1 0 1 -2q10 -11 85 -112.5t145 -197.5l69 -96h-235z" />
<glyph unicode="L" horiz-adv-x="721" d="M20 0l200 810h168l-159 -643l-19 -15h464l-37 -152h-617z" />
<glyph unicode="M" horiz-adv-x="1039" d="M20 -1l200 811h139l145 -449l14 -85h2l54 85l369 449h138l-200 -811h-169l115 466h-2l-57 -86l-319 -390h-3l-127 390l-14 85h-2l-115 -465h-168z" />
<glyph unicode="N" horiz-adv-x="911" d="M20 0l200 810h141l255 -446l33 -92h2l133 538h168l-200 -810h-141l-252 446l-36 95h-1l-134 -541h-168z" />
<glyph unicode="O" horiz-adv-x="935" d="M84 400q46 187 182.5 303.5t333.5 116.5q198 0 277 -116.5t33 -303.5q-46 -185 -182.5 -297.5t-332.5 -112.5q-198 0 -277.5 112t-33.5 298zM255 400q-29 -119 13 -188.5t165 -69.5q124 0 200 69t106 189q16 57 12.5 106t-22 85t-61 56.5t-105.5 20.5q-123 0 -200 -72 t-108 -196z" />
<glyph unicode="P" horiz-adv-x="839" d="M20 0l200 810h403q140 0 203 -73t34 -190q-29 -114 -129 -189t-239 -75h-250l12 -15l-66 -268h-168zM280 435h250q130 0 158 112q28 111 -102 111h-251l12 -15l-48 -192z" />
<glyph unicode="Q" horiz-adv-x="935" d="M84 399q46 187 182.5 304t333.5 117q198 0 277 -116.5t33 -304.5q-44 -176 -166 -283l80 -109l-126 -103l-93 126q-98 -40 -210 -40q-198 0 -277.5 111.5t-33.5 297.5zM255 399q-29 -120 13 -189.5t165 -69.5q50 0 71 6l15 -1l-69 93l127 102l85 -113l5 21q49 60 71 151 q30 122 -11 195.5t-164 73.5t-200.5 -72.5t-107.5 -196.5z" />
<glyph unicode="R" horiz-adv-x="876" d="M20 0l200 810h388q129 0 201.5 -65t42.5 -188q-15 -62 -68.5 -116.5t-116.5 -80.5v-2q44 -22 60 -84l74 -274h-188l-57 214q-13 48 -47 69.5t-102 21.5h-159l12 -15l-72 -290h-168zM283 450h225q73 0 117 29.5t55 73.5q13 52 -15 78.5t-94 26.5h-236l12 -15l-44 -177z " />
<glyph unicode="S" horiz-adv-x="837" d="M13 133l146 118q94 -110 243 -110q92 0 142 25t59 62q6 25 -16.5 49.5t-88.5 42.5q-66 16 -139 37q-56 16 -95.5 33t-73.5 43t-46 64.5t0 87.5q25 101 134.5 168t274.5 67q216 0 316 -139l-147 -118q-30 49 -84.5 77.5t-122.5 28.5q-91 0 -140.5 -23.5t-57.5 -56.5 q-7 -26 23.5 -45t121.5 -43q68 -21 121 -33q115 -30 163.5 -92t28.5 -145q-25 -102 -133 -171.5t-284 -69.5q-233 0 -345 143z" />
<glyph unicode="T" d="M113 658l37 152h723l-37 -152h-286l5 -16l-159 -642h-168l158 642l13 16h-286z" />
<glyph unicode="U" horiz-adv-x="923" d="M107 373l108 437h168l-107 -436q-29 -118 5 -175t146 -57q111 0 174.5 57t91.5 175l108 436h168l-108 -437q-45 -185 -163.5 -284t-307.5 -99t-259 98.5t-24 284.5z" />
<glyph unicode="V" horiz-adv-x="906" d="M145 810h187l98 -520l5 -81h2l45 81l355 520h185l-564 -810h-149z" />
<glyph unicode="W" horiz-adv-x="1128" d="M155 810h179l13 -474l-4 -86h2l37 86l250 474h126l16 -474l-4 -84h2l36 84l250 474h176l-434 -810h-180l-13 394l6 90h-2l-39 -90l-208 -394h-175z" />
<glyph unicode="X" horiz-adv-x="887" d="M-49 0l418 405l-219 405h213l115 -215l25 -70h2l59 70l222 215h210l-416 -404l218 -406h-213l-114 216l-25 72h-2l-61 -72l-221 -216h-211z" />
<glyph unicode="Y" horiz-adv-x="919" d="M145 810h211l123 -255l27 -80h2l67 80l250 255h210l-477 -476l-83 -334h-169l82 334z" />
<glyph unicode="Z" horiz-adv-x="851" d="M-10 0l30 120l533 468l95 68l1 2h-486l37 152h718l-30 -119l-533 -470l-90 -67v-2h495l-37 -152h-733z" />
<glyph unicode="[" horiz-adv-x="331" d="M-57 -190l271 1097h252l-34 -135h-110l-204 -827h110l-33 -135h-252z" />
<glyph unicode="\" horiz-adv-x="384" d="M113 860h149l70 -910h-148z" />
<glyph unicode="]" horiz-adv-x="332" d="M-96 -190l33 135h111l204 827h-111l33 135h253l-271 -1097h-252z" />
<glyph unicode="^" horiz-adv-x="754" d="M107 415l344 395h114l148 -395h-179l-59 167l-9 52h-2l-36 -52l-141 -167h-180z" />
<glyph unicode="_" horiz-adv-x="681" d="M-127 -195l32 130h701l-32 -130h-701z" />
<glyph unicode="`" horiz-adv-x="738" d="M367 881l120 96l130 -216l-81 -66z" />
<glyph unicode="a" horiz-adv-x="783" d="M58 314q36 147 137 236.5t254 89.5q52 0 95 -16t64 -43h2l12 49h165l-155 -631h-166l12 46h-2q-74 -55 -188 -55q-151 0 -208.5 89t-21.5 235zM223 314q-45 -180 120 -180t209 180q46 182 -119 182q-166 0 -210 -182z" />
<glyph unicode="b" horiz-adv-x="783" d="M12 -1l208 841h165l-64 -259h2q74 59 188 59q153 0 210 -89.5t20 -236.5q-36 -146 -137.5 -235t-252.5 -89q-113 0 -160 55h-2l-12 -46h-165zM247 314q-44 -180 120 -180q166 0 209 180q46 182 -120 182q-164 0 -209 -182z" />
<glyph unicode="c" horiz-adv-x="672" d="M57 311q35 142 148 235.5t269 93.5q158 0 233 -99l-136 -110q-46 65 -132 65q-82 0 -139.5 -51.5t-77.5 -134.5q-20 -80 10 -128.5t115 -48.5t171 68l81 -109q-133 -102 -287 -102q-163 0 -226.5 90t-28.5 231z" />
<glyph unicode="d" horiz-adv-x="783" d="M58 314q36 147 137 236.5t254 89.5q52 0 95 -16t64 -43h2l64 259h165l-207 -841h-166l12 46h-2q-74 -55 -188 -55q-151 0 -208.5 89t-21.5 235zM223 314q-45 -180 120 -180t209 180q46 182 -119 182q-166 0 -210 -182z" />
<glyph unicode="e" d="M57 310q35 145 147.5 237.5t267.5 92.5q160 0 222 -92.5t26 -237.5q-8 -33 -19 -60h-498l12 -16q5 -49 41 -77.5t98 -28.5q90 0 178 60l75 -102q-134 -96 -287 -96q-166 0 -232 89.5t-31 230.5zM238 384h339l-12 16q-11 103 -127 103t-180 -103z" />
<glyph unicode="f" horiz-adv-x="483" d="M-194 -188l34 140q58 -29 115 -29q39 0 61 19.5t34 67.5l116 471l11 15h-97l33 133h98l-4 16q23 92 99.5 146.5t180.5 54.5q71 0 113 -17l-33 -134q-40 17 -90 17q-88 0 -104 -67l-13 -16h191l-33 -133h-191l4 -16l-119 -480q-53 -215 -279 -215q-73 0 -127 27z" />
<glyph unicode="g" horiz-adv-x="783" d="M-16 -124l138 112q74 -60 172 -60q75 0 123.5 35.5t63.5 98.5l5 18h-2q-76 -48 -174 -48q-156 0 -218.5 83t-28.5 221q32 131 138 217.5t258 86.5q45 0 88 -15t63 -38h2l10 43h166l-139 -562q-34 -136 -134 -209.5t-256 -73.5q-164 0 -275 91zM228 334q-18 -74 14 -116 t112 -42q164 0 203 158q19 75 -12 119t-112 44q-82 0 -134.5 -44.5t-70.5 -118.5z" />
<glyph unicode="h" horiz-adv-x="780" d="M12 0l208 840h165l-64 -257h2q36 26 88 41t100 15q135 0 191 -69t28 -184l-96 -386h-165l90 368q16 61 -4 93.5t-101 32.5q-70 0 -121 -35t-66 -98l-89 -361h-166z" />
<glyph unicode="i" horiz-adv-x="329" d="M12 0l156 630h165l-155 -630h-166zM195 764q10 39 41.5 65.5t70.5 26.5t57.5 -26.5t8.5 -65.5t-41 -65.5t-70 -26.5t-58 26.5t-9 65.5z" />
<glyph unicode="j" horiz-adv-x="333" d="M-173 -190l35 142q41 -25 87 -25q23 0 40 13.5t23 38.5l161 651h165l-162 -656q-47 -189 -242 -189q-50 0 -107 25zM200 764q10 40 41 66t70 26t58 -26.5t9 -65.5t-41.5 -65.5t-70.5 -26.5t-57.5 26.5t-8.5 65.5z" />
<glyph unicode="k" horiz-adv-x="766" d="M12 0l208 840h165l-207 -840h-166zM267 320l369 310h205l-376 -308l-1 -2l232 -320h-211z" />
<glyph unicode="l" horiz-adv-x="329" d="M12 0l208 840h165l-207 -840h-166z" />
<glyph unicode="m" horiz-adv-x="1054" d="M12 0l156 631h166l-11 -45h2q72 54 156 54q52 0 89.5 -24.5t51.5 -64.5h2q40 40 94.5 64.5t106.5 24.5q120 0 163 -71t11 -201l-91 -368h-166l85 347q22 80 11 114.5t-65 34.5q-51 0 -88 -34t-50 -89l-92 -373h-166l91 369q18 67 5.5 97t-64.5 30q-48 0 -86.5 -34 t-52.5 -90l-92 -372h-166z" />
<glyph unicode="n" horiz-adv-x="780" d="M12 0l156 631h165l-13 -55h2q87 64 196 64q126 0 184 -66t29 -183l-97 -391h-165l92 375q16 63 -3.5 92t-102.5 29q-71 0 -121 -33.5t-65 -94.5l-91 -368h-166z" />
<glyph unicode="o" d="M58 315q35 144 143 234.5t268 90.5q161 0 224.5 -90.5t27.5 -234.5q-35 -143 -144 -234t-268 -91q-160 0 -223 90.5t-28 234.5zM223 315q-20 -84 9.5 -133t112.5 -49q84 0 137 48.5t74 133.5q21 84 -8.5 132.5t-113.5 48.5t-137 -48t-74 -133z" />
<glyph unicode="p" horiz-adv-x="783" d="M-40 -211l208 841h165l-11 -46h2q74 55 188 55q150 0 208 -89t22 -235q-36 -147 -137.5 -236.5t-253.5 -89.5q-53 0 -96 16t-63 43h-2l-64 -259h-166zM247 314q-45 -180 120 -180q166 0 209 180q46 182 -119 182q-164 0 -210 -182z" />
<glyph unicode="q" horiz-adv-x="783" d="M58 316q36 145 137.5 234t252.5 89q112 0 161 -55h2l11 46h165l-207 -841h-166l64 259h-2q-76 -59 -188 -59q-152 0 -209 90t-21 237zM223 314q-45 -180 120 -180q164 0 209 180q44 182 -120 182q-165 0 -209 -182z" />
<glyph unicode="r" horiz-adv-x="485" d="M12 0l156 630h165l-21 -84h2q80 91 205 91h36l-38 -152h-48q-88 0 -140 -42t-74 -131l-77 -312h-166z" />
<glyph unicode="s" horiz-adv-x="694" d="M7 108l132 108q30 -42 77 -65t101 -23q65 0 98.5 16t38.5 37q4 17 -8.5 29.5t-60.5 24.5q-5 1 -51 14t-53 15q-43 12 -74 25t-59 34.5t-38 53.5t0 73q21 84 108.5 136.5t218.5 52.5q173 0 254 -105l-129 -103q-53 71 -158 71q-62 0 -92.5 -16t-34.5 -34 q-5 -18 15.5 -28.5t80.5 -26.5q25 -6 94 -27q95 -25 133.5 -68.5t21.5 -113.5q-22 -86 -109.5 -142.5t-226.5 -56.5q-172 0 -279 119z" />
<glyph unicode="t" horiz-adv-x="537" d="M80 496l33 134h92l-5 15l19 75l187 89l-40 -164l-13 -15h193l-32 -134h-194l5 -15l-66 -269q-10 -38 2 -58.5t41 -20.5q46 0 105 50l72 -98q-119 -95 -228 -95q-212 0 -158 222l67 269l12 15h-92z" />
<glyph unicode="u" horiz-adv-x="772" d="M68 246l95 384h166l-93 -375q-15 -60 7.5 -90.5t95.5 -30.5q69 0 118 33.5t64 94.5l91 368h165l-156 -631h-165l13 55h-2q-78 -64 -188 -64q-138 0 -189.5 68t-21.5 188z" />
<glyph unicode="v" horiz-adv-x="722" d="M95 630h183l54 -338l7 -95h2l54 95l221 338h184l-434 -630h-149z" />
<glyph unicode="w" horiz-adv-x="957" d="M99 630h174l9 -312l-8 -106h2l46 106l174 312h137l21 -312l-6 -107h2l44 107l164 312h172l-349 -630h-169l-12 285l6 104h-2l-45 -104l-154 -285h-169z" />
<glyph unicode="x" horiz-adv-x="731" d="M-51 0l324 316l-167 314h206l69 -134l21 -66h2l52 66l136 134h204l-321 -314l168 -316h-206l-74 144l-17 56h-2l-44 -56l-146 -144h-205z" />
<glyph unicode="y" horiz-adv-x="763" d="M-34 -178l37 151q74 -45 126 -45q58 0 115 86l-144 616h182l77 -351l8 -94h2l51 94l234 351h182l-472 -689q-49 -71 -115.5 -113.5t-137.5 -42.5q-79 0 -145 37z" />
<glyph unicode="z" horiz-adv-x="705" d="M-15 0l28 112l369 314l88 56v2h-358l36 145h585l-27 -108l-372 -313l-91 -61l-1 -2h375l-36 -145h-596z" />
<glyph unicode="{" horiz-adv-x="388" d="M39 -14l55 221q12 38 2 63t-51 32l28 114q42 7 63 27.5t30 57.5l57 231q42 164 169 179l143 3l-32 -129h-42q-57 0 -74.5 -13.5t-29.5 -64.5l-50 -204q-13 -54 -34.5 -86.5t-65.5 -57.5q36 -27 40.5 -59.5t-12.5 -85.5l-50 -203q-13 -50 -1.5 -64t67.5 -14h42l-32 -129 q-121 0 -142 3q-120 16 -80 179z" />
<glyph unicode="|" horiz-adv-x="375" d="M32 -50l225 910h147l-224 -910h-148z" />
<glyph unicode="}" horiz-adv-x="388" d="M-108 -196l32 129h42q56 0 73.5 13.5t30.5 64.5l50 203q15 61 33 89.5t68 55.5q-32 25 -38 59t8 85l51 204q13 49 2 63.5t-68 14.5h-42l32 129q122 0 142 -3q120 -16 80 -179l-57 -231q-9 -37 2 -57.5t49 -27.5l-28 -114q-44 -7 -64.5 -30t-31.5 -65l-54 -221 q-40 -163 -169 -179z" />
<glyph unicode="~" horiz-adv-x="629" d="M34 298q34 63 91 100t122 37q28 0 54 -11t59 -33.5t41 -27.5q22 -11 41 -11q63 0 110 90l65 -89q-35 -62 -92.5 -98.5t-121.5 -36.5q-29 0 -55 11t-57 32.5t-42 27.5q-22 11 -41 11q-61 0 -109 -90z" />
<glyph horiz-adv-x="990" />
<glyph unicode="&#xa1;" horiz-adv-x="336" d="M2 0l175 579h129l-112 -579h-192zM183 721q11 44 42.5 71.5t75.5 27.5t61.5 -27.5t6.5 -71.5t-42 -72t-75 -28q-45 0 -62.5 27.5t-6.5 72.5z" />
<glyph unicode="&#xa2;" horiz-adv-x="672" d="M79 400q36 143 148 236t248 97l-2 16l33 71h137l-37 -81l-14 -16q88 -27 137 -90l-136 -109q-25 37 -69 52l2 -17l-141 -317l-15 -15q47 0 84.5 14.5t85.5 50.5l81 -109q-139 -103 -288 -103q-18 0 -29 1l3 -14l-34 -77h-136l43 98l17 13q-84 34 -114.5 113t-3.5 186z M242 400q-23 -94 24 -139l1 20l125 283l16 16q-65 -16 -107 -65t-59 -115z" />
<glyph unicode="&#xa3;" horiz-adv-x="775" d="M-15 0l33 134q80 33 114.5 68.5t43.5 110.5l10 17h-103l38 150h63l-7 16q2 50 9 82q30 123 124.5 182.5t233.5 59.5q179 0 261 -136l-142 -115q-55 101 -159 101q-124 0 -145 -87q-8 -35 -10 -87l-10 -16h245l-37 -150h-211l7 -17q-16 -106 -83 -159v-2h401l-38 -152 h-638z" />
<glyph unicode="&#xa4;" horiz-adv-x="644" d="M42 225l86 71q-15 49 -1 107q14 56 54 107l-52 73l113 89l52 -69q57 27 114 27t99 -27l87 69l70 -89l-88 -73q15 -50 1 -107q-15 -60 -54 -109l50 -70l-111 -90l-54 69q-55 -26 -111 -26q-59 0 -102 27l-86 -69zM259 403q-6 -20 -2.5 -37.5t13.5 -30t25.5 -19.5t33.5 -7 q41 0 74.5 28.5t42.5 65.5q10 40 -11 68t-59 28q-41 0 -75 -29.5t-42 -66.5z" />
<glyph unicode="&#xa5;" horiz-adv-x="938" d="M127 139l32 129h229l-3 11l11 46l9 10h-230l32 129h132l-14 15l-170 331h211l124 -258l25 -82h2l64 82l253 258h210l-333 -332l-23 -16l137 2l-32 -129l-231 -1l3 -11l-11 -45l-8 -10h230l-31 -129h-233l4 -16l-31 -123h-169l30 123l12 16h-231z" />
<glyph unicode="&#xa6;" horiz-adv-x="352" d="M21 -50l101 409h147l-101 -409h-147zM144 450l101 410h147l-101 -410h-147z" />
<glyph unicode="&#xa7;" horiz-adv-x="706" d="M-17 -76l141 112q61 -90 161 -90q68 0 80 48q4 14 -7 32q-15 24 -44 45.5t-74 47.5t-59 36q-16 11 -28.5 20t-27.5 22t-24.5 25.5t-19.5 28.5t-13 32t-5 36.5t5 41.5q24 96 150 178q-25 47 -13 96q12 46 42.5 82.5t72 58t87.5 32.5t93 11q152 0 250 -134l-135 -107 q-57 96 -151 96q-38 0 -59.5 -12t-24.5 -28q-3 -12 3.5 -24.5t22 -25t25 -19t26.5 -16.5q19 -11 59 -35q38 -24 60.5 -40t51 -45t38 -64t-0.5 -75q-24 -98 -139 -178q31 -50 15 -116q-17 -67 -65.5 -113t-106.5 -65t-120 -19q-84 0 -147.5 29.5t-118.5 95.5zM238 370 q-9 -37 54 -79l137 -87q94 66 52 115q-6 7 -13.5 13.5t-20 15t-15.5 10.5l-127 84q-59 -42 -67 -72z" />
<glyph unicode="&#xa8;" horiz-adv-x="738" d="M280 789q8 37 33.5 59.5t60.5 22.5q36 0 50 -22.5t5 -59.5q-9 -36 -34.5 -59t-60.5 -23q-36 0 -49.5 23t-4.5 59zM530 789q9 37 34 59.5t61 22.5t49.5 -22.5t4.5 -59.5q-9 -36 -34 -59t-61 -23t-49.5 23t-4.5 59z" />
<glyph unicode="&#xa9;" horiz-adv-x="960" d="M82 401q43 178 200 305t334 127q117 0 201.5 -58t117 -157.5t3.5 -216.5q-44 -179 -201 -306.5t-334 -127.5q-116 0 -200.5 58t-117 158t-3.5 218zM184 401q-33 -137 38 -237.5t204 -100.5q134 0 255 100.5t154 237.5q34 136 -37.5 236.5t-204.5 100.5t-254 -100.5 t-155 -236.5zM259 396q30 120 115 198.5t201 78.5q120 0 176 -82l-94 -78q-37 55 -108 55q-68 -1 -116.5 -48.5t-67.5 -123.5q-18 -74 5 -118.5t95 -44.5q71 0 143 61l57 -76q-106 -91 -226 -91q-121 0 -165.5 75t-14.5 194z" />
<glyph unicode="&#xaa;" horiz-adv-x="514" d="M109 601q23 97 90 156t168 59q35 0 65 -10.5t43 -28.5h1l8 33h106l-102 -417h-107l8 31h-1q-50 -37 -127 -37q-99 0 -137.5 59t-14.5 155zM218 601q-29 -119 79 -119q109 0 138 119q29 120 -79 120q-109 0 -138 -120z" />
<glyph unicode="&#xab;" horiz-adv-x="765" d="M48 255l287 229l76 -104l-114 -94l-52 -32l36 -30l69 -94l-128 -104zM372 255l287 229l76 -104l-114 -94l-53 -32l37 -30l68 -94l-127 -104z" />
<glyph unicode="&#xac;" horiz-adv-x="577" d="M18 235l34 135h518l-79 -320h-146l46 185h-373z" />
<glyph unicode="&#xad;" horiz-adv-x="421" d="M25 264l36 143h361l-35 -143h-362z" />
<glyph unicode="&#xae;" horiz-adv-x="960" d="M82 401q43 178 200 305t334 127q117 0 201.5 -58t117 -157.5t3.5 -216.5q-44 -179 -201 -306.5t-334 -127.5q-116 0 -200.5 58t-117 158t-3.5 218zM184 400q-33 -136 38 -236.5t204 -100.5q134 0 255 100.5t154 236.5q34 136 -37.5 237t-204.5 101t-254 -101t-155 -237z M260 162l117 476h206q68 0 106.5 -39t20.5 -113q-9 -35 -40.5 -68t-64.5 -46q23 -14 31 -48l30 -162h-114l-23 127q-5 26 -17 36t-44 10h-70l3 -14l-39 -159h-102zM424 438h114q56 0 68 48q13 50 -48 50h-110l3 -14l-17 -70z" />
<glyph unicode="&#xaf;" horiz-adv-x="745" d="M304 737l26 105h403l-26 -105h-403z" />
<glyph unicode="&#xb0;" horiz-adv-x="441" d="M114 622q21 87 80.5 142t146.5 55t119.5 -54.5t10.5 -142.5q-21 -86 -81.5 -141.5t-145.5 -55.5q-87 0 -119 55t-11 142zM214 622q-11 -44 2.5 -69t52.5 -25q79 0 102 94q23 95 -55 95q-79 0 -102 -95z" />
<glyph unicode="&#xb1;" horiz-adv-x="703" d="M24 16l35 144h525l-36 -144h-524zM126 429l35 144h201l-5 16l49 197h141l-49 -197l-13 -16h201l-35 -144h-202l5 -16l-48 -197h-141l49 197l13 16h-201z" />
<glyph unicode="&#xb2;" horiz-adv-x="461" d="M80 361l23 93q13 54 54.5 99t107.5 66l59 18q63 19 68 42q3 14 -7 23t-42 9q-62 0 -122 -61l-57 75q100 90 205 90q81 0 115.5 -39.5t20.5 -96.5q-24 -99 -159 -139l-69 -22q-40 -12 -55 -44q0 -1 -4 -5t-4 -5h237l-25 -103h-346z" />
<glyph unicode="&#xb3;" horiz-adv-x="496" d="M95 443l95 74q21 -33 43.5 -46t59.5 -13q31 0 52.5 8.5t29 17t9.5 15.5q4 18 -8.5 32t-50.5 17l-84 2l24 94q68 2 81 3q64 6 76 42q1 7 -1.5 12t-18.5 10.5t-44 5.5q-38 0 -66.5 -11t-63.5 -42l-57 71q58 47 106.5 66t106.5 19q87 0 125.5 -36.5t24.5 -94.5 q-5 -22 -26 -47.5t-45 -39.5v-1q50 -36 33 -100q-15 -63 -80.5 -104.5t-147.5 -41.5q-118 0 -173 88z" />
<glyph unicode="&#xb4;" horiz-adv-x="748" d="M364 761l238 216l72 -96l-261 -186z" />
<glyph unicode="&#xb5;" horiz-adv-x="741" d="M-39 -210l207 840h166l-92 -371q-15 -61 8.5 -93t76.5 -32q129 0 161 128l91 368h166l-157 -636h-166l9 36l-2 -1q-71 -45 -147 -45q-66 0 -108 40l-2 -1l-57 -233h-154z" />
<glyph unicode="&#xb6;" d="M65 543q27 110 130 188.5t220 78.5h409l-37 -147h-75l4 -16l-204 -828h-159l205 827l12 17h-78l6 -16l-205 -828h-159l111 452q-1 0 0 4v3t-1 1q-102 14 -153 88.5t-26 175.5z" />
<glyph unicode="&#xb7;" horiz-adv-x="312" d="M90 406q12 45 42.5 72.5t74.5 27.5t61.5 -27.5t5.5 -72.5q-12 -46 -42.5 -73.5t-74.5 -27.5t-61 27.5t-6 73.5z" />
<glyph unicode="&#xb8;" horiz-adv-x="757" d="M184 -164l91 73q34 27 16 51l-33 44h104l23 -31q19 -23 12.5 -53t-39.5 -56l-122 -98z" />
<glyph unicode="&#xb9;" horiz-adv-x="327" d="M131 691l156 119h97l-113 -455h-111l68 274l21 49q-19 -17 -46 -46l-16 -13z" />
<glyph unicode="&#xba;" horiz-adv-x="514" d="M109 604q24 95 94.5 155.5t173.5 60.5q104 0 145 -60t17 -156t-95 -156.5t-174 -60.5t-144 60.5t-17 156.5zM215 604q-14 -57 5 -89t74 -32q109 0 139 121q14 56 -5 88t-74 32q-109 0 -139 -120z" />
<glyph unicode="&#xbb;" horiz-adv-x="765" d="M17 130l115 94q33 20 51 30l-36 32l-68 94l128 104l173 -229l-287 -229zM341 130l114 94q34 20 52 30l-36 32l-68 94l127 104l174 -229l-287 -229z" />
<glyph unicode="&#xbc;" horiz-adv-x="863" d="M102 -10l499 830h118l-499 -830h-118zM131 691l156 119h97l-113 -455h-111l68 274l21 49q-19 -17 -46 -46l-16 -13zM372 92l19 78l317 284h95l-61 -248l-6 -10h52l-26 -104h-52v-11l-19 -82h-113l20 81l6 12h-232zM543 195h86l-1 9l22 89l-22 -25l-57 -52z" />
<glyph unicode="&#xbd;" horiz-adv-x="889" d="M104 -10l499 830h118l-499 -830h-118zM131 691l156 119h97l-113 -455h-111l68 274l21 49q-19 -17 -46 -46l-16 -13zM418 -1l24 94q13 53 54.5 98.5t107.5 65.5l58 18q20 6 33.5 11.5t20.5 11t10 10t4 10.5q4 13 -6 22.5t-43 9.5q-61 0 -122 -62l-57 75q103 91 205 91 q81 0 115.5 -39.5t20.5 -96.5q-24 -98 -158 -140l-69 -21q-42 -13 -56 -45q0 -1 -8 -9h238l-26 -104h-346z" />
<glyph unicode="&#xbe;" horiz-adv-x="1015" d="M95 443l95 74q21 -33 43.5 -46t59.5 -13q31 0 52.5 8.5t29 17t9.5 15.5q4 18 -8.5 32t-50.5 17l-84 2l24 94q68 2 81 3q64 6 76 42q1 7 -1.5 12t-18.5 10.5t-44 5.5q-37 0 -66.5 -11t-63.5 -42l-57 71q58 47 106.5 66t106.5 19q87 0 125.5 -36.5t24.5 -94.5 q-5 -22 -26 -47.5t-45 -39.5v-1q50 -36 33 -100q-15 -63 -80.5 -104.5t-147.5 -41.5q-118 0 -173 88zM253 -10l499 830h118l-499 -830h-118zM523 92l19 78l318 284h94l-61 -248l-6 -10h52l-26 -104h-52l1 -11l-20 -82h-113l20 81l6 12h-232zM694 195h86l-1 9l23 89l-22 -25 l-58 -52z" />
<glyph unicode="&#xbf;" horiz-adv-x="712" d="M37 209q19 76 76.5 123t145.5 80q3 2 18.5 7t16.5 6q44 16 62.5 39t31.5 74l10 41h163l-13 -52q-25 -99 -78.5 -153t-149.5 -87q-2 -2 -12.5 -4.5t-11.5 -3.5q-78 -28 -88 -69q-7 -31 24 -52t77 -21q113 0 216 100l94 -111q-162 -136 -347 -136q-120 0 -189.5 60.5 t-45.5 158.5zM422 721q12 45 42.5 72t74.5 27q43 0 60.5 -27t6.5 -72q-12 -45 -42.5 -72.5t-74.5 -27.5t-61 27t-6 73z" />
<glyph unicode="&#xc0;" horiz-adv-x="950" d="M-54 0l586 810h148l185 -810h-183l-41 178l13 15h-402l6 -15l-128 -178h-184zM363 335h251l-13 16l-39 176l-7 74l-2 -1l-43 -73l-126 -176zM536 1059l119 96l131 -217l-81 -65z" />
<glyph unicode="&#xc1;" horiz-adv-x="950" d="M-54 0l586 810h148l185 -810h-183l-41 178l13 15h-402l6 -15l-128 -178h-184zM363 335h251l-13 16l-39 176l-7 74l-2 -1l-43 -73l-126 -176zM495 939l237 217l72 -97l-261 -186z" />
<glyph unicode="&#xc2;" horiz-adv-x="950" d="M-54 0l586 810h148l185 -810h-183l-41 178l13 15h-402l6 -15l-128 -178h-184zM363 335h251l-13 16l-39 176l-7 74l-2 -1l-43 -73l-126 -176zM436 935l250 200h2l149 -200l-78 -63l-110 114l-166 -114z" />
<glyph unicode="&#xc3;" horiz-adv-x="950" d="M-54 0l586 810h148l185 -810h-183l-41 178l13 15h-402l6 -15l-128 -178h-184zM363 335h251l-13 16l-39 176l-7 74l-2 -1l-43 -73l-126 -176zM396 937q17 33 45 61t64.5 45.5t71.5 17.5q44 0 99 -38q2 -1 12 -8.5t14.5 -10l13.5 -7.5t17 -7t17 -2q60 0 100 78l50 -68 q-32 -57 -82 -90t-102 -33q-45 0 -97 38q-49 34 -76 34q-56 0 -98 -77z" />
<glyph unicode="&#xc4;" horiz-adv-x="950" d="M-54 0l586 810h148l185 -810h-183l-41 178l13 15h-402l6 -15l-128 -178h-184zM363 335h251l-13 16l-39 176l-7 74l-2 -1l-43 -73l-126 -176zM448 982q9 37 34 59.5t61 22.5t49.5 -22.5t4.5 -59.5q-8 -37 -33.5 -59.5t-61.5 -22.5t-49.5 22.5t-4.5 59.5zM698 982 q9 37 34 59.5t61 22.5t50 -22.5t5 -59.5t-34.5 -59.5t-60.5 -22.5q-36 0 -50 22.5t-5 59.5z" />
<glyph unicode="&#xc5;" horiz-adv-x="950" d="M-54 0l586 810h148l185 -810h-183l-41 178l13 15h-402l6 -15l-128 -178h-184zM363 335h251l-13 16l-39 176l-7 74l-2 -1l-43 -73l-126 -176zM532 1000q14 56 54 91t98 35t80.5 -35t8.5 -91q-13 -55 -53 -90t-98 -35t-80.5 35t-9.5 90zM612 1000q-12 -45 30 -45 q40 0 52 45q12 46 -30 46q-40 0 -52 -46z" />
<glyph unicode="&#xc6;" horiz-adv-x="1149" d="M-54 0l585 810h679l-38 -152h-384l4 -16l-36 -145l-15 -16h340l-37 -152h-340l7 -16l-36 -145l-15 -16h387l-37 -152h-545l42 171l14 16h-270l1 -17l-122 -170h-184zM363 339h196l-6 16l70 287l13 16h-50l2 -16l-205 -289z" />
<glyph unicode="&#xc7;" horiz-adv-x="851" d="M84 400q46 187 188.5 303t345.5 116q211 0 300 -142l-144 -117q-52 108 -193 108q-131 0 -213.5 -73t-112.5 -195q-30 -119 15.5 -189t179.5 -70q142 0 249 107l86 -114q-151 -132 -340 -143l14 -16q19 -24 12 -54t-40 -57l-122 -99l-53 71l91 73q31 25 17 47l-29 38 q-165 21 -228.5 129.5t-22.5 276.5z" />
<glyph unicode="&#xc8;" horiz-adv-x="822" d="M20 0l200 810h663l-37 -152h-511l12 -16l-36 -145l-20 -16h463l-37 -152h-464l12 -16l-36 -145l-19 -16h511l-38 -152h-663zM462 1061l119 96l130 -217l-81 -65z" />
<glyph unicode="&#xc9;" horiz-adv-x="822" d="M20 0l200 810h663l-37 -152h-511l12 -16l-36 -145l-20 -16h463l-37 -152h-464l12 -16l-36 -145l-19 -16h511l-38 -152h-663zM474 939l238 217l71 -96l-260 -186z" />
<glyph unicode="&#xca;" horiz-adv-x="822" d="M20 0l200 810h663l-37 -152h-511l12 -16l-36 -145l-20 -16h463l-37 -152h-464l12 -16l-36 -145l-19 -16h511l-38 -152h-663zM390 935l249 200h2l149 -200l-77 -63l-111 114l-165 -114z" />
<glyph unicode="&#xcb;" horiz-adv-x="822" d="M20 0l200 810h663l-37 -152h-511l12 -16l-36 -145l-20 -16h463l-37 -152h-464l12 -16l-36 -145l-19 -16h511l-38 -152h-663zM401 982q8 37 33 59.5t61 22.5t50 -22.5t5 -59.5q-9 -36 -34.5 -58.5t-60.5 -22.5q-36 0 -49.5 22.5t-4.5 58.5zM651 982q9 37 34 59.5t61 22.5 t49.5 -22.5t4.5 -59.5q-8 -36 -33.5 -58.5t-61.5 -22.5t-49.5 22.5t-4.5 58.5z" />
<glyph unicode="&#xcc;" horiz-adv-x="356" d="M25 0l200 810h168l-200 -810h-168zM211 1061l119 96l131 -217l-81 -65z" />
<glyph unicode="&#xcd;" horiz-adv-x="356" d="M25 0l200 810h168l-200 -810h-168zM212 939l238 217l71 -97l-260 -186z" />
<glyph unicode="&#xce;" horiz-adv-x="356" d="M25 0l200 810h168l-200 -810h-168zM139 935l249 200h2l149 -200l-77 -63l-111 114l-165 -114z" />
<glyph unicode="&#xcf;" horiz-adv-x="356" d="M25 0l200 810h168l-200 -810h-168zM152 981q9 37 34 59.5t61 22.5t50 -22.5t5 -59.5q-9 -36 -34.5 -58.5t-60.5 -22.5q-36 0 -50 22.5t-5 58.5zM403 981q9 37 34 59.5t61 22.5t49.5 -22.5t4.5 -59.5q-9 -36 -34 -58.5t-61 -22.5t-49.5 22.5t-4.5 58.5z" />
<glyph unicode="&#xd0;" horiz-adv-x="889" d="M20 0l77 313l13 16h-73l37 152h73l-5 16l78 313h340q406 0 305 -405q-99 -405 -500 -405h-345zM217 152h175q75 0 128.5 18t87 54.5t52.5 78t34 102.5q15 60 16.5 101.5t-14.5 78.5t-61.5 55.5t-121.5 18.5h-171l2 -27l-33 -135l-13 -16h202l-38 -152h-201l4 -16 l-33 -134z" />
<glyph unicode="&#xd1;" horiz-adv-x="911" d="M20 0l200 810h141l255 -446l33 -92h2l133 538h168l-200 -810h-141l-252 446l-36 95h-1l-134 -541h-168zM371 938q27 51 77.5 87.5t103.5 36.5q26 0 49.5 -10.5t49.5 -28.5t38 -24q20 -10 36 -10q61 0 99 77l50 -68q-31 -56 -81 -89t-102 -33q-25 0 -48 9.5t-50 28.5 t-37 24q-22 10 -38 10q-55 0 -98 -77z" />
<glyph unicode="&#xd2;" horiz-adv-x="935" d="M84 400q46 187 182.5 303.5t333.5 116.5q198 0 277 -116.5t33 -303.5q-46 -185 -182.5 -297.5t-332.5 -112.5q-198 0 -277.5 112t-33.5 298zM255 400q-29 -119 13 -188.5t165 -69.5q124 0 200 69t106 189q16 57 12.5 106t-22 85t-61 56.5t-105.5 20.5q-123 0 -200 -72 t-108 -196zM504 1061l119 96l130 -217l-81 -65z" />
<glyph unicode="&#xd3;" horiz-adv-x="935" d="M84 400q46 187 182.5 303.5t333.5 116.5q198 0 277 -116.5t33 -303.5q-46 -185 -182.5 -297.5t-332.5 -112.5q-198 0 -277.5 112t-33.5 298zM255 400q-29 -119 13 -188.5t165 -69.5q124 0 200 69t106 189q16 57 12.5 106t-22 85t-61 56.5t-105.5 20.5q-123 0 -200 -72 t-108 -196zM506 939l237 217l72 -96l-260 -186z" />
<glyph unicode="&#xd4;" horiz-adv-x="935" d="M84 400q46 187 182.5 303.5t333.5 116.5q198 0 277 -116.5t33 -303.5q-46 -185 -182.5 -297.5t-332.5 -112.5q-198 0 -277.5 112t-33.5 298zM255 400q-29 -119 13 -188.5t165 -69.5q124 0 200 69t106 189q16 57 12.5 106t-22 85t-61 56.5t-105.5 20.5q-123 0 -200 -72 t-108 -196zM429 935l249 200h2l149 -200l-77 -63l-111 114l-165 -114z" />
<glyph unicode="&#xd5;" horiz-adv-x="935" d="M84 400q46 187 182.5 303.5t333.5 116.5q198 0 277 -116.5t33 -303.5q-46 -185 -182.5 -297.5t-332.5 -112.5q-198 0 -277.5 112t-33.5 298zM255 400q-29 -119 13 -188.5t165 -69.5q124 0 200 69t106 189q16 57 12.5 106t-22 85t-61 56.5t-105.5 20.5q-123 0 -200 -72 t-108 -196zM378 937q13 25 33 47t43.5 39.5t51 27.5t54.5 10q44 0 99 -38q47 -35 73 -35q60 0 100 78l50 -68q-31 -56 -81 -89.5t-102 -33.5q-46 0 -98 38q-45 34 -75 34q-56 0 -98 -77z" />
<glyph unicode="&#xd6;" horiz-adv-x="935" d="M84 400q46 187 182.5 303.5t333.5 116.5q198 0 277 -116.5t33 -303.5q-46 -185 -182.5 -297.5t-332.5 -112.5q-198 0 -277.5 112t-33.5 298zM255 400q-29 -119 13 -188.5t165 -69.5q124 0 200 69t106 189q16 57 12.5 106t-22 85t-61 56.5t-105.5 20.5q-123 0 -200 -72 t-108 -196zM440 982q9 37 34 59.5t61 22.5t49.5 -22.5t4.5 -59.5q-8 -37 -33.5 -59.5t-61.5 -22.5t-49.5 22.5t-4.5 59.5zM690 982q9 37 34 59.5t61 22.5t50 -22.5t5 -59.5t-34.5 -59.5t-60.5 -22.5q-36 0 -50 22.5t-5 59.5z" />
<glyph unicode="&#xd7;" horiz-adv-x="658" d="M66 246l200 159l-122 159l122 98l117 -162l198 162l73 -98l-200 -159l122 -159l-122 -98l-118 162l-197 -162z" />
<glyph unicode="&#xd8;" horiz-adv-x="935" d="M62 -23l67 82l18 7q-117 113 -63 334q46 187 182.5 304t333.5 117q82 0 148 -23l5 17l43 51l83 -59l-36 -44l-15 -8q141 -115 82 -355q-46 -186 -182.5 -299t-332.5 -113q-110 0 -177 33l-2 -18l-70 -85zM255 400q-29 -116 12 -187l6 21l344 416l17 9q-26 10 -71 10 q-123 0 -200 -72.5t-108 -196.5zM335 159q35 -18 98 -18q124 0 200 69.5t105 189.5q37 152 -27 216l-4 -17l-354 -430z" />
<glyph unicode="&#xd9;" horiz-adv-x="923" d="M107 373l108 437h168l-107 -436q-29 -118 5 -175t146 -57q111 0 174.5 57t91.5 175l108 436h168l-108 -437q-45 -185 -163.5 -284t-307.5 -99t-259 98.5t-24 284.5zM498 1061l119 96l130 -217l-81 -65z" />
<glyph unicode="&#xda;" horiz-adv-x="923" d="M107 373l108 437h168l-107 -436q-29 -118 5 -175t146 -57q111 0 174.5 57t91.5 175l108 436h168l-108 -437q-45 -185 -163.5 -284t-307.5 -99t-259 98.5t-24 284.5zM490 939l237 217l72 -97l-260 -186z" />
<glyph unicode="&#xdb;" horiz-adv-x="923" d="M107 373l108 437h168l-107 -436q-29 -118 5 -175t146 -57q111 0 174.5 57t91.5 175l108 436h168l-108 -437q-45 -185 -163.5 -284t-307.5 -99t-259 98.5t-24 284.5zM421 935l248 200h2l150 -200l-78 -63l-110 114l-166 -114z" />
<glyph unicode="&#xdc;" horiz-adv-x="923" d="M107 373l108 437h168l-107 -436q-29 -118 5 -175t146 -57q111 0 174.5 57t91.5 175l108 436h168l-108 -437q-45 -185 -163.5 -284t-307.5 -99t-259 98.5t-24 284.5zM435 982q8 36 33.5 59t60.5 23q36 0 50 -22.5t5 -59.5t-34.5 -59.5t-60.5 -22.5q-36 0 -49.5 22.5 t-4.5 59.5zM685 982q9 37 34 59.5t61 22.5t49.5 -22.5t4.5 -59.5q-8 -37 -33.5 -59.5t-61.5 -22.5t-49.5 22.5t-4.5 59.5z" />
<glyph unicode="&#xdd;" horiz-adv-x="929" d="M145 810h211l130 -259l25 -77h2l63 77l259 259h210l-482 -476l-83 -334h-169l82 334zM504 938l237 217l72 -96l-260 -186z" />
<glyph unicode="&#xde;" horiz-adv-x="839" d="M20 0l200 810h167l-31 -127l-20 -16h252q139 0 202 -72.5t34 -190.5q-28 -114 -127.5 -188.5t-239.5 -74.5h-250l12 -16l-31 -125h-168zM245 292h249q131 0 159 112t-102 112h-251l11 -17l-47 -190z" />
<glyph unicode="&#xdf;" horiz-adv-x="725" d="M2 -1l155 625q28 115 114 168t202 53q132 0 195 -63.5t37 -171.5q-11 -44 -43.5 -84.5t-75.5 -62.5l-1 -2q56 -18 83 -74.5t8 -132.5q-28 -115 -125.5 -190t-219.5 -75q-81 0 -132 22l39 158q35 -18 59 -24t62 -6q57 0 98 30t54 84t-14.5 87t-85.5 33h-121l36 148l84 -1 q106 -1 127 85q10 41 -18 66t-84 25q-54 0 -80 -21.5t-39 -74.5l-148 -601h-166z" />
<glyph unicode="&#xe0;" horiz-adv-x="783" d="M58 314q36 147 137 236.5t254 89.5q52 0 95 -16t64 -43h2l12 49h165l-155 -631h-166l12 46h-2q-74 -55 -188 -55q-151 0 -208.5 89t-21.5 235zM223 314q-45 -180 120 -180t209 180q46 182 -119 182q-166 0 -210 -182zM388 881l119 96l131 -216l-81 -66z" />
<glyph unicode="&#xe1;" horiz-adv-x="783" d="M58 314q36 147 137 236.5t254 89.5q52 0 95 -16t64 -43h2l12 49h165l-155 -631h-166l12 46h-2q-74 -55 -188 -55q-151 0 -208.5 89t-21.5 235zM223 314q-45 -180 120 -180t209 180q46 182 -119 182q-166 0 -210 -182zM387 761l237 216l72 -96l-261 -186z" />
<glyph unicode="&#xe2;" horiz-adv-x="783" d="M58 314q36 147 137 236.5t254 89.5q52 0 95 -16t64 -43h2l12 49h165l-155 -631h-166l12 46h-2q-74 -55 -188 -55q-151 0 -208.5 89t-21.5 235zM223 314q-45 -180 120 -180t209 180q46 182 -119 182q-166 0 -210 -182zM299 759l250 200h2l149 -200l-78 -63l-110 114 l-166 -114z" />
<glyph unicode="&#xe3;" horiz-adv-x="783" d="M58 314q36 147 137 236.5t254 89.5q52 0 95 -16t64 -43h2l12 49h165l-155 -631h-166l12 46h-2q-74 -55 -188 -55q-151 0 -208.5 89t-21.5 235zM223 314q-45 -180 120 -180t209 180q46 182 -119 182q-166 0 -210 -182zM255 774q28 51 78 87.5t103 36.5q45 0 100 -38 q42 -35 73 -35q60 0 100 78l50 -68q-31 -56 -81 -89.5t-102 -33.5q-46 0 -98 38q-45 34 -75 34q-56 0 -98 -77z" />
<glyph unicode="&#xe4;" horiz-adv-x="783" d="M58 314q36 147 137 236.5t254 89.5q52 0 95 -16t64 -43h2l12 49h165l-155 -631h-166l12 46h-2q-74 -55 -188 -55q-151 0 -208.5 89t-21.5 235zM223 314q-45 -180 120 -180t209 180q46 182 -119 182q-166 0 -210 -182zM301 789q9 37 34 59.5t61 22.5t50 -22.5t5 -59.5 q-9 -36 -34.5 -59t-60.5 -23q-36 0 -50 22.5t-5 59.5zM552 789q9 37 34 59.5t61 22.5t49.5 -22.5t4.5 -59.5t-34 -59.5t-61 -22.5t-49.5 23t-4.5 59z" />
<glyph unicode="&#xe5;" horiz-adv-x="783" d="M58 314q36 147 137 236.5t254 89.5q52 0 95 -16t64 -43h2l12 49h165l-155 -631h-166l12 46h-2q-74 -55 -188 -55q-151 0 -208.5 89t-21.5 235zM223 314q-45 -180 120 -180t209 180q46 182 -119 182q-166 0 -210 -182zM405 820q14 56 53.5 90.5t98.5 34.5q58 0 80.5 -35 t8.5 -90q-13 -55 -53 -90t-98 -35q-59 0 -81 34.5t-9 90.5zM485 820q-12 -45 30 -45q41 0 52 45q11 46 -30 46t-52 -46z" />
<glyph unicode="&#xe6;" horiz-adv-x="1207" d="M58 314q36 147 137 236.5t254 89.5q52 0 95 -16t64 -43h2l12 49h165l-9 -38h2q69 48 152 48q146 0 206.5 -95t26.5 -235q-2 -6 -7.5 -24t-12.5 -41h-472l11 -16q13 -100 126 -100q85 0 177 66l76 -99q-138 -105 -287 -105q-37 0 -75 12.5t-58 32.5h-2l-9 -37h-166l12 46 h-2q-74 -55 -188 -55q-151 0 -208.5 89t-21.5 235zM223 314q-45 -180 120 -180t209 180q46 182 -119 182q-166 0 -210 -182zM708 385h320l-11 16q-13 101 -119 101q-107 0 -171 -101z" />
<glyph unicode="&#xe7;" horiz-adv-x="672" d="M57 311q35 142 148 235.5t269 93.5q158 0 233 -99l-136 -110q-46 65 -132 65q-82 0 -139.5 -51.5t-77.5 -134.5q-20 -80 10 -128.5t115 -48.5t171 68l81 -109q-117 -91 -253 -101l14 -16q19 -24 12 -54t-40 -57l-122 -99l-53 71l91 73q34 28 18 48l-29 39 q-121 20 -165.5 105.5t-14.5 209.5z" />
<glyph unicode="&#xe8;" d="M57 310q35 145 147.5 237.5t267.5 92.5q160 0 222 -92.5t26 -237.5q-8 -33 -19 -60h-498l12 -16q5 -49 41 -77.5t98 -28.5q90 0 178 60l75 -102q-134 -96 -287 -96q-166 0 -232 89.5t-31 230.5zM238 384h339l-12 16q-11 103 -127 103t-180 -103zM370 881l120 96l130 -216 l-81 -66z" />
<glyph unicode="&#xe9;" d="M57 310q35 145 147.5 237.5t267.5 92.5q160 0 222 -92.5t26 -237.5q-8 -33 -19 -60h-498l12 -16q5 -49 41 -77.5t98 -28.5q90 0 178 60l75 -102q-134 -96 -287 -96q-166 0 -232 89.5t-31 230.5zM238 384h339l-12 16q-11 103 -127 103t-180 -103zM372 761l237 216l72 -96 l-260 -186z" />
<glyph unicode="&#xea;" d="M57 310q35 145 147.5 237.5t267.5 92.5q160 0 222 -92.5t26 -237.5q-8 -33 -19 -60h-498l12 -16q5 -49 41 -77.5t98 -28.5q90 0 178 60l75 -102q-134 -96 -287 -96q-166 0 -232 89.5t-31 230.5zM238 384h339l-12 16q-11 103 -127 103t-180 -103zM299 759l250 200h2 l149 -200l-78 -63l-110 114l-166 -114z" />
<glyph unicode="&#xeb;" d="M57 310q35 145 147.5 237.5t267.5 92.5q160 0 222 -92.5t26 -237.5q-8 -33 -19 -60h-498l12 -16q5 -49 41 -77.5t98 -28.5q90 0 178 60l75 -102q-134 -96 -287 -96q-166 0 -232 89.5t-31 230.5zM238 384h339l-12 16q-11 103 -127 103t-180 -103zM304 789q9 37 34 59.5 t61 22.5t49.5 -22.5t4.5 -59.5t-34 -59.5t-61 -22.5t-49.5 23t-4.5 59zM554 789q9 37 34 59.5t61 22.5t50 -22.5t5 -59.5q-9 -36 -34.5 -59t-60.5 -23q-36 0 -50 22.5t-5 59.5z" />
<glyph unicode="&#xec;" horiz-adv-x="329" d="M12 0l156 630h165l-155 -630h-166zM158 881l119 96l130 -216l-81 -66z" />
<glyph unicode="&#xed;" horiz-adv-x="329" d="M12 0l156 630h165l-155 -630h-166zM147 761l238 216l71 -96l-260 -186z" />
<glyph unicode="&#xee;" horiz-adv-x="329" d="M12 0l156 630h165l-155 -630h-166zM83 759l249 200h2l149 -200l-78 -63l-110 114l-166 -114z" />
<glyph unicode="&#xef;" horiz-adv-x="329" d="M12 0l156 630h165l-155 -630h-166zM90 789q8 37 33 59.5t61 22.5t50 -22.5t5 -59.5q-9 -36 -34.5 -59t-60.5 -23q-36 0 -49.5 23t-4.5 59zM340 789q9 37 34 59.5t61 22.5t49.5 -22.5t4.5 -59.5q-9 -36 -34 -59t-61 -23t-49.5 23t-4.5 59z" />
<glyph unicode="&#xf0;" horiz-adv-x="686" d="M46 296q27 109 101.5 188.5t179.5 101.5q33 7 59 8q27 0 43 -3l-24 60l-2 10l-93 -40l-34 95l88 40l-6 8l-32 82h176l9 -20l1 -10l82 36l37 -94l-82 -38l7 -7l78 -192q39 -96 6 -225q-33 -133 -132.5 -219.5t-240.5 -86.5t-198 86t-23 220zM196 290q-19 -75 8 -116 t99 -41q145 0 185 157q19 78 -7.5 124t-97.5 46t-119.5 -46t-67.5 -124z" />
<glyph unicode="&#xf1;" horiz-adv-x="780" d="M12 0l156 631h165l-13 -55h2q87 64 196 64q126 0 184 -66t29 -183l-97 -391h-165l92 375q16 63 -3.5 92t-102.5 29q-71 0 -121 -33.5t-65 -94.5l-91 -368h-166zM268 774q27 51 77.5 87.5t103.5 36.5q44 0 99 -38q46 -35 74 -35q60 0 99 78l50 -68q-31 -57 -81 -90 t-102 -33q-44 0 -98 38q-45 34 -75 34q-56 0 -98 -77z" />
<glyph unicode="&#xf2;" d="M58 315q35 144 143 234.5t268 90.5q161 0 224.5 -90.5t27.5 -234.5q-35 -143 -144 -234t-268 -91q-160 0 -223 90.5t-28 234.5zM223 315q-20 -84 9.5 -133t112.5 -49q84 0 137 48.5t74 133.5q21 84 -8.5 132.5t-113.5 48.5t-137 -48t-74 -133zM363 881l119 96l131 -216 l-81 -66z" />
<glyph unicode="&#xf3;" d="M58 315q35 144 143 234.5t268 90.5q161 0 224.5 -90.5t27.5 -234.5q-35 -143 -144 -234t-268 -91q-160 0 -223 90.5t-28 234.5zM223 315q-20 -84 9.5 -133t112.5 -49q84 0 137 48.5t74 133.5q21 84 -8.5 132.5t-113.5 48.5t-137 -48t-74 -133zM373 761l238 216l72 -96 l-261 -186z" />
<glyph unicode="&#xf4;" d="M58 315q35 144 143 234.5t268 90.5q161 0 224.5 -90.5t27.5 -234.5q-35 -143 -144 -234t-268 -91q-160 0 -223 90.5t-28 234.5zM223 315q-20 -84 9.5 -133t112.5 -49q84 0 137 48.5t74 133.5q21 84 -8.5 132.5t-113.5 48.5t-137 -48t-74 -133zM297 759l250 200h2 l148 -200l-77 -63l-111 114l-165 -114z" />
<glyph unicode="&#xf5;" d="M58 315q35 144 143 234.5t268 90.5q161 0 224.5 -90.5t27.5 -234.5q-35 -143 -144 -234t-268 -91q-160 0 -223 90.5t-28 234.5zM223 315q-20 -84 9.5 -133t112.5 -49q84 0 137 48.5t74 133.5q21 84 -8.5 132.5t-113.5 48.5t-137 -48t-74 -133zM251 774q27 51 77.5 87.5 t103.5 36.5q27 0 50 -10t50 -29t37 -24q20 -10 36 -10q60 0 100 78l50 -68q-32 -57 -82 -90t-102 -33q-45 0 -97 38q-49 34 -76 34q-55 0 -98 -77z" />
<glyph unicode="&#xf6;" d="M58 315q35 144 143 234.5t268 90.5q161 0 224.5 -90.5t27.5 -234.5q-35 -143 -144 -234t-268 -91q-160 0 -223 90.5t-28 234.5zM223 315q-20 -84 9.5 -133t112.5 -49q84 0 137 48.5t74 133.5q21 84 -8.5 132.5t-113.5 48.5t-137 -48t-74 -133zM306 789q9 37 34 59.5 t61 22.5t50 -22.5t5 -59.5t-34.5 -59.5t-60.5 -22.5q-36 0 -50 22.5t-5 59.5zM557 789q8 36 33.5 59t60.5 23q36 0 50 -22.5t5 -59.5t-34 -59.5t-61 -22.5t-49.5 22.5t-4.5 59.5z" />
<glyph unicode="&#xf7;" horiz-adv-x="693" d="M97 333l36 145h524l-35 -145h-525zM230 163q11 43 39.5 68.5t69.5 25.5q42 0 58 -25.5t5 -68.5q-11 -44 -40 -69.5t-70 -25.5t-57 25.5t-5 69.5zM350 647q10 43 39 69t70 26t57 -25.5t5 -69.5q-10 -43 -39 -68.5t-70 -25.5t-57 25.5t-5 68.5z" />
<glyph unicode="&#xf8;" horiz-adv-x="713" d="M27 -18l52 62l19 11q-40 42 -50 113.5t10 146.5q35 144 136.5 234.5t249.5 90.5q75 0 123 -24l7 20l51 63l80 -53l-54 -63l-16 -9q78 -94 37 -259q-36 -145 -137 -235.5t-249 -90.5q-75 0 -123 22l-6 -21l-52 -63zM212 315q-19 -81 3 -120l10 24l213 257l21 12 q-19 8 -50 8q-151 0 -197 -181zM274 142q13 -8 46 -8q152 0 198 181q18 73 -1 120l-10 -26l-210 -251z" />
<glyph unicode="&#xf9;" horiz-adv-x="772" d="M68 246l95 384h166l-93 -375q-15 -60 7.5 -90.5t95.5 -30.5q69 0 118 33.5t64 94.5l91 368h165l-156 -631h-165l13 55h-2q-78 -64 -188 -64q-138 0 -189.5 68t-21.5 188zM368 881l119 96l131 -216l-81 -66z" />
<glyph unicode="&#xfa;" horiz-adv-x="772" d="M68 246l95 384h166l-93 -375q-15 -60 7.5 -90.5t95.5 -30.5q69 0 118 33.5t64 94.5l91 368h165l-156 -631h-165l13 55h-2q-78 -64 -188 -64q-138 0 -189.5 68t-21.5 188zM380 761l237 216l72 -96l-261 -186z" />
<glyph unicode="&#xfb;" horiz-adv-x="772" d="M68 246l95 384h166l-93 -375q-15 -60 7.5 -90.5t95.5 -30.5q69 0 118 33.5t64 94.5l91 368h165l-156 -631h-165l13 55h-2q-78 -64 -188 -64q-138 0 -189.5 68t-21.5 188zM299 759l249 200h2l149 -200l-78 -63l-110 114l-166 -114z" />
<glyph unicode="&#xfc;" horiz-adv-x="772" d="M68 246l95 384h166l-93 -375q-15 -60 7.5 -90.5t95.5 -30.5q69 0 118 33.5t64 94.5l91 368h165l-156 -631h-165l13 55h-2q-78 -64 -188 -64q-138 0 -189.5 68t-21.5 188zM309 789q9 37 34 59.5t61 22.5t49.5 -22.5t4.5 -59.5t-34 -59.5t-61 -22.5t-49.5 23t-4.5 59z M559 789q9 37 34 59.5t61 22.5t50 -22.5t5 -59.5q-9 -36 -34.5 -59t-60.5 -23q-36 0 -50 22.5t-5 59.5z" />
<glyph unicode="&#xfd;" horiz-adv-x="763" d="M-34 -178l37 151q74 -45 126 -45q30 0 56 16t58 64l-143 622h182l77 -362l8 -85h2l47 85l238 362h182l-471 -689q-49 -71 -115.5 -113.5t-137.5 -42.5q-80 0 -146 37zM371 761l238 216l72 -96l-261 -186z" />
<glyph unicode="&#xfe;" horiz-adv-x="783" d="M-40 -210l260 1050h165l-61 -246h2q67 45 170 45q160 0 221 -88.5t25 -236.5q-37 -149 -141 -236.5t-266 -87.5q-107 0 -153 46q-1 0 -1 -1q-1 -12 -14.5 -73.5t-26.5 -116.5l-14 -55h-166zM247 314q-22 -88 6 -132t115 -44q166 0 208 176q22 88 -6 132.5t-114 44.5 q-165 0 -209 -177z" />
<glyph unicode="&#xff;" horiz-adv-x="763" d="M-34 -178l37 151q74 -45 126 -45q58 0 115 86l-144 616h182l77 -351l8 -94h2l51 94l234 351h182l-472 -689q-49 -71 -115.5 -113.5t-137.5 -42.5q-79 0 -145 37zM302 789q9 37 34 59.5t61 22.5t49.5 -22.5t4.5 -59.5t-34 -59.5t-61 -22.5t-49.5 23t-4.5 59zM552 789 q9 37 34 59.5t61 22.5t50 -22.5t5 -59.5q-9 -36 -34.5 -59t-60.5 -23q-36 0 -50 22.5t-5 59.5z" />
<glyph unicode="&#x100;" horiz-adv-x="950" d="M-54 0l586 810h148l185 -810h-183l-41 178l13 15h-402l6 -15l-128 -178h-184zM363 335h251l-13 16l-39 176l-7 74l-2 -1l-43 -73l-126 -176zM424 900l26 105h403l-26 -105h-403z" />
<glyph unicode="&#x101;" horiz-adv-x="783" d="M58 314q36 147 137 236.5t254 89.5q52 0 95 -16t64 -43h2l12 49h165l-155 -631h-166l12 46h-2q-74 -55 -188 -55q-151 0 -208.5 89t-21.5 235zM223 314q-45 -180 120 -180t209 180q46 182 -119 182q-166 0 -210 -182zM318 737l26 105h403l-26 -105h-403z" />
<glyph unicode="&#x102;" horiz-adv-x="950" d="M-54 0l586 810h148l185 -810h-183l-41 178l13 15h-402l6 -15l-128 -178h-184zM363 335h251l-13 16l-39 176l-7 74l-2 -1l-43 -73l-126 -176zM455 1044l111 -1q8 -35 26 -51t54 -16q67 0 115 67h110q-92 -168 -250 -168t-166 169z" />
<glyph unicode="&#x103;" horiz-adv-x="783" d="M58 314q36 147 137 236.5t254 89.5q52 0 95 -16t64 -43h2l12 49h165l-155 -631h-166l12 46h-2q-74 -55 -188 -55q-151 0 -208.5 89t-21.5 235zM223 314q-45 -180 120 -180t209 180q46 182 -119 182q-166 0 -210 -182zM327 858h110q8 -36 26 -52t55 -16q67 0 114 68h110 q-92 -169 -249 -169q-158 0 -166 169z" />
<glyph unicode="&#x104;" horiz-adv-x="950" d="M-54 0l586 810h148l185 -810h-40l-154 -136q-11 -10 -15 -25q-3 -12 4.5 -22t18.5 -10q15 2 23 9l7 6q7 5 15.5 12.5t12.5 10.5l42 -56q-16 -14 -28.5 -25t-17.5 -15q-43 -36 -94 -39q-45 -2 -71 30t-16 79q10 52 64 97l101 84h-35l-41 178l13 15h-402l6 -15l-128 -178 h-184zM363 335h251l-13 16l-39 176l-7 74l-2 -1l-43 -73l-126 -176z" />
<glyph unicode="&#x105;" horiz-adv-x="783" d="M58 314q36 147 137 236.5t254 89.5q52 0 95 -16t64 -43h2l12 49h165l-155 -631h-58l-152 -135q-12 -9 -16 -25q-2 -13 5.5 -22.5t18.5 -9.5q13 2 23 9l7 6q6 5 14.5 12.5t12.5 10.5l42 -56q-18 -16 -46 -40q-43 -36 -93 -39q-45 -2 -71.5 30t-16.5 79q10 52 64 97l100 81 l12 48h-2q-74 -55 -188 -55q-151 0 -208.5 89t-21.5 235zM223 314q-45 -180 120 -180t209 180q46 182 -119 182q-166 0 -210 -182z" />
<glyph unicode="&#x106;" horiz-adv-x="851" d="M84 400q46 187 188.5 303t345.5 116q211 0 300 -142l-144 -117q-52 108 -193 108q-131 0 -213.5 -73t-112.5 -195q-30 -119 15.5 -189t179.5 -70q142 0 249 107l86 -114q-167 -145 -373 -145t-290 112.5t-38 298.5zM511 939l237 217l72 -96l-261 -186z" />
<glyph unicode="&#x107;" horiz-adv-x="672" d="M57 311q35 142 148 235.5t269 93.5q158 0 233 -99l-136 -110q-45 64 -133 64q-82 -1 -139 -52t-77 -133q-20 -80 10 -127.5t116 -47.5q87 0 170 66l81 -109q-133 -102 -287 -102q-163 0 -226.5 90t-28.5 231zM363 761l238 216l72 -96l-261 -186z" />
<glyph unicode="&#x108;" horiz-adv-x="851" d="M84 400q46 187 188.5 303t345.5 116q211 0 300 -142l-144 -117q-52 108 -193 108q-131 0 -213.5 -73t-112.5 -195q-30 -119 15.5 -189t179.5 -70q142 0 249 107l86 -114q-167 -145 -373 -145t-290 112.5t-38 298.5zM437 935l249 201h3l148 -201l-77 -62l-111 113 l-165 -113z" />
<glyph unicode="&#x109;" horiz-adv-x="672" d="M57 311q35 142 148 235.5t269 93.5q158 0 233 -99l-136 -110q-45 64 -133 64q-82 -1 -139 -52t-77 -133q-20 -80 10 -127.5t116 -47.5q87 0 170 66l81 -109q-133 -102 -287 -102q-163 0 -226.5 90t-28.5 231zM287 759l250 200h2l148 -200l-77 -63l-111 114l-165 -114z " />
<glyph unicode="&#x10a;" horiz-adv-x="844" d="M79 400q46 187 188.5 303t345.5 116q211 0 300 -142l-144 -117q-52 108 -193 108q-131 0 -213.5 -73t-112.5 -195q-30 -119 15.5 -189t179.5 -70q142 0 249 107l86 -114q-167 -145 -373 -145t-290 112.5t-38 298.5zM558 974q10 39 38.5 63.5t66.5 24.5t54.5 -24.5 t7.5 -63.5q-10 -40 -39 -64.5t-67 -24.5t-54.5 24.5t-6.5 64.5z" />
<glyph unicode="&#x10b;" horiz-adv-x="672" d="M57 311q35 142 148 235.5t269 93.5q158 0 233 -99l-136 -110q-45 64 -133 64q-82 -1 -139 -52t-77 -133q-20 -80 10 -127.5t116 -47.5q87 0 170 66l81 -109q-133 -102 -287 -102q-163 0 -226.5 90t-28.5 231zM421 796q10 39 38.5 63.5t66.5 24.5t54.5 -24.5t7.5 -63.5 q-10 -39 -39 -64t-67 -25t-54.5 25t-6.5 64z" />
<glyph unicode="&#x10c;" horiz-adv-x="851" d="M84 400q46 187 188.5 303t345.5 116q211 0 300 -142l-144 -117q-52 108 -193 108q-131 0 -213.5 -73t-112.5 -195q-30 -119 15.5 -189t179.5 -70q142 0 249 107l86 -114q-167 -145 -373 -145t-290 112.5t-38 298.5zM472 1076l78 62l110 -113l166 113l46 -62l-249 -201h-2 z" />
<glyph unicode="&#x10d;" horiz-adv-x="672" d="M57 311q35 142 148 235.5t269 93.5q158 0 233 -99l-136 -110q-45 64 -133 64q-82 -1 -139 -52t-77 -133q-20 -80 10 -127.5t116 -47.5q87 0 170 66l81 -109q-133 -102 -287 -102q-163 0 -226.5 90t-28.5 231zM332 897l78 62l110 -113l166 113l46 -62l-249 -201h-2z" />
<glyph unicode="&#x10e;" horiz-adv-x="889" d="M20 0l200 810h340q406 0 305 -405q-99 -405 -500 -405h-345zM210 152h182q75 0 128.5 18t87 54.5t52.5 78t34 102.5q15 60 16 101.5t-14.5 78t-61.5 55t-122 18.5h-177l12 -16l-118 -474zM421 1076l77 62l111 -113l165 113l47 -62l-250 -201h-2z" />
<glyph unicode="&#x10f;" horiz-adv-x="914" d="M58 314q36 146 139.5 236t256.5 90q46 0 89.5 -16t64.5 -43h2l64 258h165l-207 -840h-166l12 46h-2q-74 -55 -183 -55q-151 0 -211 89.5t-24 234.5zM223 314q-45 -180 120 -180t209 180q46 182 -119 182q-166 0 -210 -182zM881 731l59 72l20 12q-25 5 -35.5 28t-2.5 56 q10 40 36.5 63.5t65.5 23.5t53.5 -23.5t4.5 -63.5q-7 -29 -27 -54l-120 -150z" />
<glyph unicode="&#x110;" horiz-adv-x="889" d="M20 0l77 313l13 16h-73l37 152h73l-5 16l78 313h340q406 0 305 -405q-99 -405 -500 -405h-345zM217 152h175q75 0 128.5 18t87 54.5t52.5 78t34 102.5q15 60 16.5 101.5t-14.5 78.5t-61.5 55.5t-121.5 18.5h-171l2 -27l-33 -135l-13 -16h202l-38 -152h-201l4 -16 l-33 -134z" />
<glyph unicode="&#x111;" horiz-adv-x="783" d="M58 314q36 146 139.5 236t256.5 90q46 0 89.5 -16t64.5 -43h2l25 101l10 12h-207l25 100h207l-4 13l8 33h165l-8 -33l-10 -13h55l-25 -100h-55l4 -12l-168 -683h-166l12 46h-2q-74 -55 -183 -55q-151 0 -211 89.5t-24 234.5zM223 314q-45 -180 120 -180t209 180 q46 182 -119 182q-166 0 -210 -182z" />
<glyph unicode="&#x112;" horiz-adv-x="822" d="M20 0l200 810h663l-37 -152h-511l12 -16l-36 -145l-20 -16h463l-37 -152h-464l12 -16l-36 -145l-19 -16h511l-38 -152h-663zM388 900l26 105h403l-26 -105h-403z" />
<glyph unicode="&#x113;" d="M57 310q35 145 147.5 237.5t267.5 92.5q160 0 222 -92.5t26 -237.5q-8 -33 -19 -60h-498l12 -16q5 -49 41 -77.5t98 -28.5q90 0 178 60l75 -102q-134 -96 -287 -96q-166 0 -232 89.5t-31 230.5zM238 384h339l-12 16q-11 103 -127 103t-180 -103zM299 737l26 105h403 l-26 -105h-403z" />
<glyph unicode="&#x114;" horiz-adv-x="822" d="M20 0l200 810h663l-37 -152h-511l12 -16l-36 -145l-20 -16h463l-37 -152h-464l12 -16l-36 -145l-19 -16h511l-38 -152h-663zM409 1044h111q8 -36 26 -52t55 -16q36 0 62 16t52 52h110q-92 -169 -250 -169t-166 169z" />
<glyph unicode="&#x115;" d="M57 310q35 145 147.5 237.5t267.5 92.5q160 0 222 -92.5t26 -237.5q-8 -33 -19 -60h-498l12 -16q5 -49 41 -77.5t98 -28.5q90 0 178 60l75 -102q-134 -96 -287 -96q-166 0 -232 89.5t-31 230.5zM238 384h339l-12 16q-11 103 -127 103t-180 -103zM319 858h111 q7 -35 25 -51.5t55 -16.5q67 0 114 68h111q-92 -169 -250 -169t-166 169z" />
<glyph unicode="&#x116;" horiz-adv-x="822" d="M20 0l200 810h663l-37 -152h-511l12 -16l-36 -145l-20 -16h463l-37 -152h-464l12 -16l-36 -145l-19 -16h511l-38 -152h-663zM510 974q10 39 38.5 63.5t66.5 24.5t54.5 -24.5t7.5 -63.5q-10 -40 -39 -64.5t-67 -24.5t-54.5 24.5t-6.5 64.5z" />
<glyph unicode="&#x117;" d="M57 310q35 145 147.5 237.5t267.5 92.5q160 0 222 -92.5t26 -237.5q-8 -33 -19 -60h-498l12 -16q5 -49 41 -77.5t98 -28.5q90 0 178 60l75 -102q-134 -96 -287 -96q-166 0 -232 89.5t-31 230.5zM238 384h339l-12 16q-11 103 -127 103t-180 -103zM425 796q10 39 38.5 63.5 t66.5 24.5t54.5 -24.5t7.5 -63.5q-10 -39 -39 -64t-67 -25t-54.5 25t-6.5 64z" />
<glyph unicode="&#x118;" horiz-adv-x="822" d="M20 0l200 810h663l-37 -152h-511l12 -16l-36 -145l-20 -16h463l-37 -152h-464l12 -16l-36 -145l-19 -16h511l-38 -152h-26l-154 -136q-11 -10 -15 -25q-2 -13 5 -22.5t18 -9.5q14 2 24 9l7 6q6 5 14.5 12.5t12.5 10.5l42 -56q-16 -14 -28.5 -25t-17.5 -15 q-43 -36 -93 -39q-46 -2 -72 30t-16 79q10 52 64 97l102 84h-530z" />
<glyph unicode="&#x119;" d="M57 310q35 145 147.5 237.5t267.5 92.5q160 0 222 -92.5t26 -237.5q-8 -33 -19 -60h-498l12 -16q5 -49 41 -77.5t98 -28.5q90 0 178 60l75 -102q-52 -37 -104 -59l-185 -163q-11 -10 -15 -25q-3 -12 4.5 -22t18.5 -10q15 2 23 9l7 6q7 5 15.5 12.5t12.5 10.5l42 -56 q-16 -14 -28.5 -25t-17.5 -15q-43 -36 -94 -39q-45 -2 -71 30t-16 79q10 52 64 97l91 75q-11 -1 -34 -1q-166 0 -232 89.5t-31 230.5zM238 384h339l-12 16q-11 103 -127 103t-180 -103z" />
<glyph unicode="&#x11a;" horiz-adv-x="822" d="M20 0l200 810h663l-37 -152h-511l12 -16l-36 -145l-20 -16h463l-37 -152h-464l12 -16l-36 -145l-19 -16h511l-38 -152h-663zM427 1076l78 62l110 -113l166 113l46 -62l-249 -201h-2z" />
<glyph unicode="&#x11b;" d="M57 310q35 145 147.5 237.5t267.5 92.5q160 0 222 -92.5t26 -237.5q-8 -33 -19 -60h-498l12 -16q5 -49 41 -77.5t98 -28.5q90 0 178 60l75 -102q-134 -96 -287 -96q-166 0 -232 89.5t-31 230.5zM238 384h339l-12 16q-11 103 -127 103t-180 -103zM332 897l78 62l110 -113 l166 113l46 -62l-249 -201h-2z" />
<glyph unicode="&#x11c;" horiz-adv-x="950" d="M83 398q48 192 192 307t346 115q214 0 301 -125l-145 -118q-56 92 -193 92q-132 0 -214.5 -70t-114.5 -201q-64 -257 193 -257q91 0 163.5 48.5t99.5 124.5l20 16h-277l37 151h420l-119 -482h-146l19 77q-45 -38 -115.5 -62t-139.5 -24q-201 0 -287 110t-40 298zM437 935 l249 201h3l148 -201l-77 -62l-111 113l-165 -113z" />
<glyph unicode="&#x11d;" horiz-adv-x="783" d="M-16 -124l138 112q74 -60 172 -60q75 0 123.5 35.5t63.5 98.5l5 18h-2q-76 -48 -174 -48q-156 0 -218.5 83t-28.5 221q32 131 138 217.5t258 86.5q45 0 88 -15t63 -38h2l10 43h166l-139 -562q-34 -136 -134 -209.5t-256 -73.5q-164 0 -275 91zM228 334q-18 -74 14 -116 t112 -42q164 0 203 158q19 75 -12 119t-112 44q-82 0 -134.5 -44.5t-70.5 -118.5zM311 759l249 200h2l149 -200l-77 -63l-111 114l-165 -114z" />
<glyph unicode="&#x11e;" horiz-adv-x="950" d="M83 398q48 192 192 307t346 115q214 0 301 -125l-145 -118q-56 92 -193 92q-132 0 -214.5 -70t-114.5 -201q-64 -257 193 -257q91 0 163.5 48.5t99.5 124.5l20 16h-277l37 151h420l-119 -482h-146l19 77q-45 -38 -115.5 -62t-139.5 -24q-201 0 -287 110t-40 298z M463 1044h111q8 -36 26 -52t54 -16q37 0 63 16t52 52h110q-92 -169 -250 -169t-166 169z" />
<glyph unicode="&#x11f;" horiz-adv-x="783" d="M-16 -124l138 112q74 -60 172 -60q75 0 123.5 35.5t63.5 98.5l5 18h-2q-76 -48 -174 -48q-156 0 -218.5 83t-28.5 221q32 131 138 217.5t258 86.5q45 0 88 -15t63 -38h2l10 43h166l-139 -562q-34 -136 -134 -209.5t-256 -73.5q-164 0 -275 91zM228 334q-18 -74 14 -116 t112 -42q164 0 203 158q19 75 -12 119t-112 44q-82 0 -134.5 -44.5t-70.5 -118.5zM318 858h111q8 -36 26 -52t54 -16q37 0 63 16t52 52h110q-92 -169 -250 -169t-166 169z" />
<glyph unicode="&#x120;" horiz-adv-x="950" d="M83 398q48 192 192 307t346 115q214 0 301 -125l-145 -118q-56 92 -193 92q-132 0 -214.5 -70t-114.5 -201q-64 -257 193 -257q91 0 163.5 48.5t99.5 124.5l20 16h-277l37 151h420l-119 -482h-146l19 77q-45 -38 -115.5 -62t-139.5 -24q-201 0 -287 110t-40 298zM565 974 q10 39 39 63.5t67 24.5t54.5 -24.5t6.5 -63.5q-10 -40 -38.5 -64.5t-66.5 -24.5t-54.5 24.5t-7.5 64.5z" />
<glyph unicode="&#x121;" horiz-adv-x="783" d="M-16 -124l138 112q74 -60 172 -60q75 0 123.5 35.5t63.5 98.5l5 18h-2q-76 -48 -174 -48q-156 0 -218.5 83t-28.5 221q32 131 138 217.5t258 86.5q45 0 88 -15t63 -38h2l10 43h166l-139 -562q-34 -136 -134 -209.5t-256 -73.5q-164 0 -275 91zM228 334q-18 -74 14 -116 t112 -42q164 0 203 158q19 75 -12 119t-112 44q-82 0 -134.5 -44.5t-70.5 -118.5zM425 796q10 39 38.5 63.5t66.5 24.5t54.5 -24.5t7.5 -63.5q-10 -39 -39 -64t-67 -25t-54.5 25t-6.5 64z" />
<glyph unicode="&#x124;" horiz-adv-x="911" d="M20 0l200 810h168l-77 -313l-20 -16h428l-12 16l77 313h168l-200 -810h-168l77 313l20 16h-427l11 -16l-77 -313h-168zM416 935l250 201h2l148 -201l-77 -62l-110 113l-166 -113z" />
<glyph unicode="&#x125;" horiz-adv-x="780" d="M12 0l208 840h165l-64 -257h2q36 26 88 41t100 15q135 0 191 -69t28 -184l-96 -386h-165l90 368q16 61 -4 93.5t-101 32.5q-70 0 -121 -35t-66 -98l-89 -361h-166zM359 936l249 201h2l149 -201l-77 -62l-111 113l-165 -113z" />
<glyph unicode="&#x126;" horiz-adv-x="910" d="M20 0l133 537l12 15l-48 1l32 132h49l-4 16l26 109h169l-27 -109l-12 -16h412l-4 16l27 109h168l-27 -109l-12 -16h47l-33 -132h-46l4 -16l-133 -537h-168l77 313l15 16h-418l7 -16l-77 -313h-169zM298 481h415l-7 10l12 50l9 11h-408l3 -11l-12 -50z" />
<glyph unicode="&#x127;" horiz-adv-x="785" d="M17 0l169 682l9 12h-54l25 101h54l-4 12l9 33h165l-8 -33l-10 -12h207l-25 -101h-207l4 -12l-25 -100l2 1q86 56 188 56q135 0 191 -69t28 -184l-96 -386h-165l90 368q16 61 -4 93.5t-101 32.5q-70 0 -121 -35t-66 -98l-89 -361h-166z" />
<glyph unicode="&#x128;" horiz-adv-x="356" d="M25 0l200 810h168l-200 -810h-168zM87 937q28 51 78.5 87.5t103.5 36.5q44 0 99 -38q47 -35 73 -35q60 0 100 78l50 -68q-31 -56 -81 -89.5t-102 -33.5q-46 0 -98 38q-45 34 -75 34q-56 0 -98 -77z" />
<glyph unicode="&#x129;" horiz-adv-x="329" d="M12 0l156 630h165l-155 -630h-166zM29 774q27 51 77.5 87.5t103.5 36.5q44 0 99 -38q46 -35 74 -35q60 0 99 78l50 -68q-31 -57 -81 -90t-102 -33q-46 0 -98 38q-45 34 -75 34q-56 0 -98 -77z" />
<glyph unicode="&#x12a;" horiz-adv-x="356" d="M25 0l200 810h168l-200 -810h-168zM129 900l26 105h403l-26 -105h-403z" />
<glyph unicode="&#x12b;" horiz-adv-x="329" d="M12 0l156 630h165l-155 -630h-166zM76 737l26 105h403l-26 -105h-403z" />
<glyph unicode="&#x12c;" horiz-adv-x="356" d="M25 0l200 810h168l-200 -810h-168zM159 1044h111q7 -35 25 -51.5t55 -16.5q67 0 114 68h111q-92 -169 -250 -169t-166 169z" />
<glyph unicode="&#x12d;" horiz-adv-x="329" d="M12 0l156 630h165l-155 -630h-166zM100 858h110q8 -36 26 -52t55 -16q67 0 114 68h110q-92 -169 -249 -169q-158 0 -166 169z" />
<glyph unicode="&#x12e;" horiz-adv-x="356" d="M-105 -181q10 52 64 97l102 84h-36l200 810h168l-200 -810h-25l-154 -136q-11 -10 -15 -25q-2 -13 5 -22.5t18 -9.5q14 2 23 9l7 6q7 5 15.5 12.5t12.5 10.5l42 -56q-16 -14 -28.5 -25t-17.5 -15q-43 -36 -93 -39q-46 -2 -72 30t-16 79z" />
<glyph unicode="&#x12f;" horiz-adv-x="328" d="M-117 -181q10 52 64 97l102 84h-37l155 630h166l-156 -630h-21l-154 -136q-11 -10 -15 -25q-2 -13 5 -22.5t18 -9.5q14 2 24 9l6 6q7 5 15.5 12.5t12.5 10.5l42 -56q-16 -14 -28.5 -25t-17.5 -15q-43 -36 -93 -39q-45 -2 -71.5 29.5t-16.5 79.5zM195 764q10 40 41 66 t70 26q40 0 58.5 -26t8.5 -66q-10 -39 -41.5 -65.5t-70.5 -26.5t-57.5 26.5t-8.5 65.5z" />
<glyph unicode="&#x130;" horiz-adv-x="356" d="M25 0l200 810h168l-200 -810h-168zM266 974q10 39 38.5 63.5t66.5 24.5t54.5 -24.5t7.5 -63.5q-10 -40 -39 -64.5t-67 -24.5t-54.5 24.5t-6.5 64.5z" />
<glyph unicode="&#x131;" horiz-adv-x="344" d="M20 0l155 630h166l-156 -630h-165z" />
<glyph unicode="&#x132;" horiz-adv-x="995" d="M25 0l200 810h168l-200 -810h-168zM276 124l142 115q20 -45 57.5 -71t78.5 -26q154 0 194 159l125 509h169l-125 -504q-17 -68 -48 -122.5t-69.5 -90t-86.5 -59.5t-96.5 -34t-100.5 -10q-164 0 -240 134z" />
<glyph unicode="&#x133;" horiz-adv-x="631" d="M12 0l156 630h165l-155 -630h-166zM125 -190l35 142q41 -25 87 -25q23 0 40 13.5t23 38.5l161 651h165l-162 -656q-47 -189 -242 -189q-50 0 -107 25zM195 764q10 39 41.5 65.5t70.5 26.5t57.5 -26.5t8.5 -65.5t-41 -65.5t-70 -26.5t-58 26.5t-9 65.5zM498 764 q10 40 41 66t70 26t58 -26.5t9 -65.5t-41.5 -65.5t-70.5 -26.5t-57.5 26.5t-8.5 65.5z" />
<glyph unicode="&#x134;" horiz-adv-x="681" d="M-39 124l143 115q20 -45 57 -71t79 -26t78 13t68.5 50t47.5 96l125 509h168l-124 -504q-17 -68 -48 -122.5t-70 -90t-86.5 -59.5t-96 -34t-100.5 -10q-165 0 -241 134zM469 935l250 201h2l148 -201l-77 -62l-111 113l-165 -113z" />
<glyph unicode="&#x135;" horiz-adv-x="324" d="M-183 -190l36 142q40 -25 87 -25q49 0 63 52l160 651h166l-162 -656q-47 -189 -242 -189q-51 0 -108 25zM73 759l250 200h2l148 -200l-77 -63l-110 114l-166 -114z" />
<glyph unicode="&#x138;" horiz-adv-x="766" d="M12 0l156 630h165l-155 -630h-166zM267 320l370 310h204l-376 -309v-1l231 -320h-210z" />
<glyph unicode="&#x139;" horiz-adv-x="721" d="M20 0l200 810h168l-159 -643l-19 -15h464l-37 -152h-617zM231 939l238 217l71 -96l-260 -186z" />
<glyph unicode="&#x13a;" horiz-adv-x="329" d="M12 0l208 840h165l-207 -840h-166zM200 949l238 217l71 -96l-260 -186z" />
<glyph unicode="&#x13d;" horiz-adv-x="721" d="M20 0l200 810h168l-159 -643l-19 -15h464l-37 -152h-617zM436 565l59 72l19 12q-24 5 -34.5 28t-2.5 56q9 39 36 63t65 24q39 0 54 -23.5t5 -63.5q-7 -29 -27 -54l-120 -150z" />
<glyph unicode="&#x13e;" horiz-adv-x="448" d="M12 0l208 840h165l-207 -840h-166zM392 590l59 73l19 11q-24 6 -34.5 29t-3.5 56q10 39 37 63t65 24q39 0 54 -24t5 -63q-6 -28 -28 -55l-119 -150z" />
<glyph unicode="&#x13f;" horiz-adv-x="721" d="M20 0l200 810h168l-159 -643l-19 -15h464l-37 -152h-617zM375 434q10 39 38.5 64t66.5 25q39 0 55.5 -24.5t6.5 -64.5q-10 -39 -38.5 -63.5t-66.5 -24.5t-54.5 24.5t-7.5 63.5z" />
<glyph unicode="&#x140;" horiz-adv-x="487" d="M12 0l208 840h165l-207 -840h-166zM358 434q10 39 38.5 64t66.5 25t54.5 -24.5t7.5 -64.5q-10 -39 -39 -63.5t-67 -24.5t-54.5 24.5t-6.5 63.5z" />
<glyph unicode="&#x141;" horiz-adv-x="708" d="M-4 233l38 156l85 31l-5 13l93 377h169l-78 -313l-12 -18l230 81l-38 -157l-231 -81l5 -15l-35 -139l-20 -16h465l-38 -152h-617l61 246l13 18z" />
<glyph unicode="&#x142;" horiz-adv-x="319" d="M7 0l73 292l11 19l-84 -33l37 151l85 33l-4 13l90 365h165l-74 -299l-12 -18l85 32l-37 -150l-85 -32l4 -15l-88 -358h-166z" />
<glyph unicode="&#x143;" horiz-adv-x="911" d="M20 0l200 810h141l255 -446l33 -92h2l133 538h168l-200 -810h-141l-252 446l-36 95h-1l-134 -541h-168zM485 939l238 217l71 -96l-260 -186z" />
<glyph unicode="&#x144;" horiz-adv-x="780" d="M12 0l156 631h165l-13 -55h2q87 64 196 64q126 0 184 -66t29 -183l-97 -391h-165l92 375q16 63 -3.5 92t-102.5 29q-71 0 -121 -33.5t-65 -94.5l-91 -368h-166zM382 761l237 216l72 -96l-261 -186z" />
<glyph unicode="&#x147;" horiz-adv-x="911" d="M20 0l200 810h141l255 -446l33 -92h2l133 538h168l-200 -810h-141l-252 446l-36 95h-1l-134 -541h-168zM450 1076l78 62l110 -113l166 113l47 -62l-250 -201h-2z" />
<glyph unicode="&#x148;" horiz-adv-x="780" d="M12 0l156 631h165l-13 -55h2q87 64 196 64q126 0 184 -66t29 -183l-97 -391h-165l92 375q16 63 -3.5 92t-102.5 29q-71 0 -121 -33.5t-65 -94.5l-91 -368h-166zM363 897l78 62l110 -113l166 113l47 -62l-250 -201h-2z" />
<glyph unicode="&#x149;" horiz-adv-x="875" d="M71 564l59 72l19 12q-24 5 -34.5 28t-3.5 56q10 39 37 63t65 24q39 0 54 -23.5t5 -63.5q-6 -27 -28 -54l-119 -150zM107 0l156 631h165l-14 -55h2q87 64 197 64q125 0 183 -66t29 -183l-96 -391h-166l93 375q15 63 -4.5 92t-102.5 29q-70 0 -120.5 -33.5t-65.5 -94.5 l-91 -368h-165z" />
<glyph unicode="&#x14a;" horiz-adv-x="911" d="M20 0l200 810h141l255 -446l33 -92h2l133 538h168l-217 -882q-18 -72 -80 -118t-127 -46t-100 40.5t-19 105.5l10 38h112l-7 -30q-4 -16 3 -26t21 -10q13 0 25.5 10t16.5 27l19 74q2 11 -9 29l-241 424l-36 95h-1l-134 -541h-168z" />
<glyph unicode="&#x14b;" horiz-adv-x="780" d="M12 0l156 631h165l-13 -55h2q85 64 196 64q123 0 182.5 -65t30.5 -184q-10 -39 -58 -233t-58 -233q-18 -73 -81.5 -117t-134.5 -44q-69 0 -107.5 41.5t-21.5 109.5l9 36l117 -1q-10 -27 -10 -45q-3 -26 25 -26q13 0 24.5 9.5t15.5 25.5q22 89 63 255.5t51 205.5 q16 66 -8.5 93.5t-101.5 27.5q-67 0 -119 -32.5t-67 -95.5l-91 -368h-166z" />
<glyph unicode="&#x14c;" horiz-adv-x="935" d="M84 400q46 187 182.5 303.5t333.5 116.5q198 0 277 -116.5t33 -303.5q-46 -185 -182.5 -297.5t-332.5 -112.5q-198 0 -277.5 112t-33.5 298zM255 400q-29 -119 13 -188.5t165 -69.5q124 0 200 69t106 189q16 57 12.5 106t-22 85t-61 56.5t-105.5 20.5q-123 0 -200 -72 t-108 -196zM419 900l26 105h403l-26 -105h-403z" />
<glyph unicode="&#x14d;" d="M58 315q35 144 143 234.5t268 90.5q161 0 224.5 -90.5t27.5 -234.5q-35 -143 -144 -234t-268 -91q-160 0 -223 90.5t-28 234.5zM223 315q-20 -84 9.5 -133t112.5 -49q84 0 137 48.5t74 133.5q21 84 -8.5 132.5t-113.5 48.5t-137 -48t-74 -133zM293 737l26 105h403 l-26 -105h-403z" />
<glyph unicode="&#x14e;" horiz-adv-x="935" d="M84 400q46 187 182.5 303.5t333.5 116.5q198 0 277 -116.5t33 -303.5q-46 -185 -182.5 -297.5t-332.5 -112.5q-198 0 -277.5 112t-33.5 298zM255 400q-29 -119 13 -188.5t165 -69.5q124 0 200 69t106 189q16 57 12.5 106t-22 85t-61 56.5t-105.5 20.5q-123 0 -200 -72 t-108 -196zM446 1044h111q7 -35 25.5 -51.5t54.5 -16.5q67 0 114 68h111q-92 -169 -250 -169t-166 169z" />
<glyph unicode="&#x14f;" d="M58 315q35 144 143 234.5t268 90.5q161 0 224.5 -90.5t27.5 -234.5q-35 -143 -144 -234t-268 -91q-160 0 -223 90.5t-28 234.5zM223 315q-20 -84 9.5 -133t112.5 -49q84 0 137 48.5t74 133.5q21 84 -8.5 132.5t-113.5 48.5t-137 -48t-74 -133zM316 858h111 q7 -35 25 -51.5t55 -16.5q67 0 114 68h111q-92 -169 -250 -169t-166 169z" />
<glyph unicode="&#x150;" horiz-adv-x="935" d="M84 400q46 187 182.5 303.5t333.5 116.5q198 0 277 -116.5t33 -303.5q-46 -185 -182.5 -297.5t-332.5 -112.5q-198 0 -277.5 112t-33.5 298zM255 400q-29 -119 13 -188.5t165 -69.5q124 0 200 69t106 189q16 57 12.5 106t-22 85t-61 56.5t-105.5 20.5q-123 0 -200 -72 t-108 -196zM443 935l191 180l69 -93l-215 -147zM671 935l191 180l69 -93l-216 -147z" />
<glyph unicode="&#x151;" d="M58 315q35 144 143 234.5t268 90.5q161 0 224.5 -90.5t27.5 -234.5q-35 -143 -144 -234t-268 -91q-160 0 -223 90.5t-28 234.5zM223 315q-20 -84 9.5 -133t112.5 -49q84 0 137 48.5t74 133.5q21 84 -8.5 132.5t-113.5 48.5t-137 -48t-74 -133zM296 746l191 181l69 -93 l-216 -148zM523 746l192 181l69 -93l-216 -148z" />
<glyph unicode="&#x152;" horiz-adv-x="1156" d="M84 400q45 184 162 302t283 118q103 0 147 -55l12 46h529l-37 -152h-369l4 -17l-37 -146l-12 -15h331l-37 -152h-331l4 -17l-36 -143l-12 -18h369l-37 -152h-530l12 47q-77 -56 -175 -56q-84 0 -142.5 31.5t-85.5 86.5t-31.5 130t19.5 162zM255 400q-30 -121 -2.5 -189.5 t109.5 -68.5t143 68t91 190q31 122 4 195t-108 73q-82 0 -144 -71t-93 -197z" />
<glyph unicode="&#x153;" horiz-adv-x="1202" d="M58 315q36 145 139 235t262 90q141 0 205 -87q116 87 247 87q160 0 222 -92t27 -237q-12 -42 -20 -61h-498l12 -16q6 -49 42 -77.5t98 -28.5q90 0 177 61l75 -102q-132 -97 -287 -97q-72 0 -128 23t-87 62q-103 -85 -245 -85q-81 0 -137.5 25t-83 69t-33 103t12.5 128z M220 315q-44 -182 115 -182q157 0 201 182q45 181 -112 181q-159 0 -204 -181zM676 384h338l-11 16q-11 103 -128 103q-114 0 -180 -103z" />
<glyph unicode="&#x154;" horiz-adv-x="876" d="M20 0l200 810h388q129 0 201.5 -65t42.5 -188q-15 -62 -68.5 -116.5t-116.5 -80.5v-2q44 -22 60 -84l74 -274h-188l-57 214q-13 48 -47 69.5t-102 21.5h-159l12 -15l-72 -290h-168zM283 450h225q73 0 117 29.5t55 73.5q13 52 -15 78.5t-94 26.5h-236l12 -15l-44 -177z M478 939l237 217l72 -96l-261 -186z" />
<glyph unicode="&#x155;" horiz-adv-x="485" d="M12 0l156 630h165l-21 -84h2q80 91 205 91h36l-38 -152h-48q-88 0 -140 -42t-74 -131l-77 -312h-166zM251 760l238 217l72 -96l-261 -186z" />
<glyph unicode="&#x158;" horiz-adv-x="876" d="M20 0l200 810h388q129 0 201.5 -65t42.5 -188q-15 -62 -68.5 -116.5t-116.5 -80.5v-2q44 -22 60 -84l74 -274h-188l-57 214q-13 48 -47 69.5t-102 21.5h-159l12 -15l-72 -290h-168zM283 450h225q73 0 117 29.5t55 73.5q13 52 -15 78.5t-94 26.5h-236l12 -15l-44 -177z M423 1076l78 62l110 -113l166 113l46 -62l-249 -201h-2z" />
<glyph unicode="&#x159;" horiz-adv-x="485" d="M12 0l156 630h165l-21 -84h2q80 91 205 91h36l-38 -152h-48q-88 0 -140 -42t-74 -131l-77 -312h-166zM228 897l78 62l110 -113l166 113l46 -62l-249 -201h-2z" />
<glyph unicode="&#x15a;" horiz-adv-x="837" d="M13 133l146 118q94 -110 243 -110q92 0 142 25t59 62q6 25 -16.5 49.5t-88.5 42.5q-66 16 -139 37q-56 16 -95.5 33t-73.5 43t-46 64.5t0 87.5q25 101 134.5 168t274.5 67q216 0 316 -139l-147 -118q-30 49 -84.5 77.5t-122.5 28.5q-91 0 -140.5 -23.5t-57.5 -56.5 q-7 -26 23.5 -45t121.5 -43q68 -21 121 -33q115 -30 163.5 -92t28.5 -145q-25 -102 -133 -171.5t-284 -69.5q-233 0 -345 143zM454 939l238 217l72 -96l-261 -186z" />
<glyph unicode="&#x15b;" horiz-adv-x="694" d="M7 108l132 108q30 -42 77 -65t101 -23q65 0 98.5 16t38.5 37q4 17 -8.5 29.5t-60.5 24.5q-5 1 -51 14t-53 15q-43 12 -74 25t-59 34.5t-38 53.5t0 73q21 84 108.5 136.5t218.5 52.5q173 0 254 -105l-129 -103q-53 71 -158 71q-62 0 -92.5 -16t-34.5 -34 q-5 -18 15.5 -28.5t80.5 -26.5q25 -6 94 -27q95 -25 133.5 -68.5t21.5 -113.5q-22 -86 -109.5 -142.5t-226.5 -56.5q-172 0 -279 119zM345 761l237 216l72 -96l-261 -186z" />
<glyph unicode="&#x15c;" horiz-adv-x="837" d="M13 133l146 118q94 -110 243 -110q92 0 142 25t59 62q6 25 -16.5 49.5t-88.5 42.5q-66 16 -139 37q-56 16 -95.5 33t-73.5 43t-46 64.5t0 87.5q25 101 134.5 168t274.5 67q216 0 316 -139l-147 -118q-30 49 -84.5 77.5t-122.5 28.5q-91 0 -140.5 -23.5t-57.5 -56.5 q-7 -26 23.5 -45t121.5 -43q68 -21 121 -33q115 -30 163.5 -92t28.5 -145q-25 -102 -133 -171.5t-284 -69.5q-233 0 -345 143zM383 935l250 201h2l148 -201l-77 -62l-111 113l-165 -113z" />
<glyph unicode="&#x15d;" horiz-adv-x="694" d="M7 108l132 108q30 -42 77 -65t101 -23q65 0 98.5 16t38.5 37q4 17 -8.5 29.5t-60.5 24.5q-5 1 -51 14t-53 15q-43 12 -74 25t-59 34.5t-38 53.5t0 73q21 84 108.5 136.5t218.5 52.5q173 0 254 -105l-129 -103q-53 71 -158 71q-62 0 -92.5 -16t-34.5 -34 q-5 -18 15.5 -28.5t80.5 -26.5q25 -6 94 -27q95 -25 133.5 -68.5t21.5 -113.5q-22 -86 -109.5 -142.5t-226.5 -56.5q-172 0 -279 119zM264 759l249 200h2l149 -200l-77 -63l-111 114l-165 -114z" />
<glyph unicode="&#x15e;" horiz-adv-x="837" d="M13 133l146 118q94 -110 243 -110q92 0 142 25t59 62q6 25 -16.5 49.5t-88.5 42.5q-66 16 -139 37q-56 16 -95.5 33t-73.5 43t-46 64.5t0 87.5q25 101 134.5 168t274.5 67q216 0 316 -139l-147 -118q-30 49 -84.5 77.5t-122.5 28.5q-91 0 -140.5 -23.5t-57.5 -56.5 q-7 -26 23.5 -45t121.5 -43q68 -21 121 -33q115 -30 163.5 -92t28.5 -145q-24 -96 -120.5 -163.5t-252.5 -77.5l14 -17q19 -24 12 -53t-40 -56l-122 -98l-52 70l91 73q35 27 17 51l-25 33q-188 18 -284 140z" />
<glyph unicode="&#x15f;" horiz-adv-x="694" d="M7 108l132 108q30 -41 77.5 -64.5t100.5 -23.5q65 0 98.5 16t38.5 37q4 17 -8.5 29.5t-60.5 24.5q-5 1 -51 14t-53 15q-43 12 -74 25t-59 34.5t-38 53.5t0 73q21 84 108.5 136.5t218.5 52.5q173 0 254 -105l-129 -103q-53 71 -158 71q-62 0 -92.5 -16t-34.5 -34 q-5 -18 15.5 -28.5t80.5 -26.5q25 -6 94 -27q95 -25 133.5 -68.5t21.5 -113.5q-19 -77 -94 -132t-193 -65l14 -18q19 -23 12 -53t-40 -56l-122 -98l-52 70l91 73q36 27 16 51l-23 32l-1 1q-135 15 -223 115z" />
<glyph unicode="&#x160;" horiz-adv-x="837" d="M13 133l146 118q94 -110 243 -110q92 0 142 25t59 62q6 25 -16.5 49.5t-88.5 42.5q-66 16 -139 37q-56 16 -95.5 33t-73.5 43t-46 64.5t0 87.5q25 101 134.5 168t274.5 67q216 0 316 -139l-147 -118q-30 49 -84.5 77.5t-122.5 28.5q-91 0 -140.5 -23.5t-57.5 -56.5 q-7 -26 23.5 -45t121.5 -43q68 -21 121 -33q115 -30 163.5 -92t28.5 -145q-25 -102 -133 -171.5t-284 -69.5q-233 0 -345 143zM415 1075l77 62l111 -113l165 114l47 -63l-250 -200h-2z" />
<glyph unicode="&#x161;" horiz-adv-x="694" d="M7 108l132 108q30 -42 77 -65t101 -23q65 0 98.5 16t38.5 37q4 17 -8.5 29.5t-60.5 24.5q-5 1 -51 14t-53 15q-43 12 -74 25t-59 34.5t-38 53.5t0 73q21 84 108.5 136.5t218.5 52.5q173 0 254 -105l-129 -103q-53 71 -158 71q-62 0 -92.5 -16t-34.5 -34 q-5 -18 15.5 -28.5t80.5 -26.5q25 -6 94 -27q95 -25 133.5 -68.5t21.5 -113.5q-22 -86 -109.5 -142.5t-226.5 -56.5q-172 0 -279 119zM306 896l77 62l111 -113l165 113l47 -62l-249 -201h-2z" />
<glyph unicode="&#x162;" d="M113 658l37 152h723l-37 -152h-286l5 -16l-159 -642h-43l21 -27q19 -24 12 -53t-40 -56l-122 -98l-52 70l91 73q35 27 17 51l-30 40h-22l158 642l13 16h-286z" />
<glyph unicode="&#x163;" horiz-adv-x="541" d="M75 -164l91 73q35 27 17 51l-44 59q-79 54 -46 193l67 269l12 15h-92l33 134h92l-5 15l19 75l187 89l-40 -164l-13 -15h193l-32 -134h-194l5 -15l-66 -269q-10 -38 2 -58.5t41 -20.5q25 0 47.5 11t57.5 39l72 -98q-114 -91 -215 -95l13 -17q19 -24 12 -53t-40 -56 l-122 -98z" />
<glyph unicode="&#x164;" d="M113 658l37 152h723l-37 -152h-286l5 -16l-159 -642h-168l158 642l13 16h-286zM381 1076l78 62l110 -113l166 113l46 -62l-249 -201h-2z" />
<glyph unicode="&#x165;" horiz-adv-x="537" d="M80 496l33 134h92l-5 15l19 75l187 89l-40 -164l-13 -15h193l-32 -134h-194l5 -15l-66 -269q-10 -38 2 -58.5t41 -20.5q46 0 105 50l72 -98q-119 -95 -228 -95q-212 0 -158 222l67 269l12 15h-92zM445 713l55 66l22 13q-27 6 -38 27.5t-3 54.5q10 40 36.5 62.5t64.5 22.5 q39 0 54 -22.5t6 -62.5q-8 -28 -27 -52l-117 -144z" />
<glyph unicode="&#x166;" d="M113 658l37 152h723l-37 -152h-286l5 -15l-37 -150l-12 -15h186l-37 -151h-186l4 -15l-77 -312h-168l77 312l12 15h-186l37 151h186l-5 15l37 150l13 15h-286z" />
<glyph unicode="&#x167;" horiz-adv-x="540" d="M37 308l33 133h89l-4 11l8 34l10 10h-90l33 134h92l-5 15l18 75l187 89l-40 -164l-12 -15h195l-32 -134h-194l4 -10l-9 -34l-9 -11h195l-33 -133h-196l4 -16l-20 -80q-8 -32 1 -55t38 -23q49 0 109 49l72 -100q-65 -47 -115 -70t-110 -23q-103 0 -144.5 59t-15.5 163 l20 80l12 16h-91z" />
<glyph unicode="&#x168;" horiz-adv-x="923" d="M107 373l108 437h168l-107 -436q-29 -118 5 -175t146 -57q111 0 174.5 57t91.5 175l108 436h168l-108 -437q-45 -185 -163.5 -284t-307.5 -99t-259 98.5t-24 284.5zM381 940q27 51 77.5 87.5t103.5 36.5q44 0 99 -38q2 -1 12 -8.5t14.5 -10l13.5 -7.5t17 -7t17 -2 q60 0 99 78l50 -68q-31 -57 -81 -90t-102 -33q-44 0 -98 38q-45 34 -75 34q-56 0 -98 -77z" />
<glyph unicode="&#x169;" horiz-adv-x="772" d="M68 246l95 384h166l-93 -375q-15 -60 7.5 -90t95.5 -30q69 0 118 33t64 94l91 368h165l-156 -631h-165l13 55h-2q-78 -64 -188 -64q-138 0 -189.5 68t-21.5 188zM252 774q28 51 78.5 87.5t103.5 36.5q44 0 99 -38q42 -35 73 -35q60 0 100 78l50 -68q-31 -56 -81 -89.5 t-102 -33.5q-46 0 -98 38q-45 34 -75 34q-56 0 -98 -77z" />
<glyph unicode="&#x16a;" horiz-adv-x="923" d="M107 373l108 437h168l-107 -436q-29 -118 5 -175t146 -57q111 0 174.5 57t91.5 175l108 436h168l-108 -437q-45 -185 -163.5 -284t-307.5 -99t-259 98.5t-24 284.5zM416 900l26 105h403l-26 -105h-403z" />
<glyph unicode="&#x16b;" horiz-adv-x="772" d="M68 246l95 384h166l-93 -375q-15 -60 7.5 -90.5t95.5 -30.5q69 0 118 33.5t64 94.5l91 368h165l-156 -631h-165l13 55h-2q-78 -64 -188 -64q-138 0 -189.5 68t-21.5 188zM300 737l26 105h402l-26 -105h-402z" />
<glyph unicode="&#x16c;" horiz-adv-x="923" d="M107 373l108 437h168l-107 -436q-29 -118 5 -175t146 -57q111 0 174.5 57t91.5 175l108 436h168l-108 -437q-45 -185 -163.5 -284t-307.5 -99t-259 98.5t-24 284.5zM444 1044h110q8 -36 26 -52t55 -16q67 0 114 68h110q-92 -169 -249 -169q-158 0 -166 169z" />
<glyph unicode="&#x16d;" horiz-adv-x="772" d="M68 246l95 384h166l-93 -375q-15 -60 7.5 -90.5t95.5 -30.5q69 0 118 33.5t64 94.5l91 368h165l-156 -631h-165l13 55h-2q-78 -64 -188 -64q-138 0 -189.5 68t-21.5 188zM310 858h111q7 -35 25 -51.5t55 -16.5q67 0 114 68h111q-92 -169 -250 -169t-166 169z" />
<glyph unicode="&#x16e;" horiz-adv-x="923" d="M107 373l108 437h168l-107 -436q-29 -118 5 -175t146 -57q111 0 174.5 57t91.5 175l108 436h168l-108 -437q-45 -185 -163.5 -284t-307.5 -99t-259 98.5t-24 284.5zM519 1000q13 56 53 91t98 35q59 0 81.5 -35t8.5 -91q-13 -55 -53.5 -90t-97.5 -35q-58 0 -80.5 35 t-9.5 90zM599 1000q-12 -45 29 -45t53 45q10 46 -30 46q-42 0 -52 -46z" />
<glyph unicode="&#x16f;" horiz-adv-x="772" d="M68 246l95 384h166l-93 -375q-15 -60 7.5 -90.5t95.5 -30.5q69 0 118 33.5t64 94.5l91 368h165l-156 -631h-165l13 55h-2q-78 -64 -188 -64q-138 0 -189.5 68t-21.5 188zM397 820q14 56 53.5 90.5t98.5 34.5q58 0 80.5 -35t8.5 -90q-13 -55 -53 -90t-98 -35 q-59 0 -81 34.5t-9 90.5zM477 820q-12 -45 30 -45q41 0 52 45q11 46 -30 46t-52 -46z" />
<glyph unicode="&#x170;" horiz-adv-x="923" d="M107 373l108 437h168l-107 -436q-29 -118 5 -175t146 -57q111 0 174.5 57t91.5 175l108 436h168l-108 -437q-45 -185 -163.5 -284t-307.5 -99t-259 98.5t-24 284.5zM437 935l191 180l69 -93l-216 -147zM664 935l191 180l69 -93l-215 -147z" />
<glyph unicode="&#x171;" horiz-adv-x="772" d="M68 246l95 384h166l-93 -375q-15 -60 7.5 -90.5t95.5 -30.5q69 0 118 33.5t64 94.5l91 368h165l-156 -631h-165l13 55h-2q-78 -64 -188 -64q-138 0 -189.5 68t-21.5 188zM290 746l191 181l69 -93l-216 -148zM517 746l192 181l69 -93l-216 -148z" />
<glyph unicode="&#x172;" horiz-adv-x="923" d="M107 373l108 437h168l-107 -436q-29 -118 5 -175t146 -57q111 0 174 57t92 175l108 436h168l-108 -437q-80 -324 -365 -374l-153 -135q-11 -10 -15 -25q-2 -13 5.5 -22.5t18.5 -9.5q13 2 23 9l7 6q6 5 14.5 12.5t12.5 10.5l42 -56q-18 -16 -46 -40q-43 -36 -93 -39 q-45 -2 -71.5 30t-16.5 79q10 52 64 97l90 74q-182 3 -249 101.5t-22 281.5z" />
<glyph unicode="&#x173;" horiz-adv-x="772" d="M68 246l95 384h166l-93 -375q-15 -60 7.5 -90.5t95.5 -30.5q69 0 118 33.5t64 94.5l91 368h165l-156 -631h-59l-153 -135q-11 -10 -15 -25q-2 -13 5 -22.5t18 -9.5q14 2 23 9l7 6q7 5 15.5 12.5t12.5 10.5l42 -56q-16 -14 -28.5 -25t-17.5 -15q-43 -36 -93 -39 q-46 -2 -72 30t-16 79q10 52 64 97l102 84l13 54h-2q-78 -64 -188 -64q-138 0 -189.5 68t-21.5 188z" />
<glyph unicode="&#x174;" horiz-adv-x="1128" d="M155 810h179l13 -474l-4 -86h2l37 86l250 474h126l16 -474l-4 -84h2l36 84l250 474h176l-434 -810h-180l-13 394l6 90h-2l-39 -90l-208 -394h-175zM524 935l249 201h2l149 -201l-78 -62l-110 113l-166 -113z" />
<glyph unicode="&#x175;" horiz-adv-x="957" d="M99 630h174l9 -312l-8 -106h2l46 106l174 312h137l21 -312l-6 -107h2l44 107l164 312h172l-349 -630h-169l-12 285l6 104h-2l-45 -104l-154 -285h-169zM396 759l250 200h2l148 -200l-77 -63l-111 114l-165 -114z" />
<glyph unicode="&#x176;" horiz-adv-x="919" d="M145 810h211l123 -255l27 -80h2l67 80l250 255h210l-477 -476l-83 -334h-169l82 334zM420 935l249 201h2l149 -201l-78 -62l-110 113l-166 -113z" />
<glyph unicode="&#x177;" horiz-adv-x="763" d="M-34 -178l37 151q74 -45 126 -45q58 0 115 86l-144 616h182l77 -351l8 -94h2l51 94l234 351h182l-472 -689q-49 -71 -115.5 -113.5t-137.5 -42.5q-79 0 -145 37zM293 759l249 200h2l149 -200l-78 -63l-110 114l-166 -114z" />
<glyph unicode="&#x178;" horiz-adv-x="919" d="M145 810h211l123 -255l27 -80h2l67 80l250 255h210l-477 -476l-83 -334h-169l82 334zM429 982q8 36 33.5 59t60.5 23q36 0 50 -22.5t5 -59.5t-34.5 -59.5t-60.5 -22.5q-36 0 -49.5 22.5t-4.5 59.5zM679 982q9 37 34 59.5t61 22.5t49.5 -22.5t4.5 -59.5 q-8 -37 -33.5 -59.5t-61.5 -22.5t-49.5 22.5t-4.5 59.5z" />
<glyph unicode="&#x179;" horiz-adv-x="851" d="M-10 0l30 120l533 468l95 68l1 2h-486l37 152h718l-30 -119l-533 -470l-90 -67v-2h495l-37 -152h-733zM475 939l238 217l71 -96l-260 -186z" />
<glyph unicode="&#x17a;" horiz-adv-x="705" d="M-15 0l28 112l369 314l87 57l1 1h-358l36 145h585l-27 -108l-372 -313l-91 -62l1 -1h373l-36 -145h-596zM350 761l237 216l72 -96l-261 -186z" />
<glyph unicode="&#x17b;" horiz-adv-x="851" d="M-10 0l30 120l533 468l95 68l1 2h-486l37 152h718l-30 -119l-533 -470l-90 -67v-2h495l-37 -152h-733zM508 974q10 39 38.5 63.5t66.5 24.5t54.5 -24.5t7.5 -63.5q-10 -40 -39 -64.5t-67 -24.5t-54.5 24.5t-6.5 64.5z" />
<glyph unicode="&#x17c;" horiz-adv-x="705" d="M-15 0l28 112l369 314l88 56v2h-358l36 145h585l-27 -108l-372 -313l-91 -61l-1 -2h375l-36 -145h-596zM399 796q10 39 38.5 63.5t66.5 24.5q39 0 55.5 -24.5t6.5 -63.5t-38.5 -64t-66.5 -25t-54.5 25t-7.5 64z" />
<glyph unicode="&#x17d;" horiz-adv-x="851" d="M-10 0l30 120l537 472l91 65l1 1h-486l37 152h718l-30 -119l-533 -469l-91 -69l1 -1h495l-37 -152h-733zM429 1077l77 62l111 -113l165 113l47 -62l-249 -201h-2z" />
<glyph unicode="&#x17e;" horiz-adv-x="705" d="M-15 0l28 112l369 314l88 56v2h-358l36 145h585l-27 -108l-372 -313l-91 -61l-1 -2h375l-36 -145h-596zM314 896l77 62l111 -113l165 113l47 -62l-249 -201h-2z" />
<glyph unicode="&#x17f;" horiz-adv-x="483" d="M-194 -188l34 140q58 -29 115 -29q39 0 61 19.5t34 67.5l155 631q23 93 100.5 149t181.5 56q71 0 113 -17l-33 -134q-40 17 -90 17q-88 0 -104 -67l-161 -645q-53 -215 -279 -215q-73 0 -127 27z" />
<glyph unicode="&#x192;" horiz-adv-x="474" d="M-215 -189l38 156q41 -20 65.5 -26t60.5 0q28 5 47.5 26.5t27.5 43t16 55.5l101 409l15 18h-82l33 136h83l-4 16q24 97 102 149t178 52q72 0 113 -17l-33 -134q-42 17 -90 17q-88 0 -104 -67l-12 -16h190l-34 -136h-191l4 -16l-99 -401q-35 -142 -109.5 -216.5 t-199.5 -74.5q-47 0 -116 26z" />
<glyph unicode="&#x1fa;" horiz-adv-x="950" d="M-54 0l566 782q-25 33 -12 88q14 56 54 91t98 35t80.5 -35t8.5 -91q-13 -54 -55 -88l179 -782h-183l-41 178l13 15h-402l6 -15l-128 -178h-184zM363 335h251l-13 16l-39 176l-7 74l-2 -1l-43 -73l-126 -176zM547 1090l238 217l71 -97l-260 -186zM580 870q-12 -45 30 -45 q40 0 52 45q12 46 -30 46q-40 0 -52 -46z" />
<glyph unicode="&#x1fb;" horiz-adv-x="783" d="M58 314q36 147 137 236.5t254 89.5q52 0 95 -16t64 -43h2l12 49h165l-155 -631h-166l12 46h-2q-74 -55 -188 -55q-151 0 -208.5 89t-21.5 235zM223 314q-45 -180 120 -180t209 180q46 182 -119 182q-166 0 -210 -182zM403 810q13 55 53 89.5t98 34.5t81 -34.5t9 -89.5 q-13 -55 -53.5 -89.5t-97.5 -34.5q-59 0 -81.5 34.5t-8.5 89.5zM444 1026l238 217l71 -96l-260 -186zM482 810q-10 -45 30 -45q42 0 52 45q12 46 -29 46t-53 -46z" />
<glyph unicode="&#x1fc;" horiz-adv-x="1149" d="M-54 0l585 810h679l-38 -152h-384l4 -16l-36 -145l-15 -16h340l-37 -152h-340l7 -16l-36 -145l-15 -16h387l-37 -152h-545l42 171l14 16h-270l1 -17l-122 -170h-184zM363 339h196l-6 16l70 287l13 16h-50l2 -16l-205 -289zM642 939l238 217l71 -96l-260 -186z" />
<glyph unicode="&#x1fd;" horiz-adv-x="1207" d="M58 314q36 147 137 236.5t254 89.5q52 0 95 -16t64 -43h2l12 49h165l-9 -38h2q69 48 152 48q146 0 206.5 -95t26.5 -235q-2 -6 -7.5 -24t-12.5 -41h-472l11 -16q13 -100 126 -100q85 0 177 66l76 -99q-138 -105 -287 -105q-37 0 -75 12.5t-58 32.5h-2l-9 -37h-166l12 46 h-2q-74 -55 -188 -55q-151 0 -208.5 89t-21.5 235zM223 314q-45 -180 120 -180t209 180q46 182 -119 182q-166 0 -210 -182zM610 761l237 216l72 -96l-261 -186zM708 385h320l-11 16q-13 101 -119 101q-107 0 -171 -101z" />
<glyph unicode="&#x1fe;" horiz-adv-x="935" d="M62 -23l67 82l18 7q-117 113 -63 334q46 187 182.5 304t333.5 117q82 0 148 -23l5 17l43 51l83 -59l-36 -44l-15 -8q141 -115 82 -355q-46 -186 -182.5 -299t-332.5 -113q-110 0 -177 33l-2 -18l-70 -85zM255 400q-29 -116 12 -187l6 21l344 416l17 9q-26 10 -71 10 q-123 0 -200 -72.5t-108 -196.5zM335 159q35 -18 98 -18q124 0 200 69.5t105 189.5q37 152 -27 216l-4 -17l-354 -430zM504 939l238 217l72 -96l-261 -186z" />
<glyph unicode="&#x1ff;" horiz-adv-x="713" d="M27 -18l52 62l19 11q-40 42 -50 113.5t10 146.5q35 144 136.5 234.5t249.5 90.5q75 0 123 -24l7 20l51 63l80 -53l-54 -63l-16 -9q78 -94 37 -259q-36 -145 -137 -235.5t-249 -90.5q-75 0 -123 22l-6 -21l-52 -63zM212 315q-19 -81 3 -120l10 24l213 257l21 12 q-19 8 -50 8q-151 0 -197 -181zM274 142q13 -8 46 -8q152 0 198 181q18 73 -1 120l-10 -26l-210 -251zM355 761l237 216l72 -96l-261 -186z" />
<glyph unicode="&#x2c6;" horiz-adv-x="756" d="M295 759l249 200h2l149 -200l-78 -63l-110 114l-166 -114z" />
<glyph unicode="&#x2c7;" horiz-adv-x="697" d="M291 897l77 62l110 -113l166 113l47 -62l-250 -201h-2z" />
<glyph unicode="&#x2d8;" horiz-adv-x="704" d="M288 858h111q7 -35 25.5 -51.5t54.5 -16.5q67 0 114 68h111q-92 -169 -250 -169t-166 169z" />
<glyph unicode="&#x2d9;" horiz-adv-x="448" d="M270 796q9 39 38 64t67 25t54.5 -24.5t6.5 -64.5q-9 -39 -38 -63.5t-67 -24.5t-54.5 24.5t-6.5 63.5z" />
<glyph unicode="&#x2da;" horiz-adv-x="743" d="M377 820q14 56 53.5 90.5t97.5 34.5q59 0 81.5 -34.5t8.5 -90.5q-13 -55 -53.5 -90t-97.5 -35q-59 0 -81 34.5t-9 90.5zM457 820q-12 -45 29 -45q42 0 53 45q10 46 -30 46q-41 0 -52 -46z" />
<glyph unicode="&#x2db;" horiz-adv-x="849" d="M291 -181q10 52 64 97l119 98l92 -12l-156 -138q-11 -10 -15 -25q-2 -13 5 -22.5t18 -9.5q14 2 23 9l7 6q7 5 15.5 12.5t12.5 10.5l42 -56q-16 -14 -28.5 -25t-17.5 -15q-43 -36 -93 -39q-46 -2 -72 30t-16 79z" />
<glyph unicode="&#x2dc;" horiz-adv-x="756" d="M243 774q27 51 77.5 87.5t103.5 36.5q27 0 50 -10t50 -29t37 -24q22 -10 36 -10q60 0 100 78l50 -68q-32 -57 -82 -90t-102 -33q-45 0 -97 38q-49 34 -76 34q-55 0 -97 -77z" />
<glyph unicode="&#x2dd;" horiz-adv-x="737" d="M281 741l191 181l69 -93l-215 -148zM509 741l191 181l69 -93l-216 -148z" />
<glyph unicode="&#x3c0;" horiz-adv-x="712" d="M28 0l116 467l12 16h-86l36 146h672l-36 -146h-86l4 -16l-115 -467h-155l115 467l12 16h-222l4 -16l-116 -467h-155z" />
<glyph unicode="&#x1e02;" horiz-adv-x="853" d="M20 0l200 810h404q133 0 190.5 -67.5t32.5 -166.5q-26 -104 -114 -154l1 -1q46 -18 64 -64.5t2 -111.5q-28 -115 -126 -180t-241 -65h-413zM209 152h262q76 0 111 24.5t47 70.5q12 45 -13 71.5t-99 26.5h-260l12 -16l-40 -161zM292 487h242q118 0 141 87 q10 41 -11.5 62.5t-86.5 21.5h-242l12 -16l-35 -140zM494 974q9 39 38 63.5t67 24.5t54.5 -24.5t6.5 -63.5q-9 -39 -38 -64t-67 -25t-54.5 24.5t-6.5 64.5z" />
<glyph unicode="&#x1e03;" horiz-adv-x="783" d="M12 -1l208 841h165l-64 -259h2q34 26 85.5 42.5t97.5 16.5q153 0 212.5 -90t22.5 -236q-36 -145 -140 -234.5t-255 -89.5q-109 0 -155 55h-2l-12 -46h-165zM247 314q-43 -178 121 -178q165 0 208 178q45 179 -120 179q-164 0 -209 -179zM461 796q10 39 38.5 63.5 t66.5 24.5t55 -24.5t7 -63.5t-38.5 -64t-66.5 -25t-54.5 25t-7.5 64z" />
<glyph unicode="&#x1e0a;" horiz-adv-x="889" d="M20 0l200 810h340q406 0 305 -405q-99 -405 -500 -405h-345zM210 152h182q75 0 128.5 18t87 54.5t52.5 78t34 102.5q15 60 16 101.5t-14.5 78t-61.5 55t-122 18.5h-177l12 -16l-118 -474zM499 974q9 39 38 63.5t67 24.5t54.5 -24.5t6.5 -63.5q-9 -39 -38 -64t-67 -25 t-54.5 24.5t-6.5 64.5z" />
<glyph unicode="&#x1e0b;" horiz-adv-x="783" d="M58 314q36 146 139.5 236t256.5 90q46 0 89.5 -16t64.5 -43h2l64 259h165l-207 -841h-166l12 46h-2q-74 -55 -183 -55q-151 0 -211 89.5t-24 234.5zM223 314q-45 -180 120 -180t209 180q46 182 -119 182q-166 0 -210 -182zM409 796q10 39 38.5 63.5t66.5 24.5t55 -24.5 t7 -63.5t-38.5 -64t-66.5 -25t-54.5 25t-7.5 64z" />
<glyph unicode="&#x1e1e;" d="M20 0l200 810h643l-37 -152h-491l12 -15l-41 -164l-20 -16l442 -1l-37 -151h-442l12 -16l-73 -295h-168zM506 974q9 39 38 63.5t67 24.5t54.5 -24.5t6.5 -63.5q-9 -39 -38 -64t-67 -25t-54.5 24.5t-6.5 64.5z" />
<glyph unicode="&#x1e1f;" horiz-adv-x="483" d="M-194 -188l34 140q58 -29 115 -29q39 0 61 19.5t34 67.5l116 471l11 15h-97l33 133h98l-4 16q23 92 99.5 146.5t180.5 54.5q71 0 113 -17l-33 -134q-40 17 -90 17q-88 0 -104 -67l-13 -16h191l-33 -133h-191l4 -16l-119 -480q-53 -215 -279 -215q-73 0 -127 27zM400 985 q10 39 38.5 63.5t66.5 24.5q39 0 55.5 -24.5t6.5 -63.5q-10 -40 -38.5 -64.5t-66.5 -24.5t-54.5 24.5t-7.5 64.5z" />
<glyph unicode="&#x1e40;" horiz-adv-x="1039" d="M20 -1l200 811h139l145 -449l14 -85h2l54 85l369 449h138l-200 -811h-169l115 466h-2l-57 -86l-319 -390h-3l-127 390l-14 85h-2l-115 -465h-168zM607 974q10 39 38.5 63.5t66.5 24.5t54.5 -24.5t7.5 -63.5q-10 -40 -39 -64.5t-67 -24.5t-54.5 24.5t-6.5 64.5z" />
<glyph unicode="&#x1e41;" horiz-adv-x="1054" d="M12 0l156 631h166l-11 -45h2q72 54 156 54q52 0 89.5 -24.5t51.5 -64.5h2q40 40 94.5 64.5t106.5 24.5q120 0 163 -71t11 -201l-91 -368h-166l85 347q22 80 11 114.5t-65 34.5q-51 0 -88 -34t-50 -89l-92 -373h-166l91 369q18 67 5.5 97t-64.5 30q-48 0 -86.5 -34 t-52.5 -90l-92 -372h-166zM575 796q10 39 38.5 63.5t66.5 24.5t54.5 -24.5t7.5 -63.5q-10 -39 -39 -64t-67 -25t-54.5 25t-6.5 64z" />
<glyph unicode="&#x1e56;" horiz-adv-x="839" d="M20 0l200 810h403q140 0 203 -73t34 -190q-29 -114 -129 -189t-239 -75h-250l12 -15l-66 -268h-168zM280 435h250q130 0 158 112q28 111 -102 111h-251l12 -15l-48 -192zM499 974q9 39 38 63.5t67 24.5t54.5 -24.5t6.5 -63.5q-9 -39 -38 -64t-67 -25t-54.5 24.5 t-6.5 64.5z" />
<glyph unicode="&#x1e57;" horiz-adv-x="783" d="M-40 -211l208 841h165l-11 -46h2q76 56 188 56q148 0 207 -89.5t23 -234.5q-36 -146 -139.5 -236t-256.5 -90q-47 0 -89.5 16t-64.5 42h-2l-64 -259h-166zM247 314q-45 -180 120 -180q166 0 209 180q46 182 -119 182q-164 0 -210 -182zM458 796q9 39 38 63.5t67 24.5 t54.5 -24.5t6.5 -63.5q-9 -39 -38 -64t-67 -25t-54.5 25t-6.5 64z" />
<glyph unicode="&#x1e60;" horiz-adv-x="837" d="M13 133l146 118q94 -110 243 -110q92 0 142 25t59 62q6 25 -16.5 49.5t-88.5 42.5q-66 16 -139 37q-56 16 -95.5 33t-73.5 43t-46 64.5t0 87.5q25 101 134.5 168t274.5 67q216 0 316 -139l-147 -118q-30 49 -84.5 77.5t-122.5 28.5q-91 0 -140.5 -23.5t-57.5 -56.5 q-7 -26 23.5 -45t121.5 -43q68 -21 121 -33q115 -30 163.5 -92t28.5 -145q-25 -102 -133 -171.5t-284 -69.5q-233 0 -345 143zM506 974q10 39 38.5 63.5t66.5 24.5t54.5 -24.5t7.5 -63.5q-10 -40 -39 -64.5t-67 -24.5t-54.5 24.5t-6.5 64.5z" />
<glyph unicode="&#x1e61;" horiz-adv-x="694" d="M7 108l132 108q30 -42 77 -65t101 -23q65 0 98.5 16t38.5 37q4 17 -8.5 29.5t-60.5 24.5q-5 1 -51 14t-53 15q-43 12 -74 25t-59 34.5t-38 53.5t0 73q21 84 108.5 136.5t218.5 52.5q173 0 254 -105l-129 -103q-53 71 -158 71q-62 0 -92.5 -16t-34.5 -34 q-5 -18 15.5 -28.5t80.5 -26.5q25 -6 94 -27q95 -25 133.5 -68.5t21.5 -113.5q-22 -86 -109.5 -142.5t-226.5 -56.5q-172 0 -279 119zM390 796q10 39 38.5 63.5t66.5 24.5q39 0 55.5 -24.5t6.5 -63.5t-38.5 -64t-66.5 -25t-54.5 25t-7.5 64z" />
<glyph unicode="&#x1e6a;" d="M113 658l37 152h723l-37 -152h-286l5 -16l-159 -642h-168l158 642l13 16h-286zM473 974q10 39 38.5 63.5t66.5 24.5t54.5 -24.5t7.5 -63.5q-10 -40 -39 -64.5t-67 -24.5t-54.5 24.5t-6.5 64.5z" />
<glyph unicode="&#x1e6b;" horiz-adv-x="537" d="M80 496l33 134h92l-5 15l19 75l187 89l-40 -164l-13 -15h193l-32 -134h-194l5 -15l-66 -269q-10 -38 2 -58.5t41 -20.5q46 0 105 50l72 -98q-119 -95 -228 -95q-212 0 -158 222l67 269l12 15h-92zM268 920q10 39 38.5 64t66.5 25t54.5 -25t7.5 -64q-10 -39 -39 -63.5 t-67 -24.5t-54.5 24.5t-6.5 63.5z" />
<glyph unicode="&#x1e80;" horiz-adv-x="1128" d="M155 810h179l13 -474l-4 -86h2l37 86l250 474h126l16 -474l-4 -84h2l36 84l250 474h176l-434 -810h-180l-13 394l6 90h-2l-39 -90l-208 -394h-175zM618 1061l119 96l131 -217l-81 -65z" />
<glyph unicode="&#x1e81;" horiz-adv-x="957" d="M99 630h174l9 -312l-8 -106h2l46 106l174 312h137l21 -312l-6 -107h2l44 107l164 312h172l-349 -630h-169l-12 285l6 104h-2l-45 -104l-154 -285h-169zM480 881l119 96l131 -216l-81 -66z" />
<glyph unicode="&#x1e82;" horiz-adv-x="1128" d="M155 810h179l13 -474l-4 -86h2l37 86l250 474h126l16 -474l-4 -84h2l36 84l250 474h176l-434 -810h-180l-13 394l6 90h-2l-39 -90l-208 -394h-175zM597 939l238 217l72 -96l-261 -186z" />
<glyph unicode="&#x1e83;" horiz-adv-x="957" d="M99 630h174l9 -312l-8 -106h2l46 106l174 312h137l21 -312l-6 -107h2l44 107l164 312h172l-349 -630h-169l-12 285l6 104h-2l-45 -104l-154 -285h-169zM461 761l237 216l72 -96l-261 -186z" />
<glyph unicode="&#x1e84;" horiz-adv-x="1128" d="M155 810h179l13 -474l-4 -86h2l37 86l250 474h126l16 -474l-4 -84h2l36 84l250 474h176l-434 -810h-180l-13 394l6 90h-2l-39 -90l-208 -394h-175zM536 982q9 36 33.5 59t60.5 23t50 -22.5t5 -59.5t-34.5 -59.5t-60.5 -22.5q-36 0 -49.5 22.5t-4.5 59.5zM786 982 q9 37 34 59.5t61 22.5t49.5 -22.5t4.5 -59.5q-8 -37 -33.5 -59.5t-61.5 -22.5t-49.5 22.5t-4.5 59.5z" />
<glyph unicode="&#x1e85;" horiz-adv-x="957" d="M99 630h174l9 -312l-8 -106h2l46 106l174 312h137l21 -312l-6 -107h2l44 107l164 312h172l-349 -630h-169l-12 285l6 104h-2l-45 -104l-154 -285h-169zM404 789q9 37 34 59.5t61 22.5t49.5 -22.5t4.5 -59.5t-34 -59.5t-61 -22.5t-49.5 23t-4.5 59zM654 789q9 37 34 59.5 t61 22.5t50 -22.5t5 -59.5q-9 -36 -34.5 -59t-60.5 -23q-36 0 -50 22.5t-5 59.5z" />
<glyph unicode="&#x1ef2;" horiz-adv-x="919" d="M145 810h211l123 -255l27 -80h2l67 80l250 255h210l-477 -476l-83 -334h-169l82 334zM495 1061l119 96l131 -217l-81 -65z" />
<glyph unicode="&#x1ef3;" horiz-adv-x="763" d="M-34 -178l37 151q74 -45 126 -45q58 0 115 86l-144 616h182l77 -351l8 -94h2l51 94l234 351h182l-472 -689q-49 -71 -115.5 -113.5t-137.5 -42.5q-79 0 -145 37zM361 881l119 96l131 -216l-81 -66z" />
<glyph unicode="&#x2000;" horiz-adv-x="653" />
<glyph unicode="&#x2001;" horiz-adv-x="1307" />
<glyph unicode="&#x2002;" horiz-adv-x="653" />
<glyph unicode="&#x2003;" horiz-adv-x="1307" />
<glyph unicode="&#x2004;" horiz-adv-x="435" />
<glyph unicode="&#x2005;" horiz-adv-x="326" />
<glyph unicode="&#x2006;" horiz-adv-x="217" />
<glyph unicode="&#x2007;" horiz-adv-x="217" />
<glyph unicode="&#x2008;" horiz-adv-x="163" />
<glyph unicode="&#x2009;" horiz-adv-x="261" />
<glyph unicode="&#x200a;" horiz-adv-x="72" />
<glyph unicode="&#x2010;" horiz-adv-x="421" d="M25 264l36 143h361l-35 -143h-362z" />
<glyph unicode="&#x2011;" horiz-adv-x="421" d="M25 264l36 143h361l-35 -143h-362z" />
<glyph unicode="&#x2012;" horiz-adv-x="421" d="M25 264l36 143h361l-35 -143h-362z" />
<glyph unicode="&#x2013;" horiz-adv-x="657" d="M25 264l36 143h597l-35 -143h-598z" />
<glyph unicode="&#x2014;" horiz-adv-x="930" d="M25 264l36 143h870l-35 -143h-871z" />
<glyph unicode="&#x2018;" horiz-adv-x="255" d="M117 574q6 24 27 58l130 195l63 -31l-76 -115l-27 -18q33 -3 45 -27.5t3 -61.5q-10 -41 -38 -66t-67 -25t-54.5 25t-5.5 66z" />
<glyph unicode="&#x2019;" horiz-adv-x="255" d="M101 507l76 116l27 18q-33 2 -45.5 26.5t-3.5 61.5q10 41 38 66t67 25q40 0 55.5 -25t5.5 -66q-6 -25 -28 -57l-129 -196z" />
<glyph unicode="&#x201a;" horiz-adv-x="255" d="M-60 -144l76 115l27 18q-33 3 -45 27.5t-3 61.5q10 41 37.5 65.5t67.5 24.5q39 0 54.5 -24.5t5.5 -65.5q-6 -24 -27 -58l-130 -195z" />
<glyph unicode="&#x201c;" horiz-adv-x="460" d="M117 574q6 24 27 58l130 195l63 -31l-76 -115l-27 -18q33 -3 45 -27.5t3 -61.5q-10 -41 -38 -66t-67 -25t-54.5 25t-5.5 66zM322 574q6 24 27 58l130 195l63 -31l-76 -115l-27 -18q33 -3 45 -27.5t3 -61.5q-10 -41 -38 -66t-67 -25t-54.5 25t-5.5 66z" />
<glyph unicode="&#x201d;" horiz-adv-x="460" d="M101 507l76 116l27 18q-33 2 -45.5 26.5t-3.5 61.5q10 41 38 66t67 25q40 0 55.5 -25t5.5 -66q-6 -25 -28 -57l-129 -196zM305 507l77 116l27 18q-33 2 -45.5 26.5t-3.5 61.5q10 41 38 66t67 25q40 0 55.5 -25t5.5 -66q-6 -25 -28 -57l-129 -196z" />
<glyph unicode="&#x201e;" horiz-adv-x="460" d="M-60 -144l76 115l27 18q-33 3 -45 27.5t-3 61.5q10 41 37.5 65.5t67.5 24.5q39 0 54.5 -24.5t5.5 -65.5q-6 -24 -27 -58l-130 -195zM145 -144l76 115l27 18q-33 3 -45 27.5t-3 61.5q10 41 37.5 65.5t67.5 24.5q39 0 54.5 -24.5t5.5 -65.5q-6 -24 -27 -58l-130 -195z" />
<glyph unicode="&#x2020;" horiz-adv-x="637" d="M101 448l38 156l191 -10l41 216h156l-65 -216l196 10l-39 -156l-191 12l-147 -640h-153l170 640z" />
<glyph unicode="&#x2021;" horiz-adv-x="636" d="M-4 25l39 157l192 -12l72 289l-198 -11l39 156l190 -10l41 215h156l-65 -215l196 10l-38 -156l-193 11l-71 -289l197 12l-38 -157l-191 11l-41 -215h-156l65 215z" />
<glyph unicode="&#x2022;" horiz-adv-x="435" d="M31 405q17 72 80.5 123t135.5 51q71 0 109 -51t20 -123q-17 -73 -80.5 -124t-135.5 -51q-71 0 -109 51t-20 124z" />
<glyph unicode="&#x2026;" horiz-adv-x="868" d="M11 85q11 43 40 69.5t71 26.5t58.5 -26t5.5 -70q-11 -42 -40.5 -68.5t-70.5 -26.5q-42 0 -58.5 26t-5.5 69zM293 85q11 43 40 69.5t71 26.5t58.5 -26t5.5 -70q-11 -42 -40.5 -68.5t-70.5 -26.5q-42 0 -58 26t-6 69zM576 85q10 43 39 69.5t71 26.5t58.5 -26t5.5 -70 q-11 -43 -40 -69t-71 -26t-58 26t-5 69z" />
<glyph unicode="&#x202f;" horiz-adv-x="261" />
<glyph unicode="&#x2030;" horiz-adv-x="1419" d="M91 589q24 98 92 165t163 67q97 0 131.5 -67t9.5 -165q-24 -99 -90 -163.5t-164 -64.5q-97 0 -131.5 64.5t-10.5 163.5zM199 -10l497 830h129l-497 -830h-129zM223 589q-27 -107 39 -107q68 0 94 107q14 61 4 86t-43 25q-67 0 -94 -111zM535 217q24 98 92 165t163 67 q97 0 131.5 -66.5t9.5 -165.5q-24 -99 -90 -163t-164 -64q-97 0 -131.5 64t-10.5 163zM667 217q-27 -106 39 -106q68 0 94 106q28 112 -39 112t-94 -112zM974 217q24 99 91.5 165.5t163.5 66.5q97 0 131 -66.5t10 -165.5q-24 -98 -90.5 -162.5t-164.5 -64.5 q-97 0 -131.5 64.5t-9.5 162.5zM1106 217q-27 -106 39 -106q67 0 93 106q28 112 -39 112q-66 0 -93 -112z" />
<glyph unicode="&#x2039;" horiz-adv-x="441" d="M48 255l287 229l76 -104l-114 -94l-52 -32l36 -30l69 -94l-128 -104z" />
<glyph unicode="&#x203a;" horiz-adv-x="441" d="M17 130l115 94q33 20 51 30l-36 32l-68 94l128 104l173 -229l-287 -229z" />
<glyph unicode="&#x2044;" horiz-adv-x="678" d="M75 -10l499 830h118l-499 -830h-118z" />
<glyph unicode="&#x205f;" horiz-adv-x="326" />
<glyph unicode="&#x20ac;" horiz-adv-x="747" d="M34 257l29 119h68l-9 10q5 16 10 39l13 9h-68l30 119h89l-5 14q66 118 164 185.5t212 67.5q172 0 231 -134l-133 -109q-28 94 -131 94q-97 0 -173 -103l-23 -15h246l-29 -119h-273l7 -9q-4 -22 -10 -39l-12 -10h274l-30 -119h-251l17 -15q11 -48 41.5 -75.5t79.5 -27.5 q101 0 180 96l79 -109q-129 -136 -296 -136q-117 0 -182 68t-70 184l12 15h-87z" />
<glyph unicode="&#x2105;" horiz-adv-x="1132" d="M128 581q26 103 102.5 171t180.5 68q58 0 97.5 -18t69.5 -60l-106 -84q-18 26 -37 36t-48 10q-50 -1 -87 -34.5t-51 -88.5q-13 -54 6 -85.5t71 -31.5q31 0 55.5 11t60.5 41l65 -84q-58 -47 -107 -66t-107 -19q-108 0 -149 65.5t-16 168.5zM286 -11l493 830h123l-492 -830 h-124zM617 222q26 103 100 169.5t181 66.5t148.5 -66t16.5 -170q-26 -103 -100.5 -170t-181.5 -67t-148 66.5t-16 170.5zM739 222q-31 -119 72 -119q100 0 131 119q29 120 -72 120q-103 0 -131 -120z" />
<glyph unicode="&#x2116;" horiz-adv-x="1484" d="M20 0l200 810h149l207 -459l23 -81h2l134 540h164l-200 -810h-148l-208 459l-22 86h-2l-134 -545h-165zM806 0l31 128h483l-31 -128h-483zM886 469q32 131 121 213t229 82q95 0 150 -40t64.5 -105.5t-8.5 -149.5q-33 -132 -122.5 -214t-229.5 -82q-71 0 -120 23t-71 63.5 t-26 94.5t13 115zM1036 469q-21 -74 -0.5 -116t89.5 -42t108 39.5t59 118.5q19 78 -1 117.5t-89 39.5t-108 -39.5t-58 -117.5z" />
<glyph unicode="&#x2122;" horiz-adv-x="869" d="M134 735l19 74h368l-18 -74h-149l3 -12l-79 -319h-82l79 318l10 13h-151zM459 404l100 405h73v-5l67 -232l5 -42l26 42l187 237h70l-100 -405h-82l56 228l-18 -27l-168 -206h-7l-69 207l-2 26l-57 -228h-81z" />
<glyph unicode="&#x2126;" horiz-adv-x="902" d="M-7 0l37 151h102q-77 104 -38 262q26 105 98.5 197.5t177.5 150.5t215 58q109 0 185 -58t101.5 -150.5t-0.5 -196.5q-39 -161 -163 -267l100 4l-37 -151h-355l33 133q215 66 267 278q25 103 -22.5 177.5t-146.5 74.5q-104 0 -187.5 -73t-110.5 -180q-24 -97 8.5 -173.5 t124.5 -103.5l-33 -133h-356z" />
<glyph unicode="&#x2153;" horiz-adv-x="917" d="M104 -10l499 830h118l-499 -830h-118zM131 691l156 119h97l-113 -455h-111l68 274l21 49q-19 -17 -46 -46l-16 -13zM425 77l95 74q11 -17 21.5 -28t23 -18t26.5 -10t33 -3q30 0 51.5 8.5t29 17t9.5 16.5q5 17 -8 31t-51 17l-83 2l23 95q68 1 82 2q27 3 45 12t23.5 16 t6.5 14v7t-4 7.5t-10 7t-19 5.5t-31 2q-37 0 -66 -11.5t-63 -42.5l-58 72q58 46 106.5 65t106.5 19q87 0 126 -36.5t24 -94.5q-5 -22 -25.5 -47t-45.5 -40v-1q49 -36 34 -99q-16 -63 -81.5 -105t-146.5 -42q-119 0 -174 88z" />
<glyph unicode="&#x2154;" horiz-adv-x="1066" d="M80 361l23 93q13 54 54.5 99t107.5 66l59 18q63 19 68 42q3 14 -7 23t-42 9q-62 0 -122 -61l-57 75q100 90 205 90q81 0 115.5 -39.5t20.5 -96.5q-24 -99 -159 -139l-69 -22q-40 -12 -55 -44q0 -1 -4 -5t-4 -5h237l-25 -103h-346zM253 -10l499 830h118l-499 -830h-118z M574 77l95 74q21 -33 44 -46t60 -13q30 0 51.5 8.5t29 17t9.5 16.5q5 17 -8 31t-51 17l-83 2l23 95q68 1 82 2q67 7 75 42q1 7 -1.5 12.5t-18.5 11t-44 5.5q-37 0 -66 -11.5t-63 -42.5l-58 72q58 46 106.5 65t106.5 19q87 0 126 -36.5t24 -94.5q-5 -22 -25.5 -47t-45.5 -40 v-1q49 -36 34 -99q-16 -63 -81.5 -105t-146.5 -42q-119 0 -174 88z" />
<glyph unicode="&#x2202;" horiz-adv-x="661" d="M53 296q33 133 125.5 218t226.5 85q76 0 126 -42q-2 144 -100 144q-78 0 -167 -70l-76 104q78 59 143 84.5t136 25.5q54 0 94 -16t63 -41.5t34.5 -65t13.5 -78.5t-4 -90.5t-14 -92.5t-21 -92q-43 -175 -135.5 -276t-241.5 -101q-135 0 -185.5 85.5t-17.5 218.5zM207 296 q-19 -76 1.5 -119t82.5 -43q124 0 164 162q19 75 -1 118t-83 43q-125 0 -164 -161z" />
<glyph unicode="&#x2206;" horiz-adv-x="980" d="M-30 0l580 810h133l188 -810h-901zM247 152h424l-11 16l-85 362l-8 72l-44 -72l-258 -364z" />
<glyph unicode="&#x220f;" horiz-adv-x="847" d="M29 -211l210 850l13 16h-105l38 154h738l-38 -154h-105l4 -16l-210 -850h-159l210 850l12 16h-243l4 -16l-210 -850h-159z" />
<glyph unicode="&#x2211;" horiz-adv-x="764" d="M-67 -210l32 128l432 403q-19 25 -80 115t-113 167l-51 77l32 129h643l-37 -152h-416l46 -54l184 -284l-339 -315l-75 -60h434l-36 -154h-656z" />
<glyph unicode="&#x2212;" horiz-adv-x="703" d="M102 333l36 145h524l-35 -145h-525z" />
<glyph unicode="&#x221a;" horiz-adv-x="680" d="M-2 273l37 150h243l17 -272q42 90 138.5 282t172.5 339l75 147h157l-520 -1010h-162l-27 355l-1 9h-130z" />
<glyph unicode="&#x221e;" horiz-adv-x="867" d="M91 409q20 81 85 136.5t149 55.5q95 0 158 -108q113 108 216 108q85 0 122.5 -54.5t17.5 -137.5q-20 -82 -85 -138t-149 -56q-55 0 -91.5 28.5t-65.5 80.5q-122 -109 -217 -109q-86 0 -123.5 55.5t-16.5 138.5zM209 408q-8 -33 8.5 -58t49.5 -25q54 0 130 83 q-44 83 -90 83q-33 0 -61.5 -24.5t-36.5 -58.5zM540 411q32 -86 82 -86q33 0 62 24.5t37 58.5t-8.5 58.5t-49.5 24.5q-43 0 -101 -58z" />
<glyph unicode="&#x222b;" horiz-adv-x="493" d="M-97 -174l63 122q39 -16 59 -16q59 0 82 63q8 23 22 83l143 577q6 23 13 49.5t9 36.5q25 88 86 140t152 52q46 0 97 -35l-63 -121q-34 27 -58 27q-29 0 -46 -13t-28 -45q-4 -9 -35 -130l-126 -514q-24 -99 -40 -140q-66 -154 -227 -154q-32 0 -103 18z" />
<glyph unicode="&#x2248;" horiz-adv-x="698" d="M57 259q34 62 91.5 99t122.5 37q46 0 109 -43q5 -3 18.5 -12.5t21.5 -14t21 -9t25 -4.5q62 0 110 90l65 -89q-35 -63 -92.5 -99t-122.5 -36q-28 0 -54 12t-56 32t-43 27q-24 12 -42 12q-60 0 -109 -90zM119 508q33 62 90.5 99t122.5 37q22 0 45 -8t38.5 -18.5t36.5 -24 t34 -20.5q24 -12 41 -12q62 0 110 90l65 -89q-35 -62 -92.5 -98.5t-121.5 -36.5q-28 0 -55 12t-55.5 32t-43.5 27q-24 12 -41 12q-62 0 -109 -90z" />
<glyph unicode="&#x2260;" horiz-adv-x="688" d="M72 212l35 142h180l-1 18l50 68l21 15h-225l35 142l295 1l2 16l57 75h136l-57 -76l-19 -15l96 -1l-35 -142h-168l-1 -16l-51 -68l-20 -17h215l-35 -142h-291v-16l-56 -76h-136l57 77l19 15h-103z" />
<glyph unicode="&#x2264;" horiz-adv-x="546" d="M-3 5l35 145h380l-36 -145h-379zM107 493l383 331l75 -105l-210 -180l-56 -38l37 -38l123 -175l-126 -105z" />
<glyph unicode="&#x2265;" horiz-adv-x="546" d="M34 5l36 145h379l-35 -145h-380zM91 288l209 175l56 38l-37 38l-122 180l127 105l220 -331l-379 -310z" />
<glyph unicode="&#x25ca;" horiz-adv-x="797" d="M83 405l459 453l234 -453l-458 -452zM268 405l110 -208l213 208l-110 209z" />
<glyph unicode="&#x25fc;" horiz-adv-x="630" d="M0 0v630h630v-630h-630z" />
<glyph unicode="&#xf8ff;" horiz-adv-x="827" d="M0 0v810h306l-281 -403l283 -407h-308zM364 407l280 403h183v-810h-181z" />
<glyph unicode="&#xfb01;" horiz-adv-x="807" d="M-194 -188l34 140q58 -29 115 -29q39 0 61 19.5t34 67.5l116 471l11 15h-97l33 133h98l-4 16q23 93 99.5 147t180.5 54q69 0 113 -17l-33 -134q-42 17 -90 17q-88 0 -104 -67l-13 -16l451 1v-1q-23 -93 -49.5 -198.5t-57.5 -231.5t-49 -199h-165l123 496h-286l4 -16 l-119 -480q-53 -215 -279 -215q-73 0 -127 27zM673 764q10 39 41 65.5t70 26.5q26 0 44 -12t23.5 -32.5t-0.5 -47.5q-10 -39 -41.5 -65.5t-70.5 -26.5t-57.5 26t-8.5 66z" />
<glyph unicode="&#xfb02;" horiz-adv-x="796" d="M-194 -188l34 140q58 -29 115 -29q39 0 61 19.5t34 67.5l116 471l11 15h-97l33 133h98l-4 16q23 92 98 143t180 51l368 1l-208 -840h-165l175 709q-13 0 -63 1.5t-75 1.5t-40 -2q-89 0 -104 -65l-13 -16h186l-33 -133h-186l4 -16l-119 -480q-53 -215 -279 -215 q-73 0 -127 27z" />
<glyph horiz-adv-x="827" d="M128 519l119 116h242q-6 22 -26 39t-52 17h-239l121 119h595l-118 -119h-100q13 -27 9 -56h164l-109 -116h-81q-24 -51 -68 -95t-98 -64v-2q18 -10 35.5 -31t24.5 -46l76 -281h-189l-57 214q-14 52 -47 79t-99 27h-59l30 122h125q50 0 92 22.5t62 54.5h-353z" />
<glyph horiz-adv-x="950" d="M83 398q48 192 192 307t346 115q214 0 301 -125l-145 -118q-56 92 -193 92q-132 0 -214.5 -70t-114.5 -201q-64 -257 193 -257q91 0 163.5 48.5t99.5 124.5l20 16h-277l37 151h420l-119 -482h-146l19 77q-45 -38 -115.5 -62t-139.5 -24q-201 0 -287 110t-40 298z M277 -294l54 67l22 13q-26 5 -37 27t-4 55q10 39 36.5 61.5t64.5 22.5q39 0 54.5 -22.5t5.5 -61.5q-6 -27 -27 -53l-116 -144z" />
<glyph horiz-adv-x="783" d="M-16 -124l138 112q74 -60 172 -60q75 0 123.5 35.5t63.5 98.5l5 18h-2q-76 -48 -174 -48q-156 0 -218.5 83t-28.5 221q32 131 138 217.5t258 86.5q45 0 88 -15t63 -38h2l10 43h166l-139 -562q-34 -136 -134 -209.5t-256 -73.5q-164 0 -275 91zM228 334q-18 -74 14 -116 t112 -42q164 0 203 158q19 75 -12 119t-112 44q-82 0 -134.5 -44.5t-70.5 -118.5zM425 778q6 26 27 52l116 145l53 -36l-54 -66l-22 -13q26 -6 37 -27.5t4 -54.5q-10 -40 -36.5 -62.5t-65.5 -22.5q-38 0 -53.5 22.5t-5.5 62.5z" />
<glyph horiz-adv-x="885" d="M20 0l200 810h168l-200 -810h-168zM244 -294l55 67l22 13q-27 5 -38 27t-3 55q10 39 36.5 61.5t64.5 22.5q39 0 54 -22.5t6 -61.5q-8 -29 -27 -53l-117 -144zM298 409l470 400h235l-488 -401q1 0 1 -2q10 -11 85 -112.5t145 -197.5l69 -96h-235z" />
<glyph horiz-adv-x="766" d="M12 0l208 840h165l-207 -840h-166zM200 -294l55 67l21 13q-26 5 -37 27t-3 55q9 39 35.5 61.5t65.5 22.5t54 -22.5t5 -61.5q-6 -27 -27 -53l-116 -144zM267 320l369 310h205l-376 -308l-1 -2l232 -320h-211z" />
<glyph horiz-adv-x="721" d="M20 0l200 810h168l-159 -643l-19 -15h464l-37 -152h-617zM201 -294l55 67l21 13q-26 5 -37 27t-3 55q9 39 35.5 61.5t65.5 22.5t54 -22.5t5 -61.5q-6 -27 -27 -53l-116 -144z" />
<glyph horiz-adv-x="329" d="M-56 -294l55 67l21 13q-26 5 -37 27t-3 55q9 39 35.5 61.5t65.5 22.5t54 -22.5t5 -61.5q-6 -27 -27 -53l-116 -144zM12 0l208 840h165l-207 -840h-166z" />
<glyph horiz-adv-x="911" d="M20 0l200 810h141l255 -446l33 -92h2l133 538h168l-200 -810h-141l-252 446l-36 95h-1l-134 -541h-168zM247 -294l55 67l21 13q-26 5 -37 27t-3 55q9 39 35.5 61.5t65.5 22.5t54 -22.5t5 -61.5q-6 -27 -27 -53l-116 -144z" />
<glyph horiz-adv-x="780" d="M12 0l156 631h165l-13 -55h2q87 64 196 64q126 0 184 -66t29 -183l-97 -391h-165l92 375q16 63 -3.5 92t-102.5 29q-71 0 -121 -33.5t-65 -94.5l-91 -368h-166zM181 -294l54 67l22 13q-26 5 -37 27t-4 55q10 39 36.5 61.5t64.5 22.5q39 0 54.5 -22.5t5.5 -61.5 q-6 -27 -27 -53l-116 -144z" />
<glyph horiz-adv-x="876" d="M20 0l200 810h388q129 0 201.5 -65t42.5 -188q-15 -62 -68.5 -116.5t-116.5 -80.5v-2q44 -22 60 -84l74 -274h-188l-57 214q-13 48 -47 69.5t-102 21.5h-159l12 -15l-72 -290h-168zM251 -294l55 67l22 13q-27 5 -38 27t-3 55q10 39 36.5 61.5t64.5 22.5q39 0 54 -22.5 t6 -61.5q-8 -29 -27 -53l-117 -144zM283 450h225q73 0 117 29.5t55 73.5q13 52 -15 78.5t-94 26.5h-236l12 -15l-44 -177z" />
<glyph horiz-adv-x="485" d="M12 0l156 630h165l-21 -84h2q80 91 205 91h36l-38 -152h-48q-88 0 -140 -42t-74 -131l-77 -312h-166zM29 -294l55 67l21 13q-26 5 -37 27t-3 55q10 39 36 61.5t65 22.5t54 -22.5t5 -61.5q-6 -27 -27 -53l-116 -144z" />
<glyph horiz-adv-x="837" d="M13 133l146 118q94 -110 243 -110q92 0 142 25t59 62q6 25 -16.5 49.5t-88.5 42.5q-66 16 -139 37q-56 16 -95.5 33t-73.5 43t-46 64.5t0 87.5q25 101 134.5 168t274.5 67q216 0 316 -139l-147 -118q-30 49 -84.5 77.5t-122.5 28.5q-91 0 -140.5 -23.5t-57.5 -56.5 q-7 -26 23.5 -45t121.5 -43q68 -21 121 -33q115 -30 163.5 -92t28.5 -145q-25 -102 -133 -171.5t-284 -69.5q-233 0 -345 143zM218 -294l54 67l22 13q-26 5 -37 27t-3 55q9 39 35.5 61.5t65.5 22.5t54 -22.5t5 -61.5q-6 -27 -27 -53l-116 -144z" />
<glyph horiz-adv-x="694" d="M7 108l132 108q30 -42 77 -65t101 -23q65 0 98.5 16t38.5 37q4 17 -8.5 29.5t-60.5 24.5q-5 1 -51 14t-53 15q-43 12 -74 25t-59 34.5t-38 53.5t0 73q21 84 108.5 136.5t218.5 52.5q173 0 254 -105l-129 -103q-53 71 -158 71q-62 0 -92.5 -16t-34.5 -34 q-5 -18 15.5 -28.5t80.5 -26.5q25 -6 94 -27q95 -25 133.5 -68.5t21.5 -113.5q-22 -86 -109.5 -142.5t-226.5 -56.5q-172 0 -279 119zM143 -294l55 67l21 13q-26 5 -37 27t-3 55q9 39 35.5 61.5t65.5 22.5t54 -22.5t5 -61.5q-6 -27 -27 -53l-116 -144z" />
<glyph d="M113 658l37 152h723l-37 -152h-286l5 -16l-159 -642h-168l158 642l13 16h-286zM167 -294l55 67l21 13q-26 5 -37 27t-3 55q9 39 35.5 61.5t65.5 22.5t54 -22.5t5 -61.5q-6 -27 -27 -53l-116 -144z" />
<glyph horiz-adv-x="537" d="M75 -294l55 67l21 13q-26 5 -37 27t-3 55q10 39 36.5 61.5t64.5 22.5q39 0 54 -22.5t5 -61.5q-7 -30 -27 -53l-116 -144zM80 496l33 134h92l-5 15l19 75l187 89l-40 -164l-13 -15h193l-32 -134h-194l5 -15l-66 -269q-10 -38 2 -58.5t41 -20.5q46 0 105 50l72 -98 q-119 -95 -228 -95q-212 0 -158 222l67 269l12 15h-92z" />
<glyph horiz-adv-x="541" d="M85 486l36 144h451l-25 -103l-140 -225q-26 -42 -44 -115l-46 -188h-163l49 197q21 86 58 147l51 84l47 59h-274z" />
</font>
</defs>
</svg>
