<?xml version="1.0" standalone="no"?>
<!DOCTYPE svg PUBLIC "-//W3C//DTD SVG 1.1//EN" "http://www.w3.org/Graphics/SVG/1.1/DTD/svg11.dtd" >
<svg xmlns="http://www.w3.org/2000/svg">
<metadata></metadata>
<defs>
<font id="sinkin_sans200_x_light_italic" horiz-adv-x="672" >
<font-face units-per-em="1000" ascent="810" descent="-190" />
<missing-glyph horiz-adv-x="307" />
<glyph unicode="&#x9;" horiz-adv-x="990" />
<glyph unicode="&#xa;" horiz-adv-x="990" />
<glyph unicode="&#xd;" horiz-adv-x="990" />
<glyph horiz-adv-x="990" />
<glyph horiz-adv-x="990" />
<glyph horiz-adv-x="990" />
<glyph horiz-adv-x="990" />
<glyph horiz-adv-x="990" />
<glyph horiz-adv-x="990" />
<glyph horiz-adv-x="990" />
<glyph unicode=" "  horiz-adv-x="307" />
<glyph unicode="&#x09;" horiz-adv-x="307" />
<glyph unicode="&#xa0;" horiz-adv-x="307" />
<glyph unicode="!" horiz-adv-x="233" d="M10 43q13 52 60 52q48 0 35 -52q-6 -24 -22 -38.5t-38 -14.5q-46 0 -35 53zM74 167l143 643h60l-174 -643h-29z" />
<glyph unicode="&#x22;" horiz-adv-x="281" d="M139 561l53 279h55l-84 -279h-24zM256 561l54 279h55l-85 -279h-24z" />
<glyph unicode="#" horiz-adv-x="656" d="M9 0l111 221l8 7h-111l11 47h122l1 7l123 247l7 6h-112l11 47h123v6l112 222h40l-111 -222l-6 -6h218l1 7l112 221h40l-111 -221l-7 -7h110l-12 -47h-121v-6l-124 -247l-7 -7h112l-12 -47h-123v-5l-112 -223h-41l112 222l7 6h-218l-1 -6l-112 -222h-40zM185 275h219v7 l124 247l7 6h-221v-6l-122 -247z" />
<glyph unicode="$" horiz-adv-x="689" d="M9 97l46 35q83 -94 212 -98l-2 5l77 312l5 4q-3 1 -17.5 5t-25.5 7t-12 4q-101 29 -140.5 70t-22.5 111q19 76 98 128.5t213 55.5l-1 6l24 97h35l-25 -99l-4 -5q131 -5 209 -94l-44 -34q-63 79 -175 86l1 -4l-71 -290l-4 -4q56 -16 65 -20q180 -53 146 -191 q-19 -78 -94.5 -133t-215.5 -59l1 -5l-24 -97h-34l24 97l4 5q-159 4 -248 105zM177 554q-13 -53 24 -84t129 -59l28 -8l-1 6l69 280l4 5q-105 -2 -171.5 -40.5t-81.5 -99.5zM296 34q109 4 173 44t79 103q27 107 -125 152q-7 2 -50 15l2 -5l-75 -304z" />
<glyph unicode="%" horiz-adv-x="762" d="M106 590q25 103 82 166.5t128 63.5q72 0 97.5 -64.5t-0.5 -165.5q-25 -103 -80 -163.5t-129 -60.5q-73 0 -98.5 62t0.5 162zM149 -10l486 830h41l-486 -830h-41zM149 590q-22 -71 -7 -126t72 -55q111 0 157 181q45 187 -65 187q-111 0 -157 -187zM408 213q25 102 82 166 t128 64q73 0 98.5 -64.5t-1.5 -165.5q-25 -103 -80 -163.5t-129 -60.5q-73 0 -98.5 61.5t0.5 162.5zM451 213q-22 -71 -7 -126t73 -55q110 0 156 181q45 187 -65 187q-59 0 -98 -52.5t-59 -134.5z" />
<glyph unicode="&#x26;" horiz-adv-x="685" d="M34 196q17 71 85.5 130.5t190.5 116.5l-7 2l-12.5 22.5t-14 24t-13.5 24t-11 27t-7 29t-2 33t6 35.5q18 74 82.5 126t136.5 52q73 0 112 -52t21 -126q-15 -58 -54.5 -97t-121.5 -82q-23 -13 -63 -31l6 -3q4 -7 44 -76t78.5 -135.5t47.5 -82.5v-6q49 49 67 106h48 q-24 -73 -97 -137l4 -2l56 -94h-54l-37 65v5q-110 -81 -261 -81q-129 0 -191.5 56t-38.5 151zM81 196q-10 -43 1 -76t40 -51.5t67.5 -27.5t85.5 -9q67 0 121.5 15.5t109.5 56.5l-6 2l-176 304l2 6q-4 -2 -35.5 -18.5t-43.5 -23t-33 -19.5t-36 -25q-78 -60 -97 -134zM291 637 q-12 -49 10 -93q42 -77 45 -81l-1 -6q30 13 61 29q70 35 105 68.5t47 82.5q14 57 -15 98t-84 41q-57 0 -105.5 -40t-62.5 -99z" />
<glyph unicode="'" horiz-adv-x="164" d="M139 561l53 279h55l-84 -279h-24z" />
<glyph unicode="(" horiz-adv-x="225" d="M59 358q69 281 277 549h34q-184 -261 -251 -536q-77 -310 -20 -562h-34q-75 271 -6 549z" />
<glyph unicode=")" horiz-adv-x="225" d="M-106 -191q182 256 257 562q68 275 14 536h33q76 -270 7 -549q-69 -277 -278 -549h-33z" />
<glyph unicode="*" horiz-adv-x="563" d="M128 542l1 41l210 38l-135 121l34 33l120 -137l42 207h41l-60 -208l187 137l18 -33l-196 -121l193 -37l-19 -41l-183 55l51 -182l-42 -18l-34 189l-127 -190l-33 18l142 182z" />
<glyph unicode="+" horiz-adv-x="666" d="M114 382l11 46h226l-2 5l59 240h44l-59 -240l-5 -5h226l-12 -46h-225l2 -5l-59 -239h-44l59 239l5 5h-226z" />
<glyph unicode="," horiz-adv-x="223" d="M-35 -106l60 91l10 6q-23 -1 -31.5 14t-2.5 38q13 53 60 53t34 -53q-4 -15 -16 -33l-87 -130z" />
<glyph unicode="-" horiz-adv-x="351" d="M35 303l11 45h292l-11 -45h-292z" />
<glyph unicode="." horiz-adv-x="223" d="M1 43q13 52 60 52t34 -52q-6 -24 -22 -38.5t-38 -14.5q-47 0 -34 53z" />
<glyph unicode="/" horiz-adv-x="192" d="M-151 -50l512 910h43l-511 -910h-44z" />
<glyph unicode="0" horiz-adv-x="698" d="M84 400q48 192 155 306t243 114q138 0 188.5 -113t2.5 -307q-48 -193 -151 -301.5t-245 -108.5q-141 0 -191 108.5t-2 301.5zM130 400q-19 -76 -21.5 -139t12 -115.5t56.5 -82.5t110 -30q131 0 214.5 101t124.5 266q18 75 21.5 138.5t-9.5 119t-55 87.5t-111 32 q-66 0 -123.5 -31.5t-99 -86t-71 -119.5t-48.5 -140z" />
<glyph unicode="1" horiz-adv-x="338" d="M105 626l222 184h42l-200 -810h-44l167 680l24 77h-2q-20 -20 -45.5 -43.5t-42.5 -38t-49.5 -42l-45.5 -38.5z" />
<glyph unicode="2" horiz-adv-x="625" d="M-14 0l28 115q21 90 84.5 162t167.5 107l120 41q101 35 151.5 78.5t66.5 106.5q17 70 -20 118.5t-141 48.5q-129 0 -235 -95l-24 34q118 104 270 104q66 0 112 -18.5t65 -48.5t26 -67.5t-5 -75.5q-39 -155 -244 -223l-138 -47q-85 -29 -139.5 -89.5t-73.5 -142.5 q-1 -1 -4 -15t-6.5 -29t-3.5 -16l-6 -5h474l-11 -43h-514z" />
<glyph unicode="3" horiz-adv-x="639" d="M8 94l43 36q68 -97 194 -97q114 0 186 54t90 127q20 78 -22.5 128t-141.5 60q-4 0 -99 4l10 41q90 3 97 4q105 11 164.5 59t75.5 112q16 65 -27 109.5t-148 44.5q-130 0 -234 -90l-25 37q120 97 270 97q129 0 180 -58t31 -139q-15 -62 -68.5 -115.5t-143.5 -76.5v-3 q85 -24 115.5 -81.5t12.5 -132.5q-22 -90 -107.5 -157t-225.5 -67q-147 0 -227 104z" />
<glyph unicode="4" horiz-adv-x="663" d="M20 202l9 38l586 570h35l-138 -559l-4 -5h107l-11 -44l-107 1l2 -6l-49 -197h-44l49 197l4 6zM84 246h385l-1 5l100 404l24 86h-2l-55 -58l-395 -387l-56 -48v-2z" />
<glyph unicode="5" horiz-adv-x="654" d="M14 115l39 34q62 -117 199 -117q120 0 196 65.5t99 157.5q13 42 7 82.5t-25 72t-60 51t-99 19.5q-132 0 -242 -85l-23 29l138 386h430l-11 -43l-396 -1l3 -4l-89 -247l-29 -63l1 -1q105 72 229 72q134 0 187 -77t26 -191q-28 -112 -118.5 -189t-233.5 -77 q-85 0 -137.5 30t-90.5 96z" />
<glyph unicode="6" horiz-adv-x="691" d="M81 388q16 63 41.5 123.5t63.5 117t83 98.5t104 67.5t122 25.5q151 0 217 -102l-42 -36q-54 95 -185 95q-67 0 -128 -33.5t-104.5 -89.5t-74.5 -121t-48 -134q-1 -4 -5 -22.5t-6 -27.5h2q57 88 136.5 131t162.5 43q132 0 185.5 -78.5t25.5 -189.5q-28 -110 -120.5 -188 t-230.5 -78q-145 0 -195 105t-4 294zM114 254q-13 -53 -0.5 -102.5t58.5 -84.5t120 -35q109 0 189.5 67t103.5 156q12 39 5.5 79t-24.5 72.5t-59 53t-98 20.5q-107 0 -190 -70t-105 -156z" />
<glyph unicode="7" horiz-adv-x="606" d="M150 767l10 43h547l-10 -38l-296 -310q-69 -72 -108.5 -150.5t-66.5 -188.5l-30 -123h-45l32 129q29 118 69.5 196.5t114.5 156.5l207 216l72 67v2h-496z" />
<glyph unicode="8" horiz-adv-x="695" d="M39 218q39 154 228 211l1 2q-67 28 -92 77t-10 110q21 84 101 143t213 59q134 0 185 -59t31 -143q-16 -61 -65 -110t-130 -76v-2q162 -57 124 -212q-22 -88 -116.5 -158t-232.5 -70q-57 0 -103 13.5t-73 36.5t-45.5 52.5t-20 61.5t4.5 64zM86 220q-18 -73 34.5 -130 t165.5 -57q112 0 193.5 57.5t99.5 129.5q20 83 -36 137t-164 54t-190 -53t-103 -138zM212 612q-16 -66 29.5 -116t145.5 -50q101 0 172.5 50t87.5 116q16 68 -27 116t-149 48q-107 0 -175 -48t-84 -116z" />
<glyph unicode="9" horiz-adv-x="691" d="M40 92l43 36q53 -96 185 -96q67 0 127.5 34t104.5 89.5t75 120.5t48 134q9 41 10 51h-2q-55 -88 -134.5 -131t-163.5 -43q-124 0 -182 74.5t-30 189.5q29 118 125.5 193.5t226.5 75.5q149 0 196.5 -108t2.5 -290q-20 -81 -56 -155.5t-87.5 -138t-122 -101.5t-149.5 -38 q-149 0 -217 103zM167 553q-23 -92 25.5 -157.5t151.5 -65.5q100 0 186 67.5t108 159.5q22 90 -27 155t-150 65q-104 0 -187.5 -65.5t-106.5 -158.5z" />
<glyph unicode=":" horiz-adv-x="233" d="M10 42q6 24 22 38.5t38 14.5q48 0 35 -53q-13 -52 -60 -52q-46 0 -35 52zM129 522q13 52 60 52t34 -52q-6 -24 -22 -38.5t-38 -14.5q-47 0 -34 53z" />
<glyph unicode=";" horiz-adv-x="233" d="M-26 -106l61 91l10 6q-23 -1 -31.5 14t-2.5 38q13 53 60 53t34 -53q-4 -15 -16 -33l-87 -130zM129 522q13 53 60 53t34 -53q-13 -52 -60 -52t-34 52z" />
<glyph unicode="&#x3c;" horiz-adv-x="450" d="M85 405l347 291l23 -32l-244 -203l-72 -55l-1 -2q30 -36 62 -78.5t69.5 -95.5t58.5 -82l-40 -32z" />
<glyph unicode="=" horiz-adv-x="668" d="M84 261l11 44h490l-11 -44h-490zM145 506l10 43h490l-10 -43h-490z" />
<glyph unicode="&#x3e;" horiz-adv-x="450" d="M56 148l244 201l73 55v2q-30 36 -61.5 79t-69 96.5t-58.5 82.5l39 32l203 -291l-345 -289z" />
<glyph unicode="?" horiz-adv-x="574" d="M125 43q5 24 21 38t39 14q47 0 34 -52q-6 -24 -22 -38.5t-38 -14.5q-47 0 -34 53zM162 715q117 105 262 105q104 0 150.5 -62.5t28.5 -136.5q-29 -116 -162 -175l-38 -16q-75 -32 -108 -74t-54 -127l-16 -61h-45l18 71q23 94 63 143t135 90l27 12q56 25 88.5 57.5 t44.5 79.5q15 61 -27 108.5t-116 47.5q-123 0 -225 -97z" />
<glyph unicode="@" horiz-adv-x="964" d="M103 416q28 115 111.5 214.5t195.5 157t224 57.5q163 0 253 -116t49 -283q-27 -108 -109 -194.5t-176 -86.5q-39 0 -62.5 24t-24.5 63h-2q-81 -88 -174 -88q-74 0 -100 57t-5 144q26 104 111.5 187.5t186.5 83.5q45 0 69.5 -30.5t20.5 -75.5h2l48 96h43l-123 -252 q-25 -50 -34 -88q-8 -34 9 -59t47 -25q82 0 146.5 77.5t86.5 164.5q37 151 -42.5 259t-226.5 108q-158 0 -301.5 -117.5t-184.5 -279.5q-42 -172 41 -289t249 -117q107 0 208 58l20 -26q-119 -66 -231 -66q-188 0 -280 125t-45 317zM330 372q-9 -45 -9 -82.5t22 -62 t64 -24.5q53 0 102.5 43t79 97.5t42.5 107.5q7 27 8.5 50.5t-3 47t-23 37t-50.5 13.5q-75 0 -143.5 -73t-89.5 -154z" />
<glyph unicode="A" horiz-adv-x="757" d="M-54 0l544 810h40l143 -810h-50l-39 214l4 4h-450l1 -5l-143 -213h-50zM168 261h412l-5 6l-73 419l-5 71h-1l-41 -71l-281 -420z" />
<glyph unicode="B" horiz-adv-x="727" d="M20 0l200 810h341q96 0 142 -56t23 -150q-15 -61 -58 -109.5t-104 -68.5v-2q73 -22 97 -76t6 -130q-26 -103 -102.5 -160.5t-203.5 -57.5h-341zM72 43h299q205 0 248 176q20 84 -21 130.5t-141 46.5h-298l3 -4l-84 -344zM169 440h281q96 0 153 46t75 118 q20 82 -19.5 122.5t-128.5 40.5h-280l4 -5l-79 -318z" />
<glyph unicode="C" horiz-adv-x="718" d="M84 400q47 191 172 305.5t300 114.5q168 0 240 -104l-43 -35q-58 96 -207 96q-83 0 -153.5 -30t-121.5 -83t-86.5 -119.5t-54.5 -145.5q-21 -75 -17 -142t27.5 -116.5t80 -78.5t140.5 -29q149 0 254 95l25 -34q-123 -104 -290 -104q-179 0 -246 109.5t-20 300.5z" />
<glyph unicode="D" horiz-adv-x="768" d="M20 0l200 810h282q81 0 137 -22t84.5 -58t38.5 -89.5t5 -110t-23 -125.5q-16 -66 -36.5 -120t-56 -109t-81 -92t-113.5 -60.5t-151 -23.5h-286zM70 43h237q76 0 136.5 21t101 53.5t71.5 82.5t49 97.5t33 107.5q12 49 17.5 89.5t5 83.5t-15 75.5t-40.5 59t-73 40.5 t-112 14h-231l3 -5l-176 -715z" />
<glyph unicode="E" horiz-adv-x="698" d="M20 0l200 810h539l-10 -43h-500l3 -5l-81 -330l-6 -5h452l-10 -43h-453l4 -5l-82 -331l-6 -5h500l-11 -43h-539z" />
<glyph unicode="F" horiz-adv-x="639" d="M20 0l200 810h519l-10 -43h-480l3 -5l-86 -351l-6 -5h432l-11 -44h-432l4 -4l-89 -358h-44z" />
<glyph unicode="G" horiz-adv-x="831" d="M83 396q48 198 174 311t301 113q176 0 250 -102l-43 -35q-61 94 -217 94q-160 0 -267.5 -102t-150.5 -279q-42 -170 15 -266.5t215 -96.5q126 0 229 97t139 250l6 5h-268l11 43h301l-105 -428h-37l49 199h-2q-49 -86 -140 -147.5t-194 -61.5q-177 0 -245.5 107t-20.5 299 z" />
<glyph unicode="H" horiz-adv-x="787" d="M20 0l200 810h44l-93 -378l-6 -5h529l-3 5l93 378h45l-200 -810h-45l94 379l6 5h-530l4 -5l-94 -379h-44z" />
<glyph unicode="I" horiz-adv-x="233" d="M25 0l200 810h44l-200 -810h-44z" />
<glyph unicode="J" horiz-adv-x="550" d="M-46 93l40 34q23 -43 62.5 -68.5t87.5 -25.5q45 0 85.5 12.5t78.5 40.5t68 78.5t47 120.5l129 525h45l-129 -521q-20 -83 -55.5 -142.5t-80.5 -93t-94 -48.5t-105 -15q-59 0 -105.5 27.5t-73.5 75.5z" />
<glyph unicode="K" horiz-adv-x="640" d="M20 0l200 810h44l-200 -810h-44zM175 409l519 401h64l-521 -399v-2l333 -409h-65z" />
<glyph unicode="L" horiz-adv-x="597" d="M20 0l200 810h44l-188 -762l-6 -5h453l-10 -43h-493z" />
<glyph unicode="M" horiz-adv-x="915" d="M20 0l200 810h40l132 -625l17 -97h2l65 98l440 624h40l-199 -810h-45l175 708h-2l-90 -138l-408 -580h-3l-122 583l-21 136h-2l-175 -709h-44z" />
<glyph unicode="N" horiz-adv-x="787" d="M20 0l200 810h42l298 -635l40 -103h2l182 738h45l-200 -810h-42l-298 634l-40 104h-2l-183 -738h-44z" />
<glyph unicode="O" horiz-adv-x="811" d="M84 400q48 192 167 306t287 114q169 0 232.5 -113.5t15.5 -306.5q-47 -191 -166 -300.5t-287 -109.5q-169 0 -232.5 109.5t-16.5 300.5zM130 400q-21 -75 -18 -141.5t25 -116.5t75 -79.5t132 -29.5q155 0 255 103t140 264q21 74 19 142t-22.5 120t-74 83.5t-133.5 31.5 t-147.5 -30.5t-116 -84t-82 -119t-52.5 -143.5z" />
<glyph unicode="P" horiz-adv-x="714" d="M20 0l200 810h341q115 0 160.5 -65.5t19.5 -174.5q-27 -105 -106 -172.5t-193 -67.5h-301l4 -5l-81 -325h-44zM152 374h300q94 0 157.5 54.5t84.5 141.5q22 90 -14 143.5t-130 53.5h-301l4 -5l-95 -384z" />
<glyph unicode="Q" horiz-adv-x="817" d="M85 406q47 191 166 302.5t287 111.5q170 0 233.5 -110.5t16.5 -303.5q-44 -174 -150 -288l95 -127l-37 -31l-93 126q-120 -96 -270 -96q-168 0 -231.5 112t-16.5 304zM132 406q-21 -74 -18 -141t24 -119t74 -82.5t132 -30.5q133 0 229 81l8 1l-100 134l38 32l97 -132l2 8 q84 93 123 249q15 60 18 113.5t-8.5 101t-38 82t-73.5 54.5t-111 20q-80 0 -147 -29.5t-115 -81.5t-81.5 -117t-52.5 -143z" />
<glyph unicode="R" horiz-adv-x="720" d="M20 0l200 810h326q109 0 162 -58t26 -170q-20 -80 -80.5 -138.5t-153.5 -77.5v-2q72 -28 95 -133l51 -231h-53l-44 212q-15 74 -59 108.5t-129 34.5h-213l3 -5l-87 -350h-44zM158 398h276q102 0 168 53t85 131q24 94 -19.5 139.5t-131.5 45.5h-287l3 -6l-88 -357z" />
<glyph unicode="S" horiz-adv-x="701" d="M7 106l45 36q91 -109 241 -109q121 0 197.5 47t94.5 121q29 120 -135 171q-9 2 -69 21t-68 22q-107 34 -149.5 79.5t-23.5 121.5q21 85 108.5 144.5t234.5 59.5q161 0 242 -105l-43 -35q-71 97 -209 97q-117 0 -192.5 -44t-93.5 -115q-15 -60 26 -95t139 -67l126 -40 q192 -62 154 -212q-21 -88 -107 -151t-240 -63q-183 0 -278 116z" />
<glyph unicode="T" horiz-adv-x="658" d="M140 767l10 43h619l-10 -43h-291l2 -5l-188 -762h-44l188 762l4 5h-290z" />
<glyph unicode="U" horiz-adv-x="799" d="M106 369l109 441h44l-110 -445q-81 -332 189 -332q271 0 353 332l110 445h44l-108 -441q-94 -379 -409 -379q-160 0 -214.5 94.5t-7.5 284.5z" />
<glyph unicode="V" horiz-adv-x="738" d="M145 810h52l107 -676l7 -87h2l50 88l440 675h51l-531 -810h-46z" />
<glyph unicode="W" horiz-adv-x="973" d="M155 810h50l12 -674l-5 -86h1l37 86l349 674h36l15 -677l-5 -83h2l36 84l347 676h49l-418 -810h-54l-14 634l4 90h-2l-41 -90l-327 -634h-54z" />
<glyph unicode="X" horiz-adv-x="659" d="M-50 0l383 407l-180 403h58l132 -298l26 -71h2l61 71l279 298h57l-379 -403l181 -407h-57l-132 304l-27 71h-2l-61 -71l-283 -304h-58z" />
<glyph unicode="Y" horiz-adv-x="698" d="M145 810h59l141 -344l29 -83h1l69 83l312 344h57l-426 -466l-84 -344h-45l84 344z" />
<glyph unicode="Z" horiz-adv-x="732" d="M-10 0l9 35l660 666l74 64v2h-544l11 43h598l-9 -37l-655 -659l-79 -69v-2h559l-11 -43h-613z" />
<glyph unicode="[" horiz-adv-x="257" d="M-57 -190l271 1097h187l-9 -38h-147l-252 -1022h147l-9 -37h-188z" />
<glyph unicode="\" horiz-adv-x="272" d="M113 860h44l63 -910h-44z" />
<glyph unicode="]" horiz-adv-x="257" d="M-106 -190l9 38h147l252 1021h-147l10 38h187l-271 -1097h-187z" />
<glyph unicode="^" horiz-adv-x="605" d="M107 415l311 395h29l117 -395h-48l-81 279l-14 64h-2q-50 -70 -150 -197.5t-114 -145.5h-48z" />
<glyph unicode="_" horiz-adv-x="651" d="M-118 -159l10 41h671l-10 -41h-671z" />
<glyph unicode="`" horiz-adv-x="652" d="M363 860l45 35l118 -183l-22 -17z" />
<glyph unicode="a" d="M62 311q36 150 127 239t222 89q150 0 181 -142h2l33 133h43l-156 -630h-43l32 129h-2q-45 -67 -111 -103t-140 -36q-130 0 -177 87.5t-11 233.5zM104 311q-16 -56 -13.5 -106.5t18 -89t55 -61.5t98.5 -23q109 0 185 78.5t106 201.5q32 127 -4.5 207t-146.5 80 q-114 0 -190.5 -82.5t-107.5 -204.5z" />
<glyph unicode="b" d="M20 0l207 840h43l-85 -343h2q101 142 253 142q130 0 176.5 -89t9.5 -239q-36 -146 -126.5 -233.5t-220.5 -87.5q-74 0 -122 36t-61 103h-2l-32 -129h-42zM134 311q-30 -122 7.5 -201t145.5 -79q115 0 190.5 79t105.5 201q16 55 14 107t-17 92t-54 64t-98 24 q-110 0 -186 -80t-108 -207z" />
<glyph unicode="c" horiz-adv-x="553" d="M62 310q36 146 132 238t223 92q113 0 171 -64l-38 -32q-46 56 -143 54q-113 -1 -193 -84t-110 -204q-29 -119 8 -199t153 -80q101 0 182 64l22 -32q-94 -73 -214 -73q-134 0 -182 87t-11 233z" />
<glyph unicode="d" d="M62 311q36 150 127 239t222 89q150 0 181 -142h2l85 342h42l-207 -839h-43l32 129h-2q-45 -67 -111 -103t-140 -36q-130 0 -177 87.5t-11 233.5zM104 311q-16 -56 -13.5 -106.5t18 -89t55 -61.5t98.5 -23q109 0 185 78.5t106 201.5q32 127 -4.5 207t-146.5 80 q-114 0 -190.5 -82.5t-107.5 -204.5z" />
<glyph unicode="e" horiz-adv-x="649" d="M62 310q35 143 128.5 236.5t225.5 93.5q72 0 119 -28t65 -76t18 -104.5t-16 -121.5l-3 -13l-503 -1l4 -5q-23 -120 18 -190t152 -70q98 0 186 65l23 -32q-100 -74 -219 -74q-71 0 -119.5 24.5t-69.5 68t-24.5 101.5t15.5 126zM106 336l464 1l-4 4q21 115 -17 186t-143 71 t-181 -72t-112 -185z" />
<glyph unicode="f" horiz-adv-x="348" d="M-209 -204l10 41q30 -11 64 -11q66 0 106.5 38.5t63.5 133.5l145 587l5 5h-79l10 39h78l-2 5l7 28q21 86 79 134.5t141 48.5q33 0 58 -10l-9 -39q-31 9 -57 9q-67 0 -110 -38t-60 -107l-6 -26l-4 -5h196l-10 -39h-196l2 -5l-146 -590q-28 -114 -80.5 -162t-135.5 -48 q-39 0 -70 11z" />
<glyph unicode="g" d="M2 -147l39 33q30 -28 76 -44.5t95 -16.5q107 0 175.5 57.5t95.5 164.5l36 145h-2q-100 -130 -250 -130q-130 0 -179 77.5t-17 209.5q32 129 121 210t218 81q76 0 124.5 -37.5t59.5 -96.5h2l31 124h42l-144 -584q-64 -261 -322 -261q-125 0 -201 68zM114 349 q-28 -112 13.5 -179t151.5 -67q109 0 183.5 69.5t100.5 176.5q26 108 -14.5 179t-147.5 71q-110 0 -185 -70t-102 -180z" />
<glyph unicode="h" d="M20 0l207 840h43l-81 -326h2q45 61 112.5 93.5t143.5 32.5q117 0 158.5 -60t15.5 -167l-102 -413h-43l99 401q12 40 10.5 76t-14.5 63t-48.5 42.5t-91.5 15.5q-89 0 -168.5 -54t-105.5 -161l-95 -383h-42z" />
<glyph unicode="i" horiz-adv-x="221" d="M20 0l155 629h43l-156 -629h-42zM202 801q10 45 48 45q36 0 26 -45q-12 -46 -48 -46q-38 0 -26 46z" />
<glyph unicode="j" horiz-adv-x="221" d="M-183 -204l10 41q22 -11 53 -11q97 0 126 119l169 685h43l-171 -692q-38 -153 -176 -153q-30 0 -54 11zM202 801q10 45 48 45q36 0 26 -45q-12 -45 -49 -45t-25 45z" />
<glyph unicode="k" horiz-adv-x="524" d="M20 0l207 840h43l-208 -840h-42zM152 324l381 305h59l-381 -305v-2l244 -322h-61z" />
<glyph unicode="l" horiz-adv-x="220" d="M20 0l207 840h42l-207 -840h-42z" />
<glyph unicode="m" horiz-adv-x="946" d="M20 0l155 630h43l-28 -117h2q37 58 91.5 92.5t115.5 34.5q68 0 103 -38t38 -97h3q40 62 99.5 98.5t120.5 36.5q188 0 125 -256l-96 -384h-43l90 364q16 70 18 122t-25.5 82t-86.5 30q-80 0 -140 -61t-82 -148l-95 -389h-43l93 380q29 98 7.5 158.5t-105.5 60.5 q-75 0 -137.5 -62t-85.5 -155l-94 -382h-43z" />
<glyph unicode="n" d="M20 0l155 630h43l-29 -115h2q43 58 110.5 91.5t139.5 33.5q119 0 162.5 -61t16.5 -170l-101 -409h-43l96 387q13 61 10.5 107.5t-41.5 75t-115 28.5q-93 0 -168.5 -57t-101.5 -163l-94 -378h-42z" />
<glyph unicode="o" horiz-adv-x="650" d="M63 315q37 149 128 237t222 88q132 0 180 -87.5t11 -237.5q-37 -148 -129 -236.5t-222 -88.5q-132 0 -179.5 87.5t-10.5 237.5zM106 315q-30 -123 6.5 -203t150.5 -80q115 0 191 79.5t107 203.5q16 57 14 108.5t-18 90t-55.5 61.5t-98.5 23q-116 0 -191.5 -79.5 t-105.5 -203.5z" />
<glyph unicode="p" d="M-32 -210l207 840h43l-32 -130h2q46 67 111.5 103.5t140.5 36.5q130 0 176.5 -87.5t10.5 -234.5q-37 -149 -127.5 -238.5t-220.5 -89.5q-74 0 -120.5 36.5t-61.5 106.5h-2l-85 -343h-42zM136 318q-32 -127 5 -207t147 -80q114 0 190 82.5t107 204.5q16 56 13.5 106.5 t-18 89t-55 61.5t-98.5 23q-108 0 -184.5 -79t-106.5 -201z" />
<glyph unicode="q" d="M63 317q36 147 126.5 235t220.5 88q74 0 122 -36.5t61 -104.5h2l32 131h42l-207 -840h-42l84 342h-2q-101 -142 -252 -142q-131 0 -177.5 89t-9.5 238zM106 317q-16 -55 -14 -106.5t17 -91.5t54 -64t98 -24q110 0 186 79.5t108 206.5q30 123 -7 202.5t-146 79.5 q-115 0 -190.5 -80t-105.5 -202z" />
<glyph unicode="r" horiz-adv-x="372" d="M20 0l155 629h43l-39 -158h2q40 76 109.5 119.5t143.5 43.5h6l-12 -49h-10q-87 1 -166 -68.5t-113 -206.5l-77 -310h-42z" />
<glyph unicode="s" horiz-adv-x="572" d="M6 83l41 33q70 -85 180 -85q85 0 143.5 34t72.5 92q12 47 -11.5 76t-85.5 49q-6 2 -51 17.5t-51 17.5q-81 27 -114.5 63.5t-18.5 97.5q17 67 84 114.5t177 47.5q126 0 189 -86l-41 -33q-53 77 -158 77q-81 0 -137.5 -33t-69.5 -85q-11 -46 20 -73.5t105 -51.5 q47 -16 92 -33q145 -46 115 -163q-17 -71 -84 -120.5t-184 -49.5q-142 0 -213 94z" />
<glyph unicode="t" horiz-adv-x="405" d="M78 171l102 414l4 5h-78l10 40h78l-2 5l29 115l48 23l-34 -138l-4 -5h196l-10 -40h-196l2 -5l-102 -410q-18 -72 1.5 -108t71.5 -36q61 0 120 41l22 -31q-80 -51 -156 -51q-68 0 -96 46t-6 135z" />
<glyph unicode="u" horiz-adv-x="665" d="M72 232l99 398h42l-97 -393q-9 -35 -11 -63t4 -55.5t22.5 -46t49 -29.5t79.5 -11q91 0 165.5 57.5t100.5 162.5l93 378h43l-156 -630h-42l28 116h-2q-44 -58 -108 -92t-138 -34q-231 0 -172 242z" />
<glyph unicode="v" horiz-adv-x="587" d="M96 630h49l83 -504l7 -76h3l43 76l333 504h49l-418 -630h-42z" />
<glyph unicode="w" horiz-adv-x="820" d="M101 630h46l21 -510l-3 -68h3l30 68l278 510h40l27 -510l-3 -68h2l30 68l273 510h46l-339 -630h-46l-27 500l4 72h-2l-32 -72l-274 -500h-47z" />
<glyph unicode="x" horiz-adv-x="531" d="M-50 0l299 317l-140 313h53l102 -232l17 -50h2l42 50l217 232h53l-295 -314l141 -316h-53l-104 237l-16 49h-2l-41 -49l-222 -237h-53z" />
<glyph unicode="y" horiz-adv-x="584" d="M-70 -198l10 40q37 -16 77 -16q91 0 171 127q22 36 26 43l-113 634h49l85 -502l9 -86h2q69 117 202.5 331.5t158.5 256.5h49l-443 -705q-88 -140 -198 -140q-52 0 -85 17z" />
<glyph unicode="z" horiz-adv-x="610" d="M-10 0l9 35l512 502l61 50l1 2h-430l10 40h480l-8 -32l-515 -504l-60 -51l-1 -2h442l-10 -40h-491z" />
<glyph unicode="{" horiz-adv-x="305" d="M32 -41l63 253q8 31 8.5 52t-12 39.5t-40.5 24.5l15 61q78 19 99 109l68 273q16 64 50.5 98.5t97.5 41.5l70 3l-9 -36q-82 0 -118 -21.5t-48 -72.5l-69 -278q-14 -60 -37 -92.5t-73 -54.5v-1q41 -22 47.5 -55.5t-10.5 -92.5l-65 -265q-14 -54 9.5 -79.5t107.5 -25.5 l-9 -36q-49 0 -68 3q-61 8 -78 47t1 105z" />
<glyph unicode="|" horiz-adv-x="268" d="M32 -50l225 910h40l-225 -910h-40z" />
<glyph unicode="}" horiz-adv-x="305" d="M-108 -196l9 36q84 0 120 25.5t49 79.5l66 265q16 65 37 95.5t74 52.5q0 2 -1 2q-38 22 -45.5 57t8.5 89l69 278q12 51 -13 72.5t-108 21.5l9 36q51 0 69 -3q60 -7 77.5 -41t1.5 -99l-68 -273q-21 -91 46 -109l-15 -61q-45 -9 -67.5 -38.5t-33.5 -77.5l-63 -253 q-16 -70 -51 -107t-100 -45z" />
<glyph unicode="~" horiz-adv-x="550" d="M33 292q24 44 69.5 74t94.5 30q42 0 93 -44q25 -23 47 -37q27 -17 52 -17q77 0 130 89l20 -28q-27 -49 -71.5 -76t-93.5 -27q-42 0 -86 38q-36 30 -52 41q-26 18 -54 18q-34 0 -69 -24.5t-60 -64.5z" />
<glyph horiz-adv-x="990" />
<glyph unicode="&#xa1;" horiz-adv-x="233" d="M17 0l174 642h29l-143 -642h-60zM189 767q6 24 22 38.5t38 14.5q47 0 35 -53q-6 -24 -22 -38.5t-38 -14.5q-23 0 -32 14.5t-3 38.5z" />
<glyph unicode="&#xa2;" horiz-adv-x="553" d="M84 400q36 146 132 238t223 92q30 0 42 -2l-2 6l38 86h35l-40 -92l-6 -4q66 -17 104 -58l-38 -32q-30 35 -83 49v-6l-238 -548l-6 -6q17 -3 37 -3q103 0 188 65l22 -31q-95 -74 -215 -74q-36 0 -50 3l2 -5l-38 -89h-35l42 96l5 3q-92 26 -121.5 111t2.5 201zM126 400 q-53 -217 94 -270v6l237 546l6 5q-10 2 -34 2q-113 -1 -193 -84.5t-110 -204.5z" />
<glyph unicode="&#xa3;" horiz-adv-x="656" d="M-15 0l10 39q70 35 112.5 83t61.5 125q14 58 14 131l4 5h-90l10 42h81l-4 5q-4 101 15 176q25 100 102 157t185 57q67 0 122 -26t86 -73l-40 -33q-59 89 -180 89q-83 0 -145.5 -42.5t-83.5 -126.5q-17 -71 -17 -177l-3 -6h231l-10 -42h-221l3 -4q0 -71 -14 -130 q-37 -146 -150 -204v-2h460l-10 -43h-529z" />
<glyph unicode="&#xa4;" horiz-adv-x="579" d="M35 197l91 75q-31 62 -14 131q18 69 79 130l-55 77l37 30l56 -74q73 47 143 47t118 -47l92 74l24 -30l-92 -75q30 -63 14 -132q-19 -73 -79 -133l53 -74l-37 -30l-56 73q-69 -44 -140 -44t-121 45l-91 -73zM153 403q-19 -71 19 -120t107 -49q72 0 131 49q61 49 78 120 q17 72 -20 121.5t-106 49.5q-70 0 -132 -51q-61 -52 -77 -120z" />
<glyph unicode="&#xa5;" horiz-adv-x="717" d="M83 205l11 44h239l-1 5l24 93l3 5h-240l11 43h206l-15 23l-166 392h58l144 -348l27 -79h1l65 80l316 347h57l-358 -392l-25 -23h205l-10 -43h-238l1 -5l-23 -93l-4 -5h238l-10 -44h-239l2 -5l-49 -200h-46l50 200l4 5h-238z" />
<glyph unicode="&#xa6;" horiz-adv-x="268" d="M32 -50l101 410h41l-102 -410h-40zM156 450l101 410h40l-101 -410h-40z" />
<glyph unicode="&#xa7;" horiz-adv-x="576" d="M-9 -121l37 31q19 -22 45.5 -37.5t56.5 -23.5t62 -8q60 0 103 27t58 85q10 41 -12 79q-22 40 -83 86q-13 9 -49 34t-54 39q-58 43 -80 85.5t-9 96.5q9 35 33 68t57 61t83 61q-43 56 -28 115q16 64 77.5 102.5t144.5 38.5q53 0 100.5 -23.5t80.5 -62.5l-37 -31 q-61 77 -154 77q-61 0 -107 -27t-58 -76q-10 -39 11 -71t60 -64q21 -17 68 -50t62 -44q50 -40 68 -78.5t6 -88.5q-13 -53 -53 -98t-113 -94q28 -42 35 -70t-2 -66q-19 -74 -79 -113.5t-139 -39.5q-55 0 -106.5 21.5t-84.5 58.5zM111 377q-19 -77 72 -146q6 -5 44 -32 t73.5 -53.5t44.5 -36.5q59 43 95 81.5t46 80.5q4 15 4 29t-2.5 25t-8.5 22.5t-12.5 20.5t-16.5 18.5t-18 16.5t-20 16q-4 3 -21.5 15.5t-37 26.5t-40 29.5t-36.5 28.5t-21 20q-126 -86 -145 -162z" />
<glyph unicode="&#xa8;" horiz-adv-x="640" d="M291 751q10 43 48 43t27 -43q-10 -43 -48 -43t-27 43zM489 751q11 43 48 43q38 0 28 -43q-11 -43 -49 -43t-27 43z" />
<glyph unicode="&#xa9;" horiz-adv-x="926" d="M89 401q42 171 190.5 292.5t315.5 121.5q166 0 254.5 -121.5t46.5 -292.5q-43 -172 -191 -294t-315 -122t-255.5 122t-45.5 294zM126 401q-38 -156 42 -269.5t230 -113.5t286 113.5t174 269.5q25 102 -2.5 190t-99 140t-169.5 52q-150 0 -286 -113t-175 -269zM251 396 q31 124 114.5 201t195.5 77q99 0 151 -54l-34 -29q-46 46 -126 46q-98 -1 -167.5 -70.5t-94.5 -170.5q-25 -100 8.5 -166t134.5 -66q87 0 159 54l21 -29q-88 -63 -189 -63q-118 0 -160.5 73.5t-12.5 196.5z" />
<glyph unicode="&#xaa;" horiz-adv-x="433" d="M109 600q24 98 84 157.5t146 59.5q91 0 117 -80l18 74h36l-103 -417h-36l17 71q-62 -77 -156 -77q-85 0 -116 58t-7 154zM145 600q-19 -77 4 -126.5t94 -49.5q67 0 115 49.5t67 126.5q20 80 -3 130t-91 50q-71 0 -118.5 -51t-67.5 -129z" />
<glyph unicode="&#xab;" horiz-adv-x="473" d="M48 255l215 191l23 -32l-122 -110l-62 -47l-1 -4l39 -47l68 -110l-39 -32zM213 255l215 191l23 -32l-122 -110l-62 -47l-1 -4l39 -47l68 -110l-39 -32z" />
<glyph unicode="&#xac;" horiz-adv-x="528" d="M34 300l11 44h469l-72 -294h-43l61 244l6 6h-432z" />
<glyph unicode="&#xad;" horiz-adv-x="351" d="M35 303l11 45h292l-11 -45h-292z" />
<glyph unicode="&#xae;" horiz-adv-x="926" d="M89 401q42 171 190.5 292.5t315.5 121.5q166 0 254.5 -121.5t46.5 -292.5q-43 -172 -191 -294t-315 -122t-255.5 122t-45.5 294zM126 401q-38 -156 42 -269.5t230 -113.5t286 113.5t174 269.5q25 102 -2.5 190t-99 140t-169.5 52q-150 0 -286 -113t-175 -269zM257 163 l117 476h214q59 0 89.5 -37.5t15.5 -99.5q-11 -41 -43.5 -74.5t-88.5 -50.5q38 -27 47 -74l31 -140h-43l-26 124q-9 42 -34 61t-74 19h-122l3 -4l-49 -200h-37zM348 404h162q55 0 94 26.5t49 71.5q13 53 -12 76.5t-75 23.5h-168l3 -5l-46 -189z" />
<glyph unicode="&#xaf;" horiz-adv-x="673" d="M269 731l9 36h365l-9 -36h-365z" />
<glyph unicode="&#xb0;" horiz-adv-x="398" d="M120 646q19 79 71 126.5t128 47.5q77 0 105.5 -47t9.5 -127q-19 -79 -72 -126.5t-128 -47.5q-76 0 -104.5 47.5t-9.5 126.5zM158 646q-15 -60 5 -98.5t80 -38.5t99 38t54 99q15 60 -5.5 98.5t-80.5 38.5t-99 -38t-53 -99z" />
<glyph unicode="&#xb1;" horiz-adv-x="668" d="M43 93l11 44h490l-11 -44h-490zM131 452l12 46h225l-2 5l59 240h44l-59 -240l-5 -5h226l-12 -46h-225l2 -5l-59 -239h-44l59 239l5 5h-226z" />
<glyph unicode="&#xb2;" horiz-adv-x="381" d="M74 361l16 64q31 122 132 160l64 24q49 19 73 39t31 49q8 34 -8.5 56.5t-65.5 22.5q-61 0 -117 -55l-21 31q70 63 148 63q66 0 91 -34.5t12 -83.5q-20 -82 -130 -123l-70 -26q-81 -30 -103 -133l-3 -13l-2 -2h234l-9 -39h-272z" />
<glyph unicode="&#xb3;" horiz-adv-x="408" d="M89 419l35 30q34 -56 102 -56q56 0 93.5 28t45.5 64q9 37 -12 62.5t-68 30.5q-5 1 -15.5 1.5t-23 1t-18.5 0.5l9 36q6 0 19 1t22.5 1.5t13.5 0.5q50 6 81 30.5t38 54.5q8 34 -13 55.5t-75 21.5q-67 0 -126 -52l-20 30q70 60 156 60q73 0 100.5 -35t15.5 -83 q-8 -33 -39 -61.5t-72 -39.5l-1 -1q39 -9 58.5 -40.5t9.5 -71.5q-13 -52 -62.5 -92t-125.5 -40q-86 0 -128 63z" />
<glyph unicode="&#xb4;" horiz-adv-x="652" d="M359 712l212 187l28 -36l-227 -168z" />
<glyph unicode="&#xb5;" horiz-adv-x="659" d="M-41 -210l207 840h43l-95 -385q-25 -102 20 -155.5t120 -53.5q87 0 162.5 54t100.5 158l94 382h43l-156 -630h-42l27 109h-3q-44 -55 -107.5 -87t-129.5 -32q-60 0 -103 31t-57 88h-2l-79 -319h-43z" />
<glyph unicode="&#xb6;" horiz-adv-x="515" d="M70 566q26 101 112.5 172.5t183.5 71.5h210l-10 -40h-62l4 -5l-234 -946h-39l233 946l6 5h-70l4 -5l-234 -946h-40l123 498l6 6h-20q-97 0 -147.5 71t-25.5 172z" />
<glyph unicode="&#xb7;" horiz-adv-x="223" d="M90 404q13 53 60 53t34 -53q-13 -52 -60 -52t-34 52z" />
<glyph unicode="&#xb8;" horiz-adv-x="658" d="M157 -158l74 59q33 27 38 39.5t-10 34.5l-17 22l32 5l12 -16q23 -32 18 -53q-3 -14 -12 -24t-42 -36l-73 -59z" />
<glyph unicode="&#xb9;" horiz-adv-x="238" d="M134 704l127 106h34l-113 -454h-38l89 363l15 41h-2l-33 -34l-59 -49z" />
<glyph unicode="&#xba;" horiz-adv-x="444" d="M109 604q25 98 85.5 157t147.5 59q88 0 120 -58.5t7 -157.5q-24 -99 -85.5 -158t-147.5 -59q-88 0 -119.5 58.5t-7.5 158.5zM146 604q-20 -79 3.5 -130t95.5 -51t120.5 51t67.5 130t-4 129.5t-95 50.5q-73 0 -120.5 -50.5t-67.5 -129.5z" />
<glyph unicode="&#xbb;" horiz-adv-x="473" d="M9 96l122 110l62 47l1 4l-39 47l-68 110l39 32l121 -191l-215 -191zM174 96l122 110l62 47l1 4l-39 47l-68 110l39 32l121 -191l-216 -191z" />
<glyph unicode="&#xbc;" horiz-adv-x="668" d="M48 -10l486 830h41l-486 -830h-41zM134 704l127 106h34l-113 -454h-38l89 363l15 41h-2l-33 -34l-59 -49zM233 113l7 30l325 305h38l-71 -292l-5 -5h54l-9 -38h-55l2 -5l-29 -115h-39l28 115l4 5h-250zM293 149l200 1l-1 6l44 183l15 49h-2q-46 -46 -196 -187l-59 -50z " />
<glyph unicode="&#xbd;" horiz-adv-x="683" d="M48 -10l486 830h41l-486 -830h-41zM134 704l127 106h34l-113 -454h-38l89 363l15 41h-2l-33 -34l-59 -49zM287 -1l16 65q31 122 132 159l65 25q49 19 73 39t31 49q8 34 -9 56.5t-66 22.5q-61 0 -117 -55l-21 31q72 63 148 63q66 0 91 -34.5t12 -83.5q-10 -42 -40.5 -71.5 t-88.5 -51.5l-71 -26q-81 -32 -103 -133l-3 -13l-2 -2h234l-9 -40h-272z" />
<glyph unicode="&#xbe;" horiz-adv-x="802" d="M89 419l35 30q34 -56 102 -56q56 0 93.5 28t45.5 64q9 37 -12 62.5t-68 30.5q-5 1 -15.5 1.5t-23 1t-18.5 0.5l9 36q6 0 19 1t22.5 1.5t13.5 0.5q50 6 81 30.5t38 54.5q8 34 -13 55.5t-75 21.5q-67 0 -126 -52l-20 30q70 60 156 60q73 0 100.5 -35t15.5 -83 q-8 -33 -39 -61.5t-72 -39.5l-1 -1q39 -9 58.5 -40.5t9.5 -71.5q-13 -52 -62.5 -92t-125.5 -40q-86 0 -128 63zM182 -10l486 830h41l-486 -830h-41zM367 113l7 30l324 305h38l-71 -292l-4 -5h54l-9 -38h-55l1 -5l-28 -115h-40l29 115l4 5h-250zM427 149l200 1l-2 6l45 183 l14 49h-2q-45 -46 -195 -187l-60 -50v-2z" />
<glyph unicode="&#xbf;" horiz-adv-x="574" d="M32 189q29 116 162 175l38 16q75 32 108 74t54 127l16 61h45l-18 -71q-23 -94 -63 -143t-135 -90l-27 -12q-57 -25 -89 -57.5t-44 -79.5q-15 -61 27 -108.5t116 -47.5q123 0 225 97l26 -35q-117 -105 -263 -105q-104 0 -150 62.5t-28 136.5zM416 767q6 24 22 38.5 t38 14.5q47 0 34 -53q-13 -52 -60 -52t-34 52z" />
<glyph unicode="&#xc0;" horiz-adv-x="757" d="M-54 0l544 810h40l143 -810h-50l-39 214l4 4h-450l1 -5l-143 -213h-50zM168 261h412l-5 6l-73 419l-5 71h-1l-41 -71l-281 -420zM459 1039l45 36l117 -183l-22 -17z" />
<glyph unicode="&#xc1;" horiz-adv-x="757" d="M-54 0l544 810h40l143 -810h-50l-39 214l4 4h-450l1 -5l-143 -213h-50zM168 261h412l-5 6l-73 419l-5 71h-1l-41 -71l-281 -420zM443 892l208 184l27 -36l-221 -165z" />
<glyph unicode="&#xc2;" horiz-adv-x="757" d="M-54 0l544 810h40l143 -810h-50l-39 214l4 4h-450l1 -5l-143 -213h-50zM168 261h412l-5 6l-73 419l-5 71h-1l-41 -71l-281 -420zM368 893l201 163l2 -1l121 -163l-24 -19l-112 126q-34 -24 -96 -69t-78 -57z" />
<glyph unicode="&#xc3;" horiz-adv-x="757" d="M-54 0l544 810h40l143 -810h-50l-39 214l4 4h-450l1 -5l-143 -213h-50zM168 261h412l-5 6l-73 419l-5 71h-1l-41 -71l-281 -420zM319 907q44 87 140 87q36 0 90 -39.5t83 -39.5q34 0 65 22.5t50 58.5l19 -26q-53 -95 -147 -95q-36 0 -90.5 40t-83.5 40q-71 0 -108 -73z " />
<glyph unicode="&#xc4;" horiz-adv-x="757" d="M-54 0l544 810h40l143 -810h-50l-39 214l4 4h-450l1 -5l-143 -213h-50zM168 261h412l-5 6l-73 419l-5 71h-1l-41 -71l-281 -420zM406 943q11 43 48 43q38 0 28 -43q-11 -43 -49 -43t-27 43zM605 943q10 43 48 43t27 -43q-10 -43 -48 -43t-27 43z" />
<glyph unicode="&#xc5;" horiz-adv-x="757" d="M-54 0l543 810h40l144 -810h-50l-39 214l4 4h-450l1 -5l-143 -213h-50zM168 261h412l-5 6l-73 419l-5 71h-1l-41 -71l-281 -420zM459 971q11 44 40 70t73 26q45 0 61.5 -26t4.5 -70q-10 -43 -39.5 -69.5t-73.5 -26.5t-60.5 26t-5.5 70zM487 971q-7 -29 3.5 -48.5 t41.5 -19.5t51.5 19t27.5 49t-3.5 49t-41.5 19t-51.5 -19t-27.5 -49z" />
<glyph unicode="&#xc6;" horiz-adv-x="976" d="M-54 0l540 810h551l-10 -43h-368l2 -5l-82 -331l-5 -5h329l-11 -42h-329l3 -5l-81 -330l-6 -6h369l-11 -43h-409l53 214l6 4h-351l1 -5l-140 -213h-51zM164 261h332l-4 5l124 497l4 4h-116l1 -5l-333 -495z" />
<glyph unicode="&#xc7;" horiz-adv-x="718" d="M84 400q47 191 172 305.5t300 114.5q168 0 240 -104l-43 -35q-58 96 -207 96q-83 0 -153.5 -30t-121.5 -83t-86.5 -119.5t-54.5 -145.5q-21 -75 -17 -142t27.5 -116.5t80 -78.5t140.5 -29q149 0 254 95l25 -34q-116 -99 -271 -103q-5 0 -7 -1l11 -15q30 -43 -17 -81 l-99 -80l-20 28l73 59q33 27 38 39.5t-10 34.5l-12 16q-165 7 -226.5 116t-15.5 293z" />
<glyph unicode="&#xc8;" horiz-adv-x="698" d="M20 0l200 810h539l-10 -43h-500l3 -5l-81 -330l-6 -5h452l-10 -43h-453l4 -5l-82 -331l-6 -5h500l-11 -43h-539zM443 1039l45 36l117 -183l-21 -17z" />
<glyph unicode="&#xc9;" horiz-adv-x="698" d="M20 0l200 810h539l-10 -43h-500l3 -5l-81 -330l-6 -5h452l-10 -43h-453l4 -5l-82 -331l-6 -5h500l-11 -43h-539zM453 891l208 184l27 -36l-222 -165z" />
<glyph unicode="&#xca;" horiz-adv-x="698" d="M20 0l200 810h539l-10 -43h-500l3 -5l-81 -330l-6 -5h452l-10 -43h-453l4 -5l-82 -331l-6 -5h500l-11 -43h-539zM350 893l201 163l2 -1l121 -163l-24 -19l-112 126q-25 -19 -54.5 -40.5t-63.5 -45.5t-55 -40z" />
<glyph unicode="&#xcb;" horiz-adv-x="698" d="M20 0l200 810h539l-10 -43h-500l3 -5l-81 -330l-6 -5h452l-10 -43h-453l4 -5l-82 -331l-6 -5h500l-11 -43h-539zM393 942q11 43 49 43q37 0 27 -43q-11 -43 -49 -43t-27 43zM591 942q11 43 49 43t27 -43t-48 -43q-38 0 -28 43z" />
<glyph unicode="&#xcc;" horiz-adv-x="233" d="M25 0l200 810h44l-200 -810h-44zM193 1039l45 36l117 -183l-21 -17z" />
<glyph unicode="&#xcd;" horiz-adv-x="233" d="M25 0l200 810h44l-200 -810h-44zM176 892l208 184l27 -36l-222 -165z" />
<glyph unicode="&#xce;" horiz-adv-x="233" d="M25 0l200 810h44l-200 -810h-44zM107 893l201 163l2 -1l120 -163l-23 -19l-112 126q-34 -24 -96 -69t-78 -57z" />
<glyph unicode="&#xcf;" horiz-adv-x="233" d="M25 0l200 810h44l-200 -810h-44zM143 943q11 43 48 43q38 0 27 -43q-10 -43 -48 -43t-27 43zM341 943q11 43 49 43q37 0 27 -43q-11 -43 -49 -43q-37 0 -27 43z" />
<glyph unicode="&#xd0;" horiz-adv-x="765" d="M20 0l94 379l5 5h-69l11 42h68l-3 5l94 379h278q85 0 142 -23.5t84.5 -60.5t36 -92t2.5 -109t-22 -120q-17 -67 -37 -120.5t-55.5 -109t-81 -92t-113.5 -60t-151 -23.5h-283zM70 43h234q75 0 136 21t101 53.5t71 82t49 97t33 108.5q15 60 20.5 108t-2 97.5t-32 82 t-75.5 53.5t-127 21h-230l5 -5l-82 -331l-4 -5h196l-11 -42h-196l2 -5l-82 -331z" />
<glyph unicode="&#xd1;" horiz-adv-x="787" d="M20 0l200 810h42l298 -635l40 -103h2l182 738h45l-200 -810h-42l-298 634l-40 104h-2l-183 -738h-44zM340 907q44 87 140 87q37 0 91 -39.5t83 -39.5q34 0 64.5 22.5t50.5 58.5l18 -26q-25 -44 -63 -69.5t-83 -25.5q-36 0 -90.5 40t-84.5 40q-69 0 -108 -73z" />
<glyph unicode="&#xd2;" horiz-adv-x="811" d="M84 400q48 192 167 306t287 114q169 0 232.5 -113.5t15.5 -306.5q-47 -191 -166 -300.5t-287 -109.5q-169 0 -232.5 109.5t-16.5 300.5zM130 400q-21 -75 -18 -141.5t25 -116.5t75 -79.5t132 -29.5q155 0 255 103t140 264q21 74 19 142t-22.5 120t-74 83.5t-133.5 31.5 t-147.5 -30.5t-116 -84t-82 -119t-52.5 -143.5zM481 1039l45 36l117 -183l-21 -17z" />
<glyph unicode="&#xd3;" horiz-adv-x="811" d="M84 400q48 192 167 306t287 114q169 0 232.5 -113.5t15.5 -306.5q-47 -191 -166 -300.5t-287 -109.5q-169 0 -232.5 109.5t-16.5 300.5zM130 400q-21 -75 -18 -141.5t25 -116.5t75 -79.5t132 -29.5q155 0 255 103t140 264q21 74 19 142t-22.5 120t-74 83.5t-133.5 31.5 t-147.5 -30.5t-116 -84t-82 -119t-52.5 -143.5zM469 892l208 184l27 -36l-222 -165z" />
<glyph unicode="&#xd4;" horiz-adv-x="811" d="M84 400q48 192 167 306t287 114q169 0 232.5 -113.5t15.5 -306.5q-47 -191 -166 -300.5t-287 -109.5q-169 0 -232.5 109.5t-16.5 300.5zM130 400q-21 -75 -18 -141.5t25 -116.5t75 -79.5t132 -29.5q155 0 255 103t140 264q21 74 19 142t-22.5 120t-74 83.5t-133.5 31.5 t-147.5 -30.5t-116 -84t-82 -119t-52.5 -143.5zM397 893l201 163l2 -1l120 -163l-23 -19l-112 126q-34 -24 -96 -69t-78 -57z" />
<glyph unicode="&#xd5;" horiz-adv-x="811" d="M84 400q48 192 167 306t287 114q169 0 232.5 -113.5t15.5 -306.5q-47 -191 -166 -300.5t-287 -109.5q-169 0 -232.5 109.5t-16.5 300.5zM130 400q-21 -75 -18 -141.5t25 -116.5t75 -79.5t132 -29.5q155 0 255 103t140 264q21 74 19 142t-22.5 120t-74 83.5t-133.5 31.5 t-147.5 -30.5t-116 -84t-82 -119t-52.5 -143.5zM341 907q44 87 140 87q37 0 91 -39.5t83 -39.5q34 0 64.5 22.5t50.5 58.5l18 -26q-25 -44 -63 -69.5t-83 -25.5q-36 0 -90.5 40t-84.5 40q-69 0 -108 -73z" />
<glyph unicode="&#xd6;" horiz-adv-x="811" d="M84 400q48 192 167 306t287 114q169 0 232.5 -113.5t15.5 -306.5q-47 -191 -166 -300.5t-287 -109.5q-169 0 -232.5 109.5t-16.5 300.5zM130 400q-21 -75 -18 -141.5t25 -116.5t75 -79.5t132 -29.5q155 0 255 103t140 264q21 74 19 142t-22.5 120t-74 83.5t-133.5 31.5 t-147.5 -30.5t-116 -84t-82 -119t-52.5 -143.5zM434 943q11 43 48 43q38 0 28 -43q-11 -43 -49 -43t-27 43zM632 943q11 43 49 43t27 -43t-49 -43q-37 0 -27 43z" />
<glyph unicode="&#xd7;" horiz-adv-x="567" d="M61 225l228 183l-6 1l-133 178l38 31l132 -178l-1 -7l225 185l24 -32l-228 -183l6 -2l133 -176l-39 -32l-130 178v6l-226 -184z" />
<glyph unicode="&#xd8;" horiz-adv-x="811" d="M70 -45l71 87l6 4q-125 102 -63 354q48 192 167 306t287 114q120 0 188 -60l2 6l65 80l18 -14l-66 -82l-6 -2q105 -108 47 -348q-47 -191 -166 -300.5t-287 -109.5q-107 0 -172 45l-2 -7l-70 -86zM130 400q-54 -222 50 -315l1 7l508 626l5 3q-59 56 -166 56 q-80 0 -147.5 -30.5t-116 -84t-82 -119t-52.5 -143.5zM193 75q58 -42 151 -42q155 0 255 103t140 264q52 207 -32 308l-2 -7l-506 -624z" />
<glyph unicode="&#xd9;" horiz-adv-x="799" d="M106 369l109 441h44l-110 -445q-81 -332 189 -332q271 0 353 332l110 445h44l-108 -441q-94 -379 -409 -379q-160 0 -214.5 94.5t-7.5 284.5zM472 1039l45 36l118 -183l-22 -17z" />
<glyph unicode="&#xda;" horiz-adv-x="799" d="M106 369l109 441h44l-110 -445q-81 -332 189 -332q271 0 353 332l110 445h44l-108 -441q-94 -379 -409 -379q-160 0 -214.5 94.5t-7.5 284.5zM461 892l208 184l27 -36l-222 -165z" />
<glyph unicode="&#xdb;" horiz-adv-x="799" d="M106 369l109 441h44l-110 -445q-81 -332 189 -332q271 0 353 332l110 445h44l-108 -441q-94 -379 -409 -379q-160 0 -214.5 94.5t-7.5 284.5zM390 893l201 163l3 -1l120 -163l-24 -19l-111 126q-34 -24 -96 -69t-78 -57z" />
<glyph unicode="&#xdc;" horiz-adv-x="799" d="M106 369l109 441h44l-110 -445q-81 -332 189 -332q271 0 353 332l110 445h44l-108 -441q-94 -379 -409 -379q-160 0 -214.5 94.5t-7.5 284.5zM423 943q11 43 48 43q38 0 28 -43q-11 -43 -49 -43t-27 43zM621 943q11 43 49 43t27 -43t-49 -43q-37 0 -27 43z" />
<glyph unicode="&#xdd;" horiz-adv-x="698" d="M145 810h59l137 -335l33 -90h2q54 65 118 136t141.5 155.5t120.5 133.5h57l-426 -466l-84 -344h-45l84 344zM409 892l208 184l27 -36l-222 -165z" />
<glyph unicode="&#xde;" horiz-adv-x="714" d="M20 0l200 810h44l-40 -161l-6 -5h302q115 0 160.5 -65.5t19.5 -174.5q-27 -105 -106 -172.5t-193 -67.5h-301l4 -5l-40 -159h-44zM111 208h300q94 0 157.5 54.5t84.5 141.5q22 90 -14 143.5t-130 53.5h-301l4 -5l-95 -384z" />
<glyph unicode="&#xdf;" horiz-adv-x="626" d="M20 1l162 654q46 190 242 190q94 0 146.5 -57.5t29.5 -150.5q-16 -66 -56 -111t-91 -65v-3q69 -20 98 -81t7 -148q-26 -106 -104.5 -173t-172.5 -67q-71 0 -118 19l11 43q48 -21 108 -21q81 0 146 54t87 144q22 87 -16.5 145t-133.5 58h-94l10 40h73q75 -1 129 43.5 t73 119.5q19 80 -23 125.5t-119 45.5q-80 0 -126.5 -40t-67.5 -127l-157 -637h-43z" />
<glyph unicode="&#xe0;" d="M62 311q36 150 127 239t222 89q150 0 181 -142h2l33 133h43l-156 -630h-43l32 129h-2q-45 -67 -111 -103t-140 -36q-130 0 -177 87.5t-11 233.5zM104 311q-16 -56 -13.5 -106.5t18 -89t55 -61.5t98.5 -23q109 0 185 78.5t106 201.5q32 127 -4.5 207t-146.5 80 q-114 0 -190.5 -82.5t-107.5 -204.5zM372 860l45 35l117 -183l-21 -17z" />
<glyph unicode="&#xe1;" d="M62 311q36 150 127 239t222 89q150 0 181 -142h2l33 133h43l-156 -630h-43l32 129h-2q-45 -67 -111 -103t-140 -36q-130 0 -177 87.5t-11 233.5zM104 311q-16 -56 -13.5 -106.5t18 -89t55 -61.5t98.5 -23q109 0 185 78.5t106 201.5q32 127 -4.5 207t-146.5 80 q-114 0 -190.5 -82.5t-107.5 -204.5zM364 712l208 183l27 -35l-222 -165z" />
<glyph unicode="&#xe2;" d="M62 311q36 150 127 239t222 89q150 0 181 -142h2l33 133h43l-156 -630h-43l32 129h-2q-45 -67 -111 -103t-140 -36q-130 0 -177 87.5t-11 233.5zM104 311q-16 -56 -13.5 -106.5t18 -89t55 -61.5t98.5 -23q109 0 185 78.5t106 201.5q32 127 -4.5 207t-146.5 80 q-114 0 -190.5 -82.5t-107.5 -204.5zM274 714l201 163q24 -31 67 -90t55 -74l-23 -19l-112 125l-3 -1l-171 -124z" />
<glyph unicode="&#xe3;" d="M62 311q36 150 127 239t222 89q150 0 181 -142h2l33 133h43l-156 -630h-43l32 129h-2q-45 -67 -111 -103t-140 -36q-130 0 -177 87.5t-11 233.5zM104 311q-16 -56 -13.5 -106.5t18 -89t55 -61.5t98.5 -23q109 0 185 78.5t106 201.5q32 127 -4.5 207t-146.5 80 q-114 0 -190.5 -82.5t-107.5 -204.5zM228 750q45 87 140 87q37 0 91 -40t83 -40q34 0 65 22.5t50 58.5l18 -25q-25 -44 -63 -69.5t-83 -25.5q-36 0 -90.5 39.5t-83.5 39.5q-71 0 -108 -72z" />
<glyph unicode="&#xe4;" d="M62 311q36 150 127 239t222 89q150 0 181 -142h2l33 133h43l-156 -630h-43l32 129h-2q-45 -67 -111 -103t-140 -36q-130 0 -177 87.5t-11 233.5zM104 311q-16 -56 -13.5 -106.5t18 -89t55 -61.5t98.5 -23q109 0 185 78.5t106 201.5q32 127 -4.5 207t-146.5 80 q-114 0 -190.5 -82.5t-107.5 -204.5zM305 751q10 43 48 43t27 -43q-10 -43 -48 -43t-27 43zM503 751q11 43 48 43q38 0 28 -43q-11 -43 -49 -43t-27 43z" />
<glyph unicode="&#xe5;" d="M62 311q36 150 127 239t222 89q150 0 181 -142h2l33 133h43l-156 -630h-43l32 129h-2q-45 -67 -111 -103t-140 -36q-130 0 -177 87.5t-11 233.5zM104 311q-16 -56 -13.5 -106.5t18 -89t55 -61.5t98.5 -23q109 0 185 78.5t106 201.5q32 127 -4.5 207t-146.5 80 q-114 0 -190.5 -82.5t-107.5 -204.5zM367 791q11 44 40 70t73 26t60.5 -26t5.5 -70q-11 -43 -40.5 -69.5t-73.5 -26.5t-60 26t-5 70zM394 791q-7 -30 3.5 -49t41.5 -19t51.5 19t27.5 49q8 29 -3 48.5t-42 19.5t-51.5 -19t-27.5 -49z" />
<glyph unicode="&#xe6;" horiz-adv-x="1132" d="M62 311q36 150 127 239t222 89q150 0 181 -142h2l33 133h43l-32 -129h2q46 62 114 100.5t144 38.5q72 0 119 -28t65 -76t18 -104.5t-16 -121.5l-3 -13l-503 -1l4 -5q-23 -120 18 -190t152 -70q99 0 187 65l22 -32q-100 -74 -219 -74q-155 0 -196 130h-2l-30 -120h-43 l32 129h-2q-45 -67 -111 -103t-140 -36q-130 0 -177 87.5t-11 233.5zM104 311q-16 -56 -13.5 -106.5t18 -89t55 -61.5t98.5 -23q109 0 185 78.5t106 201.5q32 127 -4.5 207t-146.5 80q-114 0 -190.5 -82.5t-107.5 -204.5zM589 336l463 1l-4 4q21 115 -17 186t-143 71 t-181 -72t-112 -185z" />
<glyph unicode="&#xe7;" horiz-adv-x="553" d="M62 310q36 146 132 238t223 92q113 0 171 -64l-38 -32q-46 56 -143 54q-113 -1 -193 -84t-110 -204q-29 -119 8 -199t153 -80q101 0 182 64l22 -32q-88 -68 -200 -73h-5l11 -15q31 -42 -17 -81l-99 -80l-20 28l73 59q33 27 38 39.5t-10 34.5l-12 16q-119 9 -159.5 94.5 t-6.5 224.5z" />
<glyph unicode="&#xe8;" horiz-adv-x="649" d="M62 310q35 143 128.5 236.5t225.5 93.5q72 0 119 -28t65 -76t18 -104.5t-16 -121.5l-3 -13l-503 -1l4 -5q-23 -120 18 -190t152 -70q98 0 186 65l23 -32q-100 -74 -219 -74q-71 0 -119.5 24.5t-69.5 68t-24.5 101.5t15.5 126zM106 336l464 1l-4 4q21 115 -17 186t-143 71 t-181 -72t-112 -185zM361 860l44 35l118 -183l-22 -17z" />
<glyph unicode="&#xe9;" horiz-adv-x="649" d="M62 310q35 143 128.5 236.5t225.5 93.5q91 0 142.5 -45.5t58 -118.5t-13.5 -164l-1 -2l-3 -13l-503 -1l4 -5q-23 -120 18 -190t152 -70q98 0 186 65l23 -32q-100 -74 -219 -74q-71 0 -119.5 24.5t-69.5 68t-24.5 101.5t15.5 126zM106 336l464 1l-4 4q21 115 -17 186 t-143 71t-181 -72t-112 -185zM358 712l208 183l27 -35l-222 -165z" />
<glyph unicode="&#xea;" horiz-adv-x="649" d="M62 310q35 143 128.5 236.5t225.5 93.5q72 0 119 -28t65 -76t18 -104.5t-16 -121.5l-3 -13l-503 -1l4 -5q-23 -120 18 -190t152 -70q98 0 186 65l23 -32q-100 -74 -219 -74q-71 0 -119.5 24.5t-69.5 68t-24.5 101.5t15.5 126zM106 336l464 1l-4 4q21 115 -17 186t-143 71 t-181 -72t-112 -185zM275 714l201 163q24 -31 67 -90t55 -74l-23 -19l-112 125l-3 -1l-171 -124z" />
<glyph unicode="&#xeb;" horiz-adv-x="649" d="M62 310q35 143 128.5 236.5t225.5 93.5q72 0 119 -28t65 -76t18 -104.5t-16 -121.5l-3 -13l-503 -1l4 -5q-23 -120 18 -190t152 -70q98 0 186 65l23 -32q-100 -74 -219 -74q-71 0 -119.5 24.5t-69.5 68t-24.5 101.5t15.5 126zM106 336l464 1l-4 4q21 115 -17 186t-143 71 t-181 -72t-112 -185zM306 751q11 43 49 43q37 0 27 -43q-11 -43 -49 -43t-27 43zM504 751q11 43 49 43t27 -43t-48 -43q-38 0 -28 43z" />
<glyph unicode="&#xec;" horiz-adv-x="221" d="M20 0l155 629h43l-156 -629h-42zM144 860l44 35l118 -183l-22 -17z" />
<glyph unicode="&#xed;" horiz-adv-x="221" d="M20 0l155 629h43l-156 -629h-42zM132 712l208 183l27 -35l-222 -165z" />
<glyph unicode="&#xee;" horiz-adv-x="221" d="M20 0l155 629h43l-156 -629h-42zM57 714l201 163l3 -2l120 -162l-24 -19l-111 125l-3 -1l-171 -124z" />
<glyph unicode="&#xef;" horiz-adv-x="221" d="M20 0l155 629h43l-156 -629h-42zM91 751q11 43 49 43t27 -43t-49 -43q-37 0 -27 43zM290 751q10 43 48 43t27 -43q-10 -43 -48 -43t-27 43z" />
<glyph unicode="&#xf0;" horiz-adv-x="623" d="M57 292q35 138 121 220t210 82q53 0 105 -26l1 1l-61 167l1 7l-102 -55l-12 29l103 56l-5 3l-26 70h48l18 -48l-1 -7l85 45l11 -31l-85 -45l4 -2l102 -276q27 -74 -2 -190q-35 -138 -122 -220t-211 -82t-170 82t-12 220zM98 292q-28 -113 8 -187.5t144 -74.5t180.5 74 t100.5 188t-8 188t-144 74q-109 0 -181 -73.5t-100 -188.5z" />
<glyph unicode="&#xf1;" d="M20 0l155 630h43l-29 -115h2q43 58 110.5 91.5t139.5 33.5q119 0 162.5 -61t16.5 -170l-101 -409h-43l96 387q13 61 10.5 107.5t-41.5 75t-115 28.5q-93 0 -168.5 -57t-101.5 -163l-94 -378h-42zM245 750q45 87 140 87q37 0 91 -40t83 -40q34 0 65 22.5t50 58.5l18 -25 q-25 -44 -63 -69.5t-83 -25.5q-36 0 -90.5 39.5t-84.5 39.5q-70 0 -108 -72z" />
<glyph unicode="&#xf2;" horiz-adv-x="650" d="M63 315q37 149 128 237t222 88q132 0 180 -87.5t11 -237.5q-37 -148 -129 -236.5t-222 -88.5q-132 0 -179.5 87.5t-10.5 237.5zM106 315q-30 -123 6.5 -203t150.5 -80q115 0 191 79.5t107 203.5q16 57 14 108.5t-18 90t-55.5 61.5t-98.5 23q-116 0 -191.5 -79.5 t-105.5 -203.5zM352 860l45 35l117 -183l-22 -17z" />
<glyph unicode="&#xf3;" horiz-adv-x="650" d="M63 315q37 149 128 237t222 88q132 0 180 -87.5t11 -237.5q-37 -148 -129 -236.5t-222 -88.5q-132 0 -179.5 87.5t-10.5 237.5zM106 315q-30 -123 6.5 -203t150.5 -80q115 0 191 79.5t107 203.5q16 57 14 108.5t-18 90t-55.5 61.5t-98.5 23q-116 0 -191.5 -79.5 t-105.5 -203.5zM353 712l208 183l27 -35l-222 -165z" />
<glyph unicode="&#xf4;" horiz-adv-x="650" d="M63 315q37 149 128 237t222 88q132 0 180 -87.5t11 -237.5q-37 -148 -129 -236.5t-222 -88.5q-132 0 -179.5 87.5t-10.5 237.5zM106 315q-30 -123 6.5 -203t150.5 -80q115 0 191 79.5t107 203.5q16 57 14 108.5t-18 90t-55.5 61.5t-98.5 23q-116 0 -191.5 -79.5 t-105.5 -203.5zM269 714l201 163q24 -31 67 -90t55 -74l-23 -19l-112 125l-3 -1l-171 -124z" />
<glyph unicode="&#xf5;" horiz-adv-x="650" d="M63 315q37 149 128 237t222 88q132 0 180 -87.5t11 -237.5q-37 -148 -129 -236.5t-222 -88.5q-132 0 -179.5 87.5t-10.5 237.5zM106 315q-30 -123 6.5 -203t150.5 -80q115 0 191 79.5t107 203.5q16 57 14 108.5t-18 90t-55.5 61.5t-98.5 23q-116 0 -191.5 -79.5 t-105.5 -203.5zM225 750q45 87 140 87q37 0 90.5 -40t83.5 -40q33 0 64 22.5t50 58.5l19 -25q-25 -44 -63 -69.5t-83 -25.5q-36 0 -90.5 39.5t-84.5 39.5q-70 0 -108 -72z" />
<glyph unicode="&#xf6;" horiz-adv-x="650" d="M63 315q37 149 128 237t222 88q132 0 180 -87.5t11 -237.5q-37 -148 -129 -236.5t-222 -88.5q-132 0 -179.5 87.5t-10.5 237.5zM106 315q-30 -123 6.5 -203t150.5 -80q115 0 191 79.5t107 203.5q16 57 14 108.5t-18 90t-55.5 61.5t-98.5 23q-116 0 -191.5 -79.5 t-105.5 -203.5zM303 751q11 43 49 43q37 0 27 -43q-11 -43 -49 -43q-37 0 -27 43zM501 751q11 43 49 43t27 -43t-48 -43q-38 0 -28 43z" />
<glyph unicode="&#xf7;" horiz-adv-x="668" d="M114 383l11 44h490l-11 -44h-490zM263 183q13 52 60 52q48 0 35 -52q-13 -53 -61 -53q-22 0 -31 14t-3 39zM373 627q6 24 22 38.5t38 14.5q47 0 34 -53q-5 -24 -21 -38t-39 -14q-22 0 -31 14t-3 38z" />
<glyph unicode="&#xf8;" horiz-adv-x="650" d="M32 -40l64 78l5 4q-85 84 -38 273q37 149 128 237t222 88q87 0 142 -43l2 6l63 76l21 -15l-64 -78l-6 -5q77 -83 33 -266q-37 -148 -129 -236.5t-222 -88.5q-83 0 -135 37l-3 -7l-62 -75zM106 315q-39 -158 27 -234l6 9l379 464l6 4q-43 40 -121 40q-116 0 -191.5 -79.5 t-105.5 -203.5zM150 65q42 -33 113 -33q115 0 191 79.5t107 203.5q37 152 -22 227l-4 -7l-379 -464z" />
<glyph unicode="&#xf9;" horiz-adv-x="665" d="M72 232l99 398h42l-97 -393q-9 -35 -11 -63t4 -55.5t22.5 -46t49 -29.5t79.5 -11q91 0 165.5 57.5t100.5 162.5l93 378h43l-156 -630h-42l28 116h-2q-44 -58 -108 -92t-138 -34q-231 0 -172 242zM359 860l44 35l118 -183l-22 -17z" />
<glyph unicode="&#xfa;" horiz-adv-x="665" d="M72 232l99 398h42l-97 -393q-9 -35 -11 -63t4 -55.5t22.5 -46t49 -29.5t79.5 -11q91 0 165.5 57.5t100.5 162.5l93 378h43l-156 -630h-42l28 116h-2q-44 -58 -108 -92t-138 -34q-231 0 -172 242zM354 712l208 183l27 -35l-221 -165z" />
<glyph unicode="&#xfb;" horiz-adv-x="665" d="M72 232l99 398h42l-97 -393q-9 -35 -11 -63t4 -55.5t22.5 -46t49 -29.5t79.5 -11q91 0 165.5 57.5t100.5 162.5l93 378h43l-156 -630h-42l28 116h-2q-44 -58 -108 -92t-138 -34q-231 0 -172 242zM275 714l201 163q24 -31 67 -90t55 -74l-23 -19l-112 125l-3 -1l-171 -124 z" />
<glyph unicode="&#xfc;" horiz-adv-x="665" d="M72 232l99 398h42l-97 -393q-9 -35 -11 -63t4 -55.5t22.5 -46t49 -29.5t79.5 -11q91 0 165.5 57.5t100.5 162.5l93 378h43l-156 -630h-42l28 116h-2q-44 -58 -108 -92t-138 -34q-231 0 -172 242zM303 751q11 43 49 43q37 0 27 -43q-11 -43 -49 -43q-37 0 -27 43zM501 751 q11 43 49 43t27 -43t-48 -43q-38 0 -28 43z" />
<glyph unicode="&#xfd;" horiz-adv-x="584" d="M-70 -198l10 40q37 -16 77 -16q91 0 171 127q22 36 26 43l-113 634h49l85 -502l9 -86h2q69 117 202.5 331.5t158.5 256.5h49l-443 -705q-88 -140 -198 -140q-52 0 -85 17zM311 712l208 184l27 -36l-222 -165z" />
<glyph unicode="&#xfe;" d="M-32 -210l259 1051h43l-85 -344h2q98 142 253 142q130 0 176.5 -88.5t9.5 -235.5q-36 -149 -126 -237t-221 -88q-149 0 -182 143h-2l-85 -343h-42zM135 315q-31 -127 6 -205.5t147 -78.5q115 0 190.5 81.5t105.5 202.5q16 55 14 106.5t-17.5 90.5t-55 62.5t-98.5 23.5 q-109 0 -185.5 -80t-106.5 -203z" />
<glyph unicode="&#xff;" horiz-adv-x="584" d="M-70 -198l10 40q37 -16 77 -16q91 0 171 127q22 36 26 43l-113 634h49l85 -502l9 -86h2q69 117 202.5 331.5t158.5 256.5h49l-443 -705q-88 -140 -198 -140q-52 0 -85 17zM271 751q11 43 48 43q38 0 28 -43q-11 -43 -49 -43t-27 43zM469 751q11 43 49 43t27 -43t-49 -43 q-37 0 -27 43z" />
<glyph unicode="&#x100;" horiz-adv-x="757" d="M-54 0l544 810h40l143 -810h-50l-39 214l4 4h-450l1 -5l-143 -213h-50zM168 261h412l-5 6l-73 419l-5 71h-1l-41 -71l-281 -420zM349 901l9 35h365l-9 -35h-365z" />
<glyph unicode="&#x101;" d="M62 311q36 150 127 239t222 89q150 0 181 -142h2l33 133h43l-156 -630h-43l32 129h-2q-45 -67 -111 -103t-140 -36q-130 0 -177 87.5t-11 233.5zM104 311q-16 -56 -13.5 -106.5t18 -89t55 -61.5t98.5 -23q109 0 185 78.5t106 201.5q32 127 -4.5 207t-146.5 80 q-114 0 -190.5 -82.5t-107.5 -204.5zM257 731l9 36h365l-9 -36h-365z" />
<glyph unicode="&#x102;" horiz-adv-x="757" d="M-54 0l544 810h40l143 -810h-50l-39 214l4 4h-450l1 -5l-143 -213h-50zM168 261h412l-5 6l-73 419l-5 71h-1l-41 -71l-281 -420zM394 983h44q18 -69 97 -69q81 0 132 69h43q-68 -108 -185 -108q-60 0 -92.5 28.5t-38.5 79.5z" />
<glyph unicode="&#x103;" d="M62 311q36 150 127 239t222 89q150 0 181 -142h2l33 133h43l-156 -630h-43l32 129h-2q-45 -67 -111 -103t-140 -36q-130 0 -177 87.5t-11 233.5zM104 311q-16 -56 -13.5 -106.5t18 -89t55 -61.5t98.5 -23q109 0 185 78.5t106 201.5q32 127 -4.5 207t-146.5 80 q-114 0 -190.5 -82.5t-107.5 -204.5zM305 804h45q16 -70 97 -70t131 70h44q-69 -109 -185 -109q-117 0 -132 109z" />
<glyph unicode="&#x104;" horiz-adv-x="757" d="M-54 0l544 810h40l143 -810h-6l-125 -104q-23 -20 -30 -48q-4 -17 1.5 -31t17.5 -21.5t27 -7.5q30 2 57 29l15 -21l-7 -7t-10 -8q-38 -32 -73 -32q-37 -1 -57 25t-11 64q9 43 45 70l112 92h-6l-39 214l4 4h-450l1 -5l-143 -213h-50zM168 261h412l-5 6l-73 419l-5 71h-1 l-41 -71l-281 -420z" />
<glyph unicode="&#x105;" horiz-adv-x="673" d="M62 311q36 150 127 239t222 89q73 0 119.5 -36.5t61.5 -105.5h2l33 133h43l-156 -630h-13l-125 -104q-23 -22 -30 -48q-3 -13 -0.5 -24t9 -19t16 -12.5t21.5 -4.5q30 2 57 29l15 -21q-47 -47 -90 -47q-37 -1 -56.5 25t-11.5 64q9 43 45 70l122 100h1l29 121h-2 q-45 -67 -111 -103t-140 -36q-130 0 -177 87.5t-11 233.5zM104 311q-16 -56 -13.5 -106.5t18 -89t55 -61.5t98.5 -23q109 0 185 78.5t106 201.5q17 60 15 112.5t-18 91t-54 61t-94 22.5q-59 0 -109.5 -23.5t-87 -64.5t-62 -91t-39.5 -108z" />
<glyph unicode="&#x106;" horiz-adv-x="718" d="M84 400q47 191 172 305.5t300 114.5q168 0 240 -104l-43 -35q-58 96 -207 96q-83 0 -153.5 -30t-121.5 -83t-86.5 -119.5t-54.5 -145.5q-21 -75 -17 -142t27.5 -116.5t80 -78.5t140.5 -29q149 0 254 95l25 -34q-123 -104 -290 -104q-179 0 -246 109.5t-20 300.5zM480 891 l208 184l27 -36l-222 -165z" />
<glyph unicode="&#x107;" horiz-adv-x="553" d="M62 310q36 146 132 238t223 92q113 0 171 -64l-38 -32q-46 56 -143 54q-113 -1 -193 -84t-110 -204q-29 -119 8 -199t153 -80q101 0 182 64l22 -32q-94 -73 -214 -73q-134 0 -182 87t-11 233zM335 712l212 188l28 -37l-227 -168z" />
<glyph unicode="&#x108;" horiz-adv-x="718" d="M84 400q47 191 172 305.5t300 114.5q168 0 240 -104l-43 -35q-58 96 -207 96q-83 0 -153.5 -30t-121.5 -83t-86.5 -119.5t-54.5 -145.5q-21 -75 -17 -142t27.5 -116.5t80 -78.5t140.5 -29q149 0 254 95l25 -34q-123 -104 -290 -104q-179 0 -246 109.5t-20 300.5zM408 894 l201 163l3 -1l120 -163l-24 -19l-111 126q-34 -24 -96 -69t-78 -57z" />
<glyph unicode="&#x109;" horiz-adv-x="553" d="M62 310q36 146 132 238t223 92q113 0 171 -64l-38 -32q-46 56 -143 54q-113 -1 -193 -84t-110 -204q-29 -119 8 -199t153 -80q101 0 182 64l22 -32q-94 -73 -214 -73q-134 0 -182 87t-11 233zM267 714l201 163l3 -2l120 -162l-24 -19l-112 125q-34 -24 -95.5 -68.5 t-77.5 -56.5z" />
<glyph unicode="&#x10a;" horiz-adv-x="718" d="M84 400q47 191 172 305.5t300 114.5q168 0 240 -104l-43 -35q-58 96 -207 96q-83 0 -153.5 -30t-121.5 -83t-86.5 -119.5t-54.5 -145.5q-21 -75 -17 -142t27.5 -116.5t80 -78.5t140.5 -29q149 0 254 95l25 -34q-123 -104 -290 -104q-179 0 -246 109.5t-20 300.5zM536 923 q12 48 55 48q21 0 29 -13t2 -35q-12 -48 -55 -48t-31 48z" />
<glyph unicode="&#x10b;" horiz-adv-x="553" d="M62 310q36 146 132 238t223 92q113 0 171 -64l-38 -32q-46 56 -143 54q-113 -1 -193 -84t-110 -204q-29 -119 8 -199t153 -80q101 0 182 64l22 -32q-94 -73 -214 -73q-134 0 -182 87t-11 233zM398 755q12 48 55 48t31 -48t-55 -48t-31 48z" />
<glyph unicode="&#x10c;" horiz-adv-x="718" d="M84 400q47 191 172 305.5t300 114.5q168 0 240 -104l-43 -35q-58 96 -207 96q-83 0 -153.5 -30t-121.5 -83t-86.5 -119.5t-54.5 -145.5q-21 -75 -17 -142t27.5 -116.5t80 -78.5t140.5 -29q149 0 254 95l25 -34q-123 -104 -290 -104q-179 0 -246 109.5t-20 300.5z M442 1038l23 19l112 -125l3 1l171 124l14 -19l-201 -163l-2 1z" />
<glyph unicode="&#x10d;" horiz-adv-x="553" d="M62 310q36 146 132 238t223 92q113 0 171 -64l-38 -32q-46 56 -143 54q-113 -1 -193 -84t-110 -204q-29 -119 8 -199t153 -80q101 0 182 64l22 -32q-94 -73 -214 -73q-134 0 -182 87t-11 233zM302 858l24 20l112 -126l3 1l171 125l14 -20l-201 -163l-2 1z" />
<glyph unicode="&#x10e;" horiz-adv-x="768" d="M20 0l200 810h282q81 0 137 -22t84.5 -58t38.5 -89.5t4.5 -110t-22.5 -125.5q-16 -66 -36.5 -120t-56 -109t-81 -92t-113.5 -60.5t-151 -23.5h-286zM70 43h237q76 0 136.5 21t101 53.5t71.5 82.5t49 97.5t33 107.5q12 49 17.5 89.5t5 83.5t-15 75.5t-40.5 59t-73 40.5 t-112 14h-231l3 -5l-176 -715zM391 1038l24 19l112 -125l3 1l171 124l14 -19l-201 -163l-2 1z" />
<glyph unicode="&#x10f;" horiz-adv-x="718" d="M62 311q36 150 127 239t222 89q150 0 181 -142h2l85 342h42l-207 -838h-42l31 128h-2q-45 -67 -111 -103t-140 -36q-130 0 -177 87.5t-11 233.5zM104 311q-16 -55 -13.5 -106t18 -89.5t55 -61.5t98.5 -23q109 0 185 78.5t106 201.5q32 127 -4.5 207t-146.5 80 q-114 0 -190.5 -82.5t-107.5 -204.5zM760 739l45 62l11 7q-40 3 -30 46q11 47 56 47q44 0 33 -47q-5 -17 -15 -29l-75 -101z" />
<glyph unicode="&#x110;" horiz-adv-x="765" d="M20 0l94 379l5 5h-69l11 42h68l-3 5l94 379h278q85 0 142 -23.5t84.5 -60.5t36 -92t2.5 -109t-22 -120q-17 -67 -37 -120.5t-55.5 -109t-81 -92t-113.5 -60t-151 -23.5h-283zM70 43h234q75 0 136 21t101 53.5t71 82t49 97t33 108.5q15 60 20.5 108t-2 97.5t-32 82 t-75.5 53.5t-127 21h-230l5 -5l-82 -331l-4 -5h196l-11 -42h-196l2 -5l-82 -331z" />
<glyph unicode="&#x111;" horiz-adv-x="676" d="M62 311q36 150 127 239t222 89q150 0 181 -142h2l53 215l4 5h-220l9 36h220l-1 5l20 81h42l-20 -81l-4 -5h81l-9 -36h-81l2 -5l-176 -711h-42l31 128h-2q-45 -67 -111 -103t-140 -36q-130 0 -177 87.5t-11 233.5zM104 311q-16 -56 -13.5 -106.5t18 -89t55 -61.5t98.5 -23 q109 0 185 78.5t106 201.5q32 127 -4.5 207t-146.5 80q-114 0 -190.5 -82.5t-107.5 -204.5z" />
<glyph unicode="&#x112;" horiz-adv-x="698" d="M20 0l200 810h539l-10 -43h-500l3 -5l-81 -330l-6 -5h452l-10 -43h-453l4 -5l-82 -331l-6 -5h500l-11 -43h-539zM337 901l9 35h365l-9 -35h-365z" />
<glyph unicode="&#x113;" horiz-adv-x="649" d="M62 310q35 143 128.5 236.5t225.5 93.5q72 0 119 -28t65 -76t18 -104.5t-16 -121.5l-3 -13l-503 -1l4 -5q-23 -120 18 -190t152 -70q98 0 186 65l23 -32q-100 -74 -219 -74q-71 0 -119.5 24.5t-69.5 68t-24.5 101.5t15.5 126zM106 336l464 1l-4 4q21 115 -17 186t-143 71 t-181 -72t-112 -185zM256 731l9 36h365l-9 -36h-365z" />
<glyph unicode="&#x114;" horiz-adv-x="698" d="M20 0l200 810h539l-10 -43h-500l3 -5l-81 -330l-6 -5h452l-10 -43h-453l4 -5l-82 -331l-6 -5h500l-11 -43h-539zM383 983h44q16 -69 97 -69q79 0 132 69h43q-69 -108 -185 -108q-60 0 -92.5 28.5t-38.5 79.5z" />
<glyph unicode="&#x115;" horiz-adv-x="649" d="M62 310q35 143 128.5 236.5t225.5 93.5q72 0 119 -28t65 -76t18 -104.5t-16 -121.5l-3 -13l-503 -1l4 -5q-23 -120 18 -190t152 -70q98 0 186 65l23 -32q-100 -74 -219 -74q-71 0 -119.5 24.5t-69.5 68t-24.5 101.5t15.5 126zM106 336l464 1l-4 4q21 115 -17 186t-143 71 t-181 -72t-112 -185zM298 804h44q16 -70 97 -70q80 0 132 70h43q-69 -109 -185 -109q-59 0 -92 29t-39 80z" />
<glyph unicode="&#x116;" horiz-adv-x="698" d="M20 0l200 810h539l-10 -43h-500l3 -5l-81 -330l-6 -5h452l-10 -43h-453l4 -5l-82 -331l-6 -5h500l-11 -43h-539zM480 923q13 48 55 48q21 0 29 -13t2 -35q-12 -48 -55 -48t-31 48z" />
<glyph unicode="&#x117;" horiz-adv-x="649" d="M62 310q35 143 128.5 236.5t225.5 93.5q72 0 119 -28t65 -76t18 -104.5t-16 -121.5l-3 -13l-503 -1l4 -5q-23 -120 18 -190t152 -70q98 0 186 65l23 -32q-100 -74 -219 -74q-71 0 -119.5 24.5t-69.5 68t-24.5 101.5t15.5 126zM106 336l464 1l-4 4q21 115 -17 186t-143 71 t-181 -72t-112 -185zM401 755q12 48 55 48q21 0 29 -13t2 -35q-12 -48 -55 -48t-31 48z" />
<glyph unicode="&#x118;" horiz-adv-x="698" d="M20 0l200 810h539l-10 -43h-500l3 -5l-81 -330l-6 -5h452l-10 -43h-453l4 -5l-82 -331l-6 -5h500l-11 -43h-13l-124 -104q-23 -22 -30 -48q-6 -26 8 -43t38 -17q30 2 57 29l15 -21q-47 -47 -90 -47q-37 -1 -56.5 25t-11.5 64q9 43 45 70l112 92h-489z" />
<glyph unicode="&#x119;" horiz-adv-x="649" d="M62 310q13 55 35.5 104t55 90.5t72 71.5t88.5 47t103 17q49 0 86 -13t60 -36t37 -54t17.5 -68.5t0 -76.5t-14.5 -82l-3 -13l-503 -1l4 -5q-23 -120 18 -190t152 -70q98 0 186 65l23 -32l-203 -168q-23 -22 -30 -48q-6 -26 8 -43t38 -17q30 2 57 29l15 -21 q-47 -47 -90 -47q-37 -1 -56.5 25t-11.5 64q9 43 45 70l122 100q-55 -18 -113 -18q-71 0 -119.5 24.5t-69.5 68t-24.5 101.5t15.5 126zM106 336l464 1l-4 4q11 54 6.5 100.5t-21.5 81.5t-54 55t-91 20q-105 0 -181 -72t-112 -185z" />
<glyph unicode="&#x11a;" horiz-adv-x="698" d="M20 0l200 810h539l-10 -43h-500l3 -5l-81 -330l-6 -5h452l-10 -43h-453l4 -5l-82 -331l-6 -5h500l-11 -43h-539zM395 1038l23 19l112 -125l3 1l171 124l14 -19l-201 -163l-2 1z" />
<glyph unicode="&#x11b;" horiz-adv-x="649" d="M62 310q35 143 128.5 236.5t225.5 93.5q72 0 119 -28t65 -76t18 -104.5t-16 -121.5l-3 -13l-503 -1l4 -5q-23 -120 18 -190t152 -70q98 0 186 65l23 -32q-100 -74 -219 -74q-71 0 -119.5 24.5t-69.5 68t-24.5 101.5t15.5 126zM106 336l464 1l-4 4q21 115 -17 186t-143 71 t-181 -72t-112 -185zM305 858l23 20l112 -126l3 1l171 125l14 -20l-201 -163l-2 1z" />
<glyph unicode="&#x11c;" horiz-adv-x="831" d="M83 396q48 198 174 311t301 113q176 0 250 -102l-43 -35q-61 94 -217 94q-160 0 -267.5 -102t-150.5 -279q-42 -170 15 -266.5t215 -96.5q126 0 229 97t139 250l6 5h-268l11 43h301l-105 -428h-37l49 202h-2q-54 -88 -142.5 -150t-191.5 -62q-177 0 -245.5 107t-20.5 299 zM412 894l201 163l2 -1l120 -163l-23 -19l-112 126q-34 -24 -96 -69t-78 -57z" />
<glyph unicode="&#x11d;" d="M2 -147l39 33q30 -28 76 -44.5t95 -16.5q107 0 175.5 57.5t95.5 164.5l36 145h-2q-100 -130 -250 -130q-130 0 -179 77.5t-17 209.5q32 129 121 210t218 81q76 0 124.5 -37.5t59.5 -96.5h2l31 124h42l-144 -584q-64 -261 -322 -261q-125 0 -201 68zM114 349 q-28 -112 13.5 -179t151.5 -67q109 0 183.5 69.5t100.5 176.5q26 108 -14.5 179t-147.5 71q-110 0 -185 -70t-102 -180zM277 714l201 163q24 -31 67.5 -90t55.5 -74l-24 -19l-112 125l-3 -1l-171 -124z" />
<glyph unicode="&#x11e;" horiz-adv-x="831" d="M83 396q48 198 174 311t301 113q176 0 250 -102l-43 -35q-61 94 -217 94q-160 0 -267.5 -102t-150.5 -279q-42 -170 15 -266.5t215 -96.5q126 0 229 97t139 250l6 5h-268l11 43h301l-105 -428h-37l49 199h-2q-49 -86 -140 -147.5t-194 -61.5q-177 0 -245.5 107t-20.5 299 zM439 983h45q16 -69 97 -69q80 0 131 69h44q-69 -108 -185 -108q-117 0 -132 108z" />
<glyph unicode="&#x11f;" d="M2 -147l39 33q30 -28 76 -44.5t95 -16.5q107 0 175.5 57.5t95.5 164.5l36 145h-2q-100 -130 -250 -130q-130 0 -179 77.5t-17 209.5q32 129 121 210t218 81q76 0 124.5 -37.5t59.5 -96.5h2l31 124h42l-144 -584q-64 -261 -322 -261q-125 0 -201 68zM114 349 q-28 -112 13.5 -179t151.5 -67q109 0 183.5 69.5t100.5 176.5q26 108 -14.5 179t-147.5 71q-110 0 -185 -70t-102 -180zM302 804h44q18 -70 97 -70q82 0 132 70h43q-67 -109 -185 -109q-59 0 -92 29t-39 80z" />
<glyph unicode="&#x120;" horiz-adv-x="831" d="M83 396q48 198 174 311t301 113q176 0 250 -102l-43 -35q-61 94 -217 94q-160 0 -267.5 -102t-150.5 -279q-42 -170 15 -266.5t215 -96.5q126 0 229 97t139 250l6 5h-268l11 43h301l-105 -428h-37l49 199h-2q-49 -86 -140 -147.5t-194 -61.5q-177 0 -245.5 107t-20.5 299 zM539 923q12 48 55 48q21 0 29 -13t2 -35q-12 -48 -55 -48t-31 48z" />
<glyph unicode="&#x121;" d="M2 -147l39 33q30 -28 76 -44.5t95 -16.5q107 0 175.5 57.5t95.5 164.5l36 145h-2q-100 -130 -250 -130q-130 0 -179 77.5t-17 209.5q32 129 121 210t218 81q76 0 124.5 -37.5t59.5 -96.5h2l31 124h42l-144 -584q-64 -261 -322 -261q-125 0 -201 68zM114 349 q-28 -112 13.5 -179t151.5 -67q109 0 183.5 69.5t100.5 176.5q26 108 -14.5 179t-147.5 71q-110 0 -185 -70t-102 -180zM402 755q12 48 55 48q21 0 29 -13t2 -35q-12 -48 -55 -48t-31 48z" />
<glyph unicode="&#x122;" horiz-adv-x="831" d="M83 396q48 198 174 311t301 113q176 0 250 -102l-43 -35q-61 94 -217 94q-160 0 -267.5 -102t-150.5 -279q-42 -170 15 -266.5t215 -96.5q126 0 229 97t139 250l6 5h-268l11 43h301l-105 -428h-37l49 199h-2q-49 -86 -140 -147.5t-194 -61.5q-177 0 -245.5 107t-20.5 299 zM273 -198l42 59l11 7q-39 1 -29 43q12 44 52 44q21 0 28 -13.5t3 -29.5t-14 -29l-70 -94z" />
<glyph unicode="&#x123;" d="M2 -147l39 33q30 -28 76 -44.5t95 -16.5q107 0 175.5 57.5t95.5 164.5l36 145h-2q-100 -130 -250 -130q-130 0 -179 77.5t-17 209.5q32 129 121 210t218 81q76 0 124.5 -37.5t59.5 -96.5h2l31 124h42l-144 -584q-64 -261 -322 -261q-125 0 -201 68zM114 349 q-28 -112 13.5 -179t151.5 -67q109 0 183.5 69.5t100.5 176.5q26 108 -14.5 179t-147.5 71q-110 0 -185 -70t-102 -180zM415 762l70 95l23 -14l-42 -58l-10 -7q38 -3 28 -43q-12 -45 -52 -45q-30 0 -31.5 27t14.5 45z" />
<glyph unicode="&#x124;" horiz-adv-x="787" d="M20 0l200 810h44l-93 -378l-6 -5h529l-3 5l93 378h45l-200 -810h-45l94 379l6 5h-530l4 -5l-94 -379h-44zM384 894l201 163l2 -1l120 -163l-23 -19l-112 126q-34 -24 -96 -69t-78 -57z" />
<glyph unicode="&#x125;" d="M20 0l207 840h43l-81 -328h2q44 60 111.5 94t144.5 34q117 0 158.5 -60t15.5 -167l-102 -413h-43l99 401q12 40 10.5 76t-14.5 63t-48.5 42.5t-91.5 15.5q-89 0 -168.5 -54t-105.5 -161l-95 -383h-42zM337 894l201 163l3 -1l122 -163l-23 -19l-115 126q-16 -12 -34 -25 t-35.5 -26t-34 -24.5t-35.5 -25.5t-34 -25z" />
<glyph unicode="&#x126;" horiz-adv-x="787" d="M20 0l140 567l4 5h-42l9 38h42l-1 5l48 195h44l-48 -195l-4 -5h526l-2 5l48 195h45l-48 -195l-5 -5h43l-10 -38h-42l2 -5l-140 -567h-45l94 379l6 5h-530l4 -5l-94 -379h-44zM165 427h529l-3 5l33 135l4 5h-525l1 -5l-33 -135z" />
<glyph unicode="&#x127;" horiz-adv-x="674" d="M21 0l176 712l4 5h-78l8 36h79l-2 5l20 82h43l-20 -82l-4 -5h223l-9 -36h-223l2 -4l-50 -201h2q44 60 112 94t144 34q117 0 159 -60t15 -167l-102 -413h-42l98 401q12 55 9.5 98.5t-40.5 71t-112 27.5q-56 0 -109.5 -20.5t-100.5 -71t-65 -123.5l-94 -383h-43z" />
<glyph unicode="&#x128;" horiz-adv-x="233" d="M25 0l200 810h44l-200 -810h-44zM69 905q42 84 133 84q35 0 81 -37t74 -37q32 0 61.5 21.5t48.5 56.5l16 -25q-51 -93 -139 -93q-34 0 -80.5 37.5t-75.5 37.5q-68 0 -102 -70z" />
<glyph unicode="&#x129;" horiz-adv-x="221" d="M20 0l155 629h43l-156 -629h-42zM24 743q42 84 132 84q35 0 81.5 -37t74.5 -37q31 0 61 21.5t48 56.5l17 -25q-51 -93 -139 -93q-34 0 -81 37.5t-75 37.5q-67 0 -103 -70z" />
<glyph unicode="&#x12a;" horiz-adv-x="233" d="M25 0l200 810h44l-200 -810h-44zM85 901l9 35h365l-9 -35h-365z" />
<glyph unicode="&#x12b;" horiz-adv-x="221" d="M20 0l155 629h43l-156 -629h-42zM39 731l9 36h365l-9 -36h-365z" />
<glyph unicode="&#x12c;" horiz-adv-x="233" d="M25 0l200 810h44l-200 -810h-44zM131 983h44q16 -69 97 -69q79 0 132 69h43q-69 -108 -185 -108q-60 0 -92.5 28.5t-38.5 79.5z" />
<glyph unicode="&#x12d;" horiz-adv-x="221" d="M20 0l155 629h43l-156 -629h-42zM81 804h44q16 -70 97 -70q80 0 132 70h43q-67 -109 -185 -109q-59 0 -92 29t-39 80z" />
<glyph unicode="&#x12e;" horiz-adv-x="233" d="M-127 -162q9 42 46 70l112 92h-6l200 810h44l-200 -810l-125 -104q-25 -22 -30 -48q-6 -26 7.5 -43t37.5 -17q31 2 58 29l15 -21q-2 -1 -5 -4.5t-6 -6.5t-7 -4q-38 -32 -73 -32q-37 -1 -56.5 25t-11.5 64z" />
<glyph unicode="&#x12f;" horiz-adv-x="221" d="M-133 -163q9 40 45 71l113 92h-5l155 629h43l-156 -629l-125 -104q-22 -20 -30 -48q-6 -26 8 -43.5t38 -16.5q23 0 57 28l15 -21q-2 -1 -7.5 -6.5t-9.5 -7.5q-38 -32 -73 -32q-37 -1 -56.5 24.5t-11.5 63.5zM202 801q10 45 48 45q36 0 26 -45q-12 -46 -48 -46 q-38 0 -26 46z" />
<glyph unicode="&#x130;" horiz-adv-x="233" d="M25 0l200 810h44l-200 -810h-44zM232 923q13 48 55 48q21 0 29 -13t2 -35q-12 -48 -54 -48q-44 0 -32 48z" />
<glyph unicode="&#x131;" horiz-adv-x="221" d="M20 0l155 629h43l-156 -629h-42z" />
<glyph unicode="&#x132;" horiz-adv-x="744" d="M25 0l200 810h44l-200 -810h-44zM148 93l40 34q23 -43 62.5 -68.5t87.5 -25.5q97 0 171 58.5t108 193.5l129 525h45l-129 -521q-20 -83 -55.5 -142.5t-80.5 -93t-94 -48.5t-105 -15q-59 0 -105.5 27.5t-73.5 75.5z" />
<glyph unicode="&#x133;" horiz-adv-x="421" d="M18 -204l10 41q22 -11 53 -11q97 0 126 119l169 685h43l-171 -692q-38 -153 -176 -153q-30 0 -54 11zM20 0l155 629h43l-156 -629h-42zM202 801q10 45 48 45q36 0 26 -45q-12 -46 -48 -46q-38 0 -26 46zM403 801q10 45 48 45q36 0 26 -45q-12 -45 -49 -45t-25 45z" />
<glyph unicode="&#x134;" horiz-adv-x="550" d="M-46 93l40 34q23 -43 62.5 -68.5t87.5 -25.5q45 0 85.5 12.5t78.5 40.5t68 78.5t47 120.5l129 525h45l-129 -521q-20 -83 -55.5 -142.5t-80.5 -93t-94 -48.5t-105 -15q-59 0 -105.5 27.5t-73.5 75.5zM433 894l201 163l2 -1l120 -163l-23 -19l-112 126q-34 -24 -96 -69 t-78 -57z" />
<glyph unicode="&#x135;" horiz-adv-x="221" d="M-183 -204l10 39q23 -9 53 -9q97 0 126 119l169 685h43l-171 -692q-38 -153 -176 -153q-30 0 -54 11zM57 716l201 163l2 -1l121 -162l-24 -20l-112 126l-3 -1l-171 -125z" />
<glyph unicode="&#x136;" horiz-adv-x="640" d="M20 0l200 810h44l-200 -810h-44zM175 409l519 401h64l-521 -399v-2l333 -409h-65zM204 -198l43 59l10 7q-38 1 -28 43q5 20 19 32t33 12q20 0 27.5 -13t3.5 -29.5t-14 -29.5l-70 -94z" />
<glyph unicode="&#x137;" horiz-adv-x="524" d="M20 0l207 840h43l-208 -840h-42zM150 -198l43 59l10 7q-38 1 -28 43q12 44 52 44q20 0 27.5 -13t3.5 -29.5t-14 -29.5l-70 -94zM152 324l381 305h59l-381 -305v-2l244 -322h-61z" />
<glyph unicode="&#x138;" horiz-adv-x="524" d="M20 0l155 630h43l-156 -630h-42zM152 324l381 305h59l-381 -305v-2l244 -322h-61z" />
<glyph unicode="&#x139;" horiz-adv-x="597" d="M20 0l200 810h44l-188 -762l-6 -5h453l-10 -43h-493zM233 891l208 184l27 -36l-222 -165z" />
<glyph unicode="&#x13a;" horiz-adv-x="220" d="M20 0l207 840h42l-207 -840h-42zM174 892l212 188l27 -37l-226 -168z" />
<glyph unicode="&#x13b;" horiz-adv-x="597" d="M20 0l200 810h44l-188 -762l-6 -5h453l-10 -43h-493zM191 -198l43 59l10 7q-38 1 -28 43q10 44 52 44q20 0 27 -13t3.5 -29.5t-13.5 -29.5l-71 -94z" />
<glyph unicode="&#x13c;" horiz-adv-x="220" d="M-45 -198l42 59l11 7q-39 1 -29 43q12 44 52 44q30 0 32 -27t-14 -45l-71 -94zM20 0l207 840h42l-207 -840h-42z" />
<glyph unicode="&#x13d;" horiz-adv-x="597" d="M20 0l200 810h44l-188 -762l-6 -5h453l-10 -43h-493zM368 658l45 62l11 7q-40 3 -30 46q12 48 56 48q22 0 30 -14.5t3.5 -32t-15.5 -30.5l-75 -101z" />
<glyph unicode="&#x13e;" horiz-adv-x="249" d="M20 0l207 840h42l-207 -840h-42zM287 682l45 62l11 7q-40 3 -30 47q12 47 56 47q22 0 30 -14.5t3.5 -31.5t-15.5 -31l-75 -100z" />
<glyph unicode="&#x13f;" horiz-adv-x="597" d="M20 0l200 810h44l-188 -762l-6 -5h453l-10 -43h-493zM293 432q12 48 54 48q44 0 32 -48q-11 -48 -55 -48t-31 48z" />
<glyph unicode="&#x140;" horiz-adv-x="267" d="M20 0l207 840h42l-207 -840h-42zM218 432q13 48 55 48q21 0 29 -13t2 -35q-11 -48 -55 -48q-42 0 -31 48z" />
<glyph unicode="&#x141;" horiz-adv-x="597" d="M20 0l85 341l4 7l-86 -33l12 46l86 34l-2 5l101 410h44l-97 -394l-4 -5l240 92l-11 -46l-241 -93l2 -4l-77 -311l-6 -6h453l-10 -43h-493z" />
<glyph unicode="&#x142;" horiz-adv-x="232" d="M26 0l91 367l4 7l-92 -36l11 43l92 36l-2 3l104 420h42l-99 -401l-4 -6l90 35l-10 -44l-91 -35l2 -4l-95 -385h-43z" />
<glyph unicode="&#x143;" horiz-adv-x="787" d="M20 0l200 810h42l298 -635l40 -103h2l182 738h45l-200 -810h-42l-298 634l-40 104h-2l-183 -738h-44zM463 891l209 184l26 -36l-221 -165z" />
<glyph unicode="&#x144;" d="M20 0l155 630h43l-29 -115h2q43 58 110.5 91.5t139.5 33.5q119 0 162.5 -61t16.5 -170l-101 -409h-43l96 387q13 61 10.5 107.5t-41.5 75t-115 28.5q-93 0 -168.5 -57t-101.5 -163l-94 -378h-42zM361 712l212 187l28 -36l-227 -168z" />
<glyph unicode="&#x145;" horiz-adv-x="787" d="M20 0l200 810h42l298 -635l40 -103h2l182 738h45l-200 -810h-42l-298 634l-40 104h-2l-183 -738h-44zM239 -198l43 59l10 7q-38 1 -28 43q10 44 52 44q20 0 27 -13t3.5 -29.5t-13.5 -29.5l-71 -94z" />
<glyph unicode="&#x146;" d="M20 0l155 630h43l-29 -115h2q43 58 110.5 91.5t139.5 33.5q119 0 162.5 -61t16.5 -170l-101 -409h-43l96 387q13 61 10.5 107.5t-41.5 75t-115 28.5q-93 0 -168.5 -57t-101.5 -163l-94 -378h-42zM195 -198l43 59l10 7q-38 1 -29 43q12 44 53 44q20 0 27 -13t3.5 -29.5 t-13.5 -29.5l-71 -94z" />
<glyph unicode="&#x147;" horiz-adv-x="787" d="M20 0l200 810h42l298 -635l40 -103h2l182 738h45l-200 -810h-42l-298 634l-40 104h-2l-183 -738h-44zM422 1038l23 19l112 -125l3 1l171 124l14 -19l-201 -163l-2 1z" />
<glyph unicode="&#x148;" d="M20 0l155 630h43l-29 -115h2q43 58 110.5 91.5t139.5 33.5q119 0 162.5 -61t16.5 -170l-101 -409h-43l96 387q13 61 10.5 107.5t-41.5 75t-115 28.5q-93 0 -168.5 -57t-101.5 -163l-94 -378h-42zM325 858l23 20l112 -126l3 1l171 125l14 -20l-201 -163l-2 1z" />
<glyph unicode="&#x149;" horiz-adv-x="689" d="M36 0l156 630h42l-28 -115h2q43 58 110.5 91.5t138.5 33.5q119 0 162.5 -61t16.5 -170l-101 -409h-42l95 387q13 61 10.5 107.5t-41.5 75t-115 28.5q-93 0 -168.5 -57.5t-101.5 -162.5l-93 -378h-43zM95 657l46 62l11 7q-41 3 -31 47q5 21 20 34t36 13q22 0 29.5 -14 t3.5 -31t-14 -32l-76 -100z" />
<glyph unicode="&#x14a;" horiz-adv-x="787" d="M20 0l200 810h42l298 -635l39 -105h2l183 740h45l-194 -785v-1l-33 -134q-12 -47 -48 -77.5t-75 -30.5t-57.5 29t-7.5 76l5 17l35 -1l-4 -14q-7 -29 3 -46.5t35 -17.5q26 0 45.5 19t25.5 47l27 109l-297 634l-40 104h-2l-183 -738h-44z" />
<glyph unicode="&#x14b;" d="M20 0l155 630h43l-29 -115h2q43 58 110.5 91.5t139.5 33.5q119 0 162.5 -61t16.5 -170q-15 -61 -40.5 -164t-47 -191t-40.5 -164q-12 -47 -48 -77.5t-75 -30.5q-25 0 -42.5 13t-23.5 36.5t1 55.5l5 17l35 -1l-3 -14q-8 -29 2 -46.5t35 -17.5q26 0 45.5 19t25.5 47 q24 98 70.5 285t52.5 211q13 61 10.5 107.5t-41.5 75t-115 28.5q-93 0 -168.5 -57t-101.5 -163l-94 -378h-42z" />
<glyph unicode="&#x14c;" horiz-adv-x="811" d="M84 400q48 192 167 306t287 114q169 0 232.5 -113.5t15.5 -306.5q-47 -191 -166 -300.5t-287 -109.5q-169 0 -232.5 109.5t-16.5 300.5zM130 400q-21 -75 -18 -141.5t25 -116.5t75 -79.5t132 -29.5q155 0 255 103t140 264q21 74 19 142t-22.5 120t-74 83.5t-133.5 31.5 t-147.5 -30.5t-116 -84t-82 -119t-52.5 -143.5zM375 901l9 35h365l-9 -35h-365z" />
<glyph unicode="&#x14d;" horiz-adv-x="650" d="M63 315q37 149 128 237t222 88q132 0 180 -87.5t11 -237.5q-37 -148 -129 -236.5t-222 -88.5q-132 0 -179.5 87.5t-10.5 237.5zM106 315q-30 -123 6.5 -203t150.5 -80q115 0 191 79.5t107 203.5q16 57 14 108.5t-18 90t-55.5 61.5t-98.5 23q-116 0 -191.5 -79.5 t-105.5 -203.5zM253 731l9 36h365l-9 -36h-365z" />
<glyph unicode="&#x14e;" horiz-adv-x="811" d="M84 400q48 192 167 306t287 114q169 0 232.5 -113.5t15.5 -306.5q-47 -191 -166 -300.5t-287 -109.5q-169 0 -232.5 109.5t-16.5 300.5zM130 400q-21 -75 -18 -141.5t25 -116.5t75 -79.5t132 -29.5q155 0 255 103t140 264q21 74 19 142t-22.5 120t-74 83.5t-133.5 31.5 t-147.5 -30.5t-116 -84t-82 -119t-52.5 -143.5zM422 983h44q16 -69 97 -69q79 0 132 69h43q-68 -108 -185 -108q-60 0 -92.5 28.5t-38.5 79.5z" />
<glyph unicode="&#x14f;" horiz-adv-x="650" d="M63 315q37 149 128 237t222 88q132 0 180 -87.5t11 -237.5q-37 -148 -129 -236.5t-222 -88.5q-132 0 -179.5 87.5t-10.5 237.5zM106 315q-30 -123 6.5 -203t150.5 -80q115 0 191 79.5t107 203.5q16 57 14 108.5t-18 90t-55.5 61.5t-98.5 23q-116 0 -191.5 -79.5 t-105.5 -203.5zM296 804h44q18 -70 97 -70q82 0 132 70h43q-67 -109 -185 -109q-59 0 -92 29t-39 80z" />
<glyph unicode="&#x150;" horiz-adv-x="811" d="M84 400q48 192 167 306t287 114q169 0 232.5 -113.5t15.5 -306.5q-47 -191 -166 -300.5t-287 -109.5q-169 0 -232.5 109.5t-16.5 300.5zM130 400q-21 -75 -18 -141.5t25 -116.5t75 -79.5t132 -29.5q155 0 255 103t140 264q21 74 19 142t-22.5 120t-74 83.5t-133.5 31.5 t-147.5 -30.5t-116 -84t-82 -119t-52.5 -143.5zM445 891l158 148l27 -38l-171 -128zM584 891l158 148l27 -38l-171 -128z" />
<glyph unicode="&#x151;" horiz-adv-x="650" d="M63 315q37 149 128 237t222 88q132 0 180 -87.5t11 -237.5q-37 -148 -129 -236.5t-222 -88.5q-132 0 -179.5 87.5t-10.5 237.5zM106 315q-30 -123 6.5 -203t150.5 -80q115 0 191 79.5t107 203.5q16 57 14 108.5t-18 90t-55.5 61.5t-98.5 23q-116 0 -191.5 -79.5 t-105.5 -203.5zM319 713l158 147l28 -37l-172 -128zM458 713l158 147l27 -37l-171 -128z" />
<glyph unicode="&#x152;" horiz-adv-x="1057" d="M84 400q48 194 151.5 307t239.5 113q147 0 189 -152h2l35 141h417l-11 -42h-377l5 -5l-81 -331l-8 -5h338l-11 -42h-337l5 -5l-82 -331l-7 -5h377l-11 -42h-417l33 135h-2q-115 -146 -262 -146q-137 0 -185.5 108.5t-0.5 301.5zM133 400q-18 -74 -20.5 -138t12 -116.5 t54 -82.5t102.5 -30t117.5 30t94 82.5t68 116t46.5 138.5q18 74 21.5 138t-9.5 119.5t-52.5 87.5t-102.5 32t-118 -31.5t-95.5 -85.5t-69.5 -119.5t-48 -140.5z" />
<glyph unicode="&#x153;" horiz-adv-x="1147" d="M63 315q37 149 128 237t222 88q185 0 204 -183h2q50 85 125.5 134t169.5 49q72 0 119 -28t65 -76t18 -104.5t-16 -121.5l-3 -13l-503 -1l4 -5q-23 -120 18 -190t151 -70q99 0 187 65l23 -32q-100 -74 -219 -74q-101 0 -153.5 47.5t-59.5 131.5h-1q-106 -179 -291 -179 q-132 0 -179.5 87.5t-10.5 237.5zM105 315q-16 -57 -14 -108t18 -90t55.5 -62t98.5 -23q115 0 191 79.5t106 203.5q16 57 14 108.5t-17.5 90t-55 61.5t-98.5 23q-116 0 -191.5 -79.5t-106.5 -203.5zM604 336l464 1l-4 4q21 115 -17 186t-143 71t-181 -72t-112 -185z" />
<glyph unicode="&#x154;" horiz-adv-x="720" d="M20 0l200 810h326q109 0 162 -58t26 -170q-20 -80 -80.5 -138.5t-153.5 -77.5v-2q72 -28 95 -133l51 -231h-53l-44 212q-15 74 -59 108.5t-129 34.5h-213l3 -5l-87 -350h-44zM158 398h276q102 0 168 53t85 131q24 94 -19.5 139.5t-131.5 45.5h-287l3 -6l-88 -357z M444 891l208 184l27 -36l-222 -165z" />
<glyph unicode="&#x155;" horiz-adv-x="372" d="M20 0l155 629h43l-39 -158h2q40 76 109.5 119.5t143.5 43.5h6l-12 -49h-10q-87 1 -166 -68.5t-113 -206.5l-77 -310h-42zM229 712l212 188l27 -37l-226 -168z" />
<glyph unicode="&#x156;" horiz-adv-x="720" d="M20 0l200 810h326q109 0 162 -58t26 -170q-20 -80 -80.5 -138.5t-153.5 -77.5v-2q72 -28 95 -133l51 -231h-53l-44 212q-15 74 -59 108.5t-129 34.5h-213l3 -5l-87 -350h-44zM158 398h276q102 0 168 53t85 131q24 94 -19.5 139.5t-131.5 45.5h-287l3 -6l-88 -357z M245 -198l42 59l11 7q-38 1 -29 43q12 44 53 44q29 0 31 -27t-14 -45l-71 -94z" />
<glyph unicode="&#x157;" horiz-adv-x="372" d="M-7 -198l43 59l10 7q-38 1 -28 43q10 44 52 44q20 0 27 -13t3.5 -29.5t-13.5 -29.5l-71 -94zM20 0l155 629h43l-39 -158h2q40 76 109.5 119.5t143.5 43.5h6l-12 -49h-10q-87 1 -166 -68.5t-113 -206.5l-77 -310h-42z" />
<glyph unicode="&#x158;" horiz-adv-x="720" d="M20 0l200 810h326q109 0 162 -58t26 -170q-20 -80 -80.5 -138.5t-153.5 -77.5v-2q72 -28 95 -133l51 -231h-53l-44 212q-15 74 -59 108.5t-129 34.5h-213l3 -5l-87 -350h-44zM158 398h276q102 0 168 53t85 131q24 94 -19.5 139.5t-131.5 45.5h-287l3 -6l-88 -357z M391 1039l24 19l111 -126l3 1l171 125l15 -20l-202 -163l-2 1z" />
<glyph unicode="&#x159;" horiz-adv-x="372" d="M20 0l155 629h43l-39 -158h2q40 76 109.5 119.5t143.5 43.5h6l-12 -49h-10q-87 1 -166 -68.5t-113 -206.5l-77 -310h-42zM198 858l24 20l112 -126q34 24 95.5 69t77.5 57l15 -20l-201 -163l-3 1z" />
<glyph unicode="&#x15a;" horiz-adv-x="701" d="M7 106l45 36q91 -109 241 -109q121 0 197.5 47t94.5 121q29 120 -135 171q-9 2 -69 21t-68 22q-107 34 -149.5 79.5t-23.5 121.5q21 85 108.5 144.5t234.5 59.5q161 0 242 -105l-43 -35q-71 97 -209 97q-117 0 -192.5 -44t-93.5 -115q-15 -60 26 -95t139 -67 q7 -2 61.5 -19.5t64.5 -20.5q192 -62 154 -212q-21 -88 -107 -151t-240 -63q-183 0 -278 116zM413 892l208 183l27 -36l-222 -164z" />
<glyph unicode="&#x15b;" horiz-adv-x="572" d="M6 83l41 33q70 -85 180 -85q85 0 143.5 34t72.5 92q12 47 -11.5 76t-85.5 49q-6 2 -51 17.5t-51 17.5q-81 27 -114.5 63.5t-18.5 97.5q17 67 84 114.5t177 47.5q126 0 189 -86l-41 -33q-53 77 -158 77q-81 0 -137.5 -33t-69.5 -85q-11 -46 20 -73.5t105 -51.5 q47 -16 92 -33q145 -46 115 -163q-17 -71 -84 -120.5t-184 -49.5q-142 0 -213 94zM295 712l213 187l27 -36l-226 -168z" />
<glyph unicode="&#x15c;" horiz-adv-x="701" d="M7 106l45 36q91 -109 241 -109q121 0 197.5 47t94.5 121q29 120 -135 171q-9 2 -69 21t-68 22q-107 34 -149.5 79.5t-23.5 121.5q21 85 108.5 144.5t234.5 59.5q161 0 242 -105l-43 -35q-71 97 -209 97q-117 0 -192.5 -44t-93.5 -115q-15 -60 26 -95t139 -67 q7 -2 61.5 -19.5t64.5 -20.5q192 -62 154 -212q-21 -88 -107 -151t-240 -63q-183 0 -278 116zM340 894l201 163l2 -1l120 -163l-23 -19l-112 126q-34 -24 -96 -69t-78 -57z" />
<glyph unicode="&#x15d;" horiz-adv-x="572" d="M6 83l41 33q70 -85 180 -85q85 0 143.5 34t72.5 92q12 47 -11.5 76t-85.5 49q-6 2 -51 17.5t-51 17.5q-81 27 -114.5 63.5t-18.5 97.5q17 67 84 114.5t177 47.5q126 0 189 -86l-41 -33q-53 77 -158 77q-81 0 -137.5 -33t-69.5 -85q-11 -46 20 -73.5t105 -51.5 q47 -16 92 -33q145 -46 115 -163q-17 -71 -84 -120.5t-184 -49.5q-142 0 -213 94zM231 714l201 163l2 -1l120 -162l-23 -20l-112 126l-3 -1l-171 -125z" />
<glyph unicode="&#x15e;" horiz-adv-x="701" d="M7 106l45 36q91 -109 241 -109q81 0 144.5 22.5t99.5 60t48 85.5q9 38 -1.5 69.5t-44.5 58t-89 43.5q-5 1 -19 5.5t-32 10t-35.5 11.5t-31.5 10.5t-19 5.5q-107 34 -149.5 79.5t-23.5 121.5q10 40 35.5 75.5t66.5 64.5t103 46.5t138 17.5q161 0 242 -105l-43 -35 q-33 45 -87 71t-122 26q-117 0 -192.5 -44t-93.5 -115q-15 -60 26 -95t139 -67l126 -40q192 -62 154 -212q-8 -31 -23 -59t-41.5 -55.5t-61.5 -48t-85.5 -34.5t-110.5 -16q28 -35 22 -58q-4 -14 -13 -24.5t-42 -35.5l-72 -59l-20 28l73 59q33 27 38 39t-10 35l-11 15 q-175 3 -268 116z" />
<glyph unicode="&#x15f;" horiz-adv-x="572" d="M6 83l41 33q70 -85 180 -85q85 0 143.5 34t72.5 92q12 47 -11.5 76t-85.5 49q-6 2 -51 17.5t-51 17.5q-81 27 -114.5 63.5t-18.5 97.5q17 67 84 114.5t177 47.5q126 0 189 -86l-41 -33q-53 77 -158 77q-81 0 -137.5 -33t-69.5 -85q-11 -46 20 -73.5t105 -51.5 q47 -16 92 -33q145 -46 115 -163q-16 -67 -76.5 -115t-166.5 -54q26 -34 21 -57q-4 -14 -13 -24t-42 -36l-72 -59l-20 28l73 59q33 27 38 39t-10 35l-11 14q-134 5 -202 94z" />
<glyph unicode="&#x160;" horiz-adv-x="701" d="M7 106l45 36q91 -109 241 -109q121 0 197.5 47t94.5 121q29 120 -135 171q-9 2 -69 21t-68 22q-107 34 -149.5 79.5t-23.5 121.5q21 85 108.5 144.5t234.5 59.5q161 0 242 -105l-43 -35q-71 97 -209 97q-117 0 -192.5 -44t-93.5 -115q-15 -60 26 -95t139 -67l126 -40 q192 -62 154 -212q-21 -88 -107 -151t-240 -63q-183 0 -278 116zM375 1039l23 19l112 -126l3 1l171 125l14 -20l-201 -163l-2 1z" />
<glyph unicode="&#x161;" horiz-adv-x="572" d="M6 83l41 33q70 -85 180 -85q85 0 143.5 34t72.5 92q22 89 -97 126l-102 34q-81 27 -114.5 63.5t-18.5 97.5q17 67 84 114.5t177 47.5q126 0 189 -86l-41 -33q-53 77 -158 77q-82 0 -138 -33t-69 -85q-11 -46 20.5 -73.5t104.5 -51.5q6 -2 46 -15.5t46 -15.5 q144 -45 115 -165q-17 -71 -84 -120.5t-184 -49.5q-142 0 -213 94zM264 857l24 20l111 -126l3 1l171 125l15 -20l-201 -163l-3 1z" />
<glyph unicode="&#x162;" horiz-adv-x="658" d="M140 767l10 43h619l-10 -43h-291l2 -5l-188 -762h-6l18 -25q31 -41 -20 -83l-97 -78l-20 28l74 59q34 28 39.5 39.5t-9.5 34.5l-18 25h-5l188 762l4 5h-290z" />
<glyph unicode="&#x163;" horiz-adv-x="405" d="M39 -158l73 59q33 27 38 39.5t-10 34.5l-21 28q-73 38 -41 168l102 414l4 5h-78l10 40h78l-2 5l29 115l48 23l-34 -138l-4 -5h196l-10 -40h-196l2 -5l-102 -410q-18 -72 1.5 -108t71.5 -36q61 0 120 41l22 -31q-80 -51 -156 -51q-11 0 -16 1l3 -5q24 -31 18 -53 q-3 -14 -12 -24t-42 -36l-72 -59z" />
<glyph unicode="&#x164;" horiz-adv-x="658" d="M140 767l10 43h619l-10 -43h-291l2 -5l-188 -762h-44l188 762l4 5h-290zM354 1038l24 19l112 -125q34 24 95.5 68.5t77.5 56.5l15 -19l-201 -163l-3 1z" />
<glyph unicode="&#x165;" horiz-adv-x="405" d="M78 171l102 414l4 5h-78l10 40h78l-2 5l29 115l48 23l-34 -138l-4 -5h196l-10 -40h-196l2 -5l-102 -410q-18 -72 1.5 -108t71.5 -36q61 0 120 41l22 -31q-80 -51 -156 -51q-68 0 -96 46t-6 135zM367 737l45 62l11 7q-42 3 -30 46q11 47 55 47q22 0 29.5 -14t3.5 -31 t-14 -31l-75 -101z" />
<glyph unicode="&#x166;" horiz-adv-x="658" d="M140 767l10 43h619l-10 -43h-291l2 -5l-77 -311l-4 -5h179l-9 -40h-180l2 -4l-99 -402h-44l99 402l4 4h-178l10 40h178l-2 5l77 311l4 5h-290z" />
<glyph unicode="&#x167;" horiz-adv-x="405" d="M61 407l9 39h79l-2 5l33 134l4 5h-78l10 40h78l-2 5l29 115l48 23l-34 -138l-4 -5h196l-10 -40h-196l2 -5l-33 -134l-5 -5h197l-10 -39h-196l1 -6l-56 -226q-18 -72 1.5 -108t71.5 -36q61 0 120 41l22 -31q-80 -51 -156 -51q-68 0 -96 46t-6 135l57 231l4 5h-78z" />
<glyph unicode="&#x168;" horiz-adv-x="799" d="M106 369l109 441h44l-110 -445q-81 -332 189 -332q271 0 353 332l110 445h44l-108 -441q-94 -379 -409 -379q-160 0 -214.5 94.5t-7.5 284.5zM344 907q44 87 140 87q37 0 91 -39.5t83 -39.5q34 0 64.5 22.5t50.5 58.5l18 -26q-25 -44 -63 -69.5t-83 -25.5q-36 0 -90.5 40 t-84.5 40q-69 0 -108 -73z" />
<glyph unicode="&#x169;" horiz-adv-x="665" d="M72 232l99 398h42l-97 -393q-9 -35 -11 -63t4 -55.5t22.5 -46t49 -29.5t79.5 -11q91 0 165.5 57.5t100.5 162.5l93 378h43l-156 -630h-42l28 116h-2q-44 -58 -108 -92t-138 -34q-231 0 -172 242zM233 750q45 87 140 87q37 0 91 -40t83 -40q34 0 65 22.5t50 58.5l18 -25 q-25 -44 -63 -69.5t-83 -25.5q-36 0 -90.5 39.5t-83.5 39.5q-71 0 -108 -72z" />
<glyph unicode="&#x16a;" horiz-adv-x="799" d="M106 369l109 441h44l-110 -445q-81 -332 189 -332q271 0 353 332l110 445h44l-108 -441q-94 -379 -409 -379q-160 0 -214.5 94.5t-7.5 284.5zM370 901l9 35h365l-9 -35h-365z" />
<glyph unicode="&#x16b;" horiz-adv-x="665" d="M72 232l99 398h42l-97 -393q-9 -35 -11 -63t4 -55.5t22.5 -46t49 -29.5t79.5 -11q91 0 165.5 57.5t100.5 162.5l93 378h43l-156 -630h-42l28 116h-2q-44 -58 -108 -92t-138 -34q-231 0 -172 242zM256 731l9 36h365l-9 -36h-365z" />
<glyph unicode="&#x16c;" horiz-adv-x="799" d="M106 369l109 441h44l-110 -445q-81 -332 189 -332q271 0 353 332l110 445h44l-108 -441q-94 -379 -409 -379q-160 0 -214.5 94.5t-7.5 284.5zM415 983h44q18 -69 98 -69t131 69h44q-69 -108 -185 -108q-60 0 -93 28.5t-39 79.5z" />
<glyph unicode="&#x16d;" horiz-adv-x="665" d="M72 232l99 398h42l-97 -393q-9 -35 -11 -63t4 -55.5t22.5 -46t49 -29.5t79.5 -11q91 0 165.5 57.5t100.5 162.5l93 378h43l-156 -630h-42l28 116h-2q-44 -58 -108 -92t-138 -34q-231 0 -172 242zM303 804h44q18 -70 97 -70q82 0 132 70h43q-67 -109 -185 -109 q-59 0 -92 29t-39 80z" />
<glyph unicode="&#x16e;" horiz-adv-x="799" d="M106 369l109 441h44l-110 -445q-81 -332 189 -332q271 0 353 332l110 445h44l-108 -441q-94 -379 -409 -379q-160 0 -214.5 94.5t-7.5 284.5zM482 971q11 44 40 70t73 26t60.5 -26t5.5 -70q-11 -43 -40.5 -69.5t-72.5 -26.5q-44 0 -60.5 26t-5.5 70zM509 971 q-7 -30 4 -49t42 -19t51.5 19t27.5 49t-4 49t-42 19t-51.5 -19t-27.5 -49z" />
<glyph unicode="&#x16f;" horiz-adv-x="665" d="M72 232l99 398h42l-97 -393q-9 -35 -11 -63t4 -55.5t22.5 -46t49 -29.5t79.5 -11q91 0 165.5 57.5t100.5 162.5l93 378h43l-156 -630h-42l28 116h-2q-44 -58 -108 -92t-138 -34q-231 0 -172 242zM367 791q11 44 40 70t73 26t60.5 -26t5.5 -70t-40 -70t-73 -26t-60.5 26 t-5.5 70zM394 791q-7 -30 4 -49t42 -19t51.5 19t27.5 49t-4 49t-41 19q-31 0 -51.5 -19t-28.5 -49z" />
<glyph unicode="&#x170;" horiz-adv-x="799" d="M106 369l109 441h44l-110 -445q-81 -332 189 -332q271 0 353 332l110 445h44l-108 -441q-94 -379 -409 -379q-160 0 -214.5 94.5t-7.5 284.5zM439 891l158 148l27 -38l-171 -128zM578 891l157 148l28 -38l-172 -128z" />
<glyph unicode="&#x171;" horiz-adv-x="665" d="M72 232l99 398h42l-97 -393q-9 -35 -11 -63t4 -55.5t22.5 -46t49 -29.5t79.5 -11q91 0 165.5 57.5t100.5 162.5l93 378h43l-156 -630h-42l28 116h-2q-44 -58 -108 -92t-138 -34q-231 0 -172 242zM312 713l157 147l28 -37l-172 -128zM450 713l158 147l27 -37l-171 -128z " />
<glyph unicode="&#x172;" horiz-adv-x="799" d="M106 369l109 441h44l-110 -445q-81 -332 189 -332q271 0 353 332l110 445h44l-108 -441q-85 -340 -344 -375l-119 -98q-23 -20 -30 -48q-6 -26 8 -43t38 -17q30 2 57 29l15 -21q-47 -47 -90 -47q-37 -1 -56.5 25t-11.5 64q9 43 45 70l101 83q-7 -1 -22 -1 q-160 0 -214.5 94.5t-7.5 284.5z" />
<glyph unicode="&#x173;" horiz-adv-x="665" d="M72 232l99 398h42l-97 -393q-9 -35 -11 -63t4 -55.5t22.5 -46t49 -29.5t79.5 -11q91 0 165.5 57.5t100.5 162.5l93 378h43l-156 -630h-13l-124 -104q-25 -20 -30 -47q-6 -26 7.5 -43.5t37.5 -17.5q26 2 44 18q9 6 14 11l15 -21l-7 -6q-7 -7 -11 -9q-36 -31 -73 -32 t-56.5 25t-11.5 64q9 41 46 71l122 100l26 107h-2q-44 -58 -108 -92t-138 -34q-231 0 -172 242z" />
<glyph unicode="&#x174;" horiz-adv-x="973" d="M155 810h50l12 -674l-5 -86h1l37 86l349 674h36l15 -677l-5 -83h2l36 84l347 676h49l-418 -810h-54l-14 634l4 90h-2l-41 -90l-327 -634h-54zM476 894l201 163l3 -1l120 -163l-24 -19l-112 126q-16 -12 -34 -25t-35.5 -26t-34 -24.5t-35.5 -25.5t-34 -25z" />
<glyph unicode="&#x175;" horiz-adv-x="820" d="M101 630h46l21 -510l-3 -68h3l30 68l278 510h40l27 -510l-3 -68h2l30 68l273 510h46l-339 -630h-46l-27 500l4 72h-2l-32 -72l-274 -500h-47zM353 714l201 163q24 -31 67 -90t55 -74l-23 -19l-112 125l-3 -1l-171 -124z" />
<glyph unicode="&#x176;" horiz-adv-x="698" d="M145 810h59l141 -344l29 -83h1l69 83l312 344h57l-426 -466l-84 -344h-45l84 344zM338 894l201 163l2 -1l120 -163l-23 -19l-112 126q-34 -24 -96 -69t-78 -57z" />
<glyph unicode="&#x177;" horiz-adv-x="584" d="M-70 -198l10 40q37 -16 77 -16q91 0 171 127q22 36 26 43l-113 634h49l85 -502l9 -86h2q69 117 202.5 331.5t158.5 256.5h49l-443 -705q-88 -140 -198 -140q-52 0 -85 17zM232 714l201 163l39 -52l45 -60l39 -52l-24 -19l-112 125l-3 -1l-171 -124z" />
<glyph unicode="&#x178;" horiz-adv-x="698" d="M145 810h59l141 -344l29 -83h1l69 83l312 344h57l-426 -466l-84 -344h-45l84 344zM374 943q10 43 48 43t27 -43t-48 -43q-38 0 -27 43zM572 943q11 43 48 43q38 0 27 -43q-10 -43 -48 -43t-27 43z" />
<glyph unicode="&#x179;" horiz-adv-x="732" d="M-10 0l9 37l662 664l73 64l1 2h-546l11 43h598l-10 -41l-655 -655l-78 -69v-2h559l-11 -43h-613zM444 891l208 184l27 -36l-222 -165z" />
<glyph unicode="&#x17a;" horiz-adv-x="610" d="M-10 0l9 35l512 502l61 50l1 2h-430l10 40h480l-8 -32l-515 -504l-60 -51l-1 -2h442l-10 -40h-491zM333 712l212 187l27 -36l-226 -168z" />
<glyph unicode="&#x17b;" horiz-adv-x="732" d="M-10 0l9 37l662 664l73 64l1 2h-546l11 43h598l-10 -41l-655 -655l-78 -69v-2h559l-11 -43h-613zM474 923q13 48 55 48q44 0 32 -48q-13 -48 -55 -48q-44 0 -32 48z" />
<glyph unicode="&#x17c;" horiz-adv-x="610" d="M-10 0l9 35l512 502l61 50l1 2h-430l10 40h480l-8 -32l-515 -504l-60 -51l-1 -2h442l-10 -40h-491zM379 755q12 48 55 48t31 -48t-55 -48t-31 48z" />
<glyph unicode="&#x17d;" horiz-adv-x="730" d="M-10 0l10 39l659 661l75 65v2h-545l11 43h596l-10 -39l-654 -655l-80 -71v-2h560l-11 -43h-611zM390 1039l24 19l112 -126q34 24 95.5 69t77.5 57l15 -20l-201 -163l-2 1z" />
<glyph unicode="&#x17e;" horiz-adv-x="610" d="M-10 0l8 31l507 502l66 54v2h-428l10 40h480l-7 -30l-508 -502l-66 -55l-1 -2h440l-10 -40h-491zM285 857l24 20l111 -126l3 1l171 125l15 -20l-201 -163l-3 1z" />
<glyph unicode="&#x17f;" horiz-adv-x="341" d="M-209 -204l10 41q30 -11 64 -11q66 0 106.5 38.5t63.5 133.5q15 60 73.5 298t90.5 366q21 86 79 134.5t141 48.5q33 0 58 -10l-9 -39q-31 9 -57 9q-67 0 -110 -38t-60 -107q-31 -129 -89.5 -365.5t-74.5 -299.5q-28 -114 -80.5 -162t-135.5 -48q-39 0 -70 11z" />
<glyph unicode="&#x192;" horiz-adv-x="349" d="M-218 -201l10 40q33 -13 63 -13q55 0 87.5 26.5t55.5 81.5q17 42 48 172l118 477l5 5h-78l9 39h78l-2 6l11 43q19 79 71 123.5t131 45.5q38 0 67 -13l-10 -40q-26 11 -65 13q-120 0 -153 -133l-10 -40l-4 -5h191l-9 -39h-192l2 -5l-139 -564q-30 -121 -79 -177.5 t-137 -56.5q-35 0 -69 14z" />
<glyph unicode="&#x1fa;" horiz-adv-x="757" d="M-54 0l527 786q-55 16 -37 91q11 44 40 70t73 26t60.5 -26t5.5 -70q-18 -75 -82 -91l140 -786h-50l-39 214l4 4h-450l1 -5l-143 -213h-50zM168 261h412l-5 6l-73 419l-5 71h-1l-41 -71l-281 -420zM463 877q-7 -29 4 -48.5t42 -19.5t51.5 19t27.5 49t-4 49t-41 19 q-31 0 -51.5 -19t-28.5 -49zM477 1019l208 183l27 -36l-222 -164z" />
<glyph unicode="&#x1fb;" horiz-adv-x="640" d="M62 311q36 150 127 239t222 89q150 0 181 -142h2l33 133h43l-156 -630h-43l32 129h-2q-45 -67 -111 -103t-140 -36q-130 0 -177 87.5t-11 233.5zM104 311q-16 -56 -13.5 -106.5t18 -89t55 -61.5t98.5 -23q109 0 185 78.5t106 201.5q32 127 -4.5 207t-146.5 80 q-114 0 -190.5 -82.5t-107.5 -204.5zM367 791q11 44 40 70t73 26t60.5 -26t5.5 -70q-11 -43 -40.5 -69.5t-73.5 -26.5t-60 26t-5 70zM394 791q-7 -30 3.5 -49t41.5 -19t51.5 19t27.5 49q8 29 -3 48.5t-42 19.5t-51.5 -19t-27.5 -49zM401 942l212 187l27 -36l-226 -168z" />
<glyph unicode="&#x1fc;" horiz-adv-x="976" d="M-54 0l540 810h551l-10 -43h-368l2 -5l-82 -331l-5 -5h329l-11 -42h-329l3 -5l-81 -330l-6 -6h369l-11 -43h-409l53 214l6 4h-351l1 -5l-140 -213h-51zM164 261h332l-4 5l124 496l3 4l-48 1l-67 -4l1 -2l-333 -494zM578 892l208 183l27 -36l-221 -164z" />
<glyph unicode="&#x1fd;" horiz-adv-x="1132" d="M62 311q36 150 127 239t222 89q150 0 181 -142h2l33 133h43l-32 -129h2q46 62 114 100.5t144 38.5q72 0 119 -28t65 -76t18 -104.5t-16 -121.5l-3 -13l-503 -1l4 -5q-23 -120 18 -190t152 -70q99 0 187 65l22 -32q-100 -74 -219 -74q-155 0 -196 130h-2l-30 -120h-43 l32 129h-2q-45 -67 -111 -103t-140 -36q-130 0 -177 87.5t-11 233.5zM104 311q-16 -56 -13.5 -106.5t18 -89t55 -61.5t98.5 -23q109 0 185 78.5t106 201.5q32 127 -4.5 207t-146.5 80q-114 0 -190.5 -82.5t-107.5 -204.5zM585 712l212 187l28 -36l-227 -168zM589 336l463 1 l-4 4q21 115 -17 186t-143 71t-181 -72t-112 -185z" />
<glyph unicode="&#x1fe;" horiz-adv-x="811" d="M70 -45l71 87l6 4q-125 102 -63 354q48 192 167 306t287 114q120 0 188 -60l2 6l65 80l18 -14l-66 -82l-6 -2q105 -108 47 -348q-47 -191 -166 -300.5t-287 -109.5q-107 0 -172 45l-2 -7l-70 -86zM130 400q-54 -222 50 -315l1 7l508 626l5 3q-59 56 -166 56 q-80 0 -147.5 -30.5t-116 -84t-82 -119t-52.5 -143.5zM193 75q58 -42 151 -42q155 0 255 103t140 264q52 207 -32 308l-2 -7l-506 -624zM470 892l209 183l26 -36l-221 -164z" />
<glyph unicode="&#x1ff;" horiz-adv-x="650" d="M32 -40l64 78l5 4q-85 84 -38 273q37 149 128 237t222 88q87 0 142 -43l2 6l63 76l21 -15l-64 -78l-6 -5q77 -83 33 -266q-37 -148 -129 -236.5t-222 -88.5q-83 0 -135 37l-3 -7l-62 -75zM106 315q-39 -158 27 -234l6 9l379 464l6 4q-43 40 -121 40q-116 0 -191.5 -79.5 t-105.5 -203.5zM150 65q42 -33 113 -33q115 0 191 79.5t107 203.5q37 152 -22 227l-4 -7l-379 -464zM345 712l212 187l28 -36l-227 -168z" />
<glyph unicode="&#x218;" horiz-adv-x="701" d="M7 106l45 36q91 -109 241 -109q121 0 197.5 47t94.5 121q29 120 -135 171q-9 2 -69 21t-68 22q-107 34 -149.5 79.5t-23.5 121.5q21 85 108.5 144.5t234.5 59.5q161 0 242 -105l-43 -35q-71 97 -209 97q-117 0 -192.5 -44t-93.5 -115q-15 -60 26 -95t139 -67 q7 -2 61.5 -19.5t64.5 -20.5q192 -62 154 -212q-21 -88 -107 -151t-240 -63q-183 0 -278 116zM200 -198l43 59l10 7q-38 1 -28 43q5 20 19 32t33 12q20 0 27.5 -13t3.5 -29.5t-14 -29.5l-70 -94z" />
<glyph unicode="&#x219;" horiz-adv-x="572" d="M6 83l41 33q70 -85 180 -85q85 0 143.5 34t72.5 92q12 47 -11.5 76t-85.5 49q-6 2 -51 17.5t-51 17.5q-81 27 -114.5 63.5t-18.5 97.5q17 67 84 114.5t177 47.5q126 0 189 -86l-41 -33q-53 77 -158 77q-81 0 -137.5 -33t-69.5 -85q-11 -46 20 -73.5t105 -51.5 q47 -16 92 -33q145 -46 115 -163q-17 -71 -84 -120.5t-184 -49.5q-142 0 -213 94zM135 -198l42 59l10 7q-38 1 -28 43q12 44 52 44q21 0 28 -13.5t3 -29.5t-14 -29l-70 -94z" />
<glyph unicode="&#x21a;" horiz-adv-x="658" d="M140 767l10 43h619l-10 -43h-291l2 -5l-188 -762h-44l188 762l4 5h-290zM174 -198l42 59l11 7q-39 1 -29 43q12 44 52 44q21 0 28 -13.5t3 -29.5t-14 -29l-70 -94z" />
<glyph unicode="&#x21b;" horiz-adv-x="405" d="M75 -198l42 59l11 7q-39 1 -29 43q12 44 52 44q21 0 28 -13.5t3 -29.5t-14 -29l-70 -94zM78 171l102 414l4 5h-78l10 40h78l-2 5l29 115l48 23l-34 -138l-4 -5h196l-10 -40h-196l2 -5l-102 -410q-18 -72 1.5 -108t71.5 -36q61 0 120 41l22 -31q-80 -51 -156 -51 q-68 0 -96 46t-6 135z" />
<glyph unicode="&#x2c6;" horiz-adv-x="587" d="M237 714l202 163q24 -31 67 -90t55 -74l-23 -19l-112 125l-3 -1l-171 -124z" />
<glyph unicode="&#x2c7;" horiz-adv-x="587" d="M273 857l24 20l111 -126l3 1l171 125l15 -20l-202 -163l-2 1z" />
<glyph unicode="&#x2d8;" horiz-adv-x="663" d="M304 804h45q16 -70 97 -70t131 70h44q-69 -109 -185 -109q-117 0 -132 109z" />
<glyph unicode="&#x2d9;" horiz-adv-x="626" d="M390 755q12 48 55 48t31 -48t-55 -48t-31 48z" />
<glyph unicode="&#x2da;" horiz-adv-x="640" d="M352 791q11 44 40 70t73 26t60.5 -26t5.5 -70q-11 -43 -40.5 -69.5t-72.5 -26.5q-44 0 -60.5 26t-5.5 70zM379 791q-7 -30 4 -49t41 -19q31 0 52 19t28 49t-4 49t-42 19t-51.5 -19t-27.5 -49z" />
<glyph unicode="&#x2db;" horiz-adv-x="691" d="M365 -162q9 43 45 70l120 99l34 -4l-129 -107q-23 -18 -30 -48q-3 -13 -0.5 -24t9 -19t16 -12.5t21.5 -4.5q30 2 57 29l15 -21q-47 -47 -90 -47q-37 -1 -57 25t-11 64z" />
<glyph unicode="&#x2dc;" horiz-adv-x="656" d="M235 750q45 87 140 87q37 0 91 -40t83 -40q34 0 65 22.5t50 58.5l18 -25q-25 -44 -63 -69.5t-83 -25.5q-36 0 -90.5 39.5t-84.5 39.5q-70 0 -107 -72z" />
<glyph unicode="&#x2dd;" horiz-adv-x="698" d="M338 713l157 147l28 -37l-172 -128zM476 713l158 147l27 -37l-171 -128z" />
<glyph unicode="&#x3c0;" horiz-adv-x="621" d="M34 0l144 582l5 5h-88l11 42h581l-10 -42h-88l3 -5l-144 -582h-43l144 582l5 5h-336l3 -5l-144 -582h-43z" />
<glyph unicode="&#x1e02;" horiz-adv-x="727" d="M20 0l200 810h341q96 0 142 -56t23 -150q-15 -61 -58 -109.5t-104 -68.5v-2q73 -22 97 -76t6 -130q-26 -103 -102.5 -160.5t-203.5 -57.5h-341zM72 43h299q205 0 248 176q20 84 -21 130.5t-141 46.5h-298l3 -4l-84 -344zM169 440h281q96 0 153 46t75 118 q20 82 -19.5 122.5t-128.5 40.5h-280l4 -5l-79 -318zM465 923q12 48 55 48t31 -48t-55 -48t-31 48z" />
<glyph unicode="&#x1e03;" d="M20 0l207 840h43l-85 -343h2q101 142 253 142q130 0 176.5 -89t9.5 -239q-36 -146 -126.5 -233.5t-220.5 -87.5q-74 0 -122 36t-61 103h-2l-32 -129h-42zM134 311q-30 -122 7.5 -201t145.5 -79q115 0 190.5 79t105.5 201q16 55 14 107t-17 92t-54 64t-98 24 q-110 0 -186 -80t-108 -207zM426 755q12 48 54 48q44 0 32 -48q-13 -48 -55 -48q-21 0 -29 13t-2 35z" />
<glyph unicode="&#x1e0a;" horiz-adv-x="768" d="M20 0l200 810h282q81 0 137 -22t84.5 -58t38.5 -89.5t4.5 -110t-22.5 -125.5q-16 -66 -36.5 -120t-56 -109t-81 -92t-113.5 -60.5t-151 -23.5h-286zM70 43h237q76 0 136.5 21t101 53.5t71.5 82.5t49 97.5t33 107.5q12 49 17.5 89.5t5 83.5t-15 75.5t-40.5 59t-73 40.5 t-112 14h-231l3 -5l-176 -715zM465 923q13 48 55 48q44 0 32 -48q-13 -48 -55 -48q-21 0 -29 13t-3 35z" />
<glyph unicode="&#x1e0b;" d="M62 311q36 150 127 239t222 89q150 0 181 -142h2l85 342h42l-207 -838h-42l31 128h-2q-45 -67 -111 -103t-140 -36q-130 0 -177 87.5t-11 233.5zM104 311q-16 -55 -13.5 -106t18 -89.5t55 -61.5t98.5 -23q109 0 185 78.5t106 201.5q32 127 -4.5 207t-146.5 80 q-114 0 -190.5 -82.5t-107.5 -204.5zM395 755q12 48 55 48t31 -48t-55 -48t-31 48z" />
<glyph unicode="&#x1e1e;" horiz-adv-x="639" d="M20 0l200 810h519l-10 -43h-480l3 -5l-86 -351l-6 -5h432l-11 -44h-432l4 -4l-89 -358h-44zM478 923q13 48 55 48q44 0 31 -48q-12 -48 -54 -48q-44 0 -32 48z" />
<glyph unicode="&#x1e1f;" horiz-adv-x="360" d="M-209 -204l10 41q30 -11 64 -11q66 0 106.5 38.5t63.5 133.5l145 587l5 5h-79l10 39h78l-2 5l7 28q21 86 79 134.5t141 48.5q33 0 58 -10l-9 -39q-31 9 -57 9q-67 0 -110 -38t-60 -107l-6 -26l-4 -5h196l-10 -39h-196l2 -5l-146 -590q-28 -114 -80.5 -162t-135.5 -48 q-39 0 -70 11zM360 943q12 48 55 48t31 -48t-55 -48t-31 48z" />
<glyph unicode="&#x1e40;" horiz-adv-x="915" d="M20 0l200 810h40l132 -625l17 -97h2l65 98l440 624h40l-199 -810h-45l175 708h-2l-90 -138l-408 -580h-3l-122 583l-21 136h-2l-175 -709h-44zM573 923q12 48 55 48t31 -48t-55 -48t-31 48z" />
<glyph unicode="&#x1e41;" horiz-adv-x="946" d="M20 0l155 630h43l-28 -117h2q37 58 91.5 92.5t115.5 34.5q68 0 103 -38t38 -97h3q40 62 99.5 98.5t120.5 36.5q188 0 125 -256l-96 -384h-43l90 364q16 70 18 122t-25.5 82t-86.5 30q-80 0 -140 -61t-82 -148l-95 -389h-43l93 380q29 98 7.5 158.5t-105.5 60.5 q-75 0 -137.5 -62t-85.5 -155l-94 -382h-43zM550 755q12 48 55 48q21 0 29 -13t2 -35q-12 -48 -55 -48t-31 48z" />
<glyph unicode="&#x1e56;" horiz-adv-x="714" d="M20 0l200 810h341q115 0 160.5 -65.5t19.5 -174.5q-27 -105 -106 -172.5t-193 -67.5h-301l4 -5l-81 -325h-44zM152 374h300q94 0 157.5 54.5t84.5 141.5q22 90 -14 143.5t-130 53.5h-301l4 -5l-95 -384zM465 923q12 48 55 48t31 -48t-55 -48t-31 48z" />
<glyph unicode="&#x1e57;" d="M-32 -210l207 840h43l-32 -130h2q46 67 111.5 103.5t140.5 36.5q130 0 176.5 -87.5t10.5 -234.5q-37 -149 -127.5 -238.5t-220.5 -89.5q-74 0 -120.5 36.5t-61.5 106.5h-2l-85 -343h-42zM136 318q-32 -127 5 -207t147 -80q114 0 190 82.5t107 204.5q16 56 13.5 106.5 t-18 89t-55 61.5t-98.5 23q-108 0 -184.5 -79t-106.5 -201zM424 755q12 48 54 48q44 0 32 -48q-13 -48 -55 -48q-21 0 -29 13t-2 35z" />
<glyph unicode="&#x1e60;" horiz-adv-x="701" d="M7 106l45 36q91 -109 241 -109q121 0 197.5 47t94.5 121q29 120 -135 171q-9 2 -69 21t-68 22q-107 34 -149.5 79.5t-23.5 121.5q21 85 108.5 144.5t234.5 59.5q161 0 242 -105l-43 -35q-71 97 -209 97q-117 0 -192.5 -44t-93.5 -115q-15 -60 26 -95t139 -67 q7 -2 61.5 -19.5t64.5 -20.5q192 -62 154 -212q-21 -88 -107 -151t-240 -63q-183 0 -278 116zM464 923q13 48 55 48q44 0 32 -48q-13 -48 -55 -48q-21 0 -29 13t-3 35z" />
<glyph unicode="&#x1e61;" horiz-adv-x="572" d="M6 83l41 33q70 -85 180 -85q85 0 143.5 34t72.5 92q12 47 -11.5 76t-85.5 49q-6 2 -51 17.5t-51 17.5q-81 27 -114.5 63.5t-18.5 97.5q17 67 84 114.5t177 47.5q126 0 189 -86l-41 -33q-53 77 -158 77q-81 0 -137.5 -33t-69.5 -85q-11 -46 20 -73.5t105 -51.5 q47 -16 92 -33q145 -46 115 -163q-17 -71 -84 -120.5t-184 -49.5q-142 0 -213 94zM356 755q12 48 55 48t31 -48t-55 -48q-21 0 -29 13t-2 35z" />
<glyph unicode="&#x1e6a;" horiz-adv-x="658" d="M140 767l10 43h619l-10 -43h-291l2 -5l-188 -762h-44l188 762l4 5h-290zM445 923q12 48 55 48t31 -48t-55 -48q-21 0 -29 13t-2 35z" />
<glyph unicode="&#x1e6b;" horiz-adv-x="405" d="M78 171l102 414l4 5h-78l10 40h78l-2 5l29 115l48 23l-34 -138l-4 -5h196l-10 -40h-196l2 -5l-102 -410q-18 -72 1.5 -108t71.5 -36q61 0 120 41l22 -31q-80 -51 -156 -51q-68 0 -96 46t-6 135zM233 878q12 48 55 48q21 0 29 -13t2 -35q-12 -48 -55 -48t-31 48z" />
<glyph unicode="&#x1e80;" horiz-adv-x="973" d="M155 810h50l12 -674l-5 -86h1l37 86l349 674h36l15 -677l-5 -83h2l36 84l347 676h49l-418 -810h-54l-14 634l4 90h-2l-41 -90l-327 -634h-54zM570 1039l44 36l118 -183l-22 -17z" />
<glyph unicode="&#x1e81;" horiz-adv-x="820" d="M101 630h46l21 -510l-3 -68h3l30 68l278 510h40l27 -510l-3 -68h2l30 68l273 510h46l-339 -630h-46l-27 500l4 72h-2l-32 -72l-274 -500h-47zM448 860l44 35l118 -183l-22 -17z" />
<glyph unicode="&#x1e82;" horiz-adv-x="973" d="M155 810h50l12 -674l-5 -86h1l37 86l349 674h36l15 -677l-5 -83h2l36 84l347 676h49l-418 -810h-54l-14 634l4 90h-2l-41 -90l-327 -634h-54zM544 892l208 183l27 -36l-222 -164z" />
<glyph unicode="&#x1e83;" horiz-adv-x="820" d="M101 630h46l21 -510l-3 -68h3l30 68l278 510h40l27 -510l-3 -68h2l30 68l273 510h46l-339 -630h-46l-27 500l4 72h-2l-32 -72l-274 -500h-47zM418 712l212 187l28 -36l-227 -168z" />
<glyph unicode="&#x1e84;" horiz-adv-x="973" d="M155 810h50l12 -674l-5 -86h1l37 86l349 674h36l15 -677l-5 -83h2l36 84l347 676h49l-418 -810h-54l-14 634l4 90h-2l-41 -90l-327 -634h-54zM511 942q11 43 49 43t27 -43t-48 -43q-38 0 -28 43zM710 942q10 43 48 43t27 -43q-10 -43 -48 -43t-27 43z" />
<glyph unicode="&#x1e85;" horiz-adv-x="820" d="M101 630h46l21 -510l-3 -68h3l30 68l278 510h40l27 -510l-3 -68h2l30 68l273 510h46l-339 -630h-46l-27 500l4 72h-2l-32 -72l-274 -500h-47zM387 751q11 43 49 43t27 -43t-49 -43q-37 0 -27 43zM586 751q10 43 48 43t27 -43q-10 -43 -48 -43t-27 43z" />
<glyph unicode="&#x1ef2;" horiz-adv-x="698" d="M145 810h59l141 -344l29 -83h1l69 83l312 344h57l-426 -466l-84 -344h-45l84 344zM417 1039l44 36l118 -183l-22 -17z" />
<glyph unicode="&#x1ef3;" horiz-adv-x="584" d="M-70 -198l10 40q37 -16 77 -16q91 0 171 127q22 36 26 43l-113 634h49l85 -502l9 -86h2q69 117 202.5 331.5t158.5 256.5h49l-443 -705q-88 -140 -198 -140q-52 0 -85 17zM309 860l45 35l118 -183l-22 -17z" />
<glyph unicode="&#x2000;" horiz-adv-x="601" />
<glyph unicode="&#x2001;" horiz-adv-x="1202" />
<glyph unicode="&#x2002;" horiz-adv-x="601" />
<glyph unicode="&#x2003;" horiz-adv-x="1202" />
<glyph unicode="&#x2004;" horiz-adv-x="400" />
<glyph unicode="&#x2005;" horiz-adv-x="300" />
<glyph unicode="&#x2006;" horiz-adv-x="200" />
<glyph unicode="&#x2007;" horiz-adv-x="200" />
<glyph unicode="&#x2008;" horiz-adv-x="150" />
<glyph unicode="&#x2009;" horiz-adv-x="240" />
<glyph unicode="&#x200a;" horiz-adv-x="66" />
<glyph unicode="&#x2010;" horiz-adv-x="351" d="M35 303l11 45h292l-11 -45h-292z" />
<glyph unicode="&#x2011;" horiz-adv-x="351" d="M35 303l11 45h292l-11 -45h-292z" />
<glyph unicode="&#x2012;" horiz-adv-x="351" d="M35 303l11 45h292l-11 -45h-292z" />
<glyph unicode="&#x2013;" horiz-adv-x="557" d="M35 303l11 45h498l-11 -45h-498z" />
<glyph unicode="&#x2014;" horiz-adv-x="807" d="M35 303l11 45h748l-11 -45h-748z" />
<glyph unicode="&#x2018;" horiz-adv-x="179" d="M155 699l83 124l26 -13l-57 -87l-10 -6q22 1 30 -13t3 -36q-13 -50 -57 -50q-23 0 -30.5 15t-2.5 33t15 33z" />
<glyph unicode="&#x2019;" horiz-adv-x="179" d="M131 628l57 86l9 6q-22 -1 -30 13.5t-2 36.5q13 50 57 50q45 0 33 -50q-4 -14 -15 -32l-83 -124z" />
<glyph unicode="&#x201a;" horiz-adv-x="179" d="M-48 -97l57 87l10 6q-22 -1 -30 13t-3 36q13 50 57 50q23 0 30.5 -15t3 -33t-15.5 -33l-83 -124z" />
<glyph unicode="&#x201c;" horiz-adv-x="306" d="M155 699l83 124l26 -13l-57 -87l-10 -6q22 1 30 -13t3 -36q-13 -50 -57 -50q-23 0 -30.5 15t-2.5 33t15 33zM267 668q4 12 15 31l83 124l26 -13l-57 -87l-9 -6q21 1 29.5 -13t2.5 -36q-13 -50 -57 -50t-33 50z" />
<glyph unicode="&#x201d;" horiz-adv-x="306" d="M131 628l57 86l9 6q-22 -1 -30 13.5t-2 36.5q13 50 57 50q45 0 33 -50q-4 -14 -15 -32l-83 -124zM258 628l57 86l10 6q-22 -1 -30 13t-3 37q6 23 21 36.5t36 13.5q12 0 20 -4t11 -11t3.5 -15.5t-1.5 -18t-6 -18t-9 -15.5l-83 -124z" />
<glyph unicode="&#x201e;" horiz-adv-x="306" d="M-48 -97l57 87l10 6q-22 -1 -30 13t-3 36q13 50 57 50q23 0 30.5 -15t3 -33t-15.5 -33l-83 -124zM79 -97l58 87l9 6q-22 -1 -30 13t-2 36q5 23 20 36.5t37 13.5t29.5 -15t3 -33t-15.5 -33l-82 -124z" />
<glyph unicode="&#x2020;" horiz-adv-x="581" d="M120 526l11 45l217 -8l54 247h45l-68 -247l214 8l-11 -45l-210 7l-169 -713h-46l183 713z" />
<glyph unicode="&#x2021;" horiz-adv-x="572" d="M5 59l11 45l210 -8l108 437l-213 -7l11 45l210 -8l53 246h45l-68 -246l214 8l-11 -45l-210 7l-108 -437l213 8l-11 -45l-210 8l-53 -246h-45l68 246z" />
<glyph unicode="&#x2022;" horiz-adv-x="305" d="M31 405q10 45 50 77t85 32q44 0 68 -32t13 -77q-11 -46 -51 -78t-84 -32q-45 0 -68.5 32t-12.5 78z" />
<glyph unicode="&#x2026;" horiz-adv-x="654" d="M0 40q12 50 57 50t32 -50q-12 -50 -57 -50q-21 0 -29.5 13.5t-2.5 36.5zM218 40q13 50 57 50t33 -50q-13 -50 -58 -50q-44 0 -32 50zM436 40q13 50 57 50t33 -50q-13 -50 -58 -50q-44 0 -32 50z" />
<glyph unicode="&#x202f;" horiz-adv-x="240" />
<glyph unicode="&#x2030;" horiz-adv-x="1117" d="M106 590q25 103 82 166.5t128 63.5q72 0 97.5 -64.5t-0.5 -165.5q-25 -103 -80 -163.5t-129 -60.5q-73 0 -98.5 62t0.5 162zM149 -10l486 830h41l-486 -830h-41zM149 590q-22 -71 -7 -126t72 -55q111 0 157 181q45 187 -65 187q-111 0 -157 -187zM408 213q25 102 82 166 t128 64q73 0 98.5 -64.5t-1.5 -165.5q-25 -103 -80 -163.5t-129 -60.5q-73 0 -98.5 61.5t0.5 162.5zM451 213q-22 -71 -7 -126t73 -55q110 0 156 181q45 187 -65 187q-59 0 -98 -52.5t-59 -134.5zM764 213q25 103 82 166.5t128 63.5q72 0 97.5 -64.5t-0.5 -165.5 q-25 -103 -80 -163.5t-129 -60.5q-73 0 -98.5 61.5t0.5 162.5zM807 213q-22 -71 -7.5 -126t72.5 -55q59 0 97.5 50t58.5 131q47 187 -64 187t-157 -187z" />
<glyph unicode="&#x2039;" horiz-adv-x="308" d="M48 255l215 191l23 -32l-122 -110l-62 -47l-1 -4l39 -47l68 -110l-39 -32z" />
<glyph unicode="&#x203a;" horiz-adv-x="308" d="M9 96l122 110l62 47l1 4l-39 47l-68 110l39 32l121 -191l-215 -191z" />
<glyph unicode="&#x2044;" horiz-adv-x="223" d="M-121 -10l486 830h40l-486 -830h-40z" />
<glyph unicode="&#x204a;" horiz-adv-x="420" d="M111 589l10 41h331l-9 -34l-151 -276q-35 -63 -58 -160l-40 -161h-41l42 171q25 100 58 158l103 187l48 73l-1 1h-292z" />
<glyph unicode="&#x205f;" horiz-adv-x="300" />
<glyph unicode="&#x20ac;" horiz-adv-x="697" d="M44 300l12 45h81v11q13 59 26 99l5 10h-83l11 45h88v4.5t1 4.5q55 134 145 217.5t208 83.5q147 0 197 -103l-40 -34q-43 94 -167 94q-100 0 -175 -72.5t-120 -184.5q0 -1 -1.5 -3l-3 -4t-1.5 -3h317l-12 -45h-322v-5.5t-1 -5.5q-13 -39 -25 -99q-4 -8 -4 -10h323l-11 -45 h-319q0 -1 0.5 -5t0.5 -5q-12 -113 27 -185t142 -72q124 0 214 93l23 -33q-103 -103 -247 -103q-123 0 -172.5 84.5t-32.5 221.5l-1 4h-83z" />
<glyph unicode="&#x20b9;" horiz-adv-x="659" d="M145 589l37 38h317q-3 72 -49.5 108.5t-114.5 36.5h-144l37 38h492l-37 -38h-204v-1q69 -43 67 -144h126l-35 -38h-97q-21 -90 -88.5 -148t-153.5 -74v-2q79 -27 101 -131l51 -234h-49l-46 212q-15 71 -57.5 107t-139.5 37h-11l11 43h71q97 0 170.5 50.5t94.5 139.5h-349 z" />
<glyph unicode="&#x2105;" horiz-adv-x="923" d="M131 589q25 102 91 166.5t153 64.5q83 0 122 -52l-39 -33q-33 41 -93 41q-70 -1 -121 -55t-70 -132q-19 -77 4 -128.5t95 -51.5q63 0 121 48l23 -33q-72 -59 -155 -59q-92 0 -124.5 61.5t-6.5 162.5zM216 -10l486 830h43l-486 -830h-43zM478 214q26 104 89 165.5 t154 61.5t123.5 -61.5t7.5 -165.5q-26 -103 -90 -165.5t-154 -62.5t-123 62t-7 166zM522 214q-20 -80 3 -131.5t95 -51.5t120.5 51.5t67.5 131.5t-3.5 131.5t-94.5 51.5t-120.5 -51.5t-67.5 -131.5z" />
<glyph unicode="&#x2116;" horiz-adv-x="1319" d="M20 0l200 810h43l273 -630l39 -106h2l182 736h44l-200 -810h-43l-279 644l-33 91h-2l-182 -735h-44zM721 0l9 38h405l-10 -38h-404zM789 420q34 135 112.5 212.5t196.5 77.5q119 0 159 -77t7 -213q-33 -133 -112.5 -211t-196.5 -78q-119 0 -159 77t-7 212zM831 420 q-13 -51 -13.5 -94t12.5 -78.5t47.5 -55.5t87.5 -20q103 0 166.5 69.5t90.5 178.5q14 68 12 123t-39.5 90t-107.5 35q-104 0 -166.5 -69t-89.5 -179z" />
<glyph unicode="&#x2122;" horiz-adv-x="785" d="M154 784l6 26h322l-6 -26h-150l1 -4l-92 -375h-27l93 375l3 4h-150zM413 405l100 405h24l64 -295l11 -55h2q47 70 139 198.5t108 151.5h25l-100 -405h-27l85 344h-1q-34 -54 -74.5 -112.5t-91.5 -128.5t-78 -109h-2l-58 268l-13 82h-2l-84 -344h-27z" />
<glyph unicode="&#x2126;" horiz-adv-x="830" d="M-7 0l11 43h186v2q-76 57 -101 153.5t5 213.5q40 163 173.5 285t281.5 122q73 0 131 -33.5t89 -90t41.5 -130t-11.5 -152.5q-28 -118 -100 -214t-173 -154l-1 -2h185l-11 -43h-259l10 41q116 47 196.5 147t110.5 223q36 146 -25.5 254t-193.5 108q-136 0 -251 -107 t-152 -256q-29 -121 3 -224t126 -146l-10 -40h-261z" />
<glyph unicode="&#x2153;" horiz-adv-x="713" d="M53 -10l486 830h41l-486 -830h-41zM134 704l127 106h34l-113 -454h-38l89 363l15 41h-2l-33 -34l-59 -49zM304 53l35 30q34 -56 102 -56q56 0 93.5 28t45.5 64q9 37 -12 62.5t-68 30.5q-24 2 -57 2l9 37q6 0 19 0.5t22.5 1t13.5 1.5q50 6 81 30.5t38 54.5q8 34 -13 55.5 t-75 21.5q-67 0 -126 -52l-20 30q70 60 156 60q73 0 100.5 -35t15.5 -83q-8 -33 -39 -61.5t-72 -39.5l-1 -2q39 -8 58.5 -39.5t9.5 -71.5q-13 -52 -62.5 -92t-125.5 -40q-86 0 -128 63z" />
<glyph unicode="&#x2154;" horiz-adv-x="856" d="M74 361l16 64q31 122 132 160l64 24q49 19 73 39t31 49q8 34 -8.5 56.5t-65.5 22.5q-61 0 -117 -55l-21 31q70 63 148 63q66 0 91 -34.5t12 -83.5q-20 -82 -130 -123l-70 -26q-81 -30 -103 -133l-3 -13l-2 -2h234l-9 -39h-272zM187 -10l486 830h41l-486 -830h-41zM447 53 l35 30q34 -56 102 -56q56 0 93.5 28t45.5 64q9 37 -12 62.5t-68 30.5q-24 2 -57 2l9 37q6 0 19 0.5t22.5 1t13.5 1.5q50 6 81 30.5t38 54.5q8 34 -13 55.5t-75 21.5q-67 0 -126 -52l-20 30q70 60 156 60q73 0 100.5 -35t15.5 -83q-8 -33 -39 -61.5t-72 -39.5l-1 -2 q39 -8 58.5 -39.5t9.5 -71.5q-13 -52 -62.5 -92t-125.5 -40q-86 0 -128 63z" />
<glyph unicode="&#x2202;" horiz-adv-x="600" d="M55 281q32 131 113.5 210t198.5 79q142 0 169 -132h2q87 365 -113 365q-91 0 -177 -60l-22 32q101 70 210 70q72 0 113 -34t52 -100.5t2 -150.5t-37 -198q-92 -370 -341 -370q-117 0 -159.5 78.5t-10.5 210.5zM97 281q-14 -47 -12 -92t15 -80.5t47.5 -57.5t87.5 -22 q101 0 167 73t92 179q27 111 -4.5 181.5t-130.5 70.5q-70 0 -126 -37.5t-87.5 -92t-48.5 -122.5z" />
<glyph unicode="&#x2206;" horiz-adv-x="781" d="M-30 0l531 810h37l134 -810h-702zM36 43h591l-5 7l-106 643l-7 68h-1l-42 -68l-421 -643z" />
<glyph unicode="&#x220f;" horiz-adv-x="718" d="M26 -211l241 973l4 5h-97l11 42h609l-10 -42h-97l2 -5l-241 -973h-44l241 973l4 5h-340l2 -5l-241 -973h-44z" />
<glyph unicode="&#x2211;" horiz-adv-x="684" d="M-67 -210l10 40l496 488l1 7l-265 445l10 39h562l-10 -42l-514 1l51 -69l225 -378l-426 -419l-79 -68l524 -1l-10 -43h-575z" />
<glyph unicode="&#x2212;" horiz-adv-x="668" d="M114 383l11 44h490l-11 -44h-490z" />
<glyph unicode="&#x221a;" horiz-adv-x="550" d="M7 310l10 40h152l21 -372h3l474 941h40l-507 -1010h-48l-23 394l7 7h-129z" />
<glyph unicode="&#x221e;" horiz-adv-x="829" d="M91 409q20 84 76.5 138t127.5 54q53 0 87 -37.5t71 -125.5q76 89 129 126t110 37q71 0 100.5 -53t8.5 -139q-21 -85 -77 -139.5t-126 -54.5q-52 0 -86.5 37.5t-70.5 124.5q-75 -83 -132 -122.5t-109 -39.5q-71 0 -100.5 54t-8.5 140zM132 408q-14 -60 7.5 -106t75.5 -46 q87 0 210 153q-31 74 -61 112.5t-75 38.5q-54 0 -98 -45.5t-59 -106.5zM473 409q9 -28 19 -50q42 -103 111 -103q54 0 98 45.5t59 106.5t-7 106.5t-76 45.5q-69 0 -154 -94q-24 -26 -50 -57z" />
<glyph unicode="&#x222b;" horiz-adv-x="408" d="M-100 -185l15 29q21 -7 41 -7q104 0 145 109q10 30 29 106l155 628q8 34 24 93q24 83 67 121.5t117 38.5q29 0 57 -13l-17 -28q-19 10 -44 10q-99 0 -135 -106q-6 -15 -42 -159l-138 -558q-22 -94 -39 -144q-46 -127 -183 -127q-12 0 -52 7z" />
<glyph unicode="&#x2248;" horiz-adv-x="646" d="M74 264q25 44 70.5 74t94.5 30q42 0 93 -44q25 -23 47 -37q25 -17 52 -17q77 0 129 89l21 -27q-28 -50 -72 -77t-94 -27q-42 0 -86 38q-39 33 -52 41q-26 18 -54 18q-33 0 -68.5 -24.5t-59.5 -64.5zM127 477q24 44 69.5 74t94.5 30q24 0 48.5 -13t53.5 -37.5t38 -30.5 q27 -17 52 -17q78 0 130 89l21 -27q-28 -50 -72.5 -77t-93.5 -27q-42 0 -86 38q-36 30 -52 41q-26 18 -54 18q-34 0 -69 -24.5t-60 -64.5z" />
<glyph unicode="&#x2260;" horiz-adv-x="668" d="M84 258l10 44h178l-1 5l148 196l8 5h-282l11 44h304l-1 5l100 132h42l-101 -132l-8 -5h154l-11 -44h-176l1 -5l-146 -196l-8 -5h278l-10 -44h-302l1 -4l-100 -134h-43l101 134l7 4h-154z" />
<glyph unicode="&#x2264;" horiz-adv-x="444" d="M1 64l10 42h301l-11 -42h-300zM101 457l338 291l23 -31l-234 -199l-73 -56l26 -29q23 -33 49 -70.5t57 -82.5t49 -71l-39 -32z" />
<glyph unicode="&#x2265;" horiz-adv-x="444" d="M36 64l10 42h301l-11 -42h-300zM72 209l234 197l72 56l-25 29q-24 33 -50 70.5t-56.5 83.5t-48.5 72l38 31l195 -291l-335 -280z" />
<glyph unicode="&#x25ca;" horiz-adv-x="743" d="M85 405l420 415l214 -415l-419 -415zM136 405l181 -346l352 346l-181 347z" />
<glyph unicode="&#x25fc;" horiz-adv-x="630" d="M0 0v630h630v-630h-630z" />
<glyph unicode="&#xf8ff;" horiz-adv-x="827" d="M0 0v810h306l-281 -403l283 -407h-308zM364 407l280 403h183v-810h-181z" />
<glyph unicode="&#xfb01;" horiz-adv-x="571" d="M-209 -204l10 41q30 -11 64 -11q66 0 106.5 38.5t63.5 133.5l145 587l5 5h-79l10 39h78l-2 5l7 28q21 86 79 134.5t141 48.5q33 0 58 -10l-9 -39q-31 9 -57 9q-67 0 -110 -38t-60 -107l-6 -26l-4 -5h337l-155 -629h-43l146 590h-295l2 -5l-145 -585l-1 -5 q-28 -114 -80.5 -162t-135.5 -48q-39 0 -70 11zM552 801q12 45 48 45q38 0 26 -45q-12 -46 -48 -46t-26 46z" />
<glyph unicode="&#xfb02;" horiz-adv-x="571" d="M-209 -204l10 41q30 -11 64 -11q66 0 106.5 38.5t63.5 133.5l145 587l5 5h-79l10 39h78l-2 5l7 28q20 83 75.5 130t137.5 47h207l-207 -839h-42l198 800h-158q-135 0 -169 -140l-6 -26l-4 -5h196l-10 -39h-196l2 -5l-145 -585l-1 -5q-28 -114 -80.5 -162t-135.5 -48 q-39 0 -70 11z" />
</font>
</defs>
</svg>
