<?xml version="1.0" standalone="no"?>
<!DOCTYPE svg PUBLIC "-//W3C//DTD SVG 1.1//EN" "http://www.w3.org/Graphics/SVG/1.1/DTD/svg11.dtd" >
<svg xmlns="http://www.w3.org/2000/svg">
<metadata></metadata>
<defs>
<font id="sinkin_sans600SBdIt" horiz-adv-x="770" >
<font-face units-per-em="1000" ascent="810" descent="-190" />
<missing-glyph horiz-adv-x="307" />
<glyph unicode="&#x9;" horiz-adv-x="990" />
<glyph unicode="&#xa;" horiz-adv-x="990" />
<glyph unicode="&#xd;" horiz-adv-x="990" />
<glyph horiz-adv-x="990" />
<glyph horiz-adv-x="990" />
<glyph horiz-adv-x="990" />
<glyph horiz-adv-x="990" />
<glyph horiz-adv-x="990" />
<glyph horiz-adv-x="990" />
<glyph horiz-adv-x="990" />
<glyph unicode=" "  horiz-adv-x="307" />
<glyph unicode="&#x09;" horiz-adv-x="307" />
<glyph unicode="&#xa0;" horiz-adv-x="307" />
<glyph unicode="!" horiz-adv-x="310" d="M21 85q11 43 39.5 68.5t69.5 25.5q42 0 58 -25.5t5 -68.5q-11 -44 -40 -69.5t-70 -25.5t-57 25.5t-5 69.5zM89 231l113 579h167l-173 -579h-107z" />
<glyph unicode="&#x22;" horiz-adv-x="468" d="M139 521l53 319h142l-103 -319h-92zM356 521l54 319h142l-104 -319h-92z" />
<glyph unicode="#" horiz-adv-x="766" d="M6 0l93 187l16 13h-105l27 110h132l-2 13l84 164l14 13h-105l27 110h132l-2 12l95 188h113l-94 -188l-14 -12h199l-1 13l94 187h113l-95 -187l-13 -13h104l-27 -110h-134l3 -13l-82 -163l-14 -14h104l-28 -110h-132v-13l-92 -187h-113l93 188l16 12h-201l1 -13l-93 -187 h-113zM267 310h199l-1 14l82 163l15 13h-202l2 -13l-82 -164z" />
<glyph unicode="$" horiz-adv-x="774" d="M16 127l131 96q79 -89 153 -103l-3 16l42 170l11 14q-3 1 -12 3t-10 2q-33 10 -57.5 19t-50 22.5t-40 28t-27.5 35t-12.5 44.5t5.5 55q20 82 102 141.5t206 71.5l-4 12l21 85h125l-22 -86l-10 -14q135 -16 212 -131l-132 -98q-46 76 -113 95l2 -18l-36 -148l-10 -12 q29 -7 36 -10q102 -27 142 -82t21 -129q-20 -85 -100.5 -147.5t-207.5 -71.5l4 -14l-21 -83h-124l20 84l12 14q-168 18 -253 139zM292 533q-5 -21 14.5 -39.5t76.5 -35.5l-2 16l29 119l12 17q-57 -7 -91 -30.5t-39 -46.5zM411 120q59 9 90.5 31.5t38.5 49.5q6 24 -14 49 t-73 40l3 -17l-34 -137z" />
<glyph unicode="%" horiz-adv-x="947" d="M107 592q24 97 89.5 163t156.5 66q93 0 126 -65t9 -164q-24 -98 -88 -161t-158 -63t-127 63t-8 161zM202 -10l492 830h113l-492 -830h-113zM223 592q-29 -116 45 -116t103 116q29 121 -44 121q-74 0 -104 -121zM519 214q24 97 89.5 163t157.5 66q93 0 126 -65t9 -164 q-25 -98 -89 -161t-158 -63q-93 0 -126 63t-9 161zM636 214q-29 -116 45 -116t103 116q29 121 -44 121q-74 0 -104 -121z" />
<glyph unicode="&#x26;" horiz-adv-x="821" d="M39 219q18 74 80.5 130t163.5 103l-14 7q-11 19 -17.5 32.5t-12.5 33t-5.5 41t6.5 47.5q21 85 99 145t167 60q90 0 139.5 -59.5t28.5 -144.5q-18 -71 -68.5 -118t-135.5 -86l13 -6l97 -146l3 -14q15 32 15 58h149l-9 -36q-18 -72 -84 -135l13 -4l85 -128h-180l-24 37 l3 15q-106 -63 -249 -63q-89 0 -154 25.5t-96 78.5t-13 127zM186 219q-11 -47 26.5 -73.5t121.5 -27.5q95 0 149 34l-15 5l-124 186l1 15l-43 -23q-47 -25 -76.5 -51t-39.5 -65zM375 611q-2 -7 -2 -14t1 -13t3.5 -13t5 -12t6.5 -12.5t6.5 -11t7 -10.5t6.5 -9l-2 -14 q41 17 66 32t41 34t22 44q8 31 -9.5 53t-51.5 22t-63 -22t-37 -54z" />
<glyph unicode="'" horiz-adv-x="250" d="M139 521l53 319h142l-103 -319h-92z" />
<glyph unicode="(" horiz-adv-x="318" d="M59 358q69 280 282 549h121q-192 -263 -258 -536q-77 -309 -13 -562h-121q-80 272 -11 549z" />
<glyph unicode=")" horiz-adv-x="318" d="M-107 -191q188 250 266 562q67 277 6 536h121q80 -269 11 -549q-69 -278 -282 -549h-122z" />
<glyph unicode="*" horiz-adv-x="575" d="M134 517l1 92l154 26l-100 87l76 73l86 -100l29 150h93l-45 -150l135 100l40 -74l-143 -86l141 -26l-43 -92l-133 42l39 -132l-94 -41l-23 139l-91 -139l-74 41l104 131z" />
<glyph unicode="+" horiz-adv-x="688" d="M104 341l32 128h199l-4 14l49 200h126l-49 -200l-11 -14h199l-31 -128h-200l4 -15l-49 -198h-126l49 198l12 15h-200z" />
<glyph unicode="," horiz-adv-x="301" d="M-50 -161l92 138l19 15q-29 5 -44 29.5t-6 62.5q11 44 39.5 69.5t69.5 25.5q42 0 58 -25.5t5 -69.5q-7 -26 -35 -69l-137 -204z" />
<glyph unicode="-" horiz-adv-x="411" d="M27 270l32 130h352l-33 -130h-351z" />
<glyph unicode="." horiz-adv-x="301" d="M11 85q11 43 39.5 68.5t69.5 25.5q42 0 58 -25.5t5 -68.5q-11 -44 -40 -69.5t-70 -25.5t-57 25.5t-5 69.5z" />
<glyph unicode="/" horiz-adv-x="271" d="M-151 -50l512 910h123l-512 -910h-123z" />
<glyph unicode="0" horiz-adv-x="797" d="M84 400q46 185 165.5 302.5t281.5 117.5q110 0 176.5 -56t79 -149t-14.5 -215q-46 -185 -162 -297.5t-284 -112.5q-166 0 -227 112.5t-15 297.5zM230 400q-19 -84 -16 -146t39.5 -97t104.5 -35q198 0 268 278q71 288 -127 288q-100 0 -168 -77t-101 -211z" />
<glyph unicode="1" horiz-adv-x="450" d="M99 601l260 209h122l-200 -810h-143l133 540l30 85h-2l-65 -66l-67 -54z" />
<glyph unicode="2" horiz-adv-x="724" d="M-12 0l34 149q21 93 95.5 169.5t192.5 112.5l117 36q88 27 125 55t46 65q11 43 -16.5 72t-111.5 29q-120 0 -233 -110l-80 101q158 141 346 141q147 0 206.5 -68t35.5 -165q-41 -169 -282 -243l-138 -42q-64 -20 -104.5 -60.5t-54.5 -95.5l-17 -14h483l-33 -132h-611z " />
<glyph unicode="3" horiz-adv-x="757" d="M17 131l131 100q67 -109 188 -109q94 0 146 35t63 78q12 49 -19.5 81t-114.5 40l-146 4l32 128q116 2 142 5q86 8 127.5 39t51.5 68q6 14 0.5 29.5t-17.5 28t-44.5 21t-80.5 8.5q-118 0 -233 -102l-81 101q160 134 346 134q154 0 217 -63t40 -157q-28 -112 -163 -174 l-1 -2q57 -17 82 -68.5t8 -120.5q-25 -100 -126 -172.5t-261 -72.5q-189 0 -287 141z" />
<glyph unicode="4" horiz-adv-x="762" d="M14 179l25 100l597 531h113l-119 -485l-12 -14h112l-32 -132h-112l4 -14l-41 -165h-143l41 165l11 14h-444zM241 311q190 -1 250 0l-5 14l45 180l27 83h-2q-34 -34 -72 -69t-90.5 -81t-74.5 -66l-77 -59z" />
<glyph unicode="5" horiz-adv-x="769" d="M23 152l126 98q35 -71 80 -100t112 -29q96 0 153 44.5t72 106.5q15 61 -18 106.5t-122 45.5q-65 0 -122 -24.5t-121 -81.5l-70 86l151 406h524l-33 -132h-412l8 -14l-31 -82l-31 -64v-1q68 38 170 38q79 0 136.5 -23.5t85.5 -62.5t38 -90t-6 -107q-29 -119 -134.5 -201 t-269.5 -82q-106 0 -171.5 36.5t-114.5 126.5z" />
<glyph unicode="6" horiz-adv-x="791" d="M84 401q51 193 178.5 306t283.5 113q93 0 154 -29.5t106 -95.5l-129 -104q-28 51 -67 74t-97 23q-84 0 -152 -54.5t-107 -151.5h2q45 33 105 53.5t118 20.5q156 0 221.5 -82.5t33.5 -201.5q-30 -117 -137 -200t-267 -83q-114 0 -181.5 53.5t-80.5 145t16 213.5zM218 271 q-15 -57 21 -103.5t125 -46.5q85 0 147.5 46.5t78.5 104.5q15 58 -20.5 105t-124.5 47q-86 0 -149 -48t-78 -105z" />
<glyph unicode="7" horiz-adv-x="703" d="M128 678l32 132h644l-26 -106l-292 -277q-108 -105 -150 -272l-38 -155h-144l40 161q27 108 72.5 187.5t121.5 152.5l117 112l79 63v2h-456z" />
<glyph unicode="8" horiz-adv-x="794" d="M44 239q32 126 191 193l1 2q-44 20 -67 62t-9 98q24 96 119 161t249 65q155 0 219.5 -65t41.5 -161q-13 -54 -58 -95t-102 -65l-1 -2q58 -19 88 -72t13 -121q-25 -100 -134 -174.5t-270 -74.5q-66 0 -119.5 14t-86.5 38.5t-54.5 56.5t-24.5 67.5t4 72.5zM191 241 q-10 -42 30.5 -80.5t135.5 -38.5q96 0 156 38.5t70 80.5q12 49 -31 86.5t-135 37.5q-91 0 -152.5 -37.5t-73.5 -86.5zM305 588q-9 -35 25 -68.5t117 -33.5t133.5 33.5t59.5 68.5q10 38 -21 68.5t-121 30.5t-136.5 -30.5t-56.5 -68.5z" />
<glyph unicode="9" horiz-adv-x="791" d="M41 115l129 104q54 -98 172 -98q84 0 151 55t106 153h-2q-45 -33 -105.5 -54t-118.5 -21q-156 0 -221.5 82.5t-33.5 201.5q30 116 137 199t267 83q171 0 233 -113t13 -298q-51 -193 -176.5 -306.5t-281.5 -113.5q-96 0 -159 29t-110 97zM262 537q-15 -58 20.5 -105 t124.5 -47q87 0 149.5 48t77.5 106q15 57 -21 103t-124 46q-86 0 -148.5 -46.5t-78.5 -104.5z" />
<glyph unicode=":" horiz-adv-x="310" d="M21 85q11 43 39.5 68.5t69.5 25.5q42 0 58 -25.5t5 -68.5q-11 -44 -40 -69.5t-70 -25.5t-57 25.5t-5 69.5zM127 516q11 43 39.5 68.5t69.5 25.5q42 0 58 -25.5t5 -68.5t-39.5 -69t-69.5 -26q-42 0 -58 25.5t-5 69.5z" />
<glyph unicode=";" horiz-adv-x="311" d="M-40 -161l92 138l19 15q-29 5 -44 29.5t-6 62.5q11 44 39.5 69.5t69.5 25.5q42 0 58 -25.5t5 -69.5q-7 -26 -35 -69l-137 -204zM127 516q11 43 39.5 68.5t69.5 25.5q42 0 58 -25.5t5 -68.5t-39.5 -69t-69.5 -26q-42 0 -58 25.5t-5 69.5z" />
<glyph unicode="&#x3c;" horiz-adv-x="537" d="M85 405l378 305l68 -93l-207 -167l-65 -44v-2l43 -44l124 -167l-114 -93z" />
<glyph unicode="=" horiz-adv-x="688" d="M74 220l32 130h510l-32 -130h-510zM133 460l32 130h510l-32 -130h-510z" />
<glyph unicode="&#x3e;" horiz-adv-x="537" d="M67 193l207 167l65 44l1 2l-43 44l-125 167l114 93l227 -305l-377 -305z" />
<glyph unicode="?" horiz-adv-x="691" d="M153 681q161 139 340 139q123 0 183.5 -66.5t39.5 -150.5q-17 -68 -71.5 -119.5t-126.5 -75.5l-41 -14q-56 -19 -75.5 -42t-34.5 -85l-9 -36h-143l11 44q23 96 71 151t162 93l25 8q42 14 61 31.5t25 44.5q8 30 -22 59t-88 29q-60 0 -110.5 -24.5t-111.5 -82.5zM165 85 q11 43 39.5 68.5t69.5 25.5t57 -25.5t6 -68.5q-11 -44 -40 -69.5t-70 -25.5t-57 25.5t-5 69.5z" />
<glyph unicode="@" horiz-adv-x="980" d="M103 419q44 175 204 300.5t334 125.5q109 0 190 -52.5t114 -145.5t6 -204q-27 -106 -113.5 -196t-193.5 -90q-70 0 -94 61h-2q-79 -62 -168 -62q-87 0 -118.5 60.5t-10.5 143.5q26 106 122.5 193t207.5 87q26 0 52.5 -13t34.5 -31h2l18 33h114l-135 -259q-20 -37 -29 -74 q-4 -18 7 -31t31 -13q63 0 110.5 58.5t65.5 131.5q32 128 -36 222t-194 94q-138 0 -262.5 -101.5t-159.5 -241.5q-36 -148 36 -250.5t216 -102.5q92 0 203 63l50 -64q-140 -87 -269 -87q-190 0 -285 126t-48 319zM369 372q-29 -118 53 -118q59 0 108.5 57t67.5 130 q25 104 -51 104q-57 0 -110 -56t-68 -117z" />
<glyph unicode="A" horiz-adv-x="910" d="M-54 0l574 810h132l174 -810h-157l-38 180l11 13h-416l4 -13l-127 -180h-157zM325 325h282l-10 13l-49 227l-4 67h-2l-39 -67l-161 -227z" />
<glyph unicode="B" horiz-adv-x="829" d="M20 0l200 810h392q128 0 181.5 -66t29.5 -163q-25 -105 -116 -157v-2q48 -16 66 -65.5t1 -116.5q-28 -112 -121 -176t-232 -64h-401zM182 132h271q81 0 121.5 27t53.5 81q13 53 -15.5 81.5t-106.5 28.5h-270l10 -14l-47 -190zM269 482h252q130 0 156 99q12 49 -13 73 t-95 24h-252l10 -14l-41 -168z" />
<glyph unicode="C" horiz-adv-x="826" d="M84 400q46 187 185 303.5t336 116.5q199 0 292 -131l-129 -105q-31 54 -76 79t-119 25q-137 0 -223.5 -79t-119.5 -209q-31 -127 16.5 -202.5t186.5 -75.5q74 0 132.5 25t115.5 80l77 -103q-161 -134 -358 -134q-201 0 -281.5 111.5t-34.5 298.5z" />
<glyph unicode="D" horiz-adv-x="864" d="M20 0l200 810h327q393 0 293 -405q-15 -62 -36 -114.5t-60 -108.5t-90 -94t-128.5 -63t-173.5 -25h-332zM182 132h193q79 0 135.5 20t92 60t55.5 84.5t36 108.5q12 50 16 87.5t-3.5 74t-29 59.5t-65 37.5t-107.5 14.5h-188l10 -14l-128 -518z" />
<glyph unicode="E" horiz-adv-x="797" d="M20 0l200 810h638l-32 -132h-509l10 -14l-44 -179l-17 -14h461l-32 -132h-462l11 -14l-45 -179l-17 -14h509l-33 -132h-638z" />
<glyph unicode="F" horiz-adv-x="738" d="M20 0l200 810h618l-32 -132h-489l10 -14l-49 -198l-17 -14h442l-33 -132h-441l10 -14l-76 -306h-143z" />
<glyph unicode="G" horiz-adv-x="926" d="M83 397q48 193 188 308t337 115q207 0 297 -124l-127 -104q-59 96 -202 96q-137 0 -224.5 -75.5t-121.5 -215.5q-68 -275 201 -275q98 0 176.5 58t105.5 146l17 14h-274l33 132h395l-117 -473h-123l23 91q-46 -44 -120 -72t-149 -28q-197 0 -279 109.5t-36 297.5z" />
<glyph unicode="H" horiz-adv-x="886" d="M20 0l200 810h143l-80 -325l-17 -14h448l-10 14l80 325h144l-200 -810h-144l80 325l18 14h-449l11 -14l-81 -325h-143z" />
<glyph unicode="I" horiz-adv-x="332" d="M25 0l200 810h143l-200 -810h-143z" />
<glyph unicode="J" horiz-adv-x="653" d="M-40 117l124 102q51 -97 135 -97q71 0 129 41t81 135l127 512h143l-125 -507q-40 -162 -146 -237.5t-242 -75.5q-151 0 -226 127z" />
<glyph unicode="K" horiz-adv-x="846" d="M20 0l200 810h143l-200 -810h-143zM273 409l487 400h203l-500 -400v-2l314 -407h-208z" />
<glyph unicode="L" horiz-adv-x="696" d="M20 0l200 810h143l-164 -664l-17 -14h462l-32 -132h-592z" />
<glyph unicode="M" horiz-adv-x="1014" d="M20 -1l200 811h119l144 -468l16 -98h2l62 98l377 468h116l-200 -811h-144l124 501h-2l-55 -86l-342 -425h-4l-133 425l-12 84h-2l-123 -499h-143z" />
<glyph unicode="N" horiz-adv-x="886" d="M20 0l200 810h123l268 -491l28 -89h2l143 580h144l-200 -810h-124l-268 492l-28 88h-1l-144 -580h-143z" />
<glyph unicode="O" horiz-adv-x="910" d="M84 400q47 188 179.5 304t324.5 116t268 -115.5t29 -304.5q-46 -186 -179 -298t-323 -112q-193 0 -269 111.5t-30 298.5zM230 400q-31 -127 13 -202.5t173 -75.5q130 0 210.5 75.5t111.5 202.5q17 60 14 112.5t-22 91.5t-64 61.5t-111 22.5q-128 0 -210 -78.5 t-115 -209.5z" />
<glyph unicode="P" horiz-adv-x="814" d="M20 0l200 810h391q135 0 194 -71.5t31 -187.5q-28 -112 -123.5 -185.5t-230.5 -73.5h-260l10 -14l-69 -278h-143zM254 424h260q73 0 117 34.5t58 92.5q16 61 -11 94t-100 33h-261l10 -14l-56 -226z" />
<glyph unicode="Q" horiz-adv-x="910" d="M84 400q47 188 179.5 304t324.5 116t268 -115.5t29 -304.5q-44 -179 -168 -289l82 -111l-108 -87l-91 122q-99 -45 -217 -45q-193 0 -269 111.5t-30 298.5zM230 400q-31 -127 13 -202.5t173 -75.5q51 0 93 12l20 -2l-77 103l108 87l88 -117l3 17q60 67 87 178 q17 60 14 112.5t-22 91.5t-64 61.5t-111 22.5q-128 0 -210 -78.5t-115 -209.5z" />
<glyph unicode="R" horiz-adv-x="843" d="M20 0l200 810h376q125 0 193.5 -64.5t39.5 -184.5q-16 -65 -70.5 -119.5t-120.5 -81.5l-1 -2q20 -9 37.5 -32.5t24.5 -53.5l70 -272h-161l-54 214q-13 53 -49.5 77t-107.5 24h-170l11 -14l-75 -301h-143zM260 446h235q77 0 125.5 32t61.5 83q15 61 -16.5 89t-102.5 28 h-246l10 -14l-50 -203z" />
<glyph unicode="S" horiz-adv-x="817" d="M13 133l128 103q57 -63 111.5 -88.5t127.5 -25.5q102 0 159 30t68 73q8 30 -17.5 58t-93.5 46q-22 6 -68 19q-30 8 -46 12t-44.5 12.5t-44 15t-39.5 17t-36.5 20.5t-29 23t-24 27.5t-14 32t-6 38.5t6.5 44q24 98 128.5 164t266.5 66q202 0 302 -136l-128 -104 q-68 108 -206 108q-101 0 -154 -28.5t-62 -65.5q-7 -30 24.5 -52t126.5 -49q11 -3 121 -34q113 -30 158.5 -89.5t26.5 -138.5q-26 -102 -129 -171.5t-275 -69.5q-230 0 -338 143z" />
<glyph unicode="T" horiz-adv-x="738" d="M118 678l32 132h698l-32 -132h-285l4 -14l-164 -664h-143l164 664l11 14h-285z" />
<glyph unicode="U" horiz-adv-x="898" d="M107 373l108 437h143l-107 -436q-32 -127 4 -189.5t155 -62.5q117 0 184.5 63t98.5 189l108 436h143l-108 -437q-46 -186 -160.5 -284.5t-297.5 -98.5q-184 0 -250.5 98t-20.5 285z" />
<glyph unicode="V" horiz-adv-x="868" d="M145 810h160l99 -556l4 -80h2l43 80l373 556h158l-553 -810h-133z" />
<glyph unicode="W" horiz-adv-x="1095" d="M155 810h153l13 -524l-6 -83h2l34 83l274 524h107l16 -524l-6 -81h2l34 81l273 524h150l-427 -810h-161l-12 440l6 87h-2l-37 -87l-230 -440h-156z" />
<glyph unicode="X" horiz-adv-x="836" d="M-49 0l409 405l-210 405h181l119 -230l25 -68h2l57 68l233 230h179l-407 -404l208 -406h-181l-115 225l-27 77h-2l-66 -77l-226 -225h-179z" />
<glyph unicode="Y" horiz-adv-x="870" d="M145 810h180l125 -270l28 -83h2l68 83l259 270h179l-465 -474l-83 -336h-144l83 336z" />
<glyph unicode="Z" horiz-adv-x="827" d="M-10 0l27 107l558 500l89 69v2h-497l33 132h693l-26 -106l-555 -500l-88 -70v-2h507l-33 -132h-708z" />
<glyph unicode="[" horiz-adv-x="306" d="M-57 -190l271 1097h227l-28 -113h-110l-215 -870h110l-28 -114h-227z" />
<glyph unicode="\" horiz-adv-x="350" d="M113 860h123l63 -910h-123z" />
<glyph unicode="]" horiz-adv-x="307" d="M-96 -190l28 114h111l214 870h-111l28 113h228l-270 -1097h-228z" />
<glyph unicode="^" horiz-adv-x="711" d="M107 415l329 395h100l134 -395h-150l-60 185l-10 59h-2l-39 -59l-151 -185h-151z" />
<glyph unicode="_" horiz-adv-x="681" d="M-126 -190l30 120h700l-29 -120h-701z" />
<glyph unicode="`" horiz-adv-x="738" d="M373 881l107 87l131 -217l-69 -56z" />
<glyph unicode="a" d="M63 314q36 146 136 236t247 90q56 0 99.5 -18t65.5 -49h2l14 57h141l-156 -631h-141l13 52h-2q-80 -61 -197 -61q-145 0 -201.5 89.5t-20.5 234.5zM203 314q-48 -199 128 -199q91 0 147 53t79 146q50 201 -127 201q-176 0 -227 -201z" />
<glyph unicode="b" d="M20 -1l207 841h141l-66 -267h2q80 67 198 67q146 0 202 -90t20 -236q-36 -145 -137 -234.5t-246 -89.5q-116 0 -166 61h-2l-13 -52h-140zM230 314q-23 -93 7 -146t121 -53q176 0 226 199q23 94 -7 147.5t-121 53.5q-176 0 -226 -201z" />
<glyph unicode="c" horiz-adv-x="658" d="M62 310q35 143 144 236.5t260 93.5q152 0 226 -93l-119 -97q-50 65 -138 65q-88 -1 -149.5 -58.5t-83.5 -146.5q-22 -87 10 -141t123 -54q85 0 175 69l71 -97q-130 -97 -277 -97q-106 0 -170 43t-78 114.5t6 162.5z" />
<glyph unicode="d" d="M63 314q36 146 136 236t247 90q56 0 99.5 -18t65.5 -49h2l66 267h140l-207 -841h-141l13 52h-2q-80 -61 -197 -61q-145 0 -201.5 89.5t-20.5 234.5zM203 314q-48 -199 128 -199q91 0 147 53t79 146q50 201 -127 201q-176 0 -227 -201z" />
<glyph unicode="e" horiz-adv-x="748" d="M62 310q35 146 144 238t259 92q155 0 213 -91.5t22 -238.5q-4 -19 -17 -56h-500l10 -14q0 -127 146 -127q89 0 185 70l70 -94q-137 -99 -285 -99q-160 0 -221.5 89t-25.5 231zM213 375h369l-10 14q-2 127 -138 127t-203 -127z" />
<glyph unicode="f" horiz-adv-x="457" d="M-198 -191l32 130q50 -27 104 -27q45 0 70 21.5t38 72.5l121 492l11 14h-91l29 117h91l-4 14q21 86 95 144t179 58q59 0 96 -17l-30 -121q-39 17 -86 17q-45 0 -74.5 -21.5t-38.5 -59.5l-10 -14h190l-29 -117l-191 -1l4 -14l-123 -497q-54 -215 -267 -215q-69 0 -116 24z " />
<glyph unicode="g" d="M-7 -120l122 99q75 -69 167 -69q166 0 205 154l7 27h-2q-82 -56 -189 -56q-150 0 -209.5 81.5t-25.5 218.5q32 130 135 217.5t249 87.5q51 0 94 -16.5t66 -44.5h2l13 51h141l-140 -566q-33 -134 -129 -206.5t-247 -72.5q-153 0 -259 95zM208 335q-20 -81 14.5 -128 t119.5 -47q176 0 220 175q20 82 -13 131t-119 49q-87 0 -144.5 -49.5t-77.5 -130.5z" />
<glyph unicode="h" d="M20 0l207 840h141l-66 -267h2q37 30 91.5 48t105.5 18q131 0 186 -67.5t27 -180.5l-97 -391h-141l93 377q16 67 -6 102t-109 35q-74 0 -130 -39.5t-74 -109.5l-90 -365h-140z" />
<glyph unicode="i" horiz-adv-x="319" d="M20 0l155 630h141l-156 -630h-140zM201 764q9 36 36.5 58.5t62.5 22.5t51 -23t7 -58q-8 -35 -36 -58t-62 -23q-35 0 -51.5 23t-7.5 58z" />
<glyph unicode="j" horiz-adv-x="318" d="M-171 -192l31 125q41 -22 85 -22q24 0 42.5 16t25.5 45l162 658h141l-165 -669q-44 -176 -227 -176q-54 0 -95 23zM200 764q9 36 36.5 58.5t62.5 22.5t51 -23t7 -58q-8 -35 -36 -58t-62 -23q-35 0 -51.5 23t-7.5 58z" />
<glyph unicode="k" horiz-adv-x="725" d="M20 0l207 840h141l-208 -840h-140zM249 317l377 313h176l-388 -309v-2l241 -319h-179z" />
<glyph unicode="l" horiz-adv-x="319" d="M20 0l207 840h141l-208 -840h-140z" />
<glyph unicode="m" horiz-adv-x="1044" d="M20 0l155 631h142l-12 -48h2q71 57 159 57q56 0 95.5 -28t51.5 -73h2q38 44 94.5 72.5t110.5 28.5q114 0 154 -70t8 -200l-92 -370h-141l86 348q24 82 12.5 124.5t-74.5 42.5q-57 0 -98.5 -39.5t-56.5 -100.5l-92 -375h-142l92 370q20 71 6 108t-74 37q-51 0 -95.5 -39.5 t-59.5 -101.5l-92 -374h-141z" />
<glyph unicode="n" d="M20 0l155 631h141l-14 -58h2q39 30 94 48.5t105 18.5q123 0 181.5 -65t29.5 -181l-97 -394h-141l93 378q18 69 -4.5 103t-110.5 34q-74 0 -129.5 -38t-72.5 -107l-92 -370h-140z" />
<glyph unicode="o" horiz-adv-x="748" d="M63 315q35 144 140 234.5t259 90.5q155 0 215 -90t25 -235q-36 -144 -141.5 -234.5t-258.5 -90.5q-155 0 -215 90.5t-24 234.5zM203 315q-22 -91 9.5 -145.5t120.5 -54.5q90 0 147.5 54t80.5 146q23 91 -8.5 145.5t-121.5 54.5t-147.5 -54t-80.5 -146z" />
<glyph unicode="p" d="M-32 -211l207 841h141l-13 -52h2q81 62 197 62q145 0 202 -90t21 -234q-37 -147 -137 -237t-247 -90q-117 0 -165 67h-2l-66 -267h-140zM229 312q-47 -197 128 -197q178 0 226 197q24 94 -5.5 148.5t-121.5 54.5q-90 0 -146.5 -54.5t-80.5 -148.5z" />
<glyph unicode="q" d="M63 316q36 145 137 234.5t246 89.5q115 0 166 -62h2l13 52h141l-208 -841h-140l65 267h-2q-80 -67 -197 -67q-147 0 -203 90t-20 237zM203 312q-49 -197 128 -197q178 0 225 197q24 94 -6 148.5t-120 54.5q-92 0 -148 -54t-79 -149z" />
<glyph unicode="r" horiz-adv-x="469" d="M20 0l155 630h141l-23 -93h2q84 100 209 100h33l-34 -139h-43q-89 0 -144 -44.5t-79 -141.5l-77 -312h-140z" />
<glyph unicode="s" horiz-adv-x="679" d="M11 105l123 99q27 -42 73.5 -66t98.5 -24q73 0 109.5 20.5t42.5 44.5q2 11 0.5 21t-20.5 21t-56 21q-52 13 -103 30q-28 8 -49.5 16t-44 19.5t-36.5 25t-25.5 32t-12 40t4.5 49.5q20 80 104.5 133t211.5 53q164 0 245 -99l-121 -97q-52 71 -155 71q-48 0 -82 -12t-46 -24 t-15 -23q-5 -20 17 -32t87 -30q64 -21 93 -28q178 -50 146 -183q-20 -83 -104 -138.5t-218 -55.5q-81 0 -152.5 30.5t-115.5 85.5z" />
<glyph unicode="t" horiz-adv-x="514" d="M87 511l29 118h86l-5 14l22 86l159 77l-40 -163l-11 -14h195l-29 -118h-196l5 -14l-72 -290q-10 -44 2.5 -68t45.5 -24q49 0 111 52l65 -88q-106 -89 -213 -89q-101 0 -139.5 55t-12.5 161l72 291l12 14h-86z" />
<glyph unicode="u" horiz-adv-x="763" d="M75 243l96 387h140l-94 -382q-16 -66 5.5 -99.5t106.5 -33.5q73 0 127 38t72 107l91 370h141l-156 -631h-141l15 58h-2q-84 -67 -197 -67q-135 0 -184.5 66.5t-19.5 186.5z" />
<glyph unicode="v" horiz-adv-x="687" d="M96 630h156l56 -381l5 -84h2l47 84l245 381h156l-423 -630h-133z" />
<glyph unicode="w" horiz-adv-x="929" d="M101 630h148l8 -370l-7 -87h2l36 87l203 370h119l21 -370l-6 -87h2l35 87l191 370h147l-342 -630h-138l-22 338l6 99h-2l-42 -99l-188 -338h-141z" />
<glyph unicode="x" horiz-adv-x="685" d="M-50 0l315 316l-157 314h175l72 -146l21 -62h2q27 33 59 67t75.5 77.5t62.5 63.5h174l-312 -314l159 -316h-175l-78 158l-17 53h-2l-43 -53l-156 -158h-175z" />
<glyph unicode="y" horiz-adv-x="730" d="M-39 -182l33 136q66 -40 120 -40q57 0 124 98l-137 618h156l80 -383l7 -90h2l49 90l251 383h156l-467 -692q-47 -70 -110.5 -111.5t-130.5 -41.5q-76 0 -133 33z" />
<glyph unicode="z" horiz-adv-x="690" d="M-10 0l25 100l390 340l89 61l1 2h-373l31 126h560l-23 -95l-392 -340l-96 -66v-2h391l-31 -126h-572z" />
<glyph unicode="{" horiz-adv-x="364" d="M37 -23l56 227q13 40 3.5 70t-49.5 37l24 96q75 14 96 98l58 236q18 71 54 116.5t102 53.5l129 3l-26 -108h-30q-62 0 -83.5 -17.5t-36.5 -74.5l-51 -208q-14 -58 -37 -90t-74 -57q44 -29 49.5 -60t-11.5 -89l-51 -206q-15 -57 -1.5 -74.5t75.5 -17.5h30l-27 -108 q-108 0 -127 3q-110 14 -72 170z" />
<glyph unicode="|" horiz-adv-x="350" d="M32 -50l225 910h123l-225 -910h-123z" />
<glyph unicode="}" horiz-adv-x="364" d="M-108 -196l27 108h30q61 0 83 17t36 75l51 206q16 66 35 93t77 56q-38 25 -46 58.5t7 88.5l52 208q15 56 1 74t-76 18h-29l26 108q108 0 128 -3q111 -15 71 -170l-58 -236q-21 -85 48 -98l-23 -96q-76 -12 -99 -107l-56 -227q-38 -155 -156 -170z" />
<glyph unicode="~" horiz-adv-x="605" d="M34 299q31 57 83.5 92t115.5 35q34 0 70.5 -21t68.5 -41.5t55 -20.5q63 0 108 87l58 -79q-33 -58 -85.5 -91.5t-114.5 -33.5q-34 0 -69.5 21t-67.5 41.5t-58 20.5q-60 0 -107 -87z" />
<glyph horiz-adv-x="990" />
<glyph unicode="&#xa1;" horiz-adv-x="314" d="M4 -1l172 579h108l-114 -579h-166zM179 725q10 41 40 68t71 27q42 0 58 -26.5t6 -68.5q-9 -41 -39 -68t-72 -27t-58 27t-6 68z" />
<glyph unicode="&#xa2;" horiz-adv-x="658" d="M84 400q36 146 147 238.5t243 92.5l-3 13l34 76h117l-37 -83l-14 -13q50 -15 82 -32.5t62 -54.5l-120 -97q-32 42 -80 55l2 -14l-157 -359l-14 -14h12q85 -3 174 66l71 -97q-130 -97 -277 -97q-26 0 -37 2l3 -14l-34 -78h-117l43 99l17 12q-84 31 -114 110t-3 189z M224 400q-28 -116 34 -165v20l145 332l14 12q-76 -14 -125 -68t-68 -131z" />
<glyph unicode="&#xa3;" horiz-adv-x="758" d="M-15 0l29 118q82 35 118 76t44 131l8 14h-98l32 131h66l-7 14q2 65 11 99q20 82 75 137t122.5 77.5t146.5 22.5q168 0 255 -140l-120 -98q-60 106 -171 106q-136 0 -161 -100q-10 -44 -11 -104l-7 -14h240l-33 -131h-208l6 -14q-13 -125 -91 -191l-1 -2h405l-32 -132 h-618z" />
<glyph unicode="&#xa4;" horiz-adv-x="636" d="M40 218l87 72q-17 54 -2 113q13 58 58 112l-52 74l99 79l53 -70q59 31 121 31q61 0 104 -31l88 70l61 -79l-88 -73q35 -118 -56 -228l51 -71l-99 -79l-54 70q-57 -29 -118 -29q-65 0 -106 30l-88 -70zM242 403q-11 -46 12.5 -76.5t67.5 -30.5q47 0 85 32t49 75 q11 46 -13 77q-22 32 -68 32q-47 0 -83 -32q-40 -32 -50 -77z" />
<glyph unicode="&#xa5;" horiz-adv-x="890" d="M118 154l28 114h231l-4 13l11 45l10 13h-230l28 114h142l-10 12l-169 345h180l125 -270l28 -83h2l68 83l259 270h178l-338 -345l-19 -14l147 3l-28 -115h-233l4 -14l-10 -42l-11 -15h232l-28 -114h-232l4 -14l-35 -140h-144l34 140l11 14h-231z" />
<glyph unicode="&#xa6;" horiz-adv-x="352" d="M32 -50l101 409h125l-101 -409h-125zM156 450l101 410h125l-102 -410h-124z" />
<glyph unicode="&#xa7;" horiz-adv-x="675" d="M-20 -82l121 95q59 -83 163 -83q81 0 95 60q5 17 -8 37q-20 31 -75 68q-19 13 -56.5 36t-47.5 30q-19 13 -33 24t-30 27t-25 30.5t-17.5 34.5t-7.5 39.5t5 45.5q24 96 154 180q-28 49 -16 101q21 84 102.5 130t178.5 46q143 0 241 -125l-121 -94q-64 90 -152 90 q-43 0 -68.5 -13.5t-30.5 -34.5q-8 -29 32 -63q26 -23 107 -71q37 -23 60 -40.5t49.5 -45.5t35 -61t-0.5 -71q-26 -101 -144 -181q34 -54 18 -120q-16 -64 -61.5 -108t-100.5 -63t-115 -19q-73 0 -139 30t-113 89zM208 371q-10 -44 58 -90l143 -94q70 52 78 88q2 7 2 13.5 t-0.5 11.5t-4 11.5t-5.5 10t-8 9.5l-8.5 8.5t-10 8t-9.5 7t-10.5 7t-9.5 6.5l-132 91q-74 -54 -83 -88z" />
<glyph unicode="&#xa8;" horiz-adv-x="738" d="M284 783q8 34 31.5 55t55.5 21q34 0 46.5 -20.5t4.5 -55.5q-9 -35 -32.5 -55.5t-55.5 -20.5q-33 0 -45.5 20.5t-4.5 55.5zM535 783q8 35 31 55.5t56 20.5t45.5 -20.5t4.5 -55.5t-31.5 -55.5t-56.5 -20.5t-45.5 20.5t-3.5 55.5z" />
<glyph unicode="&#xa9;" horiz-adv-x="960" d="M89 401q44 176 197.5 300t327.5 124q115 0 197.5 -57t115 -154.5t3.5 -212.5q-44 -176 -197.5 -301t-328.5 -125q-114 0 -197 57t-115 155t-3 214zM177 401q-35 -140 37.5 -243t209.5 -103t260.5 103t157.5 243q35 139 -38 242t-209 103t-260 -103t-158 -242zM259 396 q29 121 115 199t202 78q121 0 173 -77l-84 -69q-35 53 -112 53q-74 -1 -126.5 -52.5t-72.5 -131.5q-19 -78 6.5 -126.5t102.5 -48.5t147 60l51 -68q-100 -86 -221 -86q-122 0 -166.5 74.5t-14.5 194.5z" />
<glyph unicode="&#xaa;" horiz-adv-x="498" d="M109 601q23 96 89.5 155.5t163.5 59.5q78 0 109 -44h1l9 38h93l-103 -416h-92l8 34h-1q-54 -41 -130 -41q-96 0 -133.5 59t-13.5 155zM201 601q-32 -131 85 -131t149 131q34 133 -84 133q-116 0 -150 -133z" />
<glyph unicode="&#xab;" horiz-adv-x="724" d="M48 255l274 218l67 -93l-107 -88l-62 -38l44 -36l64 -88l-114 -93zM353 255l274 218l67 -93l-107 -88l-62 -38l44 -36l64 -88l-114 -93z" />
<glyph unicode="&#xac;" horiz-adv-x="577" d="M22 248l30 122h518l-79 -320h-129l49 198h-389z" />
<glyph unicode="&#xad;" horiz-adv-x="411" d="M27 270l32 130h352l-33 -130h-351z" />
<glyph unicode="&#xae;" horiz-adv-x="960" d="M89 401q44 176 197.5 300t327.5 124q115 0 197.5 -57t115 -154.5t3.5 -212.5q-44 -176 -197.5 -301t-328.5 -125q-114 0 -197 57t-115 155t-3 214zM177 400q-35 -139 37.5 -242t209.5 -103t260.5 103t157.5 242q35 140 -38 243t-209 103t-260 -103t-158 -243zM260 162 l117 476h206q69 0 106.5 -38.5t19.5 -110.5q-9 -38 -37 -70.5t-61 -45.5q18 -16 25 -45l36 -166h-102l-27 126q-6 28 -22.5 40.5t-51.5 12.5h-84l7 -13l-41 -166h-91zM407 432h120q38 0 60.5 16t28.5 41q14 58 -55 58h-126l8 -13l-22 -90z" />
<glyph unicode="&#xaf;" horiz-adv-x="702" d="M282 742l23 93h391l-23 -93h-391z" />
<glyph unicode="&#xb0;" horiz-adv-x="441" d="M114 622q22 88 81.5 142.5t145.5 54.5t119 -54t11 -143q-22 -87 -82 -142t-145 -55q-87 0 -119.5 54.5t-10.5 142.5zM204 622q-12 -47 3 -76t60 -29q88 0 114 105q25 105 -63 105q-45 0 -73.5 -28t-40.5 -77z" />
<glyph unicode="&#xb1;" horiz-adv-x="688" d="M27 30l32 130h510l-32 -130h-510zM124 421l31 128h200l-4 14l49 200h126l-49 -200l-12 -14h200l-31 -128h-200l4 -15l-49 -198h-126l49 198l12 15h-200z" />
<glyph unicode="&#xb2;" horiz-adv-x="443" d="M77 361l22 89q13 53 53 97.5t104 65.5l59 18q67 22 75 51q4 17 -6.5 29t-47.5 12q-28 0 -54 -13.5t-64 -50.5l-53 70q96 86 194 86q78 0 110.5 -38.5t18.5 -94.5q-25 -97 -153 -137l-69 -22q-51 -17 -66 -59l-12 -11h243l-23 -92h-331z" />
<glyph unicode="&#xb3;" horiz-adv-x="479" d="M94 441l87 68q21 -35 42.5 -49t56.5 -14q46 0 71 16.5t29 34.5q5 21 -9 37t-54 20l-77 2l20 83q62 1 75 3q42 4 61.5 19.5t22.5 30.5q0 3 0.5 8t-3.5 10t-10.5 9t-21 7t-34.5 3q-33 0 -61 -13.5t-65 -46.5l-53 69q96 82 203 82q84 0 120 -36t23 -92q-6 -23 -29 -50 t-48 -40l-1 -2q56 -33 39 -101q-15 -58 -74 -101t-146 -43q-105 0 -164 86z" />
<glyph unicode="&#xb4;" horiz-adv-x="748" d="M366 751l238 217l65 -87l-261 -186z" />
<glyph unicode="&#xb5;" horiz-adv-x="729" d="M-32 -210l207 840h141l-93 -373q-16 -68 7 -105t80 -37q69 0 118.5 37.5t66.5 106.5l91 371h140l-159 -642h-139l11 44q-71 -53 -163 -53q-67 0 -110 47l-58 -236h-140z" />
<glyph unicode="&#xb6;" horiz-adv-x="703" d="M66 548q27 108 126 185t211 77h361l-31 -127h-64l3 -14l-210 -850h-133l210 850l10 14h-75l4 -14l-209 -850h-135l112 456l11 12q-107 7 -162 82t-29 179z" />
<glyph unicode="&#xb7;" horiz-adv-x="301" d="M90 406q11 43 39.5 68.5t69.5 25.5q42 0 58 -25.5t5 -68.5t-39.5 -69t-69.5 -26q-42 0 -58 25.5t-5 69.5z" />
<glyph unicode="&#xb8;" horiz-adv-x="658" d="M159 -158l85 69q38 30 19 55l-29 38h91l22 -28q18 -21 11.5 -49t-37.5 -53l-116 -94z" />
<glyph unicode="&#xb9;" horiz-adv-x="309" d="M132 694l147 116h87l-113 -455h-96l72 289l20 53l-40 -41l-30 -26z" />
<glyph unicode="&#xba;" horiz-adv-x="501" d="M109 604q24 96 93 156t169 60q101 0 140.5 -60t15.5 -156t-93.5 -156.5t-169.5 -60.5q-101 0 -140 60.5t-15 156.5zM203 604q-15 -60 5 -95t78 -35t95 35t52 95t-5 94.5t-78 34.5q-115 0 -147 -129z" />
<glyph unicode="&#xbb;" horiz-adv-x="724" d="M17 130l107 88q45 27 62 36l-43 38l-64 88l114 93l166 -218l-274 -218zM322 130l107 88q45 27 62 36l-43 38l-64 88l114 93l166 -218l-274 -218z" />
<glyph unicode="&#xbc;" horiz-adv-x="821" d="M91 -10l493 830h103l-494 -830h-102zM132 694l147 116h87l-113 -455h-96l72 289l20 53l-40 -41l-30 -26zM345 95l17 70l314 289h84l-63 -256l-9 -11h55l-23 -92h-55l3 -10l-20 -86h-98l21 85l9 11h-235zM490 186l112 1l-3 10l28 114l-25 -28l-74 -67z" />
<glyph unicode="&#xbd;" horiz-adv-x="846" d="M94 -10l493 830h103l-494 -830h-102zM132 694l147 116h87l-113 -455h-96l72 289l20 53l-40 -41l-30 -26zM391 -1l22 90q13 53 53 97.5t103 64.5l59 19q68 21 75 51q1 9 0.5 18t-14.5 15.5t-40 6.5q-53 0 -117 -63l-54 70q96 86 194 86q79 0 111 -39t18 -94 q-24 -96 -153 -138l-69 -22q-51 -15 -66 -59l-11 -10h242l-23 -93h-330z" />
<glyph unicode="&#xbe;" horiz-adv-x="965" d="M94 441l87 68q21 -35 42.5 -49t56.5 -14q46 0 71 16.5t29 34.5q5 21 -9 37t-54 20l-77 2l20 83q62 1 75 3q42 4 61.5 19.5t22.5 30.5q0 3 0.5 8t-3.5 10t-10.5 9t-21 7t-34.5 3q-33 0 -61 -13.5t-65 -46.5l-53 69q96 82 203 82q84 0 120 -36t23 -92q-6 -23 -29 -50 t-48 -40l-1 -2q56 -33 39 -101q-15 -58 -74 -101t-146 -43q-105 0 -164 86zM235 -10l494 830h102l-494 -830h-102zM489 95l17 70l315 289h84l-64 -256l-9 -11h55l-22 -92h-56l4 -10l-21 -86h-98l21 85l10 11h-236zM634 186l113 1l-4 10l28 114l-25 -28l-74 -67z" />
<glyph unicode="&#xbf;" horiz-adv-x="691" d="M36 207q17 67 71.5 119t127.5 76l41 14q55 19 74.5 42t35.5 85l8 36h144l-11 -44q-24 -96 -72 -151.5t-161 -92.5l-25 -9q-42 -14 -61 -31.5t-25 -43.5q-8 -30 22 -59t87 -29q61 0 111.5 24.5t110.5 82.5l85 -97q-158 -139 -339 -139q-123 0 -184 66.5t-40 150.5z M416 725q11 43 40 69t70 26t57 -26t5 -69t-39.5 -69t-69.5 -26q-42 0 -58 26t-5 69z" />
<glyph unicode="&#xc0;" horiz-adv-x="910" d="M-54 0l574 810h132l174 -810h-157l-38 180l11 13h-416l4 -13l-127 -180h-157zM325 325h282l-10 13l-49 227l-4 67h-2l-39 -67l-161 -227zM509 1059l107 87l131 -217l-69 -56z" />
<glyph unicode="&#xc1;" horiz-adv-x="910" d="M-54 0l574 810h132l174 -810h-157l-38 180l11 13h-416l4 -13l-127 -180h-157zM325 325h282l-10 13l-49 227l-4 67h-2l-39 -67l-161 -227zM491 930l238 217l64 -87l-260 -186z" />
<glyph unicode="&#xc2;" horiz-adv-x="910" d="M-54 0l574 810h132l174 -810h-157l-38 180l11 13h-416l4 -13l-127 -180h-157zM325 325h282l-10 13l-49 227l-4 67h-2l-39 -67l-161 -227zM419 928l244 195h2l145 -195l-68 -55l-113 115l-169 -115z" />
<glyph unicode="&#xc3;" horiz-adv-x="910" d="M-54 0l574 810h132l174 -810h-157l-38 180l11 13h-416l4 -13l-127 -180h-157zM325 325h282l-10 13l-49 227l-4 67h-2l-39 -67l-161 -227zM381 930q25 48 75.5 83.5t100.5 35.5q24 0 46.5 -11t46 -29t36.5 -24q20 -11 36 -11q55 0 101 78l44 -58q-29 -53 -78.5 -86 t-99.5 -33q-23 0 -45 10.5t-46.5 29t-35.5 24.5q-20 11 -38 11q-52 0 -100 -77z" />
<glyph unicode="&#xc4;" horiz-adv-x="910" d="M-54 0l574 810h132l174 -810h-157l-38 180l11 13h-416l4 -13l-127 -180h-157zM325 325h282l-10 13l-49 227l-4 67h-2l-39 -67l-161 -227zM433 976q8 35 31 55.5t56 20.5t45.5 -20.5t4.5 -55.5q-8 -34 -31.5 -55t-55.5 -21q-34 0 -46.5 20.5t-3.5 55.5zM683 976 q8 34 31.5 55t55.5 21q34 0 46.5 -20.5t4.5 -55.5q-9 -35 -32.5 -55.5t-55.5 -20.5q-33 0 -45.5 20.5t-4.5 55.5z" />
<glyph unicode="&#xc5;" horiz-adv-x="910" d="M-54 0l574 810h132l174 -810h-157l-38 180l11 13h-416l4 -13l-127 -180h-157zM325 325h282l-10 13l-49 227l-4 67h-2l-39 -67l-161 -227zM515 997q13 55 51.5 89t95.5 34t79 -34t9 -89q-13 -54 -52 -88t-96 -34t-78.5 34t-8.5 88zM584 997q-12 -52 35 -52q49 0 61 52 q6 24 -2.5 38.5t-32.5 14.5q-47 0 -61 -53z" />
<glyph unicode="&#xc6;" horiz-adv-x="1117" d="M-54 0l574 810h658l-32 -132h-384l4 -14l-44 -179l-18 -14h343l-33 -132h-342l10 -14l-44 -179l-17 -14h390l-33 -132h-520l44 179l14 14h-290l4 -13l-127 -180h-157zM324 325h225l-7 14l80 325l11 14h-69l3 -14l-230 -329z" />
<glyph unicode="&#xc7;" horiz-adv-x="826" d="M84 400q46 187 185 303.5t336 116.5q199 0 292 -131l-129 -105q-31 54 -76 79t-119 25q-137 0 -223.5 -79t-119.5 -209q-31 -127 16.5 -202.5t186.5 -75.5q74 0 132.5 25t115.5 80l77 -103q-146 -124 -328 -133l11 -15q18 -21 11.5 -49t-37.5 -53l-116 -94l-46 62l85 69 q38 30 19 55l-20 27q-167 18 -231 127t-22 280z" />
<glyph unicode="&#xc8;" horiz-adv-x="797" d="M20 0l200 810h638l-32 -132h-509l10 -14l-44 -179l-17 -14h461l-32 -132h-462l11 -14l-45 -179l-17 -14h509l-33 -132h-638zM445 1061l108 87l130 -217l-69 -56z" />
<glyph unicode="&#xc9;" horiz-adv-x="797" d="M20 0l200 810h638l-32 -132h-509l10 -14l-44 -179l-17 -14h461l-32 -132h-462l11 -14l-45 -179l-17 -14h509l-33 -132h-638zM463 930l238 217l65 -87l-261 -186z" />
<glyph unicode="&#xca;" horiz-adv-x="797" d="M20 0l200 810h638l-32 -132h-509l10 -14l-44 -179l-17 -14h461l-32 -132h-462l11 -14l-45 -179l-17 -14h509l-33 -132h-638zM384 928l244 195h2l145 -195l-68 -55l-113 115l-168 -115z" />
<glyph unicode="&#xcb;" horiz-adv-x="797" d="M20 0l200 810h638l-32 -132h-509l10 -14l-44 -179l-17 -14h461l-32 -132h-462l11 -14l-45 -179l-17 -14h509l-33 -132h-638zM392 977q8 35 31.5 55.5t56.5 20.5t45.5 -20.5t4.5 -55.5t-31.5 -55.5t-56.5 -20.5t-45.5 20.5t-4.5 55.5zM643 977q8 35 31 55.5t56 20.5 t45.5 -20.5t4.5 -55.5q-8 -34 -31.5 -55t-55.5 -21q-33 0 -45.5 20.5t-4.5 55.5z" />
<glyph unicode="&#xcc;" horiz-adv-x="332" d="M25 0l200 810h143l-200 -810h-143zM204 1061l108 87l131 -217l-70 -56z" />
<glyph unicode="&#xcd;" horiz-adv-x="332" d="M25 0l200 810h143l-200 -810h-143zM197 930l238 217l64 -87l-260 -186z" />
<glyph unicode="&#xce;" horiz-adv-x="332" d="M25 0l200 810h143l-200 -810h-143zM132 928l244 195h2l145 -195l-68 -55l-113 115l-169 -115z" />
<glyph unicode="&#xcf;" horiz-adv-x="332" d="M25 0l200 810h143l-200 -810h-143zM146 975q8 35 31.5 55.5t56.5 20.5t45.5 -20.5t4.5 -55.5t-31.5 -55.5t-56.5 -20.5t-45.5 20.5t-4.5 55.5zM397 975q8 35 31 55.5t56 20.5t45.5 -20.5t4.5 -55.5q-8 -34 -31.5 -55t-55.5 -21q-33 0 -45.5 20.5t-4.5 55.5z" />
<glyph unicode="&#xd0;" horiz-adv-x="864" d="M20 0l80 325l11 14h-72l33 132h72l-4 14l80 325h327q393 0 293 -405q-15 -62 -36 -114.5t-60 -108.5t-90 -94t-128.5 -63t-173.5 -25h-332zM196 132h179q79 0 135.5 20t92 60t55.5 84.5t36 108.5q12 50 16 87.5t-3.5 74t-29 59.5t-65 37.5t-107.5 14.5h-174l-48 -193 l-11 -14h201l-33 -132h-201l5 -14z" />
<glyph unicode="&#xd1;" horiz-adv-x="886" d="M20 0l200 810h123l268 -491l28 -89h2l143 580h144l-200 -810h-124l-268 492l-28 88h-1l-144 -580h-143zM362 930q24 47 74.5 83t100.5 36q24 0 46.5 -11t46 -29t36.5 -24q20 -11 36 -11q56 0 101 78l44 -58q-29 -53 -78.5 -86t-99.5 -33q-23 0 -45 10.5t-46.5 29 t-35.5 24.5q-19 11 -38 11q-52 0 -100 -77z" />
<glyph unicode="&#xd2;" horiz-adv-x="910" d="M84 400q47 188 179.5 304t324.5 116t268 -115.5t29 -304.5q-46 -186 -179 -298t-323 -112q-193 0 -269 111.5t-30 298.5zM230 400q-31 -127 13 -202.5t173 -75.5q130 0 210.5 75.5t111.5 202.5q17 60 14 112.5t-22 91.5t-64 61.5t-111 22.5q-128 0 -210 -78.5 t-115 -209.5zM492 1061l107 87l131 -217l-70 -56z" />
<glyph unicode="&#xd3;" horiz-adv-x="910" d="M84 400q47 188 179.5 304t324.5 116t268 -115.5t29 -304.5q-46 -186 -179 -298t-323 -112q-193 0 -269 111.5t-30 298.5zM230 400q-31 -127 13 -202.5t173 -75.5q130 0 210.5 75.5t111.5 202.5q17 60 14 112.5t-22 91.5t-64 61.5t-111 22.5q-128 0 -210 -78.5 t-115 -209.5zM501 930l238 217l64 -87l-261 -186z" />
<glyph unicode="&#xd4;" horiz-adv-x="910" d="M84 400q47 188 179.5 304t324.5 116t268 -115.5t29 -304.5q-46 -186 -179 -298t-323 -112q-193 0 -269 111.5t-30 298.5zM230 400q-31 -127 13 -202.5t173 -75.5q130 0 210.5 75.5t111.5 202.5q17 60 14 112.5t-22 91.5t-64 61.5t-111 22.5q-128 0 -210 -78.5 t-115 -209.5zM419 928l244 195h2l145 -195l-68 -55l-113 115l-169 -115z" />
<glyph unicode="&#xd5;" horiz-adv-x="910" d="M84 400q47 188 179.5 304t324.5 116t268 -115.5t29 -304.5q-46 -186 -179 -298t-323 -112q-193 0 -269 111.5t-30 298.5zM230 400q-31 -127 13 -202.5t173 -75.5q130 0 210.5 75.5t111.5 202.5q17 60 14 112.5t-22 91.5t-64 61.5t-111 22.5q-128 0 -210 -78.5 t-115 -209.5zM371 930q24 47 74.5 83t100.5 36q24 0 46.5 -11t46 -29t36.5 -24q20 -11 36 -11q56 0 101 78l44 -58q-29 -53 -78.5 -86t-99.5 -33q-23 0 -45 10.5t-46.5 29t-35.5 24.5q-19 11 -38 11q-52 0 -100 -77z" />
<glyph unicode="&#xd6;" horiz-adv-x="910" d="M84 400q47 188 179.5 304t324.5 116t268 -115.5t29 -304.5q-46 -186 -179 -298t-323 -112q-193 0 -269 111.5t-30 298.5zM230 400q-31 -127 13 -202.5t173 -75.5q130 0 210.5 75.5t111.5 202.5q17 60 14 112.5t-22 91.5t-64 61.5t-111 22.5q-128 0 -210 -78.5 t-115 -209.5zM432 976q8 35 31 55.5t56 20.5t45.5 -20.5t4.5 -55.5q-8 -34 -31.5 -55t-55.5 -21q-34 0 -46.5 20.5t-3.5 55.5zM682 976q8 34 31.5 55t55.5 21q34 0 46.5 -20.5t4.5 -55.5q-9 -35 -32.5 -55.5t-55.5 -20.5q-33 0 -45.5 20.5t-4.5 55.5z" />
<glyph unicode="&#xd7;" horiz-adv-x="639" d="M66 247l199 158l-121 158l111 90l116 -162l197 162l66 -90l-199 -158l121 -158l-111 -90l-116 162l-196 -162z" />
<glyph unicode="&#xd8;" horiz-adv-x="910" d="M63 -32l70 87l15 8q-120 108 -64 337q47 188 179.5 304t324.5 116q84 0 152 -25l5 15l42 52l66 -47l-37 -46l-15 -9q145 -109 84 -360q-46 -186 -179 -298t-323 -112q-110 0 -181 37l-1 -17l-71 -88zM230 400q-34 -142 21 -214l5 21l374 461l15 7q-33 13 -90 13 q-128 0 -210 -78.5t-115 -209.5zM302 145q44 -23 114 -23q130 0 210.5 75.5t111.5 202.5q42 163 -35 240l-4 -16l-379 -468z" />
<glyph unicode="&#xd9;" horiz-adv-x="898" d="M107 373l108 437h143l-107 -436q-32 -127 4 -189.5t155 -62.5q117 0 184.5 63t98.5 189l108 436h143l-108 -437q-46 -186 -160.5 -284.5t-297.5 -98.5q-184 0 -250.5 98t-20.5 285zM487 1061l107 87l131 -217l-69 -56z" />
<glyph unicode="&#xda;" horiz-adv-x="898" d="M107 373l108 437h143l-107 -436q-32 -127 4 -189.5t155 -62.5q117 0 184.5 63t98.5 189l108 436h143l-108 -437q-46 -186 -160.5 -284.5t-297.5 -98.5q-184 0 -250.5 98t-20.5 285zM475 930l238 217l64 -87l-260 -186z" />
<glyph unicode="&#xdb;" horiz-adv-x="898" d="M107 373l108 437h143l-107 -436q-32 -127 4 -189.5t155 -62.5q117 0 184.5 63t98.5 189l108 436h143l-108 -437q-46 -186 -160.5 -284.5t-297.5 -98.5q-184 0 -250.5 98t-20.5 285zM414 928l244 195h2l145 -195l-68 -55l-113 115l-169 -115z" />
<glyph unicode="&#xdc;" horiz-adv-x="898" d="M107 373l108 437h143l-107 -436q-32 -127 4 -189.5t155 -62.5q117 0 184.5 63t98.5 189l108 436h143l-108 -437q-46 -186 -160.5 -284.5t-297.5 -98.5q-184 0 -250.5 98t-20.5 285zM427 976q8 35 31 55.5t56 20.5t45.5 -20.5t4.5 -55.5q-8 -34 -31.5 -55t-55.5 -21 q-33 0 -45.5 20.5t-4.5 55.5zM677 976q8 35 31.5 55.5t56.5 20.5t45.5 -20.5t4.5 -55.5t-31.5 -55.5t-56.5 -20.5t-45.5 20.5t-4.5 55.5z" />
<glyph unicode="&#xdd;" horiz-adv-x="890" d="M145 810h180l138 -278l24 -77h2l61 77l276 278h179l-474 -474l-83 -336h-144l83 336zM482 929l238 217l64 -87l-260 -186z" />
<glyph unicode="&#xde;" horiz-adv-x="814" d="M20 0l200 810h142l-33 -133l-17 -14h263q135 0 194 -71.5t31 -187.5q-28 -112 -124 -185.5t-230 -73.5h-261l11 -14l-33 -131h-143zM218 277h260q73 0 117 34.5t58 92.5q31 127 -111 127h-261l10 -14l-56 -226z" />
<glyph unicode="&#xdf;" horiz-adv-x="725" d="M20 -1l155 630q28 113 108 164.5t192 51.5q128 0 186.5 -62t32.5 -168q-13 -49 -45.5 -89.5t-78.5 -62.5v-2q55 -16 83.5 -75.5t9.5 -135.5q-28 -113 -122 -187t-210 -74q-82 0 -140 26l34 137q40 -21 64 -27t65 -6q62 0 107.5 34.5t60.5 95.5t-15 98t-93 37h-129l31 128 l92 -1q57 -1 94 25t49 75t-18.5 77.5t-90.5 28.5q-59 0 -88 -26t-44 -86l-150 -606h-140z" />
<glyph unicode="&#xe0;" d="M63 314q36 146 136 236t247 90q56 0 99.5 -18t65.5 -49h2l14 57h141l-156 -631h-141l13 52h-2q-80 -61 -197 -61q-145 0 -201.5 89.5t-20.5 234.5zM203 314q-48 -199 128 -199q91 0 147 53t79 146q50 201 -127 201q-176 0 -227 -201zM386 881l108 87l131 -217l-70 -56z " />
<glyph unicode="&#xe1;" d="M63 314q36 146 136 236t247 90q56 0 99.5 -18t65.5 -49h2l14 57h141l-156 -631h-141l13 52h-2q-80 -61 -197 -61q-145 0 -201.5 89.5t-20.5 234.5zM203 314q-48 -199 128 -199q91 0 147 53t79 146q50 201 -127 201q-176 0 -227 -201zM377 751l238 217l65 -87l-261 -186z " />
<glyph unicode="&#xe2;" d="M63 314q36 146 136 236t247 90q56 0 99.5 -18t65.5 -49h2l14 57h141l-156 -631h-141l13 52h-2q-80 -61 -197 -61q-145 0 -201.5 89.5t-20.5 234.5zM203 314q-48 -199 128 -199q91 0 147 53t79 146q50 201 -127 201q-176 0 -227 -201zM292 752l244 195h2l145 -195l-68 -56 l-113 116l-169 -116z" />
<glyph unicode="&#xe3;" d="M63 314q36 146 136 236t247 90q56 0 99.5 -18t65.5 -49h2l14 57h141l-156 -631h-141l13 52h-2q-80 -61 -197 -61q-145 0 -201.5 89.5t-20.5 234.5zM203 314q-48 -199 128 -199q91 0 147 53t79 146q50 201 -127 201q-176 0 -227 -201zM255 767q25 48 75.5 83.5t100.5 35.5 q38 0 91 -39q3 -2 12.5 -9t14.5 -10t13.5 -8t17 -7t16.5 -2q55 0 101 78l44 -58q-29 -53 -78.5 -86t-99.5 -33q-23 0 -45 10.5t-46.5 29t-35.5 24.5q-20 11 -38 11q-52 0 -100 -77z" />
<glyph unicode="&#xe4;" d="M63 314q36 146 136 236t247 90q56 0 99.5 -18t65.5 -49h2l14 57h141l-156 -631h-141l13 52h-2q-80 -61 -197 -61q-145 0 -201.5 89.5t-20.5 234.5zM203 314q-48 -199 128 -199q91 0 147 53t79 146q50 201 -127 201q-176 0 -227 -201zM298 783q8 35 31 55.5t56 20.5 q34 0 46.5 -20.5t3.5 -55.5q-8 -34 -31.5 -55t-55.5 -21q-33 0 -45.5 20.5t-4.5 55.5zM548 783q8 35 31.5 55.5t56.5 20.5t45.5 -20.5t4.5 -55.5t-31.5 -55.5t-56.5 -20.5t-45.5 20.5t-4.5 55.5z" />
<glyph unicode="&#xe5;" d="M63 314q36 146 136 236t247 90q56 0 99.5 -18t65.5 -49h2l14 57h141l-156 -631h-141l13 52h-2q-80 -61 -197 -61q-145 0 -201.5 89.5t-20.5 234.5zM203 314q-48 -199 128 -199q91 0 147 53t79 146q50 201 -127 201q-176 0 -227 -201zM396 817q13 55 51.5 88.5t95.5 33.5 t79 -33.5t9 -88.5q-13 -54 -52 -88t-96 -34t-79 33.5t-8 88.5zM465 817q-6 -24 3 -38.5t32 -14.5q49 0 61 53q6 24 -2.5 38.5t-32.5 14.5q-47 0 -61 -53z" />
<glyph unicode="&#xe6;" horiz-adv-x="1196" d="M63 314q36 146 136 236t247 90q56 0 99.5 -18t65.5 -49h2l14 57h141l-11 -42h2q82 52 169 52q148 0 202.5 -91.5t18.5 -238.5q-2 -6 -4 -12.5t-5.5 -18.5t-7.5 -25h-480l12 -15q3 -125 139 -125q88 0 182 73l71 -90q-138 -107 -284 -107q-93 0 -148 49h-2l-10 -40h-141 l13 52h-2q-80 -61 -197 -61q-145 0 -201.5 89.5t-20.5 234.5zM203 314q-48 -199 128 -199q91 0 147 53t79 146q50 201 -127 201q-176 0 -227 -201zM686 376h351l-9 14q-5 125 -130 125q-129 0 -195 -125z" />
<glyph unicode="&#xe7;" horiz-adv-x="658" d="M62 310q35 143 144 236.5t260 93.5q152 0 226 -93l-119 -97q-50 65 -138 65q-88 -1 -149.5 -58.5t-83.5 -146.5q-22 -87 10 -141t123 -54q85 0 175 69l71 -97q-118 -88 -245 -96l11 -15q18 -21 11.5 -49t-37.5 -53l-116 -94l-46 62l85 69q38 30 19 55l-21 28 q-122 18 -166.5 104t-13.5 212z" />
<glyph unicode="&#xe8;" horiz-adv-x="748" d="M62 310q35 146 144 238t259 92q155 0 213 -91.5t22 -238.5q-4 -19 -17 -56h-500l10 -14q0 -127 146 -127q89 0 185 70l70 -94q-137 -99 -285 -99q-160 0 -221.5 89t-25.5 231zM213 375h369l-10 14q-2 127 -138 127t-203 -127zM369 881l107 87l131 -217l-69 -56z" />
<glyph unicode="&#xe9;" horiz-adv-x="748" d="M62 310q35 146 144 238t259 92q155 0 213 -91.5t22 -238.5q-4 -19 -17 -56h-500l10 -14q0 -127 146 -127q89 0 185 70l70 -94q-137 -99 -285 -99q-160 0 -221.5 89t-25.5 231zM213 375h369l-10 14q-2 127 -138 127t-203 -127zM366 751l238 217l65 -87l-261 -186z" />
<glyph unicode="&#xea;" horiz-adv-x="748" d="M62 310q35 146 144 238t259 92q155 0 213 -91.5t22 -238.5q-4 -19 -17 -56h-500l10 -14q0 -127 146 -127q89 0 185 70l70 -94q-137 -99 -285 -99q-160 0 -221.5 89t-25.5 231zM213 375h369l-10 14q-2 127 -138 127t-203 -127zM293 752l244 195h2l145 -195l-68 -56 l-113 116l-169 -116z" />
<glyph unicode="&#xeb;" horiz-adv-x="748" d="M62 310q35 146 144 238t259 92q155 0 213 -91.5t22 -238.5q-4 -19 -17 -56h-500l10 -14q0 -127 146 -127q89 0 185 70l70 -94q-137 -99 -285 -99q-160 0 -221.5 89t-25.5 231zM213 375h369l-10 14q-2 127 -138 127t-203 -127zM301 783q8 35 31 55.5t56 20.5 q34 0 46.5 -20.5t3.5 -55.5q-8 -34 -31.5 -55t-55.5 -21q-33 0 -45.5 20.5t-4.5 55.5zM551 783q8 35 31.5 55.5t56.5 20.5t45.5 -20.5t4.5 -55.5t-31.5 -55.5t-56.5 -20.5t-45.5 20.5t-4.5 55.5z" />
<glyph unicode="&#xec;" horiz-adv-x="319" d="M20 0l155 630h141l-156 -630h-140zM158 881l107 87l131 -217l-69 -56z" />
<glyph unicode="&#xed;" horiz-adv-x="319" d="M20 0l155 630h141l-156 -630h-140zM143 751l237 217l65 -87l-261 -186z" />
<glyph unicode="&#xee;" horiz-adv-x="319" d="M20 0l155 630h141l-156 -630h-140zM80 752l244 195h2l145 -195l-68 -56l-113 116l-168 -116z" />
<glyph unicode="&#xef;" horiz-adv-x="319" d="M20 0l155 630h141l-156 -630h-140zM89 783q8 34 31.5 55t55.5 21q34 0 46.5 -20.5t4.5 -55.5q-9 -35 -32.5 -55.5t-55.5 -20.5q-33 0 -45.5 20.5t-4.5 55.5zM339 783q9 35 32 55.5t56 20.5t45.5 -20.5t4.5 -55.5t-31.5 -55.5t-56.5 -20.5t-45.5 20.5t-4.5 55.5z" />
<glyph unicode="&#xf0;" horiz-adv-x="669" d="M47 293q30 117 106.5 198t187.5 100q33 5 61 5q19 0 34 -4l-24 63l1 11l-91 -48l-32 87l90 49l-9 6l-33 86h147l9 -21l-1 -11l79 42l35 -86l-84 -45l11 -5l79 -203q37 -95 4 -224q-33 -133 -129 -218t-231 -85q-136 0 -189.5 84.5t-20.5 218.5zM172 287q-20 -82 9 -128.5 t107 -46.5q79 0 130 46t71 129q21 83 -7 134.5t-105 51.5q-78 0 -131 -51t-74 -135z" />
<glyph unicode="&#xf1;" d="M20 0l155 631h141l-14 -58h2q39 30 94 48.5t105 18.5q123 0 181.5 -65t29.5 -181l-97 -394h-141l93 378q18 69 -4.5 103t-110.5 34q-74 0 -129.5 -38t-72.5 -107l-92 -370h-140zM271 767q25 48 75.5 83.5t100.5 35.5q38 0 91 -39q32 -22 38 -25q19 -11 36 -11 q55 0 101 78l44 -58q-29 -53 -78.5 -86t-99.5 -33q-24 0 -46 10.5t-46 29t-35 24.5q-20 11 -38 11q-52 0 -100 -77z" />
<glyph unicode="&#xf2;" horiz-adv-x="748" d="M63 315q35 144 140 234.5t259 90.5q155 0 215 -90t25 -235q-36 -144 -141.5 -234.5t-258.5 -90.5q-155 0 -215 90.5t-24 234.5zM203 315q-22 -91 9.5 -145.5t120.5 -54.5q90 0 147.5 54t80.5 146q23 91 -8.5 145.5t-121.5 54.5t-147.5 -54t-80.5 -146zM361 881l107 87 l131 -217l-69 -56z" />
<glyph unicode="&#xf3;" horiz-adv-x="748" d="M63 315q35 144 140 234.5t259 90.5q155 0 215 -90t25 -235q-36 -144 -141.5 -234.5t-258.5 -90.5q-155 0 -215 90.5t-24 234.5zM203 315q-22 -91 9.5 -145.5t120.5 -54.5q90 0 147.5 54t80.5 146q23 91 -8.5 145.5t-121.5 54.5t-147.5 -54t-80.5 -146zM366 751l238 217 l65 -87l-261 -186z" />
<glyph unicode="&#xf4;" horiz-adv-x="748" d="M63 315q35 144 140 234.5t259 90.5q155 0 215 -90t25 -235q-36 -144 -141.5 -234.5t-258.5 -90.5q-155 0 -215 90.5t-24 234.5zM203 315q-22 -91 9.5 -145.5t120.5 -54.5q90 0 147.5 54t80.5 146q23 91 -8.5 145.5t-121.5 54.5t-147.5 -54t-80.5 -146zM293 752l244 195h2 l145 -195l-68 -56l-113 116l-169 -116z" />
<glyph unicode="&#xf5;" horiz-adv-x="748" d="M63 315q35 144 140 234.5t259 90.5q155 0 215 -90t25 -235q-36 -144 -141.5 -234.5t-258.5 -90.5q-155 0 -215 90.5t-24 234.5zM203 315q-22 -91 9.5 -145.5t120.5 -54.5q90 0 147.5 54t80.5 146q23 91 -8.5 145.5t-121.5 54.5t-147.5 -54t-80.5 -146zM246 767 q25 48 75.5 83.5t100.5 35.5q24 0 46.5 -11t46 -29t36.5 -24q20 -11 36 -11q55 0 101 78l44 -58q-29 -53 -78.5 -86t-99.5 -33q-23 0 -45 10.5t-46.5 29t-35.5 24.5q-20 11 -38 11q-52 0 -100 -77z" />
<glyph unicode="&#xf6;" horiz-adv-x="748" d="M63 315q35 144 140 234.5t259 90.5q155 0 215 -90t25 -235q-36 -144 -141.5 -234.5t-258.5 -90.5q-155 0 -215 90.5t-24 234.5zM203 315q-22 -91 9.5 -145.5t120.5 -54.5q90 0 147.5 54t80.5 146q23 91 -8.5 145.5t-121.5 54.5t-147.5 -54t-80.5 -146zM303 783 q8 35 31 55.5t56 20.5q34 0 46.5 -20.5t3.5 -55.5q-8 -34 -31.5 -55t-55.5 -21q-33 0 -45.5 20.5t-4.5 55.5zM553 783q8 35 31.5 55.5t56.5 20.5t45.5 -20.5t4.5 -55.5t-31.5 -55.5t-56.5 -20.5t-45.5 20.5t-4.5 55.5z" />
<glyph unicode="&#xf7;" horiz-adv-x="668" d="M94 340l32 130h510l-32 -130h-510zM221 165q11 43 39.5 69t69.5 26t57 -25.5t5 -69.5q-10 -43 -39 -69t-70 -26t-57 26t-5 69zM339 645q11 43 39.5 69t69.5 26q42 0 58 -26t5 -69t-40 -69t-70 -26t-57 26t-5 69z" />
<glyph unicode="&#xf8;" horiz-adv-x="698" d="M32 -23l54 66l16 9q-84 86 -39 263q36 146 133.5 235.5t240.5 89.5q77 0 123 -25l5 15l53 66l67 -46l-55 -66l-14 -7q77 -95 36 -262q-36 -145 -133.5 -235t-239.5 -90q-76 0 -123 22l-3 -16l-55 -66zM192 315q-22 -97 5 -145l11 23l244 300l18 10q-24 11 -64 11 q-83 0 -136.5 -53t-77.5 -146zM249 126q19 -10 59 -10q83 0 137 53t78 146q21 89 -3 142l-9 -20l-242 -297z" />
<glyph unicode="&#xf9;" horiz-adv-x="763" d="M75 243l96 387h140l-94 -382q-16 -66 5.5 -99.5t106.5 -33.5q73 0 127 38t72 107l91 370h141l-156 -631h-141l15 58h-2q-84 -67 -197 -67q-135 0 -184.5 66.5t-19.5 186.5zM369 881l107 87l131 -217l-69 -56z" />
<glyph unicode="&#xfa;" horiz-adv-x="763" d="M75 243l96 387h140l-94 -382q-16 -66 5.5 -99.5t106.5 -33.5q73 0 127 38t72 107l91 370h141l-156 -631h-141l15 58h-2q-84 -67 -197 -67q-135 0 -184.5 66.5t-19.5 186.5zM374 751l238 217l65 -87l-261 -186z" />
<glyph unicode="&#xfb;" horiz-adv-x="763" d="M75 243l96 387h140l-94 -382q-16 -66 5.5 -99.5t106.5 -33.5q73 0 127 38t72 107l91 370h141l-156 -631h-141l15 58h-2q-84 -67 -197 -67q-135 0 -184.5 66.5t-19.5 186.5zM296 752l244 195h2l145 -195l-68 -56l-113 116l-169 -116z" />
<glyph unicode="&#xfc;" horiz-adv-x="763" d="M75 243l96 387h140l-94 -382q-16 -66 5.5 -99.5t106.5 -33.5q73 0 127 38t72 107l91 370h141l-156 -631h-141l15 58h-2q-84 -67 -197 -67q-135 0 -184.5 66.5t-19.5 186.5zM308 783q8 35 31 55.5t56 20.5t45.5 -20.5t4.5 -55.5q-8 -34 -31.5 -55t-55.5 -21 q-33 0 -45.5 20.5t-4.5 55.5zM558 783q8 35 31.5 55.5t56.5 20.5t45.5 -20.5t4.5 -55.5t-31.5 -55.5t-56.5 -20.5t-45.5 20.5t-4.5 55.5z" />
<glyph unicode="&#xfd;" horiz-adv-x="730" d="M-39 -182l33 136q66 -40 120 -40q31 0 59.5 18t62.5 68l-135 630h156l80 -404l7 -73h2l41 73l259 404h156l-465 -692q-47 -70 -110.5 -111.5t-130.5 -41.5q-78 0 -135 33zM363 751l238 217l65 -87l-261 -186z" />
<glyph unicode="&#xfe;" d="M-32 -210l259 1050h141l-65 -262h2q83 61 186 61q154 0 212 -89t21 -236q-37 -149 -137.5 -237t-256.5 -88q-105 0 -155 61h-2l-65 -260h-140zM230 314q-49 -199 127 -199q177 0 227 199q50 200 -128 200q-176 0 -226 -200z" />
<glyph unicode="&#xff;" horiz-adv-x="730" d="M-39 -182l33 136q66 -40 120 -40q57 0 124 98l-137 618h156l80 -383l7 -90h2l49 90l251 383h156l-467 -692q-47 -70 -110.5 -111.5t-130.5 -41.5q-76 0 -133 33zM283 783q8 34 31.5 55t55.5 21q34 0 46.5 -20.5t4.5 -55.5q-9 -35 -32.5 -55.5t-55.5 -20.5 q-33 0 -45.5 20.5t-4.5 55.5zM534 783q8 35 31 55.5t56 20.5t45.5 -20.5t4.5 -55.5t-31.5 -55.5t-56.5 -20.5t-45.5 20.5t-3.5 55.5z" />
<glyph unicode="&#x100;" horiz-adv-x="910" d="M-54 0l574 810h132l174 -810h-157l-38 180l11 13h-416l4 -13l-127 -180h-157zM325 325h282l-10 13l-49 227l-4 67h-2l-39 -67l-161 -227zM408 899l23 93h391l-23 -93h-391z" />
<glyph unicode="&#x101;" d="M63 314q36 146 136 236t247 90q56 0 99.5 -18t65.5 -49h2l14 57h141l-156 -631h-141l13 52h-2q-80 -61 -197 -61q-145 0 -201.5 89.5t-20.5 234.5zM203 314q-48 -199 128 -199q91 0 147 53t79 146q50 201 -127 201q-176 0 -227 -201zM306 742l23 93h391l-23 -93h-391z " />
<glyph unicode="&#x102;" horiz-adv-x="910" d="M-54 0l574 810h132l174 -810h-157l-38 180l11 13h-416l4 -13l-127 -180h-157zM325 325h282l-10 13l-49 227l-4 67h-2l-39 -67l-161 -227zM438 1031h99q14 -68 84 -68t118 68h99q-86 -157 -239 -157q-155 0 -161 157z" />
<glyph unicode="&#x103;" d="M63 314q36 146 136 236t247 90q56 0 99.5 -18t65.5 -49h2l14 57h141l-156 -631h-141l13 52h-2q-80 -61 -197 -61q-145 0 -201.5 89.5t-20.5 234.5zM203 314q-48 -199 128 -199q91 0 147 53t79 146q50 201 -127 201q-176 0 -227 -201zM320 852h99q8 -35 27.5 -51.5 t57.5 -16.5q70 0 118 68h98q-85 -157 -239 -157q-153 0 -161 157z" />
<glyph unicode="&#x104;" horiz-adv-x="910" d="M-54 0l574 810h132l174 -810h-37l-144 -127q-14 -13 -18 -30q-3 -15 5.5 -26.5t22.5 -10.5q14 2 25 10q1 1 31 26l37 -49q-7 -6 -22.5 -19.5t-24 -20t-22 -15.5t-28.5 -13t-33 -5q-43 -2 -68 28.5t-15 75.5q11 52 59 92l99 84h-24l-38 180l11 13h-416l4 -13l-127 -180 h-157zM325 325h282l-10 13l-49 227l-4 67h-2l-39 -67l-161 -227z" />
<glyph unicode="&#x105;" d="M63 314q36 146 136 236t247 90q56 0 99.5 -18t65.5 -49h2l14 57h141l-156 -631h-43l-144 -126q-15 -14 -17 -30q-4 -15 4.5 -26.5t22.5 -10.5q14 2 25 10q1 1 31 26l37 -49q-13 -11 -25 -21t-16 -14q-40 -35 -89 -38q-43 -2 -67.5 28.5t-15.5 75.5q10 50 59 92l97 84 l13 51h-2q-80 -61 -197 -61q-145 0 -201.5 89.5t-20.5 234.5zM203 314q-48 -199 128 -199q91 0 147 53t79 146q50 201 -127 201q-176 0 -227 -201z" />
<glyph unicode="&#x106;" horiz-adv-x="826" d="M84 400q46 187 185 303.5t336 116.5q199 0 292 -131l-129 -105q-31 54 -76 79t-119 25q-137 0 -223.5 -79t-119.5 -209q-31 -127 16.5 -202.5t186.5 -75.5q74 0 132.5 25t115.5 80l77 -103q-161 -134 -358 -134q-201 0 -281.5 111.5t-34.5 298.5zM503 930l238 217l64 -87 l-261 -186z" />
<glyph unicode="&#x107;" horiz-adv-x="658" d="M62 310q35 143 144 236.5t260 93.5q152 0 226 -93l-119 -97q-48 62 -138 62q-88 -1 -149.5 -57t-83.5 -145q-22 -87 10 -139.5t124 -52.5q88 0 174 66l71 -97q-130 -97 -277 -97q-106 0 -170 43t-78 114.5t6 162.5zM360 751l238 217l65 -87l-261 -186z" />
<glyph unicode="&#x108;" horiz-adv-x="826" d="M84 400q46 187 185 303.5t336 116.5q199 0 292 -131l-129 -105q-31 54 -76 79t-119 25q-137 0 -223.5 -79t-119.5 -209q-31 -127 16.5 -202.5t186.5 -75.5q74 0 132.5 25t115.5 80l77 -103q-161 -134 -358 -134q-201 0 -281.5 111.5t-34.5 298.5zM429 928l244 195h2 l145 -195l-68 -55l-113 115l-169 -115z" />
<glyph unicode="&#x109;" horiz-adv-x="658" d="M62 310q35 143 144 236.5t260 93.5q152 0 226 -93l-119 -97q-48 62 -138 62q-88 -1 -149.5 -57t-83.5 -145q-22 -87 10 -139.5t124 -52.5q88 0 174 66l71 -97q-130 -97 -277 -97q-106 0 -170 43t-78 114.5t6 162.5zM288 752l244 195h2l145 -195l-68 -56l-113 116 l-169 -116z" />
<glyph unicode="&#x10a;" horiz-adv-x="826" d="M84 400q46 187 185 303.5t336 116.5q199 0 292 -131l-129 -105q-31 54 -76 79t-119 25q-137 0 -223.5 -79t-119.5 -209q-31 -127 16.5 -202.5t186.5 -75.5q74 0 132.5 25t115.5 80l77 -103q-161 -134 -358 -134q-201 0 -281.5 111.5t-34.5 298.5zM554 970q10 39 36 62.5 t63 23.5t51.5 -23.5t4.5 -62.5t-36 -62t-63 -23t-51 23t-5 62z" />
<glyph unicode="&#x10b;" horiz-adv-x="658" d="M62 310q35 143 144 236.5t260 93.5q152 0 226 -93l-119 -97q-48 62 -138 62q-88 -1 -149.5 -57t-83.5 -145q-22 -87 10 -139.5t124 -52.5q88 0 174 66l71 -97q-130 -97 -277 -97q-106 0 -170 43t-78 114.5t6 162.5zM416 792q10 39 36 62.5t63 23.5t51.5 -23.5t4.5 -62.5 q-9 -38 -35 -61.5t-63 -23.5t-51.5 23t-5.5 62z" />
<glyph unicode="&#x10c;" horiz-adv-x="826" d="M84 400q46 187 185 303.5t336 116.5q199 0 292 -131l-129 -105q-31 54 -76 79t-119 25q-137 0 -223.5 -79t-119.5 -209q-31 -127 16.5 -202.5t186.5 -75.5q74 0 132.5 25t115.5 80l77 -103q-161 -134 -358 -134q-201 0 -281.5 111.5t-34.5 298.5zM460 1070l68 55 l113 -115l168 115l42 -55l-244 -195h-2z" />
<glyph unicode="&#x10d;" horiz-adv-x="658" d="M62 310q35 143 144 236.5t260 93.5q152 0 226 -93l-119 -97q-48 62 -138 62q-88 -1 -149.5 -57t-83.5 -145q-22 -87 10 -139.5t124 -52.5q88 0 174 66l71 -97q-130 -97 -277 -97q-106 0 -170 43t-78 114.5t6 162.5zM327 891l68 56l113 -115l168 115l42 -56l-244 -195h-2z " />
<glyph unicode="&#x10e;" horiz-adv-x="864" d="M20 0l200 810h327q393 0 293 -405q-15 -62 -36 -114.5t-60 -108.5t-90 -94t-128.5 -63t-173.5 -25h-332zM182 132h193q79 0 135.5 20t92 60t55.5 84.5t36 108.5q12 50 16 87.5t-3.5 74t-29 59.5t-65 37.5t-107.5 14.5h-188l10 -14l-128 -518zM407 1070l69 55l112 -115 l169 115l41 -55l-243 -195h-2z" />
<glyph unicode="&#x10f;" horiz-adv-x="894" d="M63 314q36 146 136 236t247 90q56 0 99.5 -18t65.5 -49h2l65 265h141l-207 -839h-141l13 52h-2q-80 -61 -197 -61q-145 0 -201.5 89.5t-20.5 234.5zM203 314q-48 -199 128 -199q91 0 147 53t79 146q50 201 -127 201q-176 0 -227 -201zM865 727l65 81l16 11q-25 4 -36 26 t-2 57q9 39 35 62t63 23t51.5 -23t5.5 -62q-8 -29 -27 -53l-123 -154z" />
<glyph unicode="&#x110;" horiz-adv-x="864" d="M20 0l80 325l11 14h-72l33 132h72l-4 14l80 325h327q393 0 293 -405q-15 -62 -36 -114.5t-60 -108.5t-90 -94t-128.5 -63t-173.5 -25h-332zM196 132h179q79 0 135.5 20t92 60t55.5 84.5t36 108.5q12 50 16 87.5t-3.5 74t-29 59.5t-65 37.5t-107.5 14.5h-174l-48 -193 l-11 -14h201l-33 -132h-201l5 -14z" />
<glyph unicode="&#x111;" d="M63 314q36 146 136 236t247 90q56 0 99.5 -18t65.5 -49h2l27 108l10 14h-222l23 91h221l-3 14l10 40h140l-9 -40l-11 -14h43l-23 -91h-42l3 -14l-168 -682h-141l13 52h-2q-80 -61 -197 -61q-145 0 -201.5 89.5t-20.5 234.5zM203 314q-48 -199 128 -199q91 0 147 53 t79 146q50 201 -127 201q-176 0 -227 -201z" />
<glyph unicode="&#x112;" horiz-adv-x="797" d="M20 0l200 810h638l-32 -132h-509l10 -14l-44 -179l-17 -14h461l-32 -132h-462l11 -14l-45 -179l-17 -14h509l-33 -132h-638zM376 899l23 93h390l-23 -93h-390z" />
<glyph unicode="&#x113;" horiz-adv-x="748" d="M62 310q35 146 144 238t259 92q155 0 213 -91.5t22 -238.5q-4 -19 -17 -56h-500l10 -14q0 -127 146 -127q89 0 185 70l70 -94q-137 -99 -285 -99q-160 0 -221.5 89t-25.5 231zM213 375h369l-10 14q-2 127 -138 127t-203 -127zM296 742l23 93h391l-23 -93h-391z" />
<glyph unicode="&#x114;" horiz-adv-x="797" d="M20 0l200 810h638l-32 -132h-509l10 -14l-44 -179l-17 -14h461l-32 -132h-462l11 -14l-45 -179l-17 -14h509l-33 -132h-638zM403 1032h99q8 -35 27.5 -51.5t57.5 -16.5q70 0 118 68h98q-85 -157 -239 -157q-153 0 -161 157z" />
<glyph unicode="&#x115;" horiz-adv-x="748" d="M62 310q35 146 144 238t259 92q155 0 213 -91.5t22 -238.5q-4 -19 -17 -56h-500l10 -14q0 -127 146 -127q89 0 185 70l70 -94q-137 -99 -285 -99q-160 0 -221.5 89t-25.5 231zM213 375h369l-10 14q-2 127 -138 127t-203 -127zM316 852h99q8 -35 27.5 -51.5t57.5 -16.5 q70 0 118 68h98q-85 -157 -239 -157q-153 0 -161 157z" />
<glyph unicode="&#x116;" horiz-adv-x="797" d="M20 0l200 810h638l-32 -132h-509l10 -14l-44 -179l-17 -14h461l-32 -132h-462l11 -14l-45 -179l-17 -14h509l-33 -132h-638zM505 970q9 39 35 62.5t63 23.5t51.5 -23.5t4.5 -62.5q-9 -38 -35 -61.5t-63 -23.5t-51.5 23t-4.5 62z" />
<glyph unicode="&#x117;" horiz-adv-x="748" d="M62 310q35 146 144 238t259 92q155 0 213 -91.5t22 -238.5q-4 -19 -17 -56h-500l10 -14q0 -127 146 -127q89 0 185 70l70 -94q-137 -99 -285 -99q-160 0 -221.5 89t-25.5 231zM213 375h369l-10 14q-2 127 -138 127t-203 -127zM421 792q10 39 36 62.5t63 23.5t51.5 -23.5 t4.5 -62.5t-36 -62t-63 -23t-51 23t-5 62z" />
<glyph unicode="&#x118;" horiz-adv-x="797" d="M20 0l200 810h638l-32 -132h-509l10 -14l-44 -179l-17 -14h461l-32 -132h-462l11 -14l-45 -179l-17 -14h509l-33 -132h-20l-144 -127q-14 -13 -18 -30q-5 -25 15 -34t37 7q1 1 31 26l37 -49q-35 -30 -41 -35q-39 -35 -88 -38q-43 -2 -68 28.5t-16 75.5q13 54 59 92l99 84 h-521z" />
<glyph unicode="&#x119;" horiz-adv-x="748" d="M62 310q35 146 144 238t259 92q155 0 213 -91.5t22 -238.5q-4 -19 -17 -56h-500l10 -14q0 -127 146 -127q89 0 185 70l70 -94q-58 -41 -111 -64l-175 -152q-13 -12 -17 -30q-5 -25 15 -34t37 7q1 1 31 26l37 -49q-13 -11 -25 -21t-16 -14q-40 -35 -89 -38 q-42 -2 -67 28.5t-16 75.5q11 52 59 92l89 75q-13 -1 -37 -1q-160 0 -221.5 89t-25.5 231zM213 375h369l-10 14q-2 127 -138 127t-203 -127z" />
<glyph unicode="&#x11a;" horiz-adv-x="797" d="M20 0l200 810h638l-32 -132h-509l10 -14l-44 -179l-17 -14h461l-32 -132h-462l11 -14l-45 -179l-17 -14h509l-33 -132h-638zM419 1070l68 55l113 -115l169 115l41 -55l-244 -195h-2z" />
<glyph unicode="&#x11b;" horiz-adv-x="748" d="M62 310q35 146 144 238t259 92q155 0 213 -91.5t22 -238.5q-4 -19 -17 -56h-500l10 -14q0 -127 146 -127q89 0 185 70l70 -94q-137 -99 -285 -99q-160 0 -221.5 89t-25.5 231zM213 375h369l-10 14q-2 127 -138 127t-203 -127zM329 891l68 56l113 -115l168 115l42 -56 l-244 -195h-2z" />
<glyph unicode="&#x11c;" horiz-adv-x="926" d="M83 397q48 193 188 308t337 115q207 0 297 -124l-127 -104q-59 96 -202 96q-137 0 -224.5 -75.5t-121.5 -215.5q-68 -275 201 -275q98 0 176.5 58t105.5 146l17 14h-274l33 132h395l-117 -473h-123l23 91q-46 -44 -120 -72t-149 -28q-197 0 -279 109.5t-36 297.5z M429 928l244 195h2l145 -195l-68 -55l-113 115l-169 -115z" />
<glyph unicode="&#x11d;" d="M-7 -120l122 99q75 -69 167 -69q166 0 205 154l7 27h-2q-82 -56 -189 -56q-150 0 -209.5 81.5t-25.5 218.5q32 130 135 217.5t249 87.5q51 0 94 -16.5t66 -44.5h2l13 51h141l-140 -566q-33 -134 -129 -206.5t-247 -72.5q-153 0 -259 95zM208 335q-20 -81 14.5 -128 t119.5 -47q176 0 220 175q20 82 -13 131t-119 49q-87 0 -144.5 -49.5t-77.5 -130.5zM308 752l244 195h2l145 -195l-68 -56l-113 116l-169 -116z" />
<glyph unicode="&#x11e;" horiz-adv-x="926" d="M83 397q48 193 188 308t337 115q207 0 297 -124l-127 -104q-59 96 -202 96q-137 0 -224.5 -75.5t-121.5 -215.5q-68 -275 201 -275q98 0 176.5 58t105.5 146l17 14h-274l33 132h395l-117 -473h-123l23 91q-46 -44 -120 -72t-149 -28q-197 0 -279 109.5t-36 297.5z M443 1032h99q14 -68 84 -68t118 68h99q-86 -157 -239 -157t-161 157z" />
<glyph unicode="&#x11f;" d="M-7 -120l122 99q75 -69 167 -69q166 0 205 154l7 27h-2q-82 -56 -189 -56q-150 0 -209.5 81.5t-25.5 218.5q32 130 135 217.5t249 87.5q51 0 94 -16.5t66 -44.5h2l13 51h141l-140 -566q-33 -134 -129 -206.5t-247 -72.5q-153 0 -259 95zM208 335q-20 -81 14.5 -128 t119.5 -47q176 0 220 175q20 82 -13 131t-119 49q-87 0 -144.5 -49.5t-77.5 -130.5zM316 852h99q8 -35 27.5 -51.5t57.5 -16.5q70 0 118 68h98q-85 -157 -239 -157q-153 0 -161 157z" />
<glyph unicode="&#x120;" horiz-adv-x="926" d="M83 397q48 193 188 308t337 115q207 0 297 -124l-127 -104q-59 96 -202 96q-137 0 -224.5 -75.5t-121.5 -215.5q-68 -275 201 -275q98 0 176.5 58t105.5 146l17 14h-274l33 132h395l-117 -473h-123l23 91q-46 -44 -120 -72t-149 -28q-197 0 -279 109.5t-36 297.5z M556 970q10 39 36 62.5t63 23.5t51.5 -23.5t4.5 -62.5t-36 -62t-63 -23t-51 23t-5 62z" />
<glyph unicode="&#x121;" d="M-7 -120l122 99q75 -69 167 -69q166 0 205 154l7 27h-2q-82 -56 -189 -56q-150 0 -209.5 81.5t-25.5 218.5q32 130 135 217.5t249 87.5q51 0 94 -16.5t66 -44.5h2l13 51h141l-140 -566q-33 -134 -129 -206.5t-247 -72.5q-153 0 -259 95zM208 335q-20 -81 14.5 -128 t119.5 -47q176 0 220 175q20 82 -13 131t-119 49q-87 0 -144.5 -49.5t-77.5 -130.5zM421 792q10 39 36 62.5t63 23.5t51.5 -23.5t4.5 -62.5t-36 -62t-63 -23t-51 23t-5 62z" />
<glyph unicode="&#x122;" horiz-adv-x="926" d="M83 397q48 193 188 308t337 115q207 0 297 -124l-127 -104q-59 96 -202 96q-137 0 -224.5 -75.5t-121.5 -215.5q-68 -275 201 -275q98 0 176.5 58t105.5 146l17 14h-274l33 132h395l-117 -473h-123l23 91q-46 -44 -120 -72t-149 -28q-197 0 -279 109.5t-36 297.5z M272 -287l56 69l21 13q-60 10 -43 79q19 81 97 81q38 0 52.5 -21t4.5 -60q-6 -24 -26 -49l-116 -143z" />
<glyph unicode="&#x123;" d="M-7 -120l122 99q75 -69 167 -69q166 0 205 154l7 27h-2q-82 -56 -189 -56q-150 0 -209.5 81.5t-25.5 218.5q32 130 135 217.5t249 87.5q51 0 94 -16.5t66 -44.5h2l13 51h141l-140 -566q-33 -134 -129 -206.5t-247 -72.5q-153 0 -259 95zM208 335q-20 -81 14.5 -128 t119.5 -47q176 0 220 175q20 82 -13 131t-119 49q-87 0 -144.5 -49.5t-77.5 -130.5zM420 772q6 24 26 49l116 143l46 -31l-56 -69l-21 -13q60 -10 44 -79q-21 -81 -98 -81q-38 0 -52.5 21t-4.5 60z" />
<glyph unicode="&#x124;" horiz-adv-x="886" d="M20 0l200 810h143l-80 -325l-17 -14h448l-10 14l80 325h144l-200 -810h-144l80 325l18 14h-449l11 -14l-81 -325h-143zM407 928l244 195h2l145 -195l-68 -55l-113 115l-169 -115z" />
<glyph unicode="&#x125;" d="M20 0l207 840h141l-66 -267h2q37 30 91.5 48t105.5 18q131 0 186 -67.5t27 -180.5l-97 -391h-141l93 377q16 67 -6 102t-109 35q-74 0 -130 -39.5t-74 -109.5l-90 -365h-140zM356 930l244 195h1l146 -195l-69 -56l-112 116l-169 -116z" />
<glyph unicode="&#x126;" horiz-adv-x="886" d="M20 0l134 539l10 14l-47 1l28 112h47l-4 14l32 130h144l-32 -130l-10 -14h434l-3 14l32 130h143l-32 -130l-10 -14h45l-27 -112l-46 -1l3 -14l-133 -539h-143l80 325l17 14h-448l10 -14l-80 -325h-144zM266 471h449l-10 14l13 54l10 14h-434l3 -14l-13 -54z" />
<glyph unicode="&#x127;" d="M20 0l168 682l10 14h-42l23 91h42l-4 14l10 39h141l-10 -39l-10 -14h221l-22 -91h-222l4 -14l-27 -109h2q94 66 197 66q131 0 186 -67.5t27 -180.5l-97 -391h-141l93 377q16 67 -6 102t-109 35q-74 0 -130 -39.5t-74 -109.5l-90 -365h-140z" />
<glyph unicode="&#x128;" horiz-adv-x="332" d="M25 0l200 810h143l-200 -810h-143zM85 930q25 48 75.5 83.5t100.5 35.5q38 0 91 -39q3 -2 12.5 -9t14.5 -10t13.5 -8t17 -7t16.5 -2q55 0 101 78l44 -58q-29 -53 -78.5 -86t-99.5 -33q-23 0 -45 10.5t-46.5 29t-35.5 24.5q-20 11 -38 11q-52 0 -100 -77z" />
<glyph unicode="&#x129;" horiz-adv-x="319" d="M20 0l155 630h141l-156 -630h-140zM34 767q24 47 74.5 83t100.5 36q24 0 46.5 -11t46 -29t36.5 -24q20 -11 36 -11q56 0 101 78l44 -58q-29 -53 -78.5 -86t-99.5 -33q-24 0 -45.5 10.5t-46 29t-35.5 24.5q-19 11 -38 11q-52 0 -100 -77z" />
<glyph unicode="&#x12a;" horiz-adv-x="332" d="M25 0l200 810h143l-200 -810h-143zM122 899l23 93h391l-23 -93h-391z" />
<glyph unicode="&#x12b;" horiz-adv-x="319" d="M20 0l155 630h141l-156 -630h-140zM78 742l23 93h391l-23 -93h-391z" />
<glyph unicode="&#x12c;" horiz-adv-x="332" d="M25 0l200 810h143l-200 -810h-143zM152 1032h99q14 -68 84 -68t118 68h99q-86 -157 -239 -157t-161 157z" />
<glyph unicode="&#x12d;" horiz-adv-x="319" d="M20 0l155 630h141l-156 -630h-140zM102 852h99q14 -68 84 -68t118 68h98q-85 -157 -238 -157q-155 0 -161 157z" />
<glyph unicode="&#x12e;" horiz-adv-x="332" d="M-103 -176q11 52 59 92l99 84h-30l200 810h143l-200 -810h-16l-145 -127q-13 -12 -17 -30q-5 -25 15 -34t37 7q1 1 31 26l37 -49q-35 -30 -41 -35q-40 -35 -88 -38q-43 -2 -68 28.5t-16 75.5z" />
<glyph unicode="&#x12f;" horiz-adv-x="319" d="M-113 -176q13 54 59 92l99 84h-25l155 630h141l-156 -630h-18l-144 -127q-14 -13 -18 -30q-5 -25 15 -34t37 7q1 1 31 26l37 -49q-35 -30 -41 -35q-39 -35 -88 -38q-43 -2 -68 28.5t-16 75.5zM201 764.5q9 35.5 36.5 58t62.5 22.5t51 -23t7 -58q-8 -35 -36 -58t-62 -23 q-35 0 -51.5 23t-7.5 58.5z" />
<glyph unicode="&#x130;" horiz-adv-x="332" d="M25 0l200 810h143l-200 -810h-143zM257 970q10 39 36 62.5t63 23.5t51.5 -23.5t4.5 -62.5t-36 -62t-63 -23t-51 23t-5 62z" />
<glyph unicode="&#x131;" horiz-adv-x="319" d="M20 0l155 630h141l-156 -630h-140z" />
<glyph unicode="&#x132;" horiz-adv-x="945" d="M25 0l200 810h143l-200 -810h-143zM252 117l124 102q51 -97 135 -97q72 0 129.5 41t80.5 135l127 512h143l-125 -507q-40 -162 -146 -237.5t-242 -75.5q-149 0 -226 127z" />
<glyph unicode="&#x133;" horiz-adv-x="586" d="M20 0l155 630h141l-156 -630h-140zM97 -192l31 125q41 -22 86 -22q23 0 41.5 16t25.5 45l163 658h140l-165 -669q-44 -176 -227 -176q-54 0 -95 23zM201 764q9 36 36.5 58.5t62.5 22.5t51 -23t7 -58q-8 -35 -36 -58t-62 -23q-35 0 -51.5 23t-7.5 58zM468 764 q9 36 36.5 58.5t62.5 22.5t51 -22.5t8 -58.5q-9 -35 -37 -58t-62 -23q-35 0 -51 22.5t-8 58.5z" />
<glyph unicode="&#x134;" horiz-adv-x="653" d="M-40 117l124 102q51 -97 135 -97q71 0 129 41t81 135l127 512h143l-125 -507q-40 -162 -146 -237.5t-242 -75.5q-151 0 -226 127zM457 928l243 195h2l146 -195l-69 -55l-112 115l-169 -115z" />
<glyph unicode="&#x135;" horiz-adv-x="309" d="M-180 -192l31 125q41 -22 85 -22q24 0 42.5 16t25.5 45l162 658h141l-165 -669q-44 -176 -227 -176q-54 0 -95 23zM67 752l244 195h2l146 -195l-69 -56l-113 116l-168 -116z" />
<glyph unicode="&#x136;" horiz-adv-x="846" d="M20 0l200 810h143l-200 -810h-143zM242 -287l57 69l20 13q-60 10 -43 79q19 81 97 81q77 0 58 -81q-7 -23 -26 -49l-116 -143zM273 409l487 400h203l-500 -400v-2l314 -407h-208z" />
<glyph unicode="&#x137;" horiz-adv-x="725" d="M20 0l207 840h141l-208 -840h-140zM202 -287l57 69l21 13q-61 10 -44 79q21 81 97 81q77 0 58 -81q-6 -24 -26 -49l-116 -143zM249 317l377 313h176l-388 -309v-2l241 -319h-179z" />
<glyph unicode="&#x138;" horiz-adv-x="725" d="M20 0l155 630h141l-156 -630h-140zM249 317l379 313h174l-388 -309v-2l241 -319h-176z" />
<glyph unicode="&#x139;" horiz-adv-x="696" d="M20 0l200 810h143l-164 -664l-17 -14h462l-32 -132h-592zM234 930l237 217l65 -87l-261 -186z" />
<glyph unicode="&#x13a;" horiz-adv-x="319" d="M20 0l207 840h141l-208 -840h-140zM194 930l238 217l64 -87l-260 -186z" />
<glyph unicode="&#x13b;" horiz-adv-x="696" d="M20 0l200 810h143l-164 -664l-17 -14h462l-32 -132h-592zM202 -287l57 69l21 13q-61 10 -44 79q21 81 97 81q77 0 58 -81q-6 -24 -26 -49l-116 -143z" />
<glyph unicode="&#x13c;" horiz-adv-x="319" d="M-56 -287l57 69l20 13q-60 10 -43 79q19 81 97 81q77 0 58 -81q-7 -23 -26 -49l-116 -143zM20 0l207 840h141l-208 -840h-140z" />
<glyph unicode="&#x13d;" horiz-adv-x="696" d="M20 0l200 810h143l-164 -664l-17 -14h462l-32 -132h-592zM405 559l65 81l17 11q-25 4 -36 26t-2 57q9 39 35 62t63 23t51.5 -23t4.5 -62q-7 -30 -27 -53l-122 -154z" />
<glyph unicode="&#x13e;" horiz-adv-x="430" d="M20 0l207 840h141l-208 -840h-140zM375 585l65 81l16 11q-25 4 -35.5 26t-2.5 57q10 39 36 62t63 23t51.5 -23t4.5 -62q-7 -30 -27 -53l-122 -154z" />
<glyph unicode="&#x13f;" horiz-adv-x="696" d="M20 0l200 810h143l-164 -664l-17 -14h462l-32 -132h-592zM351 434q9 39 35 62t63 23t51.5 -23t4.5 -62q-9 -39 -35 -62t-63 -23t-51.5 23t-4.5 62z" />
<glyph unicode="&#x140;" horiz-adv-x="458" d="M20 0l207 840h141l-208 -840h-140zM341 434q9 39 35 62t63 23t51.5 -23t4.5 -62q-9 -39 -35 -62t-63 -23t-51.5 23t-4.5 62z" />
<glyph unicode="&#x141;" horiz-adv-x="696" d="M6 244l33 135l88 33l-3 11l96 387h143l-81 -330l-11 -17l243 89l-33 -135l-242 -88l3 -11l-43 -172l-17 -14h462l-32 -132h-592l64 262l10 15z" />
<glyph unicode="&#x142;" horiz-adv-x="319" d="M17 291l32 128l90 35l-5 10l93 376h141l-78 -316l-10 -16l89 35l-32 -129l-91 -35l5 -11l-91 -368h-140l76 309l10 16z" />
<glyph unicode="&#x143;" horiz-adv-x="886" d="M20 0l200 810h123l268 -491l28 -89h2l143 580h144l-200 -810h-124l-268 492l-28 88h-1l-144 -580h-143zM479 930l238 217l64 -87l-260 -186z" />
<glyph unicode="&#x144;" d="M20 0l155 631h141l-14 -58h2q39 30 94 48.5t105 18.5q123 0 181.5 -65t29.5 -181l-97 -394h-141l93 378q18 69 -4.5 103t-110.5 34q-74 0 -129.5 -38t-72.5 -107l-92 -370h-140zM381 751l238 217l64 -87l-260 -186z" />
<glyph unicode="&#x145;" horiz-adv-x="886" d="M20 0l200 810h123l268 -491l28 -89h2l143 580h144l-200 -810h-124l-268 492l-28 88h-1l-144 -580h-143zM242 -287l57 69l20 13q-60 10 -43 79q19 81 97 81q77 0 58 -81q-7 -23 -26 -49l-116 -143z" />
<glyph unicode="&#x146;" d="M20 0l155 631h141l-14 -58h2q39 30 94 48.5t105 18.5q123 0 181.5 -65t29.5 -181l-97 -394h-141l93 378q18 69 -4.5 103t-110.5 34q-74 0 -129.5 -38t-72.5 -107l-92 -370h-140zM183 -287l56 69l21 13q-60 10 -44 79q21 81 98 81q38 0 52.5 -21t4.5 -60q-6 -24 -26 -49 l-116 -143z" />
<glyph unicode="&#x147;" horiz-adv-x="886" d="M20 0l200 810h123l268 -491l28 -89h2l143 580h144l-200 -810h-124l-268 492l-28 88h-1l-144 -580h-143zM436 1070l68 55l113 -115l169 115l41 -55l-244 -195h-2z" />
<glyph unicode="&#x148;" d="M20 0l155 631h141l-14 -58h2q39 30 94 48.5t105 18.5q123 0 181.5 -65t29.5 -181l-97 -394h-141l93 378q18 69 -4.5 103t-110.5 34q-74 0 -129.5 -38t-72.5 -107l-92 -370h-140zM365 891l69 56l112 -115l169 115l41 -56l-243 -195h-2z" />
<glyph unicode="&#x149;" horiz-adv-x="850" d="M69 559l65 81l16 11q-25 4 -36 26t-2 57q9 39 35 62t63 23t51.5 -23t5.5 -62q-8 -29 -27 -53l-123 -154zM99 0l156 631h140l-14 -58h2q40 31 94.5 49t105.5 18q122 0 180.5 -65.5t29.5 -180.5l-97 -394h-141l93 378q18 69 -4.5 103t-110.5 34q-74 0 -129.5 -38 t-72.5 -107l-92 -370h-140z" />
<glyph unicode="&#x14a;" horiz-adv-x="886" d="M20 0l200 810h123l268 -491l28 -89h2l143 580h144q-27 -109 -70.5 -286.5t-82 -331.5l-71.5 -286q-13 -54 -64.5 -92t-108.5 -38q-56 0 -85 37t-15 91l11 45l106 -1l-9 -39q-6 -25 17 -25q21 0 29 26l16 67q5 21 -4 36l-261 479l-28 88h-1l-144 -580h-143z" />
<glyph unicode="&#x14b;" d="M20 0l155 631h141l-14 -58h2q39 30 94 48.5t105 18.5q123 0 181.5 -65t29.5 -181l-115 -464l-5 -16q-20 -63 -73.5 -100.5t-114.5 -37.5q-60 0 -93 38.5t-18 98.5l10 41l116 -1l-9 -38q-3 -12 2 -18t14 -6q22 0 27 25q23 91 65.5 264t48.5 198q18 69 -4.5 103t-110.5 34 q-74 0 -129.5 -38t-72.5 -107l-92 -370h-140z" />
<glyph unicode="&#x14c;" horiz-adv-x="910" d="M84 400q47 188 179.5 304t324.5 116t268 -115.5t29 -304.5q-46 -186 -179 -298t-323 -112q-193 0 -269 111.5t-30 298.5zM230 400q-31 -127 13 -202.5t173 -75.5q130 0 210.5 75.5t111.5 202.5q17 60 14 112.5t-22 91.5t-64 61.5t-111 22.5q-128 0 -210 -78.5 t-115 -209.5zM411 899l23 93h391l-23 -93h-391z" />
<glyph unicode="&#x14d;" horiz-adv-x="748" d="M63 315q35 144 140 234.5t259 90.5q155 0 215 -90t25 -235q-36 -144 -141.5 -234.5t-258.5 -90.5q-155 0 -215 90.5t-24 234.5zM203 315q-22 -91 9.5 -145.5t120.5 -54.5q90 0 147.5 54t80.5 146q23 91 -8.5 145.5t-121.5 54.5t-147.5 -54t-80.5 -146zM292 742l23 93h391 l-23 -93h-391z" />
<glyph unicode="&#x14e;" horiz-adv-x="910" d="M84 400q47 188 179.5 304t324.5 116t268 -115.5t29 -304.5q-46 -186 -179 -298t-323 -112q-193 0 -269 111.5t-30 298.5zM230 400q-31 -127 13 -202.5t173 -75.5q130 0 210.5 75.5t111.5 202.5q17 60 14 112.5t-22 91.5t-64 61.5t-111 22.5q-128 0 -210 -78.5 t-115 -209.5zM439 1032h99q14 -68 84 -68t118 68h99q-86 -157 -239 -157t-161 157z" />
<glyph unicode="&#x14f;" horiz-adv-x="748" d="M63 315q35 144 140 234.5t259 90.5q155 0 215 -90t25 -235q-36 -144 -141.5 -234.5t-258.5 -90.5q-155 0 -215 90.5t-24 234.5zM203 315q-22 -91 9.5 -145.5t120.5 -54.5q90 0 147.5 54t80.5 146q23 91 -8.5 145.5t-121.5 54.5t-147.5 -54t-80.5 -146zM314 852h99 q8 -35 27.5 -51.5t57.5 -16.5q70 0 118 68h98q-85 -157 -239 -157q-153 0 -161 157z" />
<glyph unicode="&#x150;" horiz-adv-x="910" d="M84 400q47 188 179.5 304t324.5 116t268 -115.5t29 -304.5q-46 -186 -179 -298t-323 -112q-193 0 -269 111.5t-30 298.5zM230 400q-31 -127 13 -202.5t173 -75.5q130 0 210.5 75.5t111.5 202.5q17 60 14 112.5t-22 91.5t-64 61.5t-111 22.5q-128 0 -210 -78.5 t-115 -209.5zM439 926l181 172l63 -84l-205 -140zM645 926l181 172l62 -84l-204 -140z" />
<glyph unicode="&#x151;" horiz-adv-x="748" d="M63 315q35 144 140 234.5t259 90.5q155 0 215 -90t25 -235q-36 -144 -141.5 -234.5t-258.5 -90.5q-155 0 -215 90.5t-24 234.5zM203 315q-22 -91 9.5 -145.5t120.5 -54.5q90 0 147.5 54t80.5 146q23 91 -8.5 145.5t-121.5 54.5t-147.5 -54t-80.5 -146zM305 744l182 172 l62 -84l-205 -140zM511 744l182 172l62 -84l-205 -140z" />
<glyph unicode="&#x152;" horiz-adv-x="1131" d="M84 400q46 186 159.5 303t272.5 117q111 0 159 -59l13 50h504l-32 -132h-368l3 -15l-45 -180l-10 -13h330l-32 -132h-330l3 -16l-43 -175l-11 -17h368l-33 -132h-505l12 49q-75 -58 -188 -58q-81 0 -136.5 30.5t-81.5 85.5t-29.5 130t20.5 164zM231 400 q-33 -125 -4 -201.5t117 -76.5q90 0 154.5 74.5t96.5 203.5q34 125 6 206.5t-117 81.5q-88 0 -154.5 -78t-98.5 -210z" />
<glyph unicode="&#x153;" horiz-adv-x="1190" d="M63 315q35 144 136 234.5t248 90.5q162 0 216 -112q44 53 111.5 82.5t147.5 29.5q148 0 202.5 -91.5t18.5 -238.5q-2 -6 -4 -12.5t-5.5 -18.5t-7.5 -25h-479l10 -14q5 -126 140 -126q92 0 181 69l67 -94q-124 -99 -279 -99q-166 0 -221 109q-40 -51 -108 -80t-150 -29 q-148 0 -204 90t-20 235zM194 315q-23 -92 7 -146.5t117 -54.5t143.5 54t79.5 147q23 92 -7 146t-117 54q-88 0 -144 -53.5t-79 -146.5zM678 376h354l-10 15q-5 124 -130 124q-128 0 -196 -124z" />
<glyph unicode="&#x154;" horiz-adv-x="843" d="M20 0l200 810h376q125 0 193.5 -64.5t39.5 -184.5q-16 -65 -70.5 -119.5t-120.5 -81.5l-1 -2q20 -9 37.5 -32.5t24.5 -53.5l70 -272h-161l-54 214q-13 53 -49.5 77t-107.5 24h-170l11 -14l-75 -301h-143zM260 446h235q77 0 125.5 32t61.5 83q15 61 -16.5 89t-102.5 28 h-246l10 -14l-50 -203zM469 930l238 217l65 -87l-261 -186z" />
<glyph unicode="&#x155;" horiz-adv-x="469" d="M20 0l155 630h141l-23 -93h2q84 100 209 100h33l-34 -139h-43q-89 0 -144 -44.5t-79 -141.5l-77 -312h-140zM249 750l238 217l65 -87l-261 -186z" />
<glyph unicode="&#x156;" horiz-adv-x="843" d="M20 0l200 810h376q125 0 193.5 -64.5t39.5 -184.5q-16 -65 -70.5 -119.5t-120.5 -81.5l-1 -2q20 -9 37.5 -32.5t24.5 -53.5l70 -272h-161l-54 214q-13 53 -49.5 77t-107.5 24h-170l11 -14l-75 -301h-143zM244 -287l57 69l20 13q-60 10 -43 79q19 81 97 81q77 0 58 -81 q-7 -23 -26 -49l-116 -143zM260 446h235q77 0 125.5 32t61.5 83q15 61 -16.5 89t-102.5 28h-246l10 -14l-50 -203z" />
<glyph unicode="&#x157;" horiz-adv-x="469" d="M18 -287l57 69l21 13q-61 10 -44 79q21 81 97 81q77 0 58 -81q-6 -24 -26 -49l-116 -143zM20 0l155 630h141l-23 -93h2q84 100 209 100h33l-34 -139h-43q-89 0 -144 -44.5t-79 -141.5l-77 -312h-140z" />
<glyph unicode="&#x158;" horiz-adv-x="843" d="M20 0l200 810h376q125 0 193.5 -64.5t39.5 -184.5q-16 -65 -70.5 -119.5t-120.5 -81.5l-1 -2q20 -9 37.5 -32.5t24.5 -53.5l70 -272h-161l-54 214q-13 53 -49.5 77t-107.5 24h-170l11 -14l-75 -301h-143zM260 446h235q77 0 125.5 32t61.5 83q15 61 -16.5 89t-102.5 28 h-246l10 -14l-50 -203zM408 1070l69 55l112 -115l169 115l41 -55l-243 -195h-2z" />
<glyph unicode="&#x159;" horiz-adv-x="469" d="M20 0l155 630h141l-23 -93h2q84 100 209 100h33l-34 -139h-43q-89 0 -144 -44.5t-79 -141.5l-77 -312h-140zM229 891l68 56l113 -115l168 115l42 -56l-244 -195h-2z" />
<glyph unicode="&#x15a;" horiz-adv-x="817" d="M13 133l128 103q57 -63 111.5 -88.5t127.5 -25.5q102 0 159 30t68 73q8 30 -17.5 58t-93.5 46q-22 6 -68 19q-30 8 -46 12t-44.5 12.5t-44 15t-39.5 17t-36.5 20.5t-29 23t-24 27.5t-14 32t-6 38.5t6.5 44q24 98 128.5 164t266.5 66q202 0 302 -136l-128 -104 q-68 108 -206 108q-101 0 -154 -28.5t-62 -65.5q-7 -30 24.5 -52t126.5 -49q11 -3 121 -34q113 -30 158.5 -89.5t26.5 -138.5q-26 -102 -129 -171.5t-275 -69.5q-230 0 -338 143zM451 930l238 217l65 -87l-261 -186z" />
<glyph unicode="&#x15b;" horiz-adv-x="679" d="M11 105l123 99q27 -42 73.5 -66t98.5 -24q73 0 109.5 20.5t42.5 44.5q2 11 0.5 21t-20.5 21t-56 21q-52 13 -103 30q-28 8 -49.5 16t-44 19.5t-36.5 25t-25.5 32t-12 40t4.5 49.5q20 80 104.5 133t211.5 53q164 0 245 -99l-121 -97q-52 71 -155 71q-48 0 -82 -12t-46 -24 t-15 -23q-5 -20 17 -32t87 -30q64 -21 93 -28q178 -50 146 -183q-20 -83 -104 -138.5t-218 -55.5q-81 0 -152.5 30.5t-115.5 85.5zM356 751l238 217l65 -87l-261 -186z" />
<glyph unicode="&#x15c;" horiz-adv-x="817" d="M13 133l128 103q57 -63 111.5 -88.5t127.5 -25.5q102 0 159 30t68 73q8 30 -17.5 58t-93.5 46q-22 6 -68 19q-30 8 -46 12t-44.5 12.5t-44 15t-39.5 17t-36.5 20.5t-29 23t-24 27.5t-14 32t-6 38.5t6.5 44q24 98 128.5 164t266.5 66q202 0 302 -136l-128 -104 q-68 108 -206 108q-101 0 -154 -28.5t-62 -65.5q-7 -30 24.5 -52t126.5 -49q11 -3 121 -34q113 -30 158.5 -89.5t26.5 -138.5q-26 -102 -129 -171.5t-275 -69.5q-230 0 -338 143zM381 928l243 195h2l146 -195l-69 -55l-113 115l-168 -115z" />
<glyph unicode="&#x15d;" horiz-adv-x="679" d="M11 105l123 99q27 -42 73.5 -66t98.5 -24q73 0 109.5 20.5t42.5 44.5q2 11 0.5 21t-20.5 21t-56 21q-52 13 -103 30q-28 8 -49.5 16t-44 19.5t-36.5 25t-25.5 32t-12 40t4.5 49.5q20 80 104.5 133t211.5 53q164 0 245 -99l-121 -97q-52 71 -155 71q-48 0 -82 -12t-46 -24 t-15 -23q-5 -20 17 -32t87 -30q64 -21 93 -28q178 -50 146 -183q-20 -83 -104 -138.5t-218 -55.5q-81 0 -152.5 30.5t-115.5 85.5zM262 752l243 195h2l146 -195l-69 -56l-113 116l-168 -116z" />
<glyph unicode="&#x15e;" horiz-adv-x="817" d="M13 133l128 103q57 -63 111.5 -88.5t127.5 -25.5q102 0 159 30t68 73q8 30 -17.5 58t-93.5 46q-22 6 -68 19q-30 8 -46 12t-44.5 12.5t-44 15t-39.5 17t-36.5 20.5t-29 23t-24 27.5t-14 32t-6 38.5t6.5 44q24 98 128.5 164t266.5 66q202 0 302 -136l-128 -104 q-68 108 -206 108q-101 0 -154 -28.5t-62 -65.5q-7 -30 24.5 -52t126.5 -49q11 -3 121 -34q113 -30 158.5 -89.5t26.5 -138.5q-24 -97 -119.5 -165.5t-253.5 -74.5l12 -15q18 -21 11.5 -49t-37.5 -53l-116 -94l-47 62l86 69q38 31 18 55l-20 27q-185 19 -276 140z" />
<glyph unicode="&#x15f;" horiz-adv-x="679" d="M11 105l123 99q27 -42 73.5 -66t98.5 -24q73 0 109.5 20.5t42.5 44.5q2 11 0.5 21t-20.5 21t-56 21q-52 13 -103 30q-28 8 -49.5 16t-44 19.5t-36.5 25t-25.5 32t-12 40t4.5 49.5q20 80 104.5 133t211.5 53q164 0 245 -99l-121 -97q-52 71 -155 71q-48 0 -82 -12t-46 -24 t-15 -23q-5 -20 17 -32t87 -30q64 -21 93 -28q178 -50 146 -183q-18 -75 -91 -129t-189 -63l12 -15q18 -21 11 -49t-37 -53l-117 -94l-46 62l85 69q38 30 19 55l-19 26h-1q-140 18 -217 113z" />
<glyph unicode="&#x160;" horiz-adv-x="817" d="M13 133l128 103q57 -63 111.5 -88.5t127.5 -25.5q102 0 159 30t68 73q8 30 -17.5 58t-93.5 46q-22 6 -68 19q-30 8 -46 12t-44.5 12.5t-44 15t-39.5 17t-36.5 20.5t-29 23t-24 27.5t-14 32t-6 38.5t6.5 44q24 98 128.5 164t266.5 66q202 0 302 -136l-128 -104 q-68 108 -206 108q-101 0 -154 -28.5t-62 -65.5q-7 -30 24.5 -52t126.5 -49q11 -3 121 -34q113 -30 158.5 -89.5t26.5 -138.5q-26 -102 -129 -171.5t-275 -69.5q-230 0 -338 143zM412 1070l69 55l112 -115l169 115l41 -55l-243 -195h-2z" />
<glyph unicode="&#x161;" horiz-adv-x="679" d="M11 105l123 99q27 -42 73.5 -66t98.5 -24q73 0 109.5 20.5t42.5 44.5q2 11 0.5 21t-20.5 21t-56 21q-52 13 -103 30q-28 8 -49.5 16t-44 19.5t-36.5 25t-25.5 32t-12 40t4.5 49.5q20 80 104.5 133t211.5 53q164 0 245 -99l-121 -97q-52 71 -155 71q-48 0 -82 -12t-46 -24 t-15 -23q-5 -20 17 -32t87 -30q64 -21 93 -28q178 -50 146 -183q-20 -83 -104 -138.5t-218 -55.5q-81 0 -152.5 30.5t-115.5 85.5zM310 890l68 55l113 -115l169 115l41 -55l-244 -195h-2z" />
<glyph unicode="&#x162;" horiz-adv-x="738" d="M118 678l32 132h698l-32 -132h-285l4 -14l-164 -664h-36l19 -24q18 -21 11.5 -49t-37.5 -53l-116 -94l-46 62l85 69q37 31 19 55l-26 34h-16l164 664l11 14h-285z" />
<glyph unicode="&#x163;" horiz-adv-x="522" d="M66 -158l85 69q38 30 19 55l-44 57q-68 56 -37 183l72 291l12 14h-86l29 118h86l-5 14l22 86l159 77l-40 -163l-11 -14h195l-29 -118h-196l5 -14l-72 -290q-10 -44 2.5 -68t45.5 -24q27 0 49.5 10.5t61.5 41.5l65 -88q-110 -89 -211 -89l11 -14q18 -21 11.5 -49 t-37.5 -53l-116 -94z" />
<glyph unicode="&#x164;" horiz-adv-x="738" d="M118 678l32 132h698l-32 -132h-285l4 -14l-164 -664h-143l164 664l11 14h-285zM374 1070l69 55l113 -115l168 115l41 -55l-243 -195h-2z" />
<glyph unicode="&#x165;" horiz-adv-x="514" d="M87 511l29 118h86l-5 14l22 86l159 77l-40 -163l-11 -14h195l-29 -118h-196l5 -14l-72 -290q-10 -44 2.5 -68t45.5 -24q49 0 111 52l65 -88q-106 -89 -213 -89q-101 0 -139.5 55t-12.5 161l72 291l12 14h-86zM393 691l57 69l21 13q-61 10 -44 79q21 81 97 81q77 0 58 -81 q-6 -24 -26 -49l-116 -143z" />
<glyph unicode="&#x166;" horiz-adv-x="738" d="M118 678l32 132h698l-32 -132h-285l4 -14l-45 -182l-10 -14h185l-32 -131h-185l3 -14l-80 -323h-143l79 323l11 14h-185l32 131h185l-3 14l45 182l11 14h-285z" />
<glyph unicode="&#x167;" horiz-adv-x="513" d="M40 322l29 118h85l-3 14l10 43l12 14h-86l29 118h86l-5 14l22 86l159 77l-40 -163l-11 -14h195l-29 -118h-196l5 -14l-11 -43l-10 -14h195l-29 -118h-195l3 -14l-25 -101q-9 -40 1.5 -66t46.5 -26q49 0 111 52l64 -88q-107 -89 -211 -89q-99 0 -138 57.5t-15 158.5 l26 102l10 14h-85z" />
<glyph unicode="&#x168;" horiz-adv-x="898" d="M107 373l108 437h143l-107 -436q-32 -127 4 -189.5t155 -62.5q117 0 184.5 63t98.5 189l108 436h143l-108 -437q-46 -186 -160.5 -284.5t-297.5 -98.5q-184 0 -250.5 98t-20.5 285zM379 936q25 48 75.5 83.5t100.5 35.5q38 0 91 -39q26 -19 38 -25q19 -11 35 -11 q56 0 102 78l43 -58q-29 -53 -78 -86t-99 -33q-38 0 -89 39q-2 1 -12.5 9t-15 10.5t-14 7.5t-17.5 7t-17 2q-54 0 -100 -77z" />
<glyph unicode="&#x169;" horiz-adv-x="763" d="M75 243l96 387h140l-94 -382q-16 -66 5.5 -98t107.5 -32q74 0 127.5 36.5t70.5 105.5l91 370h141l-156 -631h-141l15 58h-2q-84 -67 -197 -67q-135 0 -184.5 66.5t-19.5 186.5zM261 767q25 48 75.5 83.5t100.5 35.5q38 0 91 -39q32 -22 38 -25q19 -11 36 -11q55 0 101 78 l44 -58q-29 -53 -78.5 -86t-99.5 -33q-23 0 -45 10.5t-46.5 29t-35.5 24.5q-20 11 -38 11q-52 0 -100 -77z" />
<glyph unicode="&#x16a;" horiz-adv-x="898" d="M107 373l108 437h143l-107 -436q-32 -127 4 -189.5t155 -62.5q117 0 184.5 63t98.5 189l108 436h143l-108 -437q-46 -186 -160.5 -284.5t-297.5 -98.5q-184 0 -250.5 98t-20.5 285zM406 899l23 93h391l-23 -93h-391z" />
<glyph unicode="&#x16b;" horiz-adv-x="763" d="M75 243l96 387h140l-94 -382q-16 -66 5.5 -99.5t106.5 -33.5q73 0 127 38t72 107l91 370h141l-156 -631h-141l15 58h-2q-84 -67 -197 -67q-135 0 -184.5 66.5t-19.5 186.5zM301 742l23 93h391l-23 -93h-391z" />
<glyph unicode="&#x16c;" horiz-adv-x="898" d="M107 373l108 437h143l-107 -436q-32 -127 4 -189.5t155 -62.5q117 0 184.5 63t98.5 189l108 436h143l-108 -437q-46 -186 -160.5 -284.5t-297.5 -98.5q-184 0 -250.5 98t-20.5 285zM436 1032h99q14 -68 84 -68t118 68h99q-86 -157 -239 -157t-161 157z" />
<glyph unicode="&#x16d;" horiz-adv-x="763" d="M75 243l96 387h140l-94 -382q-16 -66 5.5 -99.5t106.5 -33.5q73 0 127 38t72 107l91 370h141l-156 -631h-141l15 58h-2q-84 -67 -197 -67q-135 0 -184.5 66.5t-19.5 186.5zM313 852h99q8 -35 27.5 -51.5t57.5 -16.5q70 0 118 68h98q-85 -157 -239 -157q-153 0 -161 157z " />
<glyph unicode="&#x16e;" horiz-adv-x="898" d="M107 373l108 437h143l-107 -436q-32 -127 4 -189.5t155 -62.5q117 0 184.5 63t98.5 189l108 436h143l-108 -437q-46 -186 -160.5 -284.5t-297.5 -98.5q-184 0 -250.5 98t-20.5 285zM508 997q13 55 51.5 89t95.5 34t79 -34t9 -89q-13 -54 -52 -88t-96 -34q-56 0 -78 34 t-9 88zM578 997q-6 -23 2.5 -37.5t31.5 -14.5q49 0 61 52q6 24 -2.5 38.5t-32.5 14.5q-48 0 -60 -53z" />
<glyph unicode="&#x16f;" horiz-adv-x="763" d="M75 243l96 387h140l-94 -382q-16 -66 5.5 -99.5t106.5 -33.5q73 0 127 38t72 107l91 370h141l-156 -631h-141l15 58h-2q-84 -67 -197 -67q-135 0 -184.5 66.5t-19.5 186.5zM395 817q13 55 51.5 88.5t95.5 33.5t79 -33.5t9 -88.5q-13 -54 -52 -88t-96 -34t-78.5 33.5 t-8.5 88.5zM464 817q-6 -24 3 -38.5t32 -14.5q49 0 61 53q6 24 -2.5 38.5t-32.5 14.5q-47 0 -61 -53z" />
<glyph unicode="&#x170;" horiz-adv-x="898" d="M107 373l108 437h143l-107 -436q-32 -127 4 -189.5t155 -62.5q117 0 184.5 63t98.5 189l108 436h143l-108 -437q-46 -186 -160.5 -284.5t-297.5 -98.5q-184 0 -250.5 98t-20.5 285zM433 926l182 172l62 -84l-205 -140zM639 926l181 172l63 -84l-205 -140z" />
<glyph unicode="&#x171;" horiz-adv-x="763" d="M75 243l96 387h140l-94 -382q-16 -66 5.5 -99.5t106.5 -33.5q73 0 127 38t72 107l91 370h141l-156 -631h-141l15 58h-2q-84 -67 -197 -67q-135 0 -184.5 66.5t-19.5 186.5zM301 744l182 172l62 -84l-205 -140zM507 744l182 172l62 -84l-205 -140z" />
<glyph unicode="&#x172;" horiz-adv-x="898" d="M107 373l108 437h143l-107 -436q-32 -127 4 -189.5t155 -62.5q117 0 184.5 63t98.5 189l108 436h143l-108 -437q-81 -332 -368 -376l-141 -124q-15 -14 -17 -30q-4 -15 4.5 -26.5t22.5 -10.5q14 2 25 10q1 1 31 26l37 -49q-13 -11 -25 -21t-16 -14q-40 -35 -89 -38 q-43 -2 -67.5 28.5t-15.5 75.5q11 52 59 92l87 74q-175 4 -238.5 102t-17.5 281z" />
<glyph unicode="&#x173;" horiz-adv-x="763" d="M75 243l96 387h140l-94 -382q-16 -66 5.5 -99.5t106.5 -33.5q73 0 127 38t72 107l91 370h141l-156 -631h-44l-144 -126q-13 -12 -17 -30q-5 -25 15 -34t37 7q1 1 31 26l37 -49q-13 -11 -25 -21t-16 -14q-40 -35 -89 -38q-42 -2 -67 28.5t-16 75.5q11 52 59 92l98 84 l15 57h-2q-84 -67 -197 -67q-135 0 -184.5 66.5t-19.5 186.5z" />
<glyph unicode="&#x174;" horiz-adv-x="1095" d="M155 810h153l13 -524l-6 -83h2l34 83l274 524h107l16 -524l-6 -81h2l34 81l273 524h150l-427 -810h-161l-12 440l6 87h-2l-37 -87l-230 -440h-156zM510 928l244 195h2l145 -195l-68 -55l-113 115l-169 -115z" />
<glyph unicode="&#x175;" horiz-adv-x="929" d="M101 630h148l8 -370l-7 -87h2l36 87l203 370h119l21 -370l-6 -87h2l35 87l191 370h147l-342 -630h-138l-22 338l6 99h-2l-42 -99l-188 -338h-141zM380 752l244 195h2l145 -195l-68 -56l-113 116l-168 -116z" />
<glyph unicode="&#x176;" horiz-adv-x="870" d="M145 810h180l125 -270l28 -83h2l68 83l259 270h179l-465 -474l-83 -336h-144l83 336zM399 928l244 195h2l145 -195l-68 -55l-113 115l-168 -115z" />
<glyph unicode="&#x177;" horiz-adv-x="730" d="M-39 -182l33 136q66 -40 120 -40q57 0 124 98l-137 618h156l80 -383l7 -90h2l49 90l251 383h156l-467 -692q-47 -70 -110.5 -111.5t-130.5 -41.5q-76 0 -133 33zM281 752l244 195h2l145 -195l-68 -56l-113 116l-168 -116z" />
<glyph unicode="&#x178;" horiz-adv-x="870" d="M145 810h180l125 -270l28 -83h2l68 83l259 270h179l-465 -474l-83 -336h-144l83 336zM410 976q8 35 31 55.5t56 20.5t45.5 -20.5t4.5 -55.5q-8 -34 -31.5 -55t-55.5 -21q-33 0 -45.5 20.5t-4.5 55.5zM660 976q8 35 31.5 55.5t56.5 20.5t45.5 -20.5t4.5 -55.5t-31.5 -55.5 t-56.5 -20.5t-45.5 20.5t-4.5 55.5z" />
<glyph unicode="&#x179;" horiz-adv-x="827" d="M-10 0l27 107l558 500l89 69v2h-497l33 132h693l-26 -106l-555 -500l-88 -70v-2h507l-33 -132h-708zM464 930l238 217l65 -87l-261 -186z" />
<glyph unicode="&#x17a;" horiz-adv-x="690" d="M-10 0l25 100l390 340l90 63h-373l31 126h560l-23 -95l-392 -340l-96 -68h391l-31 -126h-572zM346 751l238 217l65 -87l-261 -186z" />
<glyph unicode="&#x17b;" horiz-adv-x="827" d="M-10 0l27 107l558 500l89 69v2h-497l33 132h693l-26 -106l-555 -500l-88 -70v-2h507l-33 -132h-708zM505 970q9 39 35 62.5t63 23.5t51.5 -23.5t4.5 -62.5q-9 -38 -35 -61.5t-63 -23.5t-51.5 23t-4.5 62z" />
<glyph unicode="&#x17c;" horiz-adv-x="690" d="M-10 0l25 100l390 340l89 61l1 2h-373l31 126h560l-23 -95l-392 -340l-96 -66v-2h391l-31 -126h-572zM399 792q9 39 35 62.5t63 23.5t51.5 -23.5t4.5 -62.5q-9 -38 -35 -61.5t-63 -23.5t-51.5 23t-4.5 62z" />
<glyph unicode="&#x17d;" horiz-adv-x="827" d="M-10 0l27 107l566 508l82 63h-498l33 132h693l-26 -106l-554 -499l-90 -73h508l-33 -132h-708zM414 1070l69 55l112 -115l169 115l41 -55l-244 -195h-1z" />
<glyph unicode="&#x17e;" horiz-adv-x="690" d="M-10 0l25 100l390 340l89 61l1 2h-373l31 126h560l-23 -95l-392 -340l-96 -66v-2h391l-31 -126h-572zM307 890l68 55l113 -115l169 115l41 -55l-244 -195h-2z" />
<glyph unicode="&#x17f;" horiz-adv-x="438" d="M45 0l122 498l11 14h-91l29 117h91l-4 14q21 86 95 144t179 58q59 0 96 -17l-30 -121q-39 17 -86 17q-44 0 -74 -22t-39 -59l-159 -643h-140z" />
<glyph unicode="&#x192;" horiz-adv-x="447" d="M-216 -192l34 137q58 -29 91 -29q31 0 54 12t37.5 35t23 44.5t16.5 52.5l106 432l10 14h-81l31 123h81l-3 14q23 95 100 148.5t173 53.5q58 0 96 -17l-30 -121q-40 17 -86 17q-42 0 -72.5 -20t-40.5 -61l-10 -14h190l-31 -123l-190 -1l4 -14l-104 -421 q-72 -285 -294 -285q-42 0 -105 23z" />
<glyph unicode="&#x1fa;" horiz-adv-x="910" d="M-54 0l547 773q-25 33 -11 92q13 55 52 89t96 34t79 -34t8 -89q-14 -58 -57 -92l166 -773h-157l-38 180l11 13h-416l4 -13l-127 -180h-157zM325 325h282l-10 13l-49 227l-4 67h-2l-39 -67l-161 -227zM527 1065l238 217l65 -87l-261 -186zM552 865q-6 -23 2.5 -37.5 t32.5 -14.5q47 0 61 52q12 53 -35 53q-49 0 -61 -53z" />
<glyph unicode="&#x1fb;" d="M63 314q36 146 136 236t247 90q56 0 99.5 -18t65.5 -49h2l14 57h141l-156 -631h-141l13 52h-2q-80 -61 -197 -61q-145 0 -201.5 89.5t-20.5 234.5zM203 314q-48 -199 128 -199q91 0 147 53t79 146q50 201 -127 201q-176 0 -227 -201zM393 807q13 55 52 88.5t96 33.5 t79 -34t8 -88q-13 -54 -52 -88t-96 -34t-78.5 33.5t-8.5 88.5zM443 1014l238 217l65 -87l-261 -186zM463 807q-6 -24 2.5 -38.5t32.5 -14.5q47 0 61 53q12 53 -35 53q-49 0 -61 -53z" />
<glyph unicode="&#x1fc;" horiz-adv-x="1117" d="M-54 0l574 810h658l-32 -132h-384l4 -14l-44 -179l-18 -14h343l-33 -132h-342l10 -14l-44 -179l-17 -14h390l-33 -132h-520l44 179l14 14h-290l4 -13l-127 -180h-157zM324 325h225l-7 14l80 325l11 14h-69l3 -14l-230 -329zM620 930l237 217l65 -87l-261 -186z" />
<glyph unicode="&#x1fd;" horiz-adv-x="1196" d="M63 314q36 146 136 236t247 90q56 0 99.5 -18t65.5 -49h2l14 57h141l-11 -42h2q82 52 169 52q148 0 202.5 -91.5t18.5 -238.5q-2 -6 -4 -12.5t-5.5 -18.5t-7.5 -25h-480l12 -15q3 -125 139 -125q88 0 182 73l71 -90q-138 -107 -284 -107q-93 0 -148 49h-2l-10 -40h-141 l13 52h-2q-80 -61 -197 -61q-145 0 -201.5 89.5t-20.5 234.5zM203 314q-48 -199 128 -199q91 0 147 53t79 146q50 201 -127 201q-176 0 -227 -201zM599 751l238 217l64 -87l-261 -186zM686 376h351l-9 14q-5 125 -130 125q-129 0 -195 -125z" />
<glyph unicode="&#x1fe;" horiz-adv-x="910" d="M63 -32l70 87l15 8q-120 108 -64 337q47 188 179.5 304t324.5 116q84 0 152 -25l5 15l42 52l66 -47l-37 -46l-15 -9q145 -109 84 -360q-46 -186 -179 -298t-323 -112q-110 0 -181 37l-1 -17l-71 -88zM230 400q-34 -142 21 -214l5 21l374 461l15 7q-33 13 -90 13 q-128 0 -210 -78.5t-115 -209.5zM302 145q44 -23 114 -23q130 0 210.5 75.5t111.5 202.5q42 163 -35 240l-4 -16l-379 -468zM488 930l238 217l64 -87l-260 -186z" />
<glyph unicode="&#x1ff;" horiz-adv-x="698" d="M32 -23l54 66l16 9q-84 86 -39 263q36 146 133.5 235.5t240.5 89.5q77 0 123 -25l5 15l53 66l67 -46l-55 -66l-14 -7q77 -95 36 -262q-36 -145 -133.5 -235t-239.5 -90q-76 0 -123 22l-3 -16l-55 -66zM192 315q-22 -97 5 -145l11 23l244 300l18 10q-24 11 -64 11 q-83 0 -136.5 -53t-77.5 -146zM249 126q19 -10 59 -10q83 0 137 53t78 146q21 89 -3 142l-9 -20l-242 -297zM347 751l238 217l65 -87l-261 -186z" />
<glyph unicode="&#x218;" horiz-adv-x="817" d="M13 133l128 103q57 -63 111.5 -88.5t127.5 -25.5q102 0 159 30t68 73q8 30 -17.5 58t-93.5 46q-22 6 -68 19q-30 8 -46 12t-44.5 12.5t-44 15t-39.5 17t-36.5 20.5t-29 23t-24 27.5t-14 32t-6 38.5t6.5 44q24 98 128.5 164t266.5 66q202 0 302 -136l-128 -104 q-68 108 -206 108q-101 0 -154 -28.5t-62 -65.5q-7 -30 24.5 -52t126.5 -49q11 -3 121 -34q113 -30 158.5 -89.5t26.5 -138.5q-26 -102 -129 -171.5t-275 -69.5q-230 0 -338 143zM221 -287l57 69l21 13q-61 10 -44 79q21 81 97 81q77 0 58 -81q-6 -24 -26 -49l-116 -143z " />
<glyph unicode="&#x219;" horiz-adv-x="679" d="M11 105l123 99q27 -42 73.5 -66t98.5 -24q73 0 109.5 20.5t42.5 44.5q2 11 0.5 21t-20.5 21t-56 21q-52 13 -103 30q-28 8 -49.5 16t-44 19.5t-36.5 25t-25.5 32t-12 40t4.5 49.5q20 80 104.5 133t211.5 53q164 0 245 -99l-121 -97q-52 71 -155 71q-48 0 -82 -12t-46 -24 t-15 -23q-5 -20 17 -32t87 -30q64 -21 93 -28q178 -50 146 -183q-20 -83 -104 -138.5t-218 -55.5q-81 0 -152.5 30.5t-115.5 85.5zM145 -287l57 69l20 13q-60 10 -43 79q19 81 97 81q77 0 58 -81q-7 -23 -26 -49l-116 -143z" />
<glyph unicode="&#x21a;" horiz-adv-x="738" d="M118 678l32 132h698l-32 -132h-285l4 -14l-164 -664h-143l164 664l11 14h-285zM163 -287l56 69l21 13q-60 10 -43 79q19 81 97 81q38 0 52.5 -21t4.5 -60q-6 -24 -26 -49l-115 -143z" />
<glyph unicode="&#x21b;" horiz-adv-x="514" d="M64 -287l56 69l21 13q-60 10 -43 79q19 81 97 81q38 0 52.5 -21t4.5 -60q-6 -24 -26 -49l-115 -143zM87 511l29 118h86l-5 14l22 86l159 77l-40 -163l-11 -14h195l-29 -118h-196l5 -14l-72 -290q-10 -44 2.5 -68t45.5 -24q49 0 111 52l65 -88q-106 -89 -213 -89 q-101 0 -139.5 55t-12.5 161l72 291l12 14h-86z" />
<glyph unicode="&#x2c6;" horiz-adv-x="748" d="M293 752l244 195h2l145 -195l-68 -56l-113 116l-169 -116z" />
<glyph unicode="&#x2c7;" horiz-adv-x="688" d="M289 891l69 56l112 -115l169 115l41 -56l-243 -195h-2z" />
<glyph unicode="&#x2d8;" horiz-adv-x="688" d="M287 852h99q14 -68 84 -68t118 68h99q-86 -157 -239 -157q-155 0 -161 157z" />
<glyph unicode="&#x2d9;" horiz-adv-x="436" d="M269 793q9 39 35 62t63 23t51.5 -23t4.5 -62q-9 -39 -35 -62t-63 -23t-51.5 23t-4.5 62z" />
<glyph unicode="&#x2da;" horiz-adv-x="738" d="M377 817q13 55 51.5 88.5t95.5 33.5t79 -33.5t9 -88.5q-13 -54 -52 -88t-96 -34t-78.5 33.5t-8.5 88.5zM446 817q-6 -24 3 -38.5t32 -14.5q49 0 61 53q6 24 -2.5 38.5t-32.5 14.5q-47 0 -61 -53z" />
<glyph unicode="&#x2db;" horiz-adv-x="910" d="M274 -176q11 53 58 92l114 97l84 -11l-146 -129q-14 -13 -18 -30q-3 -15 5.5 -26.5t22.5 -10.5q14 2 25 10q7 7 31 26l36 -49q-5 -4 -21.5 -19.5t-24 -20.5t-22 -14.5t-29 -13.5t-32.5 -5q-43 -2 -68 28.5t-15 75.5z" />
<glyph unicode="&#x2dc;" horiz-adv-x="738" d="M242 767q24 47 74.5 83t100.5 36q24 0 46.5 -11t46 -29t36.5 -24q20 -11 36 -11q56 0 101 78l44 -58q-29 -53 -78.5 -86t-99.5 -33q-23 0 -45 10.5t-46.5 29t-35.5 24.5q-19 11 -38 11q-52 0 -100 -77z" />
<glyph unicode="&#x2dd;" horiz-adv-x="698" d="M279 734l182 172l62 -84l-205 -140zM485 734l181 172l63 -84l-205 -140z" />
<glyph unicode="&#x3c0;" horiz-adv-x="707" d="M33 0l121 488l10 13h-90l32 128h667l-31 -128h-90l4 -13l-121 -488h-130l120 488l10 13h-254l3 -13l-120 -488h-131z" />
<glyph unicode="&#x1e02;" horiz-adv-x="829" d="M20 0l200 810h392q128 0 181.5 -66t29.5 -163q-25 -105 -116 -157v-2q48 -16 66 -65.5t1 -116.5q-28 -112 -121 -176t-232 -64h-401zM182 132h271q81 0 121.5 27t53.5 81q13 53 -15.5 81.5t-106.5 28.5h-270l10 -14l-47 -190zM269 482h252q130 0 156 99q12 49 -13 73 t-95 24h-252l10 -14l-41 -168zM485 970q10 39 35.5 62.5t62.5 23.5t51.5 -23.5t5.5 -62.5q-10 -38 -36 -61.5t-63 -23.5t-51 23t-5 62z" />
<glyph unicode="&#x1e03;" d="M20 -1l207 841h141l-66 -267h2q80 67 198 67q146 0 202 -90t20 -236q-36 -145 -137 -234.5t-246 -89.5q-116 0 -166 61h-2l-13 -52h-140zM230 314q-48 -194 129 -194q176 0 225 194q48 195 -129 195q-176 0 -225 -195zM461 792q9 39 35 62.5t63 23.5t51.5 -23.5 t5.5 -62.5q-10 -38 -36 -61.5t-63 -23.5t-51.5 23t-4.5 62z" />
<glyph unicode="&#x1e0a;" horiz-adv-x="864" d="M20 0l200 810h327q393 0 293 -405q-15 -62 -36 -114.5t-60 -108.5t-90 -94t-128.5 -63t-173.5 -25h-332zM182 132h193q79 0 135.5 20t92 60t55.5 84.5t36 108.5q12 50 16 87.5t-3.5 74t-29 59.5t-65 37.5t-107.5 14.5h-188l10 -14l-128 -518zM495 970q9 39 35 62.5 t63 23.5t51.5 -23.5t5.5 -62.5q-10 -38 -36 -61.5t-63 -23.5t-51.5 23t-4.5 62z" />
<glyph unicode="&#x1e0b;" d="M63 314q36 146 136 236t247 90q56 0 99.5 -18t65.5 -49h2l66 267h140l-207 -841h-141l13 52h-2q-80 -61 -197 -61q-145 0 -201.5 89.5t-20.5 234.5zM203 314q-48 -199 128 -199q91 0 147 53t79 146q50 201 -127 201q-176 0 -227 -201zM407 792q10 39 36 62.5t63 23.5 t51.5 -23.5t4.5 -62.5q-9 -38 -35 -61.5t-63 -23.5t-51.5 23t-5.5 62z" />
<glyph unicode="&#x1e1e;" horiz-adv-x="738" d="M20 0l200 810h618l-32 -132h-489l10 -14l-49 -198l-17 -14h442l-33 -132h-441l10 -14l-76 -306h-143zM499 970q9 39 35 62.5t63 23.5t51.5 -23.5t5.5 -62.5q-10 -38 -36 -61.5t-63 -23.5t-51.5 23t-4.5 62z" />
<glyph unicode="&#x1e1f;" horiz-adv-x="457" d="M-198 -191l32 130q50 -27 104 -27q45 0 70 21.5t38 72.5l121 492l11 14h-91l29 117h91l-4 14q21 86 95 144t179 58q59 0 96 -17l-30 -121q-39 17 -86 17q-45 0 -74.5 -21.5t-38.5 -59.5l-10 -14h190l-29 -117l-191 -1l4 -14l-123 -497q-54 -215 -267 -215q-69 0 -116 24z M390 982q9 39 35 62.5t63 23.5t51.5 -23.5t5.5 -62.5q-10 -38 -36 -61.5t-63 -23.5t-51.5 23t-4.5 62z" />
<glyph unicode="&#x1e40;" horiz-adv-x="1014" d="M20 -1l200 811h119l144 -468l16 -98h2l62 98l377 468h116l-200 -811h-144l124 501h-2l-55 -86l-342 -425h-4l-133 425l-12 84h-2l-123 -499h-143zM599 970q9 39 35 62.5t63 23.5t51.5 -23.5t5.5 -62.5q-10 -38 -36 -61.5t-63 -23.5t-51.5 23t-4.5 62z" />
<glyph unicode="&#x1e41;" horiz-adv-x="1044" d="M20 0l155 631h142l-12 -48h2q71 57 159 57q56 0 95.5 -28t51.5 -73h2q38 44 94.5 72.5t110.5 28.5q114 0 154 -70t8 -200l-92 -370h-141l86 348q24 82 12.5 124.5t-74.5 42.5q-57 0 -98.5 -39.5t-56.5 -100.5l-92 -375h-142l92 370q20 71 6 108t-74 37q-51 0 -95.5 -39.5 t-59.5 -101.5l-92 -374h-141zM575 792q9 39 35 62.5t63 23.5t51.5 -23.5t4.5 -62.5q-9 -38 -35 -61.5t-63 -23.5t-51.5 23t-4.5 62z" />
<glyph unicode="&#x1e56;" horiz-adv-x="814" d="M20 0l200 810h391q135 0 194 -71.5t31 -187.5q-28 -112 -123.5 -185.5t-230.5 -73.5h-260l10 -14l-69 -278h-143zM254 424h260q73 0 117 34.5t58 92.5q16 61 -11 94t-100 33h-261l10 -14l-56 -226zM495 970q9 39 35 62.5t63 23.5t51.5 -23.5t5.5 -62.5q-10 -38 -36 -61.5 t-63 -23.5t-51.5 23t-4.5 62z" />
<glyph unicode="&#x1e57;" d="M-32 -211l207 841h141l-13 -52h2q81 62 197 62q145 0 202 -90t21 -234q-37 -147 -137 -237t-247 -90q-117 0 -165 67h-2l-66 -267h-140zM229 312q-47 -197 128 -197q178 0 226 197q24 94 -5.5 148.5t-121.5 54.5q-90 0 -146.5 -54.5t-80.5 -148.5zM455 792q9 39 35 62.5 t63 23.5t51.5 -23.5t5.5 -62.5q-10 -38 -36 -61.5t-63 -23.5t-51.5 23t-4.5 62z" />
<glyph unicode="&#x1e60;" horiz-adv-x="817" d="M13 133l128 103q57 -63 111.5 -88.5t127.5 -25.5q102 0 159 30t68 73q8 30 -17.5 58t-93.5 46q-22 6 -68 19q-30 8 -46 12t-44.5 12.5t-44 15t-39.5 17t-36.5 20.5t-29 23t-24 27.5t-14 32t-6 38.5t6.5 44q24 98 128.5 164t266.5 66q202 0 302 -136l-128 -104 q-68 108 -206 108q-101 0 -154 -28.5t-62 -65.5q-7 -30 24.5 -52t126.5 -49q11 -3 121 -34q113 -30 158.5 -89.5t26.5 -138.5q-26 -102 -129 -171.5t-275 -69.5q-230 0 -338 143zM502 970q9 39 35 62.5t63 23.5t51.5 -23.5t5.5 -62.5q-10 -38 -36 -61.5t-63 -23.5t-51.5 23 t-4.5 62z" />
<glyph unicode="&#x1e61;" horiz-adv-x="679" d="M11 105l123 99q27 -42 73.5 -66t98.5 -24q73 0 109.5 20.5t42.5 44.5q2 11 0.5 21t-20.5 21t-56 21q-52 13 -103 30q-28 8 -49.5 16t-44 19.5t-36.5 25t-25.5 32t-12 40t4.5 49.5q20 80 104.5 133t211.5 53q164 0 245 -99l-121 -97q-52 71 -155 71q-48 0 -82 -12t-46 -24 t-15 -23q-5 -20 17 -32t87 -30q64 -21 93 -28q178 -50 146 -183q-20 -83 -104 -138.5t-218 -55.5q-81 0 -152.5 30.5t-115.5 85.5zM392 792q9 39 35 62.5t63 23.5t51.5 -23.5t4.5 -62.5q-9 -38 -35 -61.5t-63 -23.5t-51.5 23t-4.5 62z" />
<glyph unicode="&#x1e6a;" horiz-adv-x="738" d="M118 678l32 132h698l-32 -132h-285l4 -14l-164 -664h-143l164 664l11 14h-285zM465 970q10 39 36 62.5t63 23.5t51 -23.5t5 -62.5q-10 -38 -36 -61.5t-63 -23.5t-51 23t-5 62z" />
<glyph unicode="&#x1e6b;" horiz-adv-x="514" d="M87 511l29 118h86l-5 14l22 86l159 77l-40 -163l-11 -14h195l-29 -118h-196l5 -14l-72 -290q-10 -44 2.5 -68t45.5 -24q49 0 111 52l65 -88q-106 -89 -213 -89q-101 0 -139.5 55t-12.5 161l72 291l12 14h-86zM256 913q10 39 35.5 62.5t62.5 23.5t51.5 -23.5t5.5 -62.5 q-10 -38 -36 -61.5t-63 -23.5t-51 23t-5 62z" />
<glyph unicode="&#x1e80;" horiz-adv-x="1095" d="M155 810h153l13 -524l-6 -83h2l34 83l274 524h107l16 -524l-6 -81h2l34 81l273 524h150l-427 -810h-161l-12 440l6 87h-2l-37 -87l-230 -440h-156zM601 1061l108 87l131 -217l-70 -56z" />
<glyph unicode="&#x1e81;" horiz-adv-x="929" d="M101 630h148l8 -370l-7 -87h2l36 87l203 370h119l21 -370l-6 -87h2l35 87l191 370h147l-342 -630h-138l-22 338l6 99h-2l-42 -99l-188 -338h-141zM468 881l107 87l131 -217l-69 -56z" />
<glyph unicode="&#x1e82;" horiz-adv-x="1095" d="M155 810h153l13 -524l-6 -83h2l34 83l274 524h107l16 -524l-6 -81h2l34 81l273 524h150l-427 -810h-161l-12 440l6 87h-2l-37 -87l-230 -440h-156zM590 930l238 217l64 -87l-260 -186z" />
<glyph unicode="&#x1e83;" horiz-adv-x="929" d="M101 630h148l8 -370l-7 -87h2l36 87l203 370h119l21 -370l-6 -87h2l35 87l191 370h147l-342 -630h-138l-22 338l6 99h-2l-42 -99l-188 -338h-141zM443 751l238 217l65 -87l-261 -186z" />
<glyph unicode="&#x1e84;" horiz-adv-x="1095" d="M155 810h153l13 -524l-6 -83h2l34 83l274 524h107l16 -524l-6 -81h2l34 81l273 524h150l-427 -810h-161l-12 440l6 87h-2l-37 -87l-230 -440h-156zM524 976q8 35 31 55.5t56 20.5t45.5 -20.5t4.5 -55.5q-8 -34 -31.5 -55t-55.5 -21q-33 0 -45.5 20.5t-4.5 55.5zM774 976 q8 35 31.5 55.5t56.5 20.5t45.5 -20.5t4.5 -55.5t-31.5 -55.5t-56.5 -20.5t-45.5 20.5t-4.5 55.5z" />
<glyph unicode="&#x1e85;" horiz-adv-x="929" d="M101 630h148l8 -370l-7 -87h2l36 87l203 370h119l21 -370l-6 -87h2l35 87l191 370h147l-342 -630h-138l-22 338l6 99h-2l-42 -99l-188 -338h-141zM394 783q8 35 31 55.5t56 20.5q34 0 46.5 -20.5t3.5 -55.5q-8 -34 -31.5 -55t-55.5 -21q-33 0 -45.5 20.5t-4.5 55.5z M644 783q9 35 32 55.5t56 20.5t45.5 -20.5t4.5 -55.5t-31.5 -55.5t-56.5 -20.5t-45.5 20.5t-4.5 55.5z" />
<glyph unicode="&#x1ef2;" horiz-adv-x="870" d="M145 810h180l125 -270l28 -83h2l68 83l259 270h179l-465 -474l-83 -336h-144l83 336zM473 1061l107 87l131 -217l-69 -56z" />
<glyph unicode="&#x1ef3;" horiz-adv-x="730" d="M-39 -182l33 136q66 -40 120 -40q57 0 124 98l-137 618h156l80 -383l7 -90h2l49 90l251 383h156l-467 -692q-47 -70 -110.5 -111.5t-130.5 -41.5q-76 0 -133 33zM342 881l107 87l131 -217l-69 -56z" />
<glyph unicode="&#x2000;" horiz-adv-x="641" />
<glyph unicode="&#x2001;" horiz-adv-x="1282" />
<glyph unicode="&#x2002;" horiz-adv-x="641" />
<glyph unicode="&#x2003;" horiz-adv-x="1282" />
<glyph unicode="&#x2004;" horiz-adv-x="427" />
<glyph unicode="&#x2005;" horiz-adv-x="320" />
<glyph unicode="&#x2006;" horiz-adv-x="213" />
<glyph unicode="&#x2007;" horiz-adv-x="213" />
<glyph unicode="&#x2008;" horiz-adv-x="160" />
<glyph unicode="&#x2009;" horiz-adv-x="256" />
<glyph unicode="&#x200a;" horiz-adv-x="71" />
<glyph unicode="&#x2010;" horiz-adv-x="411" d="M27 270l32 130h352l-33 -130h-351z" />
<glyph unicode="&#x2011;" horiz-adv-x="411" d="M27 270l32 130h352l-33 -130h-351z" />
<glyph unicode="&#x2012;" horiz-adv-x="411" d="M27 270l32 130h352l-33 -130h-351z" />
<glyph unicode="&#x2013;" horiz-adv-x="608" d="M27 270l32 130h549l-32 -130h-549z" />
<glyph unicode="&#x2014;" horiz-adv-x="880" d="M27 270l32 130h821l-32 -130h-821z" />
<glyph unicode="&#x2018;" horiz-adv-x="247" d="M117 573q6 26 32 64l126 188l56 -26l-85 -127l-17 -14q26 -4 40.5 -27t5.5 -58q-10 -40 -36.5 -63.5t-64.5 -23.5t-52.5 23.5t-4.5 63.5z" />
<glyph unicode="&#x2019;" horiz-adv-x="247" d="M100 507l85 127l17 13q-27 5 -41 27.5t-5 58.5q10 39 36.5 63t64.5 24t52.5 -23.5t4.5 -63.5q-6 -26 -32 -64l-126 -188z" />
<glyph unicode="&#x201a;" horiz-adv-x="247" d="M-62 -152l84 127l17 13q-27 5 -41 27.5t-5 58.5q10 39 36.5 63t64.5 24t52.5 -23.5t5.5 -63.5q-7 -26 -32 -64l-126 -188z" />
<glyph unicode="&#x201c;" horiz-adv-x="445" d="M117 573q6 26 32 64l126 188l56 -26l-85 -127l-17 -14q26 -4 40.5 -27t5.5 -58q-10 -40 -36.5 -63.5t-64.5 -23.5t-52.5 23.5t-4.5 63.5zM314 573q7 26 32 64l127 188l55 -26l-84 -127l-17 -14q26 -4 40.5 -27t5.5 -58q-10 -40 -36.5 -63.5t-64.5 -23.5t-52.5 23.5 t-5.5 63.5z" />
<glyph unicode="&#x201d;" horiz-adv-x="445" d="M100 507l85 127l17 13q-27 5 -41 27.5t-5 58.5q10 39 36.5 63t64.5 24t52.5 -23.5t4.5 -63.5q-6 -26 -32 -64l-126 -188zM298 507l85 127l17 13q-27 5 -41 27.5t-5 58.5q10 39 36.5 63t63.5 24q38 0 53 -23.5t5 -63.5q-6 -26 -32 -64l-126 -188z" />
<glyph unicode="&#x201e;" horiz-adv-x="445" d="M-62 -152l84 127l17 13q-27 5 -41 27.5t-5 58.5q10 39 36.5 63t64.5 24t52.5 -23.5t5.5 -63.5q-7 -26 -32 -64l-126 -188zM135 -152l85 127l17 13q-27 5 -41 27.5t-5 58.5q10 39 36.5 63t64.5 24t52.5 -23.5t4.5 -63.5q-6 -26 -32 -64l-126 -188z" />
<glyph unicode="&#x2020;" horiz-adv-x="613" d="M105 464l33 135l191 -11l43 222h130l-67 -222l197 11l-33 -135l-192 13l-151 -657h-128l174 657z" />
<glyph unicode="&#x2021;" horiz-adv-x="608" d="M-3 31l33 135l193 -13l79 323l-197 -12l33 135l191 -11l43 221h129l-66 -221l197 11l-33 -135l-193 12l-80 -323l198 13l-33 -135l-191 11l-43 -221h-129l66 221z" />
<glyph unicode="&#x2022;" horiz-adv-x="410" d="M31 405q17 67 75 114.5t125 47.5t102.5 -47.5t18.5 -114.5q-17 -68 -75.5 -115.5t-125.5 -47.5t-102 48t-18 115z" />
<glyph unicode="&#x2026;" horiz-adv-x="856" d="M10 80q10 41 37 65.5t67 24.5q39 0 54 -24.5t5 -65.5t-37.5 -65.5t-66.5 -24.5t-54 24.5t-5 65.5zM292 80q10 41 37.5 65.5t66.5 24.5q40 0 55 -24.5t4 -65.5q-10 -41 -37.5 -65.5t-66.5 -24.5t-54 24.5t-5 65.5zM574 80q10 41 37.5 65.5t66.5 24.5q40 0 55 -24.5 t4 -65.5q-10 -41 -37.5 -65.5t-65.5 -24.5q-39 0 -54.5 24.5t-5.5 65.5z" />
<glyph unicode="&#x202f;" horiz-adv-x="256" />
<glyph unicode="&#x2030;" horiz-adv-x="1350" d="M77 592q24 97 89.5 163t157.5 66q93 0 126 -65t9 -164q-25 -98 -89 -161t-158 -63q-93 0 -126 63t-9 161zM173 -10l492 830h112l-492 -830h-112zM194 592q-29 -116 45 -116t103 116q29 121 -44 121q-74 0 -104 -121zM490 214q24 97 90 163t157 66q93 0 126 -65.5 t8 -163.5q-24 -98 -88 -161t-158 -63q-93 0 -126 63t-9 161zM607 214q-29 -116 45 -116t102 116q31 121 -43 121t-104 -121zM916 214q24 97 90 163t157 66q92 0 125 -65.5t9 -163.5t-88 -161t-158 -63q-93 0 -126.5 63t-8.5 161zM1033 214q-29 -116 44 -116q75 0 103 116 q31 121 -44 121q-74 0 -103 -121z" />
<glyph unicode="&#x2039;" horiz-adv-x="419" d="M48 255l274 218l67 -93l-107 -88l-62 -38l44 -36l64 -88l-114 -93z" />
<glyph unicode="&#x203a;" horiz-adv-x="419" d="M17 130l107 88q45 27 62 36l-43 38l-64 88l114 93l166 -218l-274 -218z" />
<glyph unicode="&#x2044;" horiz-adv-x="292" d="M-121 -10l494 830h102l-494 -830h-102z" />
<glyph unicode="&#x204a;" horiz-adv-x="516" d="M90 505l31 125h427l-23 -93l-141 -232q-27 -47 -47 -122l-45 -184h-138l48 192q20 87 58 149l59 99l48 66h-277z" />
<glyph unicode="&#x205f;" horiz-adv-x="320" />
<glyph unicode="&#x20ac;" horiz-adv-x="734" d="M34 260l27 108h73l-5 12q2 10 6.5 28l5.5 22l12 12h-74l27 108h90l-3 12q63 121 157.5 189.5t208.5 68.5q171 0 226 -131l-117 -98q-25 100 -141 100q-113 0 -194 -129l-15 -12h258l-26 -108h-280l3 -12l-5.5 -22t-6.5 -28l-10 -12h280l-26 -108h-262l9 -13 q7 -60 40.5 -94t92.5 -34q110 0 190 100l69 -97q-121 -132 -291 -132q-117 0 -178.5 69t-60.5 188l7 13h-87z" />
<glyph unicode="&#x20b9;" horiz-adv-x="789" d="M131 530l105 107h245q-19 67 -97 67h-209l104 106h571l-103 -106h-108q14 -30 11 -67h156l-101 -107h-78q-22 -54 -68.5 -99t-106.5 -71l-1 -2q19 -11 37 -34t26 -52l70 -272h-161l-54 214q-14 55 -50 83t-106 28h-47l28 111h113q59 0 105 27.5t70 66.5h-351z" />
<glyph unicode="&#x2105;" horiz-adv-x="1097" d="M129 584q25 101 100.5 168.5t177.5 67.5q105 0 160 -77l-95 -75q-33 48 -90 48q-54 0 -92 -36t-53 -96q-14 -59 4.5 -92.5t75.5 -33.5t121 54l59 -74q-102 -84 -206 -84q-107 0 -147 64t-15 166zM274 -10l492 830h109l-492 -830h-109zM590 219q25 103 97.5 168t178.5 65 t146.5 -64.5t14.5 -168.5q-25 -102 -98 -167.5t-178 -65.5q-106 0 -146 65t-15 168zM698 219q-15 -61 4.5 -95t74.5 -34t91 34t51 95t-3.5 95t-74.5 34q-110 0 -143 -129z" />
<glyph unicode="&#x2116;" horiz-adv-x="1460" d="M20 0l200 810h133l219 -491l26 -94h2l144 585h144l-200 -810h-133l-219 492l-25 98h-2l-146 -590h-143zM795 0l27 107h468l-27 -107h-468zM870 450q33 131 120 211.5t223 80.5q137 0 184.5 -80t14.5 -212q-32 -131 -119.5 -212t-223.5 -81q-93 0 -146 39.5t-62 104.5 t9 149zM999 450q-43 -174 99 -174q77 0 121 44.5t65 129.5q43 174 -100 174q-77 0 -120.5 -44.5t-64.5 -129.5z" />
<glyph unicode="&#x2122;" horiz-adv-x="869" d="M145 747l15 62h354l-15 -62h-149l3 -9l-83 -334h-66l82 333l8 10h-149zM456 404l100 405h60v-6l71 -257l3 -31l19 31l202 263h58l-100 -405h-67l63 253l-15 -25l-182 -233h-13l-68 236l-2 21l-62 -252h-67z" />
<glyph unicode="&#x2126;" horiz-adv-x="878" d="M-7 0l32 131h113q-87 106 -44 282q19 78 66 152t110.5 130t142.5 90t159 34q106 0 178.5 -58t97.5 -150.5t-1 -196.5q-43 -177 -180 -289q19 3 47 4.5t46 1.5h18l-32 -131h-332l28 116q110 35 179 112.5t95 182.5q27 110 -22.5 190.5t-154.5 80.5q-109 0 -198 -79 t-117 -193q-25 -102 8 -184.5t124 -109.5l-29 -116h-334z" />
<glyph unicode="&#x2153;" horiz-adv-x="877" d="M94 -10l493 830h103l-494 -830h-102zM132 694l147 116h87l-113 -455h-96l72 289l20 53l-40 -41l-30 -26zM402 75l87 68q21 -35 43 -49t56 -14q46 0 71 16.5t29 33.5q5 22 -9 38t-54 19l-77 3l20 83q62 1 76 2q71 8 84 50q6 37 -69 37q-34 0 -61.5 -13t-64.5 -47l-54 69 q97 83 203 83q85 0 121 -36.5t22 -91.5q-5 -23 -28 -50t-49 -40l-1 -2q56 -32 39 -102q-14 -58 -73 -100.5t-147 -42.5q-56 0 -94.5 20t-69.5 66z" />
<glyph unicode="&#x2154;" horiz-adv-x="1026" d="M77 361l22 89q13 53 53 97.5t104 65.5l59 18q67 22 75 51q4 17 -6.5 29t-47.5 12q-28 0 -54 -13.5t-64 -50.5l-53 70q96 86 194 86q78 0 110.5 -38.5t18.5 -94.5q-25 -97 -153 -137l-69 -22q-51 -17 -66 -59l-12 -11h243l-23 -92h-331zM242 -10l494 830h102l-493 -830 h-103zM551 75l87 68q20 -35 42 -49t57 -14q46 0 71 16.5t29 33.5q5 22 -9 38t-55 19l-77 3l21 83q61 1 75 2q41 5 61 20t23 30q0 4 0.5 8.5t-3.5 9.5t-11 9.5t-21 7t-34 2.5q-61 0 -126 -60l-53 69q97 83 202 83q85 0 121 -36t23 -92q-6 -24 -29 -50.5t-49 -39.5v-2 q55 -33 39 -102q-15 -58 -73.5 -100.5t-146.5 -42.5q-108 0 -164 86z" />
<glyph unicode="&#x2202;" horiz-adv-x="646" d="M57 292q33 133 122 216.5t217 83.5q93 0 143 -59q6 183 -112 183q-78 0 -166 -72l-68 96q140 105 266 105q52 0 89.5 -15.5t59 -40.5t33 -64t13 -78t-4.5 -90t-14.5 -93.5t-21.5 -95.5q-93 -376 -365 -376q-128 0 -176 83.5t-15 216.5zM186 292q-20 -81 2 -129.5 t91 -48.5q70 0 115 48t66 130q20 82 -2 130t-92 48t-114.5 -47.5t-65.5 -130.5z" />
<glyph unicode="&#x2206;" horiz-adv-x="941" d="M-30 0l568 810h118l176 -810h-862zM206 132h460l-10 14l-96 432l-5 54l-32 -54l-303 -434z" />
<glyph unicode="&#x220f;" horiz-adv-x="822" d="M29 -211l216 874l11 13h-104l33 133h713l-33 -133h-103l3 -13l-216 -874h-134l216 874l11 13h-266l3 -13l-216 -874h-134z" />
<glyph unicode="&#x2211;" horiz-adv-x="739" d="M-67 -210l29 115l439 417q-13 17 -74 110t-115 178l-55 84l28 115h618l-32 -131h-429l43 -56l192 -303l-348 -329l-80 -66l447 -1l-32 -133h-631z" />
<glyph unicode="&#x2212;" horiz-adv-x="688" d="M104 340l32 130h510l-32 -130h-510z" />
<glyph unicode="&#x221a;" horiz-adv-x="677" d="M0 282l32 129h231l21 -312q35 77 138.5 282t189.5 371l85 167h137l-523 -1010h-150l-29 373h-132z" />
<glyph unicode="&#x221e;" horiz-adv-x="867" d="M91 409q20 82 84 137t146 55q55 0 92 -30.5t68 -86.5q59 57 111 87t111 30q83 0 120 -54.5t16 -137.5t-84.5 -138.5t-145.5 -55.5q-56 0 -92.5 31t-65.5 87q-127 -118 -224 -118q-84 0 -120.5 55t-15.5 139zM194 408q-9 -38 9.5 -66.5t56.5 -28.5q34 0 74 29t72 67 q-47 94 -100 94q-38 0 -70 -28t-42 -67zM532 411q29 -98 92 -98q37 0 69 28t42 67t-8.5 67t-56.5 28q-48 0 -112 -64q-10 -10 -26 -28z" />
<glyph unicode="&#x222b;" horiz-adv-x="463" d="M-98 -177l52 101q38 -12 51 -12q30 0 50 10t32 32.5t19 44t15 58.5q2 9 3 14l146 591q9 38 23 86q25 86 81.5 135.5t141.5 49.5q42 0 85 -30l-52 -99q-32 19 -50 19q-36 0 -56.5 -15.5t-34.5 -51.5q-14 -48 -35 -135l-129 -525q-30 -116 -41 -141q-60 -147 -212 -147 q-30 0 -89 15z" />
<glyph unicode="&#x2248;" horiz-adv-x="688" d="M67 268q31 57 83.5 92t115.5 35q34 0 70.5 -20.5t68.5 -41.5t55 -21q63 0 108 87l58 -79q-33 -58 -85.5 -91.5t-114.5 -33.5q-34 0 -69.5 20.5t-67.5 41.5t-58 21q-60 0 -107 -87zM124 498q30 57 83 92t116 35q34 0 70 -20.5t68 -41.5t56 -21q63 0 108 87l57 -79 q-33 -58 -85.5 -91.5t-114.5 -33.5q-34 0 -69.5 20.5t-67.5 41.5t-58 21q-59 0 -106 -87z" />
<glyph unicode="&#x2260;" horiz-adv-x="688" d="M74 219l32 129h175l-1 16l63 84l17 13h-226l31 129h290l3 14l63 85h131l-64 -86l-17 -13h104l-31 -129h-169l-1 -14l-64 -84l-16 -15h222l-32 -129h-292l1 -14l-63 -85h-131l64 86l15 13h-104z" />
<glyph unicode="&#x2264;" horiz-adv-x="519" d="M-3 10l32 130h355l-33 -130h-354zM104 481l367 319l64 -94l-224 -190l-35 -25l22 -25l131 -190l-110 -94z" />
<glyph unicode="&#x2265;" horiz-adv-x="519" d="M34 10l32 130h355l-32 -130h-355zM88 276l224 190l35 25l-23 25l-130 190l111 94l209 -319l-362 -299z" />
<glyph unicode="&#x25ca;" horiz-adv-x="791" d="M83 405l454 446l233 -446l-453 -445zM244 405l125 -234l239 234l-123 235z" />
<glyph unicode="&#x25fc;" horiz-adv-x="630" d="M0 0v630h630v-630h-630z" />
<glyph unicode="&#xf8ff;" horiz-adv-x="827" d="M0 0v810h306l-281 -403l283 -407h-308zM364 407l280 403h183v-810h-181z" />
<glyph unicode="&#xfb01;" horiz-adv-x="774" d="M-198 -191l32 130q50 -27 104 -27q45 0 70 21.5t38 72.5l121 492l11 14h-91l29 117h91l-4 14q21 86 95 144t179 58q59 0 96 -17l-30 -121q-39 17 -86 17q-45 0 -74.5 -21.5t-38.5 -59.5l-10 -14l437 1v-1q-30 -125 -89.5 -364.5t-65.5 -264.5h-141l126 511h-297l4 -14 l-123 -497q-54 -215 -267 -215q-69 0 -116 24zM656 764q9 36 36.5 58.5t62.5 22.5t51 -22.5t8 -58.5q-9 -35 -37 -58t-62 -23q-35 0 -51 22.5t-8 58.5z" />
<glyph unicode="&#xfb02;" horiz-adv-x="764" d="M-198 -191l32 130q50 -27 104 -27q45 0 70 21.5t38 72.5l121 492l11 14h-91l29 117h91l-4 14q21 86 94 141t178 55l338 1l-207 -840h-141l178 719l-187 1q-94 0 -112 -77l-10 -14h190l-29 -117l-191 -1l4 -14l-123 -497q-54 -215 -267 -215q-69 0 -116 24z" />
</font>
</defs>
</svg>
